<svg width="89" height="89" viewBox="0 0 89 89" fill="none" xmlns="http://www.w3.org/2000/svg">
<g opacity="0.65">
<path d="M34.1442 24.2073C43.2908 23.2022 51.7312 26.2236 57.4474 33.612C58.0931 34.4592 59.5717 33.6221 58.9103 32.762C53.1432 25.1474 43.4569 21.0483 34.0154 23.1798C33.42 23.2955 33.5432 24.2657 34.1442 24.2073Z" fill="white"/>
<path d="M32.4852 23.2067C28.4226 27.9207 25.5217 35.2227 27.0267 41.4896C27.2459 42.4071 28.5484 42.136 28.608 41.2635C28.9188 34.8056 29.6393 29.7379 33.7164 24.4303C34.3854 23.5853 33.24 22.3533 32.4852 23.2067Z" fill="white"/>
<path d="M26.9997 42.4905C32.7256 48.9391 43.6495 54.03 52.3411 51.4659C53.1543 51.2135 52.9184 50.1242 52.1318 50.0563C47.8941 49.7028 43.8709 49.9208 39.7289 48.6191C35.1981 47.182 31.4985 44.6385 27.988 41.5133C27.323 40.9135 26.415 41.8251 26.9997 42.4905Z" fill="white"/>
<path d="M56.7811 32.552C56.092 35.5657 55.5201 38.5968 54.4608 41.5164C53.4503 44.3447 51.3559 47.0183 50.7729 49.935C50.6596 50.5527 51.3097 50.8505 51.7656 50.4884C54.0607 48.6908 55.1373 45.2061 56.1174 42.5109C57.2561 39.3668 58.0762 36.066 58.154 32.7074C58.1776 31.9107 56.9506 31.77 56.7811 32.552Z" fill="white"/>
<path d="M48.8903 13.796C30.1046 7.02858 14.6935 28.1282 22.2651 44.9416C22.6136 45.7021 23.9325 45.155 23.6386 44.3602C16.8141 26.3186 30.6537 12.3773 48.7079 14.5937C49.2184 14.6452 49.399 13.9776 48.8903 13.796Z" fill="white"/>
<path d="M47.2027 14.7652C55.7822 17.1374 64.6306 22.1269 65.1284 32.1461C65.5811 40.8119 60.5344 47.586 55.5642 54.107C55.1666 54.6223 55.7089 55.5951 56.3411 55.1148C63.4066 49.7911 68.264 38.991 66.7375 30.1263C65.0601 20.4529 56.4728 15.1781 47.4515 13.7588C46.8052 13.6483 46.5509 14.5975 47.2027 14.7652Z" fill="white"/>
<path d="M25.5321 47.3945C32.614 53.379 42.9947 57.7861 52.4004 56.178C52.9543 56.0808 52.7619 55.2907 52.2671 55.2521C42.2897 54.5469 34.2886 53.0717 26.1605 46.7267C25.7108 46.4093 25.0768 47.0199 25.5321 47.3945Z" fill="white"/>
<path d="M22.8226 44.398C17.882 45.2829 11.5795 49.3913 10.1352 54.4428C10.0052 54.8888 10.6166 55.2338 10.9294 54.8856C12.5534 53.1677 13.699 51.1352 15.4801 49.5464C17.7271 47.5512 20.2838 46.3637 23.0464 45.214C23.5476 45.0208 23.3765 44.3008 22.8226 44.398Z" fill="white"/>
<path d="M57.1404 55.1982C59.1255 57.4895 60.8945 59.7875 62.0627 62.5916C63.1228 65.1751 63.0724 67.9244 63.9867 70.4933C64.1642 70.9816 64.8593 71.0006 64.9967 70.4817C66.5119 65.12 62.0077 57.5703 57.9968 54.3493C57.3872 53.8742 56.6213 54.6131 57.1404 55.1982Z" fill="white"/>
<path d="M9.99039 54.7167C22.6667 66.0938 47.6937 75.9953 64.7122 70.8303C65.6113 70.5695 65.2359 69.2338 64.3312 69.4374C46.9382 73.4255 24.3453 64.7894 10.7794 53.9178C10.2298 53.4657 9.43531 54.2074 9.99039 54.7167Z" fill="white"/>
<path d="M28.0437 38.2456C29.1605 37.8481 30.4473 37.5641 31.469 36.9303C31.7542 36.7437 31.6727 36.2028 31.2721 36.2417C30.0886 36.4001 28.9155 36.962 27.7857 37.3752C27.2716 37.5841 27.4852 38.4444 28.0437 38.2456Z" fill="white"/>
<path d="M33.5293 36.4341C39.5428 33.9571 45.6505 31.5576 51.5161 28.7483C51.9988 28.5136 51.6577 27.6801 51.1565 27.8733C45.1005 30.21 39.1491 33.0276 33.2437 35.7252C32.8283 35.91 33.1269 36.6032 33.5293 36.4341Z" fill="white"/>
<path d="M30.0256 41.3265C34.6666 39.5896 39.4259 38.0291 43.9745 36.0845C44.3769 35.9154 44.0941 35.2351 43.6889 35.3756C39.0154 36.9279 34.4567 38.9167 29.8628 40.6924C29.4576 40.8329 29.6203 41.467 30.0256 41.3265Z" fill="white"/>
<path d="M47.2657 34.2928C50.3061 33.0294 53.5035 31.8951 56.4118 30.3123C56.7413 30.1358 56.5139 29.5801 56.1502 29.7022C53.0118 30.7007 49.9835 32.2374 46.9644 33.571C46.549 33.7559 46.8503 34.4776 47.2657 34.2928Z" fill="white"/>
<path d="M41.0976 42.458C44.018 41.1485 46.7232 39.5566 49.7517 38.4676C50.1283 38.3299 49.971 37.7529 49.5787 37.8778C46.4864 38.7563 43.2216 39.9404 40.6884 41.9634C40.3774 42.1814 40.7783 42.5902 41.0976 42.458Z" fill="white"/>
<path d="M66.4556 34.1787C68.8812 36.9905 70.1888 39.5933 68.3265 43.1688C66.6958 46.3029 63.5031 47.7834 60.5875 49.4391C59.9027 49.8235 60.3685 51.0493 61.1319 50.7295C65.0658 49.1481 69.1331 46.4126 70.3478 42.12C71.3589 38.5551 70.1388 35.366 67.0285 33.3863C66.5529 33.1003 66.1147 33.793 66.4556 34.1787Z" fill="white"/>
<path d="M25.6035 19.6041C17.8717 21.6415 12.9462 32.7804 20.0658 38.559C20.4113 38.8432 20.9973 38.4829 20.7368 38.0316C18.9481 35.0856 17.4622 32.2834 18.1686 28.7048C18.9579 24.6414 22.0983 21.8805 25.9124 20.7007C26.6139 20.488 26.3235 19.4329 25.6035 19.6041Z" fill="white"/>
</g>
</svg>
