<svg width="251" height="188" viewBox="0 0 251 188" fill="none" xmlns="http://www.w3.org/2000/svg">
<rect x="63.7598" y="64.1094" width="124" height="36" fill="#1CBA6E"/>
<g opacity="0.7" filter="url(#filter0_f_259_14185)">
<rect x="75.8145" y="76.1641" width="99.51" height="36.1632" fill="#1CBA6E"/>
</g>
<path d="M88.6677 82.4941C89.9277 82.9501 90.5577 83.8381 90.5577 85.1581C90.5577 86.4661 90.2157 87.4081 89.5317 87.9841C88.8597 88.5481 87.7737 88.8301 86.2737 88.8301H77.0397V76.2301H85.9137C87.4137 76.2301 88.4997 76.5121 89.1717 77.0761C89.8557 77.6401 90.1977 78.5821 90.1977 79.9021C90.1977 81.1981 89.6877 82.0621 88.6677 82.4941ZM85.3557 78.3181H79.6317V81.6301H85.2657C86.1297 81.6301 86.7297 81.5281 87.0657 81.3241C87.4017 81.1201 87.5697 80.7001 87.5697 80.0641C87.5697 79.3921 87.3957 78.9361 87.0477 78.6961C86.7117 78.4441 86.1477 78.3181 85.3557 78.3181ZM79.6317 86.7241H85.7337C86.5137 86.7241 87.0717 86.5981 87.4077 86.3461C87.7557 86.0821 87.9297 85.6261 87.9297 84.9781C87.9297 84.3661 87.7497 83.9521 87.3897 83.7361C87.0417 83.5201 86.4177 83.4121 85.5177 83.4121H79.6317V86.7241ZM97.9095 78.3721H98.3595C99.6315 78.3721 100.645 78.7441 101.401 79.4881C102.157 80.2321 102.535 81.4141 102.535 83.0341H100.123C100.123 81.2941 99.2895 80.4241 97.6215 80.4241H97.2435C96.1875 80.4241 95.4015 80.6881 94.8855 81.2161C94.3815 81.7321 94.1295 82.5901 94.1295 83.7901V88.8301H91.7175V78.5521H93.8775V80.8021C94.5855 79.1821 95.9295 78.3721 97.9095 78.3721ZM108.531 78.2821H110.403C112.227 78.2821 113.523 78.6541 114.291 79.3981C115.071 80.1421 115.461 81.4561 115.461 83.3401V88.8301H113.067V86.9041C112.419 88.3681 111.015 89.1001 108.855 89.1001H108.279C104.967 89.1001 103.311 87.9301 103.311 85.5901C103.311 84.5341 103.689 83.8261 104.445 83.4661C105.201 83.1061 106.401 82.9261 108.045 82.9261H113.049C113.001 81.9181 112.767 81.2161 112.347 80.8201C111.939 80.4241 111.207 80.2261 110.151 80.2261H108.495C106.767 80.2261 105.903 80.8081 105.903 81.9721H103.563C103.563 80.7121 103.965 79.7821 104.769 79.1821C105.585 78.5821 106.839 78.2821 108.531 78.2821ZM108.261 87.2821H109.629C110.757 87.2821 111.597 87.0481 112.149 86.5801C112.701 86.1001 113.001 85.3021 113.049 84.1861H108.279C107.331 84.1861 106.659 84.2881 106.263 84.4921C105.867 84.6841 105.669 85.0501 105.669 85.5901C105.669 86.7181 106.533 87.2821 108.261 87.2821ZM124.037 78.3001H124.361C126.065 78.3001 127.289 78.6781 128.033 79.4341C128.777 80.1901 129.149 81.5161 129.149 83.4121V88.8481H126.755V83.4121C126.755 82.2721 126.551 81.4741 126.143 81.0181C125.747 80.5621 124.985 80.3341 123.857 80.3341H122.957C121.817 80.3341 120.971 80.5981 120.419 81.1261C119.879 81.6421 119.609 82.5061 119.609 83.7181V88.8301H117.197V78.5521H119.357V80.8021C120.089 79.1341 121.649 78.3001 124.037 78.3001ZM140.228 80.2621V75.3301H142.64V88.8301H140.228V87.1381C139.436 88.4581 138.014 89.1181 135.962 89.1181H135.638C133.958 89.1181 132.716 88.7161 131.912 87.9121C131.12 87.1081 130.724 85.7041 130.724 83.7001C130.724 81.6961 131.12 80.2921 131.912 79.4881C132.716 78.6841 133.958 78.2821 135.638 78.2821H135.962C138.014 78.2821 139.436 78.9421 140.228 80.2621ZM136.124 87.0661H136.988C138.104 87.0661 138.92 86.8081 139.436 86.2921C139.964 85.7641 140.228 84.9001 140.228 83.7001C140.228 82.5001 139.964 81.6421 139.436 81.1261C138.92 80.5981 138.104 80.3341 136.988 80.3341H136.124C135.008 80.3341 134.216 80.5921 133.748 81.1081C133.292 81.6121 133.064 82.4761 133.064 83.7001C133.064 84.9241 133.292 85.7941 133.748 86.3101C134.216 86.8141 135.008 87.0661 136.124 87.0661ZM145.769 77.2741H145.355C144.875 77.2741 144.527 77.1781 144.311 76.9861C144.107 76.7821 144.005 76.4461 144.005 75.9781C144.005 75.5221 144.107 75.1981 144.311 75.0061C144.527 74.8141 144.875 74.7181 145.355 74.7181H145.769C146.249 74.7181 146.597 74.8141 146.813 75.0061C147.029 75.1981 147.137 75.5221 147.137 75.9781C147.137 76.4461 147.029 76.7821 146.813 76.9861C146.597 77.1781 146.249 77.2741 145.769 77.2741ZM146.777 88.8301H144.365V78.5521H146.777V88.8301ZM155.349 78.3001H155.673C157.377 78.3001 158.601 78.6781 159.345 79.4341C160.089 80.1901 160.461 81.5161 160.461 83.4121V88.8481H158.067V83.4121C158.067 82.2721 157.863 81.4741 157.455 81.0181C157.059 80.5621 156.297 80.3341 155.169 80.3341H154.269C153.129 80.3341 152.283 80.5981 151.731 81.1261C151.191 81.6421 150.921 82.5061 150.921 83.7181V88.8301H148.509V78.5521H150.669V80.8021C151.401 79.1341 152.961 78.3001 155.349 78.3001ZM171.54 80.1901V78.5521H173.952V87.8221C173.952 89.5741 173.586 90.7741 172.854 91.4221C172.122 92.0821 170.886 92.4121 169.146 92.4121H162.756V90.3601H169.146C170.082 90.3601 170.712 90.1801 171.036 89.8201C171.372 89.4721 171.54 88.8061 171.54 87.8221V86.7781C170.736 88.0501 169.308 88.6861 167.256 88.6861H166.932C165.276 88.6861 164.046 88.2961 163.242 87.5161C162.438 86.7361 162.036 85.3921 162.036 83.4841C162.036 81.5761 162.438 80.2321 163.242 79.4521C164.046 78.6721 165.276 78.2821 166.932 78.2821H167.256C169.308 78.2821 170.736 78.9181 171.54 80.1901ZM167.436 86.6341H168.282C169.41 86.6341 170.232 86.3881 170.748 85.8961C171.276 85.3921 171.54 84.5881 171.54 83.4841C171.54 82.3801 171.276 81.5821 170.748 81.0901C170.232 80.5861 169.41 80.3341 168.282 80.3341H167.436C166.344 80.3341 165.558 80.5801 165.078 81.0721C164.61 81.5641 164.376 82.3681 164.376 83.4841C164.376 84.6001 164.61 85.4041 165.078 85.8961C165.558 86.3881 166.344 86.6341 167.436 86.6341Z" fill="white"/>
<defs>
<filter id="filter0_f_259_14185" x="0.474358" y="0.823967" width="250.19" height="186.843" filterUnits="userSpaceOnUse" color-interpolation-filters="sRGB">
<feFlood flood-opacity="0" result="BackgroundImageFix"/>
<feBlend mode="normal" in="SourceGraphic" in2="BackgroundImageFix" result="shape"/>
<feGaussianBlur stdDeviation="37.67" result="effect1_foregroundBlur_259_14185"/>
</filter>
</defs>
</svg>
