<svg width="1169" height="54" viewBox="0 0 1169 54" fill="none" xmlns="http://www.w3.org/2000/svg">
<g opacity="0.65">
<path d="M59.0864 23.5949C59.2022 23.011 59.2982 22.4229 59.4071 21.8375C59.4241 21.7444 59.4526 21.6491 59.4981 21.5672C59.5976 21.3889 59.7879 21.374 59.9193 21.5291C60.034 21.6648 60.0683 21.8317 60.0971 22.0017C60.1889 22.536 60.2794 23.0712 60.3802 23.6047C60.4667 24.0661 60.2206 24.3655 59.7426 24.3647C59.3256 24.4395 59.0076 23.9932 59.0864 23.5949ZM64.1267 30.0849C64.1664 30.0533 64.2209 30.0264 64.2401 29.9843C64.3444 29.7608 64.4319 29.5381 64.3683 29.276C64.2704 28.8717 64.1946 28.4625 64.1121 28.0548C63.904 27.0191 63.6975 25.9829 63.4905 24.9464C63.4173 24.5803 63.3484 24.213 63.2733 23.8474C63.1464 23.2311 63.0131 22.6156 62.8885 21.9988C62.7595 21.3607 62.6405 20.7196 62.5107 20.0815C62.33 19.1927 62.141 18.305 61.9593 17.4164C61.8587 16.9247 61.772 16.4297 61.6663 15.939C61.5623 15.4566 61.2592 15.2104 60.7645 15.1905C60.5825 15.183 60.4004 15.1894 60.2187 15.1899C59.8877 15.1905 59.5561 15.2072 59.2261 15.1857C59.0122 15.1724 58.8022 15.1851 58.5904 15.1849C58.2296 15.1835 57.8754 15.6021 57.8139 15.8946C57.7543 16.1759 57.7266 16.4648 57.6564 16.7432C57.547 17.1772 57.539 17.6283 57.4092 18.0601C57.3115 18.3856 57.2676 18.7275 57.2069 19.0634C57.1728 19.2518 57.1606 19.4434 57.1242 19.6307C57.0582 19.9748 56.977 20.3149 56.9102 20.6589C56.7686 21.3923 56.6319 22.1268 56.4951 22.8612C56.4107 23.3123 56.3317 23.7652 56.2471 24.216C56.1997 24.4656 56.1459 24.7141 56.0927 24.9635C56.0329 25.2453 55.9669 25.5255 55.9112 25.8078C55.8107 26.319 55.7862 26.843 55.627 27.3438C55.5605 27.5537 55.5499 27.7632 55.796 27.922C55.689 27.9532 55.6217 27.9728 55.5605 27.9912C55.4213 28.355 55.2609 29.0806 55.2399 29.4346C55.217 29.8154 55.445 30.1129 55.8237 30.1432C56.2159 30.1751 56.6132 30.1908 57.0063 30.1751C57.6588 30.148 57.9752 29.8875 58.0885 29.2597C58.0922 29.2387 58.0962 29.2177 58.1002 29.1964C58.1894 28.7139 58.2841 28.2326 58.3671 27.7488C58.4408 27.3196 58.7591 27.0763 59.1362 27.0683C59.542 27.0596 59.9486 27.0553 60.3544 27.066C60.7339 27.0753 61.0521 27.339 61.1434 27.7017C61.1897 27.8877 61.2235 28.0772 61.2608 28.265C61.3451 28.6841 61.4247 29.1041 61.512 29.5221C61.5862 29.8766 61.8217 30.0871 62.1655 30.1405C62.4588 30.1855 62.7611 30.186 63.0588 30.186C63.3553 30.1866 63.6525 30.1581 63.9144 30.2451C63.9998 30.1807 64.0642 30.1339 64.1267 30.0849Z" fill="white"/>
<path d="M70.5509 30.2221C70.714 30.3969 70.937 30.2002 71.106 30.3184C71.2154 30.1941 71.3734 30.2739 71.4873 30.23C71.6401 30.1712 71.7798 30.1986 71.9253 30.1941C72.1377 30.1875 72.3506 30.1843 72.5624 30.1718C72.8104 30.1558 73.0103 30.056 73.1494 29.8383C73.2822 29.631 73.3261 29.4112 73.3051 29.168C73.2817 28.8926 73.2508 28.6137 73.3519 28.3452C73.394 28.2332 73.3783 28.1382 73.3067 28.0456C73.2484 27.9692 73.1963 27.888 73.1372 27.8122C72.9751 27.6065 72.7686 27.4955 72.5004 27.5001C72.2974 27.5035 72.0943 27.4913 71.8916 27.4878C71.6353 27.4836 71.379 27.4774 71.1236 27.4796C70.6217 27.4836 70.1206 27.507 69.6193 27.4955C69.231 27.4868 68.8683 27.2441 68.88 26.7076C68.8971 25.95 68.8726 25.1916 68.879 24.4332C68.8814 24.1383 68.8947 23.8446 68.8843 23.5476C68.859 22.8762 68.8806 22.2024 68.8925 21.53C68.8965 21.2748 68.9269 21.0204 68.9396 20.7655C68.9444 20.6601 68.9346 20.5536 68.9309 20.4483C68.9258 20.3109 68.9194 20.1742 68.9146 20.0369C68.9117 19.953 68.9141 19.8695 68.9082 19.7864C68.9019 19.7024 68.8776 19.6175 68.88 19.5336C68.8957 18.8841 68.9162 18.2348 68.9357 17.5852C69.0344 17.4588 68.8478 17.3851 68.8776 17.2659C68.9053 17.1547 68.8965 17.0346 68.9282 16.9258C68.9644 16.8013 68.8127 16.6863 68.9234 16.561C68.945 16.537 68.9463 16.4721 68.9293 16.4404C68.8454 16.2874 68.8806 16.127 68.8893 15.9686C68.9 15.7757 68.8316 15.6176 68.7017 15.475C68.5245 15.2797 68.3122 15.1903 68.0479 15.1977C67.7823 15.2052 67.5162 15.1959 67.2507 15.1948C67.0583 15.1935 66.8659 15.1913 66.6735 15.1948C66.5524 15.1964 66.4566 15.2464 66.3605 15.3297C66.1354 15.5242 66.0109 15.7563 66.0159 16.054C66.0242 16.5559 66.0388 17.0575 66.0436 17.5594C66.0452 17.7494 66.0237 17.9397 66.0207 18.1297C66.0189 18.2782 66.0284 18.4272 66.0354 18.5762C66.0383 18.6286 66.0569 18.681 66.0553 18.7324C66.0452 19.0618 66.0237 19.3905 66.0215 19.7191C66.0173 20.2426 66.0276 20.7662 66.0271 21.2897C66.0255 21.9733 66.0143 22.6569 66.0157 23.34C66.0159 24.0665 66.029 24.7924 66.0314 25.5178C66.0324 25.7847 66.0119 26.0508 66.0157 26.317C66.0242 26.9567 66.0284 27.5967 66.0157 28.2364C66.0074 28.6196 66.0104 29.0049 66.0412 29.3867C66.0867 29.9517 66.3967 30.2372 66.9391 30.1821C67.1003 30.1659 67.2028 30.2237 67.277 30.3437C67.6134 30.1904 67.7701 30.1454 68.0642 30.2167C68.2486 30.2609 68.3957 30.1781 68.5607 30.1651C68.7385 30.1505 68.9019 30.2955 69.0913 30.2372C69.1012 30.2343 69.1134 30.2407 69.1235 30.2372C69.4498 30.1348 69.7779 30.2085 70.0879 30.2189C70.1989 30.2881 70.1906 30.4546 70.3415 30.4541C70.3545 30.3647 70.3681 30.2763 70.3843 30.1659C70.4567 30.1885 70.5206 30.1899 70.5509 30.2221Z" fill="white"/>
<path d="M74.5123 18.6827C74.4912 18.916 74.5088 19.1531 74.5099 19.3881C74.5133 20.2857 74.5176 21.183 74.521 22.0808C74.5234 22.8172 74.525 23.5527 74.5282 24.289C74.529 24.5767 74.5368 24.8646 74.5357 25.1522C74.5328 25.7156 74.5221 26.2787 74.5205 26.842C74.52 27.2883 74.5328 27.7345 74.5304 28.1805C74.529 28.5118 74.5053 28.8429 74.5069 29.1739C74.5083 29.3328 74.5322 29.4943 74.5695 29.6486C74.6387 29.9382 74.8316 30.1061 75.127 30.15C75.2638 30.1697 75.4024 30.1968 75.5405 30.1963C75.9458 30.1944 76.3516 30.1862 76.7563 30.1675C77.0645 30.1534 77.2383 29.9523 77.3253 29.6808C77.37 29.5411 77.3833 29.3868 77.3838 29.2388C77.3891 27.7864 77.3891 26.3338 77.3897 24.8816C77.3902 23.8986 77.3897 22.9159 77.3897 21.9326H77.3833C77.3833 21.3134 77.3828 20.6942 77.3833 20.0747C77.3838 19.6156 77.3809 19.1571 77.3867 18.6981C77.3939 18.1757 77.5908 17.9551 78.1039 17.8985C78.2612 17.8814 78.4208 17.8881 78.58 17.8881C78.8466 17.8873 79.1138 17.8969 79.3804 17.8881C79.4959 17.8844 79.6127 17.8553 79.725 17.8226C79.8876 17.7745 80.0204 17.6598 80.0608 17.5036C80.125 17.2585 80.163 17.003 80.1793 16.7497C80.1958 16.5065 80.1641 16.26 80.1649 16.016C80.1667 15.5099 79.8924 15.2209 79.3793 15.2081C79.0488 15.1999 78.7178 15.2007 78.3876 15.1999C77.3194 15.198 76.251 15.1975 75.1831 15.1975C74.3707 15.198 73.5577 15.1954 72.7459 15.2057C72.5787 15.2081 72.4079 15.2504 72.2453 15.2959C71.9449 15.3814 71.7788 15.5913 71.7693 15.9029C71.7559 16.3292 71.7506 16.7563 71.7559 17.1824C71.7599 17.5405 72.1378 17.9091 72.5285 17.8918C72.9234 17.8756 73.3198 17.9038 73.715 17.8867C74.1953 17.8665 74.5525 18.2436 74.5123 18.6827Z" fill="white"/>
<path d="M84.0756 18.3914C84.0745 17.9433 84.0721 17.4955 84.0673 17.0473C84.0633 16.6737 84.0804 16.2983 84.0434 15.9273C83.9941 15.4401 83.699 15.1934 83.2059 15.187C82.8217 15.1817 82.4369 15.1889 82.0521 15.1963C81.9568 15.1979 81.8608 15.2149 81.7671 15.2352C81.4134 15.3099 81.1987 15.5705 81.1971 15.9374C81.1939 16.5127 81.1971 17.0886 81.2006 17.6639C81.2027 18.0894 81.2157 18.5149 81.2147 18.9402C81.2128 19.5471 81.1987 20.1536 81.1976 20.7601C81.1952 22.2662 81.1939 23.7721 81.1976 25.278C81.1998 26.0353 81.2163 26.7932 81.2192 27.5508C81.2205 27.9234 81.2022 28.2954 81.1998 28.6677C81.1987 28.9234 81.1998 29.1802 81.2163 29.4356C81.2437 29.863 81.4595 30.0913 81.8853 30.1632C81.9486 30.1735 82.0127 30.1831 82.076 30.1826C82.5127 30.1773 82.9502 30.1563 83.3866 30.1693C83.5686 30.1743 83.6873 30.1099 83.8079 29.9931C83.9353 29.8691 84.0277 29.7339 84.0399 29.5519C84.0498 29.3925 84.0702 29.2331 84.0716 29.0737C84.0756 28.5508 84.0732 28.0274 84.0721 27.5045C84.0697 26.5042 84.0649 25.5047 84.0639 24.5055C84.0633 23.7048 84.0681 22.9041 84.0692 22.1039C84.0702 21.5389 84.0692 20.9735 84.0692 20.4085H84.0761C84.0761 19.7361 84.0766 19.0639 84.0756 18.3914Z" fill="white"/>
<path d="M90.0729 30.1678C90.381 30.1537 90.5548 29.9523 90.6418 29.6811C90.6865 29.5414 90.6998 29.3868 90.7004 29.2391C90.7057 27.7867 90.7049 26.334 90.7062 24.8819C90.7068 23.8986 90.7062 22.9162 90.7062 21.9329H90.6998C90.6998 21.3137 90.6993 20.6942 90.6998 20.0749C90.7004 19.6159 90.6974 19.1574 90.7033 18.6981C90.7105 18.176 90.9074 17.9551 91.4202 17.8987C91.5777 17.8817 91.7374 17.8881 91.8965 17.8881C92.1632 17.8876 92.4303 17.8971 92.697 17.8881C92.8122 17.8846 92.9298 17.8554 93.0416 17.8226C93.2047 17.7747 93.3369 17.66 93.3771 17.5038C93.4415 17.2587 93.4796 17.0033 93.4961 16.75C93.5123 16.5067 93.4806 16.2603 93.4814 16.016C93.483 15.5102 93.209 15.2212 92.6959 15.2084C92.3654 15.2002 92.0352 15.2009 91.7039 15.2001C90.6362 15.1983 89.5676 15.1978 88.4994 15.1978C87.6873 15.1983 86.8743 15.1954 86.0624 15.2057C85.8953 15.2084 85.7245 15.2504 85.5619 15.2962C85.2612 15.3816 85.0951 15.5916 85.0858 15.9032C85.0722 16.3295 85.0672 16.7566 85.0722 17.1826C85.0765 17.5408 85.4544 17.9094 85.845 17.8921C86.2396 17.8758 86.6369 17.9041 87.0316 17.887C87.5116 17.8665 87.869 18.2436 87.8288 18.6829C87.8078 18.9163 87.8254 19.1532 87.8264 19.3884C87.8299 20.286 87.8339 21.183 87.8376 22.0809C87.8397 22.8174 87.8416 23.5529 87.8445 24.2893C87.8456 24.5769 87.8533 24.8649 87.8522 25.1525C87.8493 25.7159 87.8387 26.2789 87.8371 26.8423C87.8363 27.2885 87.8493 27.7345 87.8469 28.1808C87.8456 28.5118 87.8219 28.8429 87.8235 29.1742C87.8248 29.333 87.8488 29.4946 87.886 29.6489C87.9552 29.9384 88.1482 30.1063 88.4435 30.1502C88.5803 30.1699 88.7189 30.1968 88.8571 30.1963C89.2623 30.1947 89.6681 30.1862 90.0729 30.1678Z" fill="white"/>
<path d="M99.8076 30.2496C100.096 30.1796 100.379 30.0721 100.65 29.9495C100.844 29.8617 101.06 29.7909 101.185 29.5857C101.221 29.5266 101.304 29.4974 101.359 29.4471C101.484 29.3318 101.614 29.2201 101.724 29.091C101.826 28.9707 101.904 28.8305 101.993 28.6998C102.041 28.6288 102.106 28.5639 102.133 28.4862C102.27 28.0936 102.422 27.7038 102.521 27.3007C102.689 26.6216 102.654 25.9209 102.687 25.2288C102.704 24.8988 102.704 24.568 102.702 24.2383C102.7 23.7705 102.689 23.3022 102.683 22.8341C102.679 22.4719 102.678 22.1108 102.678 21.7486C102.678 21.4825 102.681 21.2164 102.683 20.9498C102.686 20.7164 102.693 20.483 102.691 20.2497C102.688 19.7161 102.678 19.1836 102.675 18.6501C102.674 18.437 102.687 18.2243 102.686 18.0114C102.683 17.6283 102.675 17.2453 102.67 16.8627C102.666 16.5745 102.674 16.286 102.658 15.9984C102.632 15.5305 102.318 15.2333 101.849 15.2221C101.625 15.2171 101.401 15.2253 101.177 15.2245C101.006 15.2245 100.835 15.2099 100.665 15.2189C100.23 15.2413 99.8446 15.5915 99.8502 16.0803C99.8561 16.5489 99.8369 17.0175 99.8294 17.4862C99.8233 17.8709 99.814 18.256 99.814 18.6408C99.814 19.2794 99.8233 19.9181 99.8247 20.5567C99.8252 21.2931 99.8204 22.0299 99.8193 22.7662C99.8188 23.2689 99.8193 23.771 99.8193 24.2734H99.8286C99.8286 24.6045 99.8183 24.9366 99.831 25.2671C99.8515 25.7732 99.7858 26.2666 99.6916 26.7621C99.6245 27.1123 99.4659 27.368 99.1402 27.5271C98.5777 27.8025 97.7559 27.6825 97.5016 26.9228C97.4108 26.6516 97.3595 26.3632 97.3254 26.079C97.2959 25.8267 97.3185 25.5688 97.311 25.3139C97.3033 25.0372 97.273 24.7599 97.2794 24.4839C97.2892 24.0371 97.3227 23.5911 97.3438 23.1446C97.3461 23.1034 97.3331 23.0603 97.3238 23.0196C97.2174 22.5656 97.3336 22.1065 97.294 21.6504C97.277 21.461 97.299 21.268 97.2959 21.0765C97.2935 20.9171 97.2735 20.7574 97.273 20.5972C97.2716 20.235 97.2775 19.8723 97.2799 19.5099C97.2815 19.276 97.2809 19.0421 97.2815 18.8082C97.2833 18.2523 97.2881 17.6974 97.2868 17.1418C97.2857 16.7477 97.2706 16.3539 97.2746 15.9606C97.2788 15.5593 96.8546 15.2165 96.4539 15.2136C96.0159 15.2107 95.5784 15.2123 95.1409 15.2205C94.9001 15.2253 94.7003 15.3227 94.5959 15.5505C94.5347 15.6838 94.4725 15.8278 94.461 15.971C94.4318 16.3217 94.423 16.6751 94.423 17.0274C94.4216 17.7531 94.4357 18.479 94.4363 19.2044C94.4363 20.1116 94.427 21.019 94.424 21.9259C94.4224 22.5776 94.4187 23.2295 94.4275 23.8809C94.4381 24.6596 94.4568 25.4384 94.4797 26.2171C94.5001 26.9159 94.6218 27.592 94.8996 28.2421C95.2673 29.103 95.8762 29.718 96.7354 30.0687C97.7267 30.4734 98.6729 30.5232 99.8076 30.2496Z" fill="white"/>
<path d="M109.429 18.0642C109.729 18.2029 109.94 18.4426 110.078 18.7444C110.212 19.0395 110.273 19.3543 110.305 19.6742C110.364 20.2801 110.373 20.8871 110.364 21.4954C110.355 22.1676 110.379 22.8398 110.373 23.512C110.366 24.2161 110.353 24.921 110.315 25.6238C110.298 25.9396 110.271 26.2672 110.105 26.5525C109.999 26.735 109.882 26.9152 109.75 27.0796C109.606 27.2574 109.422 27.3673 109.178 27.3907C108.914 27.416 108.658 27.4972 108.385 27.4586C108.057 27.4123 107.79 27.1619 107.762 26.834C107.751 26.6962 107.762 26.5565 107.762 26.4176C107.762 26.024 107.755 25.6304 107.767 25.2366C107.772 25.0828 107.821 24.9303 107.856 24.7448C107.72 24.4939 107.773 24.1778 107.768 23.8776C107.749 22.8422 107.759 21.8062 107.759 20.7703C107.758 20.0989 107.757 19.4267 107.762 18.7548C107.762 18.639 107.77 18.5185 107.802 18.408C107.895 18.0919 108.134 17.911 108.46 17.8905C108.797 17.87 109.125 17.9232 109.429 18.0642ZM104.932 15.8276C104.927 16.2534 104.901 16.6778 104.9 17.1033C104.899 17.593 104.921 18.0821 104.923 18.5717C104.927 19.1366 104.918 19.7016 104.918 20.2671C104.918 21.0146 104.922 21.762 104.922 22.5095C104.922 23.9098 104.922 25.3103 104.919 26.7111C104.919 26.9881 104.898 27.2654 104.898 27.5427C104.899 27.9594 104.909 28.3761 104.917 28.7926C104.922 29.0369 104.917 29.2833 104.942 29.526C104.974 29.8338 105.19 30.0747 105.483 30.1289C105.755 30.1798 106.031 30.2216 106.311 30.1782C106.405 30.1635 106.502 30.1686 106.597 30.1686C107.247 30.1705 107.897 30.1856 108.546 30.1705C109.069 30.1588 109.589 30.1085 110.109 30.0278C110.529 29.9624 110.911 29.8014 111.268 29.5986C111.655 29.3788 112.012 29.1108 112.291 28.7447C112.521 28.444 112.689 28.1119 112.841 27.7755C112.966 27.4996 113.009 27.1853 113.073 26.8851C113.148 26.5408 113.205 26.194 113.204 25.838C113.199 24.897 113.202 23.9558 113.202 22.7014C113.178 21.786 113.237 20.5566 113.157 19.328C113.116 18.6805 112.99 18.0597 112.754 17.4572C112.332 16.379 111.513 15.7457 110.444 15.3973C109.681 15.148 108.884 15.1802 108.096 15.1562C107.703 15.1445 107.308 15.1645 106.913 15.1709C106.486 15.1778 106.058 15.1764 105.632 15.1972C105.341 15.2105 104.935 15.4825 104.932 15.8276Z" fill="white"/>
<path d="M118.189 18.5328C118.198 18.1722 118.443 17.9146 118.799 17.879C118.948 17.8638 119.098 17.8518 119.247 17.8537C119.92 17.8598 120.593 17.8742 121.266 17.879C121.448 17.8808 121.629 17.8649 121.81 17.8439C122.171 17.8023 122.419 17.5583 122.442 17.198C122.466 16.8374 122.468 16.4753 122.472 16.1134C122.473 16.0075 122.459 15.8997 122.437 15.7956C122.373 15.4992 122.199 15.2951 121.898 15.2248C121.765 15.194 121.622 15.1897 121.484 15.1897C120.619 15.1863 119.753 15.1881 118.887 15.1881V15.1847C118.139 15.1847 117.391 15.1847 116.643 15.1852C116.451 15.1852 116.258 15.1791 116.066 15.1886C115.727 15.2051 115.47 15.3928 115.381 15.7121C115.333 15.884 115.312 16.0681 115.309 16.2472C115.29 17.7087 115.339 19.1704 115.311 20.6319C115.307 20.8447 115.339 21.0587 115.338 21.2718C115.335 21.7298 115.316 22.187 115.313 22.6449C115.309 23.5835 115.31 24.5223 115.31 25.4609C115.31 26.2507 115.317 27.0394 115.312 27.8284C115.307 28.3508 115.355 28.8718 115.316 29.3947C115.291 29.7327 115.479 29.9645 115.77 30.1028C115.891 30.1603 116.037 30.1872 116.172 30.1885C116.513 30.1915 116.855 30.1614 117.196 30.1632C117.836 30.1667 118.476 30.1885 119.115 30.1931C119.841 30.1989 120.566 30.1954 121.292 30.1933C121.431 30.1933 121.572 30.197 121.708 30.1774C122.148 30.1135 122.382 29.9216 122.42 29.5251C122.464 29.0696 122.489 28.6105 122.43 28.1518C122.38 27.7707 122.071 27.4812 121.684 27.504C121.311 27.5261 120.94 27.4841 120.565 27.504C120.012 27.5325 119.455 27.5056 118.899 27.4958C118.806 27.4939 118.708 27.4695 118.621 27.4335C118.303 27.3026 118.186 27.0429 118.185 26.7161C118.185 26.2459 118.184 25.7757 118.184 25.3052C118.184 25.0058 118.194 24.7065 118.185 24.4076C118.177 24.128 118.311 23.9305 118.541 23.811C118.667 23.7464 118.827 23.728 118.973 23.7253C119.485 23.7158 119.999 23.7227 120.512 23.7224C121.004 23.7211 121.232 23.5204 121.318 23.0393C121.385 22.6678 121.358 22.2974 121.341 21.9243C121.316 21.3341 121.031 21.0371 120.447 21.0297C119.945 21.0236 119.442 21.0142 118.94 21.0326C118.523 21.047 118.183 20.7394 118.171 20.2628C118.158 19.6869 118.177 19.1095 118.189 18.5328Z" fill="white"/>
<path d="M65.3399 41.1474H64.6714C64.6289 41.1474 64.5928 41.1621 64.5631 41.1921C64.5337 41.2208 64.5185 41.2569 64.5185 41.3V41.6634C64.5185 41.7053 64.5337 41.7413 64.5631 41.7713C64.5928 41.8007 64.6289 41.816 64.6714 41.816H65.3846C65.4607 41.816 65.5329 41.7835 65.6008 41.7199C65.6687 41.6563 65.7029 41.5826 65.7029 41.4976C65.7029 41.4208 65.6699 41.3431 65.6045 41.2648C65.5384 41.1866 65.4503 41.1474 65.3399 41.1474ZM64.6714 40.0966H65.2635C65.3482 40.0966 65.4164 40.0635 65.4675 39.9975C65.5182 39.9323 65.5439 39.8586 65.5439 39.7779C65.5439 39.7011 65.513 39.6363 65.4515 39.5809C65.3898 39.5256 65.3314 39.4977 65.2763 39.4977H64.6714C64.6289 39.4977 64.5928 39.5124 64.5631 39.5424C64.5337 39.5724 64.5185 39.6085 64.5185 39.6504V39.9436C64.5185 39.9859 64.5337 40.0219 64.5631 40.0519C64.5928 40.0822 64.6289 40.0966 64.6714 40.0966ZM66.448 40.5871C66.5158 40.6247 66.5837 40.6712 66.6516 40.7266C66.7195 40.7819 66.7822 40.8501 66.8394 40.9309C66.8969 41.0116 66.9434 41.1043 66.9795 41.211C67.0156 41.3171 67.0336 41.4373 67.0336 41.5734C67.0336 41.8496 66.9902 42.0778 66.903 42.2579C66.8159 42.4383 66.6984 42.5827 66.5501 42.691C66.4012 42.7989 66.2302 42.8757 66.0372 42.9203C65.8442 42.9647 65.6412 42.9873 65.4289 42.9873H63.4107C63.3682 42.9873 63.3321 42.9726 63.3025 42.9427C63.2728 42.9127 63.2578 42.8766 63.2578 42.8344V38.4793C63.2578 38.4371 63.2728 38.4004 63.3025 38.3711C63.3321 38.3411 63.3682 38.3264 63.4107 38.3264H65.3338C65.5375 38.3264 65.7326 38.349 65.9195 38.3934C66.1063 38.438 66.2706 38.5108 66.4128 38.613C66.555 38.7151 66.6697 38.8475 66.7568 39.0105C66.8437 39.1739 66.8874 39.3751 66.8874 39.6121C66.8874 39.8033 66.8394 39.969 66.744 40.1088C66.6486 40.2492 66.5452 40.3599 66.4354 40.4403C66.359 40.4957 66.3629 40.544 66.448 40.5871Z" fill="white"/>
<path d="M70.2255 39.6507V39.9186C70.2255 39.9611 70.2405 39.9969 70.2704 40.0269C70.3001 40.0559 70.3359 40.0715 70.3787 40.0715H72.1042C72.1464 40.0715 72.1822 40.0862 72.2125 40.1158C72.2418 40.1449 72.2568 40.1819 72.2568 40.2241V41.1031C72.2568 41.1453 72.2418 41.1814 72.2125 41.2113C72.1822 41.2404 72.1464 41.2557 72.1042 41.2557H70.3787C70.3359 41.2557 70.3001 41.2704 70.2704 41.3003C70.2405 41.3294 70.2255 41.3655 70.2255 41.4086V41.6502C70.2255 41.6924 70.2405 41.7285 70.2704 41.7585C70.3001 41.7884 70.3359 41.8028 70.3787 41.8028H72.3587C72.4012 41.8028 72.4373 41.8175 72.4669 41.8478C72.4966 41.8774 72.5116 41.9135 72.5116 41.9557V42.8344C72.5116 42.8769 72.4966 42.913 72.4669 42.943C72.4373 42.9726 72.4012 42.9873 72.3587 42.9873H69.1178C69.0752 42.9873 69.0395 42.9726 69.0092 42.943C68.9798 42.913 68.9648 42.8769 68.9648 42.8344V38.4796C68.9648 38.4371 68.9798 38.4004 69.0092 38.3711C69.0395 38.3414 69.0752 38.3267 69.1178 38.3267H72.3587C72.4012 38.3267 72.4373 38.3414 72.4669 38.3711C72.4966 38.4004 72.5116 38.4371 72.5116 38.4796V39.3455C72.5116 39.3877 72.4966 39.4237 72.4669 39.4534C72.4373 39.4834 72.4012 39.4981 72.3587 39.4981H70.3787C70.3359 39.4981 70.3001 39.5127 70.2704 39.5424C70.2405 39.5724 70.2255 39.6085 70.2255 39.6507Z" fill="white"/>
<path d="M76.1193 42.8469L74.1966 38.5108C74.1751 38.464 74.1742 38.4218 74.1932 38.3833C74.2125 38.346 74.2495 38.3267 74.3048 38.3267H75.3425C75.3847 38.3267 75.426 38.3408 75.467 38.368C75.5073 38.3958 75.5379 38.4283 75.559 38.4665L76.6796 41.0263C76.7007 41.0645 76.7282 41.0835 76.7625 41.0835C76.7961 41.0835 76.824 41.0645 76.8454 41.0263L77.9595 38.4665C77.9806 38.4283 78.0112 38.3958 78.0519 38.368C78.0922 38.3408 78.1332 38.3267 78.176 38.3267H79.2327C79.2795 38.3267 79.3134 38.3442 79.3348 38.3806C79.3559 38.4166 79.3578 38.4518 79.341 38.4855L77.3992 42.8469C77.3775 42.8852 77.3469 42.9182 77.3066 42.9457C77.2662 42.9735 77.2249 42.9873 77.1827 42.9873H76.3358C76.2933 42.9873 76.2521 42.9735 76.2117 42.9457C76.171 42.9182 76.1404 42.8852 76.1193 42.8469Z" fill="white"/>
<path d="M82.3505 39.6507V39.9186C82.3505 39.9611 82.3655 39.9969 82.3954 40.0269C82.4251 40.0559 82.4612 40.0715 82.5037 40.0715H84.2292C84.2714 40.0715 84.3072 40.0862 84.3375 40.1158C84.3668 40.1449 84.3818 40.1819 84.3818 40.2241V41.1031C84.3818 41.1453 84.3668 41.1814 84.3375 41.2113C84.3072 41.2404 84.2714 41.2557 84.2292 41.2557H82.5037C82.4612 41.2557 82.4251 41.2704 82.3954 41.3003C82.3655 41.3294 82.3505 41.3655 82.3505 41.4086V41.6502C82.3505 41.6924 82.3655 41.7285 82.3954 41.7585C82.4251 41.7884 82.4612 41.8028 82.5037 41.8028H84.4837C84.5262 41.8028 84.5623 41.8175 84.5919 41.8478C84.6216 41.8774 84.6366 41.9135 84.6366 41.9557V42.8344C84.6366 42.8769 84.6216 42.913 84.5919 42.943C84.5623 42.9726 84.5262 42.9873 84.4837 42.9873H81.2431C81.2002 42.9873 81.1645 42.9726 81.1342 42.943C81.1048 42.913 81.0898 42.8769 81.0898 42.8344V38.4796C81.0898 38.4371 81.1048 38.4004 81.1342 38.3711C81.1645 38.3414 81.2002 38.3267 81.2431 38.3267H84.4837C84.5262 38.3267 84.5623 38.3414 84.5919 38.3711C84.6216 38.4004 84.6366 38.4371 84.6366 38.4796V39.3455C84.6366 39.3877 84.6216 39.4237 84.5919 39.4534C84.5623 39.4834 84.5262 39.4981 84.4837 39.4981H82.5037C82.4612 39.4981 82.4251 39.5127 82.3954 39.5424C82.3655 39.5724 82.3505 39.6085 82.3505 39.6507Z" fill="white"/>
<path d="M88.1119 40.4789H88.7835C88.8339 40.4789 88.8865 40.4691 88.9416 40.4498C88.9969 40.4305 89.0474 40.4015 89.0939 40.3608C89.1404 40.3208 89.1783 40.2709 89.2077 40.211C89.2373 40.1522 89.2523 40.0822 89.2523 40.0009C89.2523 39.9587 89.2447 39.9088 89.2303 39.851C89.215 39.7944 89.1899 39.7391 89.1541 39.6862C89.118 39.6329 89.0697 39.5886 89.0083 39.5525C88.9468 39.5167 88.8722 39.4981 88.7835 39.4981H88.1119C88.0697 39.4981 88.0336 39.5127 88.0039 39.5424C87.9745 39.5724 87.9599 39.6085 87.9599 39.6507V40.3253C87.9599 40.3685 87.9745 40.4046 88.0039 40.4339C88.0336 40.4636 88.0697 40.4789 88.1119 40.4789ZM87.806 42.9873H86.8527C86.8102 42.9873 86.7735 42.9726 86.7436 42.943C86.7139 42.913 86.6992 42.8769 86.6992 42.8344V38.4796C86.6992 38.4371 86.7139 38.4004 86.7436 38.3711C86.7732 38.3414 86.8093 38.3267 86.8518 38.3267H88.8321C89.0783 38.3267 89.3052 38.3683 89.5135 38.4503C89.7215 38.5335 89.8985 38.6494 90.0447 38.798C90.1915 38.946 90.3059 39.1225 90.3888 39.3259C90.4717 39.5302 90.5133 39.7553 90.5133 40.0009C90.5133 40.1366 90.497 40.2715 90.4652 40.4055C90.4331 40.5388 90.3876 40.6654 90.3282 40.7844C90.2686 40.9037 90.1989 41.0101 90.1181 41.1061C90.0377 41.2012 89.9462 41.2811 89.8447 41.3447C89.8105 41.3701 89.7881 41.401 89.7774 41.437C89.767 41.4728 89.7744 41.5083 89.7997 41.5422C89.9612 41.7548 90.131 41.9726 90.3093 42.1973C90.4876 42.423 90.6466 42.6289 90.7867 42.8154C90.8121 42.8491 90.8185 42.8867 90.8059 42.9267C90.7934 42.9674 90.7656 42.9873 90.7231 42.9873H89.5389C89.4961 42.9873 89.4505 42.9757 89.4016 42.9521C89.3529 42.9292 89.3159 42.9004 89.2905 42.8662C89.1554 42.6882 89.0211 42.5078 88.8878 42.3249C88.755 42.1429 88.6229 41.9582 88.4917 41.7716C88.4663 41.7368 88.4305 41.7086 88.3844 41.6854C88.3379 41.6618 88.2932 41.6502 88.2513 41.6502H88.1119C88.0697 41.6502 88.0336 41.6649 88.0039 41.6949C87.9745 41.7245 87.9599 41.7606 87.9599 41.8028V42.8344C87.9599 42.8769 87.9446 42.913 87.9149 42.943C87.8849 42.9726 87.8485 42.9873 87.806 42.9873Z" fill="white"/>
<path d="M94.3751 41.2425H94.9421C94.9846 41.2425 95.0152 41.2288 95.0345 41.2012C95.0531 41.1734 95.0525 41.1407 95.0311 41.1031C94.9889 40.9963 94.9378 40.8728 94.8782 40.7299C94.8189 40.5877 94.7638 40.4553 94.7128 40.3324C94.6956 40.2938 94.6767 40.2749 94.6553 40.2749C94.6342 40.2749 94.6152 40.2938 94.5981 40.3324L94.28 41.1031C94.2626 41.1407 94.2626 41.1734 94.28 41.2012C94.2968 41.2288 94.3286 41.2425 94.3751 41.2425ZM93.9999 38.4726C94.0167 38.435 94.0451 38.4019 94.0858 38.3744C94.1262 38.3466 94.1696 38.3328 94.2161 38.3328H95.1076C95.1501 38.3328 95.1914 38.3466 95.2318 38.3744C95.2721 38.4019 95.3009 38.435 95.3177 38.4726L97.1771 42.8026C97.194 42.8408 97.1906 42.8812 97.1674 42.9237C97.1441 42.9659 97.0985 42.9873 97.0307 42.9873H95.9419C95.8948 42.9873 95.8517 42.9735 95.8113 42.9457C95.7709 42.9182 95.7397 42.8852 95.7189 42.8469L95.5468 42.4652C95.5257 42.427 95.4951 42.394 95.4547 42.3665C95.414 42.3386 95.373 42.3249 95.3305 42.3249H93.9867C93.9405 42.3249 93.8968 42.3386 93.8564 42.3665C93.8161 42.394 93.7873 42.427 93.7702 42.4652L93.5922 42.8469C93.5751 42.8852 93.5466 42.9182 93.5062 42.9457C93.4659 42.9735 93.4246 42.9873 93.3818 42.9873H92.2869C92.2655 42.9873 92.2432 42.9833 92.2199 42.9742C92.1967 42.9659 92.1777 42.9537 92.1627 42.9365C92.1477 42.9197 92.1386 42.8983 92.134 42.8729C92.13 42.8469 92.1361 42.8176 92.1529 42.7839L93.9999 38.4726Z" fill="white"/>
<path d="M100.813 43.0732C100.474 43.0732 100.155 43.0096 99.858 42.8824C99.5611 42.7549 99.3011 42.5827 99.0782 42.3665C98.8552 42.1499 98.679 41.8952 98.5497 41.6025C98.42 41.3095 98.3555 40.9972 98.3555 40.6663C98.3555 40.3357 98.42 40.0232 98.5497 39.7305C98.679 39.4375 98.8552 39.1818 99.0782 38.9631C99.3011 38.7445 99.5611 38.5717 99.858 38.4441C100.155 38.3169 100.474 38.253 100.813 38.253C101.28 38.253 101.687 38.3493 102.032 38.5396C102.379 38.7307 102.659 38.9937 102.876 39.3292C102.897 39.3629 102.903 39.402 102.892 39.4476C102.881 39.4919 102.859 39.5244 102.825 39.5458L102.061 40.036C102.027 40.0577 101.989 40.0645 101.947 40.0586C101.904 40.0522 101.868 40.0317 101.838 39.9978C101.706 39.8366 101.559 39.7069 101.396 39.6094C101.232 39.5118 101.038 39.4629 100.813 39.4629C100.652 39.4629 100.5 39.4959 100.358 39.562C100.216 39.6277 100.091 39.7155 99.9853 39.8259C99.8794 39.9363 99.7953 40.0645 99.7342 40.2113C99.6724 40.3577 99.6415 40.5097 99.6415 40.6663C99.6415 40.8275 99.6724 40.9801 99.7342 41.1245C99.7953 41.2691 99.8794 41.3957 99.9853 41.5037C100.091 41.612 100.216 41.6988 100.358 41.7649C100.5 41.8309 100.652 41.8637 100.813 41.8637C100.974 41.8637 101.134 41.8337 101.291 41.7747C101.447 41.715 101.573 41.6172 101.666 41.4814C101.688 41.4477 101.69 41.4172 101.673 41.3893C101.655 41.3618 101.626 41.3477 101.584 41.3477H100.851C100.809 41.3477 100.773 41.3327 100.743 41.3034C100.713 41.2734 100.698 41.2373 100.698 41.1951V40.437C100.698 40.3944 100.713 40.3587 100.743 40.3284C100.773 40.2996 100.809 40.284 100.851 40.284H103.042C103.084 40.284 103.121 40.2981 103.153 40.3256C103.185 40.3532 103.203 40.3908 103.207 40.437C103.215 40.5097 103.22 40.5972 103.22 40.7015C103.22 40.8052 103.214 40.9128 103.201 41.0232C103.171 41.3156 103.088 41.5875 102.953 41.8383C102.816 42.0885 102.641 42.305 102.427 42.4879C102.213 42.6705 101.968 42.813 101.692 42.9176C101.416 43.0213 101.123 43.0732 100.813 43.0732Z" fill="white"/>
<path d="M106.433 39.6507V39.9186C106.433 39.9611 106.448 39.9969 106.477 40.0269C106.507 40.0559 106.543 40.0715 106.585 40.0715H108.311C108.353 40.0715 108.389 40.0862 108.419 40.1158C108.449 40.1449 108.464 40.1819 108.464 40.2241V41.1031C108.464 41.1453 108.449 41.1814 108.419 41.2113C108.389 41.2404 108.353 41.2557 108.311 41.2557H106.585C106.543 41.2557 106.507 41.2704 106.477 41.3003C106.448 41.3294 106.433 41.3655 106.433 41.4086V41.6502C106.433 41.6924 106.448 41.7285 106.477 41.7585C106.507 41.7884 106.543 41.8028 106.585 41.8028H108.565C108.608 41.8028 108.644 41.8175 108.674 41.8478C108.704 41.8774 108.719 41.9135 108.719 41.9557V42.8344C108.719 42.8769 108.704 42.913 108.674 42.943C108.644 42.9726 108.608 42.9873 108.565 42.9873H105.325C105.282 42.9873 105.246 42.9726 105.216 42.943C105.187 42.913 105.172 42.8769 105.172 42.8344V38.4796C105.172 38.4371 105.187 38.4004 105.216 38.3711C105.246 38.3414 105.282 38.3267 105.325 38.3267H108.565C108.608 38.3267 108.644 38.3414 108.674 38.3711C108.704 38.4004 108.719 38.4371 108.719 38.4796V39.3455C108.719 39.3877 108.704 39.4237 108.674 39.4534C108.644 39.4834 108.608 39.4981 108.565 39.4981H106.585C106.543 39.4981 106.507 39.5127 106.477 39.5424C106.448 39.5724 106.433 39.6085 106.433 39.6507Z" fill="white"/>
<path d="M111.306 41.3924C111.535 41.5404 111.762 41.6582 111.988 41.7426C112.212 41.8276 112.422 41.8701 112.618 41.8701C112.804 41.8701 112.947 41.8438 113.044 41.7903C113.142 41.7371 113.191 41.6582 113.191 41.5514C113.191 41.4961 113.169 41.4529 113.127 41.4208C113.085 41.3893 113.029 41.3624 112.958 41.341C112.888 41.3205 112.807 41.3034 112.714 41.2905C112.62 41.2774 112.524 41.2603 112.427 41.2398C112.333 41.2227 112.224 41.2022 112.099 41.1792C111.973 41.1563 111.845 41.1214 111.714 41.0771C111.582 41.0324 111.452 40.9765 111.322 40.9083C111.193 40.8407 111.077 40.7538 110.975 40.6471C110.873 40.5413 110.791 40.4146 110.73 40.2688C110.668 40.1223 110.638 39.9495 110.638 39.7501C110.638 39.4568 110.695 39.2149 110.809 39.024C110.924 38.8329 111.069 38.6809 111.246 38.5689C111.422 38.4558 111.618 38.3778 111.835 38.3331C112.051 38.2888 112.262 38.2662 112.465 38.2662C112.822 38.2662 113.141 38.3175 113.423 38.4221C113.705 38.5264 113.976 38.6775 114.235 38.8772C114.269 38.9072 114.288 38.9433 114.292 38.9855C114.297 39.0277 114.286 39.0662 114.26 39.0999L113.764 39.8066C113.738 39.8412 113.704 39.862 113.662 39.8703C113.619 39.8788 113.581 39.8703 113.548 39.8449C113.331 39.7091 113.129 39.6127 112.943 39.5556C112.756 39.4984 112.584 39.4699 112.427 39.4699C112.38 39.4699 112.326 39.4705 112.264 39.473C112.203 39.4751 112.144 39.4837 112.089 39.4984C112.034 39.5127 111.988 39.5375 111.952 39.5712C111.916 39.6057 111.899 39.6519 111.899 39.7115C111.899 39.7706 111.943 39.8235 112.032 39.8703C112.121 39.9174 112.223 39.958 112.338 39.9917C112.452 40.0253 112.562 40.0522 112.669 40.0709C112.775 40.0898 112.843 40.1021 112.872 40.1061C113.025 40.136 113.193 40.1798 113.375 40.2366C113.558 40.2941 113.729 40.3792 113.888 40.4914C114.047 40.6043 114.181 40.7498 114.289 40.9303C114.397 41.1116 114.452 41.337 114.452 41.6089C114.452 41.8637 114.407 42.0833 114.318 42.2674C114.229 42.4524 114.104 42.6044 113.945 42.7237C113.786 42.8414 113.595 42.9298 113.372 42.9876C113.149 43.0448 112.902 43.0732 112.631 43.0732C112.41 43.0732 112.204 43.0552 112.013 43.0188C111.822 42.9827 111.643 42.9329 111.478 42.8693C111.313 42.8056 111.159 42.7304 111.016 42.6435C110.874 42.557 110.744 42.464 110.625 42.3668C110.591 42.3414 110.571 42.3059 110.567 42.2613C110.563 42.2166 110.574 42.1775 110.599 42.1438L111.09 41.437C111.115 41.4031 111.149 41.3817 111.191 41.3734C111.234 41.3649 111.272 41.371 111.306 41.3924Z" fill="white"/>
<path d="M36.3922 35.3342L29.6435 24.9596C29.5263 24.7799 29.2631 24.7799 29.1461 24.9596L25.7342 30.2098C25.6172 30.3897 25.3538 30.3899 25.2366 30.2098L20.3466 22.6936C20.2294 22.5137 19.966 22.5137 19.849 22.6936L14.9588 30.21C14.8418 30.3899 14.5784 30.3899 14.4614 30.2102L11.0444 24.9594C10.9274 24.7795 10.664 24.7795 10.5468 24.9594L3.80169 35.3286C3.37859 31.2709 4.4626 27.1911 7.00675 23.745L19.8014 6.41664C19.9483 6.21747 20.2461 6.21747 20.3929 6.41664L33.1876 23.745C35.7332 27.1926 36.8166 31.2746 36.3922 35.3342ZM35.8034 38.3089C35.6068 38.9811 35.3722 39.6488 35.0919 40.308C35.0875 40.3185 35.0832 40.3288 35.0789 40.3392C34.9965 40.532 34.909 40.7235 34.8185 40.9143C34.8082 40.9361 34.7993 40.9583 34.7888 40.9798C34.7871 40.9835 34.7856 40.9869 34.7841 40.9905C33.5065 43.6549 31.6388 45.834 29.3713 47.4066C26.6649 46.6029 22.4602 45.1451 22.3735 43.8199C22.2452 41.863 29.7887 39.9552 25.3406 38.4999C19.4763 36.5813 22.7157 35.4898 24.419 35.1036C28.6404 35.3038 32.8592 35.8512 36.1155 37.0725C36.0276 37.4862 35.9234 37.8982 35.8034 38.3089ZM18.0396 36.6459C17.7384 38.2685 20.774 38.2135 20.8252 39.264C20.8762 40.3142 14.1875 40.3326 11.8287 42.4163C9.77207 44.2329 10.0526 46.0844 11.3268 47.7418C8.83215 46.1503 6.78154 43.8495 5.41041 40.9905C5.30603 40.773 5.2074 40.5542 5.11369 40.3347C5.1107 40.3285 5.10856 40.3223 5.10579 40.3164C4.82422 39.6544 4.58833 38.9839 4.39109 38.3087C4.27111 37.8979 4.16694 37.4855 4.07899 37.0718C8.45751 35.4309 14.5765 35.006 20.099 35.006C20.6685 35.006 21.2451 35.0118 21.8247 35.0216C20.7033 35.23 18.1989 35.7882 18.0396 36.6459ZM20.3929 0.148888C20.2458 -0.0500679 19.9483 -0.0500679 19.8014 0.148888L4.01175 21.5336C-5.57356 34.5155 3.02423 53.2818 19.148 53.9359C19.4628 53.9487 19.7794 53.9551 20.0973 53.9551C20.4151 53.9551 20.7315 53.9487 21.0461 53.9359C37.1703 53.2818 45.7679 34.5155 36.1828 21.5336L20.3929 0.148888Z" fill="white"/>
<path d="M4.07812 37.0722C4.16608 37.4859 4.27025 37.8984 4.39022 38.3091C4.58747 38.9843 4.82336 39.655 5.10514 40.3168C5.1077 40.323 5.10983 40.329 5.11282 40.3351C5.20654 40.5546 5.30537 40.7734 5.40955 40.9909C6.78068 43.85 8.83129 46.1508 11.3259 47.7422C10.0517 46.085 9.7712 44.2334 11.8278 42.4167C14.1867 40.333 20.8756 40.3147 20.8243 39.2646C20.7733 38.2141 17.7375 38.269 18.0388 36.6464C18.1982 35.7886 20.7025 35.2304 21.8238 35.022C21.2445 35.0124 20.6677 35.0065 20.0981 35.0065C14.5756 35.0065 8.45665 35.4313 4.07812 37.0722Z" fill="#040229"/>
<path d="M25.3415 38.4976C29.7894 39.9529 22.246 41.8606 22.3742 43.8175C22.4611 45.1428 26.6657 46.6006 29.3723 47.4043C31.6396 45.8314 33.5072 43.6523 34.7849 40.9882C34.7866 40.9846 34.7881 40.9811 34.7898 40.9775C34.8 40.956 34.8092 40.9338 34.8192 40.912C34.9097 40.7211 34.9973 40.5297 35.0799 40.3369C35.0841 40.3264 35.0884 40.3162 35.0929 40.3057C35.373 39.6465 35.6076 38.9788 35.8044 38.3063C35.9242 37.8958 36.0283 37.4838 36.1163 37.0701C32.8602 35.8489 28.6411 35.3015 24.4199 35.1013C22.7167 35.4875 19.4772 36.5789 25.3415 38.4976Z" fill="#040229"/>
<path d="M20.0994 19.3172C18.331 19.3172 16.8975 17.8837 16.8975 16.1151C16.8975 14.3467 18.331 12.9132 20.0994 12.9132C21.8678 12.9132 23.3012 14.3467 23.3012 16.1151C23.3012 17.8837 21.8678 19.3172 20.0994 19.3172ZM20.3954 6.41451C20.2486 6.21534 19.9508 6.21534 19.8039 6.41451L7.00927 23.7429C4.4649 27.1889 3.3811 31.2688 3.80399 35.3265L10.5493 24.9573C10.6665 24.7773 10.9297 24.7773 11.0469 24.9573L14.4637 30.2081C14.5809 30.3878 14.8441 30.3878 14.9613 30.2079L19.8515 22.6915C19.9685 22.5116 20.2319 22.5116 20.3489 22.6915L25.2389 30.2076C25.3561 30.3878 25.6195 30.3876 25.7365 30.2076L29.1484 24.9575C29.2654 24.7778 29.5288 24.7778 29.646 24.9575L36.3945 35.332C36.8189 31.2724 35.7355 27.1904 33.1901 23.7429L20.3954 6.41451Z" fill="#040229"/>
<path d="M20.0964 12.9164C18.328 12.9164 16.8945 14.3498 16.8945 16.1182C16.8945 17.8868 18.328 19.3203 20.0964 19.3203C21.8648 19.3203 23.2983 17.8868 23.2983 16.1182C23.2983 14.3498 21.8648 12.9164 20.0964 12.9164Z" fill="white"/>
</g>
<g opacity="0.65" clip-path="url(#clip0_322_12139)">
<path d="M204.601 32.8261V44.7391H193V32.8261H204.601ZM348.241 20.7293C350.093 20.7293 351.704 21.2983 352.933 22.3829L351.305 24.6765C350.336 23.8409 349.072 23.4319 347.929 23.4319C347.063 23.4319 346.683 23.7342 346.683 24.2498C346.683 25.7078 353.21 24.6054 353.21 29.0149C353.21 31.3974 351.496 32.9799 348.397 32.9799C346.059 32.9799 344.432 32.2153 343.272 31.0952L344.847 28.7126C345.678 29.5661 346.96 30.2773 348.552 30.2773C349.557 30.2773 350.18 29.9217 350.18 29.3349C350.18 27.7703 343.653 29.0682 343.653 24.4987C343.653 22.5073 345.28 20.7293 348.241 20.7293ZM216.202 20.913V32.8261H204.601V20.913H216.202ZM251.454 20.9071L253.878 27.4502L256.285 20.9071H260.423V32.7665H257.445V24.9254L254.536 32.7665H253.22L250.294 24.9254V32.7665H247.316V20.9071H251.454ZM269.808 20.9071V32.7665H266.829V20.9071H269.808ZM278.776 20.9071L281.027 24.6232L283.261 20.9071H286.793L283.036 26.6679L287.052 32.7665H283.538L281.027 28.7838L278.517 32.7665H275.002L279.019 26.6857L275.261 20.9071H278.776ZM301.025 20.9071V23.5741H297.805V32.7665H294.827V23.5741H291.589V20.9071H301.025ZM309.751 20.9071V32.7665H306.773V20.9071H309.751ZM319.084 20.9071V30.0995H323.724V32.7665H316.106V20.9071H319.084ZM338.043 20.9071V23.5741H332.554V25.4233H337.922V28.0903H332.554V30.0995H338.043V32.7665H329.576V20.9071H338.043ZM227.802 9V20.913H216.202V9H227.802Z" fill="white"/>
</g>
<g opacity="0.65">
<path fill-rule="evenodd" clip-rule="evenodd" d="M467.816 25.8115L469.249 24.0958C470.241 24.9144 471.279 25.4338 472.539 25.4338C473.531 25.4338 474.129 25.0399 474.129 24.3951V24.3635C474.129 23.7495 473.752 23.4341 471.91 22.9624C469.69 22.3954 468.257 21.7814 468.257 19.5933V19.5617C468.257 17.5621 469.863 16.2402 472.114 16.2402C473.72 16.2402 475.09 16.7435 476.207 17.6413L474.948 19.4671C473.972 18.7901 473.011 18.3807 472.083 18.3807C471.154 18.3807 470.666 18.8062 470.666 19.3417V19.3725C470.666 20.0972 471.138 20.3334 473.043 20.8212C475.278 21.4037 476.538 22.2062 476.538 24.1273V24.1589C476.538 26.347 474.869 27.575 472.492 27.575C470.823 27.575 469.139 26.9925 467.816 25.8115Z" fill="white"/>
<path fill-rule="evenodd" clip-rule="evenodd" d="M480.349 18.6316H476.996V16.3965H486.127V18.6316H482.774V27.4158H480.349V18.6316Z" fill="white"/>
<path fill-rule="evenodd" clip-rule="evenodd" d="M491.948 22.7965L490.484 19.2227L489.02 22.7965H491.948ZM489.398 16.3125H491.634L496.357 27.411H493.822L492.814 24.9397H488.155L487.147 27.411H484.676L489.398 16.3125Z" fill="white"/>
<path fill-rule="evenodd" clip-rule="evenodd" d="M497.43 16.3965H499.665L504.829 23.1818V16.3965H507.222V27.4165H505.159L499.823 20.4112V27.4165H497.43V16.3965Z" fill="white"/>
<path fill-rule="evenodd" clip-rule="evenodd" d="M511.656 18.5898V25.2335H513.53C515.513 25.2335 516.851 23.8949 516.851 21.9429V21.9113C516.851 19.9594 515.513 18.5898 513.53 18.5898H511.656ZM509.234 16.4043H513.532C516.995 16.4043 519.388 18.7817 519.388 21.8824V21.914C519.388 25.0154 516.995 27.4243 513.532 27.4243H509.234V16.4043Z" fill="white"/>
<path fill-rule="evenodd" clip-rule="evenodd" d="M526.139 22.7965L524.675 19.2227L523.211 22.7965H526.139ZM523.59 16.3125H525.826L530.548 27.411H528.014L527.006 24.9397H522.346L521.339 27.411H518.867L523.59 16.3125Z" fill="white"/>
<path fill-rule="evenodd" clip-rule="evenodd" d="M536.179 21.7524C537.36 21.7524 538.036 21.123 538.036 20.1936V20.1621C538.036 19.1234 537.312 18.5879 536.132 18.5879H533.723V21.7524H536.179ZM531.301 16.4023H536.339C537.74 16.4023 538.826 16.7962 539.55 17.5203C540.164 18.1342 540.494 18.9998 540.494 20.0392V20.0708C540.494 21.8496 539.534 22.9668 538.133 23.4869L540.825 27.4224H537.991L535.63 23.8962H533.725V27.4224H531.301V16.4023Z" fill="white"/>
<path fill-rule="evenodd" clip-rule="evenodd" d="M544.48 18.5898V25.2335H546.354C548.337 25.2335 549.675 23.8949 549.675 21.9429V21.9113C549.675 19.9594 548.337 18.5898 546.354 18.5898H544.48ZM542.059 16.4043H546.356C549.82 16.4043 552.212 18.7817 552.212 21.8824V21.914C552.212 25.0154 549.82 27.4243 546.356 27.4243H542.059V16.4043Z" fill="white"/>
<path fill-rule="evenodd" clip-rule="evenodd" d="M557.828 16.3965H560.442L563.338 21.056L566.235 16.3965H568.848V27.4165H566.439V20.2219L563.338 24.9291H563.275L560.206 20.2689V27.4165H557.828V16.3965Z" fill="white"/>
<path fill-rule="evenodd" clip-rule="evenodd" d="M570.863 16.3965H579.175V18.5531H573.272V20.7889H578.467V22.9456H573.272V25.2599H579.254V27.4165H570.863V16.3965Z" fill="white"/>
<path fill-rule="evenodd" clip-rule="evenodd" d="M583.345 18.6316H579.992V16.3965H589.123V18.6316H585.77V27.4158H583.345V18.6316Z" fill="white"/>
<path fill-rule="evenodd" clip-rule="evenodd" d="M594.948 22.7965L593.484 19.2227L592.02 22.7965H594.948ZM592.398 16.3125H594.634L599.357 27.411H596.822L595.814 24.9397H591.155L590.147 27.411H587.676L592.398 16.3125Z" fill="white"/>
<path fill-rule="evenodd" clip-rule="evenodd" d="M600.426 16.3965H602.85V25.2122H608.344V27.4165H600.426V16.3965Z" fill="white"/>
<path fill-rule="evenodd" clip-rule="evenodd" d="M468.262 30.6387H468.531V34.7655H474.654V30.6387H474.923V39.2105H474.654V35.0101H468.531V39.2105H468.262V30.6387Z" fill="white"/>
<path fill-rule="evenodd" clip-rule="evenodd" d="M468.262 30.6387H468.531V34.7655H474.654V30.6387H474.923V39.2105H474.654V35.0101H468.531V39.2105H468.262V30.6387Z" stroke="white" stroke-width="0.193269"/>
<path fill-rule="evenodd" clip-rule="evenodd" d="M493.209 36.3929L490.6 30.9316L487.992 36.3929H493.209ZM490.49 30.5762H490.723L494.85 39.2097H494.556L493.331 36.6381H487.869L486.645 39.2097H486.363L490.49 30.5762Z" fill="white"/>
<path d="M493.209 36.3929V36.4896H493.362L493.296 36.3513L493.209 36.3929ZM490.6 30.9316L490.687 30.89L490.6 30.7074L490.513 30.89L490.6 30.9316ZM487.992 36.3929L487.905 36.3513L487.839 36.4896H487.992V36.3929ZM490.49 30.5762V30.4795H490.429L490.403 30.5345L490.49 30.5762ZM490.723 30.5762L490.81 30.5345L490.784 30.4795H490.723V30.5762ZM494.85 39.2097V39.3063H495.003L494.937 39.168L494.85 39.2097ZM494.556 39.2097L494.469 39.2513L494.495 39.3063H494.556V39.2097ZM493.331 36.6381L493.418 36.5966L493.392 36.5415H493.331V36.6381ZM487.869 36.6381V36.5415H487.808L487.782 36.5966L487.869 36.6381ZM486.645 39.2097V39.3063H486.706L486.732 39.2512L486.645 39.2097ZM486.363 39.2097L486.276 39.168L486.21 39.3063H486.363V39.2097ZM493.296 36.3513L490.687 30.89L490.513 30.9733L493.122 36.4346L493.296 36.3513ZM490.513 30.89L487.905 36.3513L488.079 36.4346L490.687 30.9733L490.513 30.89ZM487.992 36.4896H493.209V36.2963H487.992V36.4896ZM490.49 30.6728H490.723V30.4795H490.49V30.6728ZM490.636 30.6178L494.762 39.2514L494.937 39.168L490.81 30.5345L490.636 30.6178ZM494.85 39.1131H494.556V39.3063H494.85V39.1131ZM494.643 39.1681L493.418 36.5966L493.244 36.6797L494.469 39.2513L494.643 39.1681ZM493.331 36.5415H487.869V36.7348H493.331V36.5415ZM487.782 36.5966L486.558 39.1681L486.732 39.2512L487.957 36.6797L487.782 36.5966ZM486.645 39.1131H486.363V39.3063H486.645V39.1131ZM486.45 39.2514L490.577 30.6178L490.403 30.5345L486.276 39.168L486.45 39.2514Z" fill="white"/>
<path fill-rule="evenodd" clip-rule="evenodd" d="M509.664 35.2317C511.649 35.2317 512.603 34.289 512.603 33.0764V33.0519C512.603 31.6929 511.55 30.8848 509.774 30.8848H506.566V35.2317H509.664ZM506.293 30.6406H509.795C510.91 30.6406 511.73 30.9224 512.257 31.4494C512.649 31.8412 512.869 32.3795 512.869 33.0412V33.0657C512.869 34.5102 511.718 35.3674 510.065 35.4655L512.918 39.2125H512.588L509.747 35.4781H506.563V39.2125H506.293V30.6406Z" fill="white"/>
<path d="M506.566 30.8848V30.7881H506.47V30.8848H506.566ZM506.566 35.2317H506.47V35.3283H506.566V35.2317ZM506.293 30.6406V30.544H506.196V30.6406H506.293ZM512.257 31.4494L512.188 31.5177L512.188 31.5178L512.257 31.4494ZM510.065 35.4655L510.059 35.3691L509.878 35.3798L509.988 35.5241L510.065 35.4655ZM512.918 39.2125V39.3091H513.113L512.995 39.1539L512.918 39.2125ZM512.588 39.2125L512.511 39.271L512.54 39.3091H512.588V39.2125ZM509.747 35.4781L509.824 35.4196L509.795 35.3815H509.747V35.4781ZM506.563 35.4781V35.3815H506.466V35.4781H506.563ZM506.563 39.2125V39.3091H506.659V39.2125H506.563ZM506.293 39.2125H506.196V39.3091H506.293V39.2125ZM509.664 35.3283C510.671 35.3283 511.429 35.0894 511.938 34.6844C512.449 34.2776 512.7 33.7102 512.7 33.0764H512.507C512.507 33.6553 512.28 34.1654 511.818 34.5331C511.353 34.9026 510.642 35.135 509.664 35.135V35.3283ZM512.7 33.0764V33.0519H512.507V33.0764H512.7ZM512.7 33.0519C512.7 32.3446 512.424 31.7736 511.913 31.382C511.406 30.993 510.675 30.7881 509.774 30.7881V30.9814C510.649 30.9814 511.333 31.1806 511.796 31.5354C512.255 31.8877 512.507 32.4002 512.507 33.0519H512.7ZM509.774 30.7881H506.566V30.9814H509.774V30.7881ZM506.47 30.8848V35.2317H506.663V30.8848H506.47ZM506.566 35.3283H509.664V35.135H506.566V35.3283ZM506.293 30.7373H509.795V30.544H506.293V30.7373ZM509.795 30.7373C510.895 30.7373 511.687 31.0153 512.188 31.5177L512.325 31.3812C511.774 30.8294 510.924 30.544 509.795 30.544V30.7373ZM512.188 31.5178C512.56 31.8896 512.773 32.4023 512.773 33.0412H512.966C512.966 32.3567 512.737 31.7929 512.325 31.3811L512.188 31.5178ZM512.773 33.0412V33.0657H512.966V33.0412H512.773ZM512.773 33.0657C512.773 33.7594 512.498 34.3073 512.026 34.6959C511.551 35.0865 510.872 35.3208 510.059 35.3691L510.071 35.562C510.911 35.5121 511.634 35.2687 512.148 34.8451C512.665 34.4194 512.966 33.8165 512.966 33.0657H512.773ZM509.988 35.5241L512.841 39.271L512.995 39.1539L510.142 35.407L509.988 35.5241ZM512.918 39.1158H512.588V39.3091H512.918V39.1158ZM512.665 39.154L509.824 35.4196L509.67 35.5367L512.511 39.271L512.665 39.154ZM509.747 35.3815H506.563V35.5748H509.747V35.3815ZM506.466 35.4781V39.2125H506.659V35.4781H506.466ZM506.563 39.1158H506.293V39.3091H506.563V39.1158ZM506.39 39.2125V30.6406H506.196V39.2125H506.39Z" fill="white"/>
<path fill-rule="evenodd" clip-rule="evenodd" d="M525.148 30.8848V38.9667H527.646C530.17 38.9667 531.92 37.1913 531.92 34.9499V34.9261C531.92 32.6727 530.157 30.8848 527.622 30.8848H525.148ZM524.875 30.6406H527.63C530.324 30.6406 532.185 32.5022 532.185 34.9146V34.9392C532.185 37.3516 530.324 39.2125 527.63 39.2125H524.875V30.6406Z" fill="white"/>
<path d="M525.148 30.8848V30.7881H525.052V30.8848H525.148ZM525.148 38.9667H525.052V39.0633H525.148V38.9667ZM524.875 30.6406V30.544H524.778V30.6406H524.875ZM524.875 39.2125H524.778V39.3091H524.875V39.2125ZM525.052 30.8848V38.9667H525.245V30.8848H525.052ZM525.148 39.0633H527.646V38.8701H525.148V39.0633ZM527.646 39.0633C530.219 39.0633 532.017 37.2483 532.017 34.9499H531.824C531.824 37.1344 530.12 38.8701 527.646 38.8701V39.0633ZM532.017 34.9499V34.9261H531.824V34.9499H532.017ZM532.017 34.9261C532.017 32.6158 530.207 30.7881 527.622 30.7881V30.9814C530.107 30.9814 531.824 32.7296 531.824 34.9261H532.017ZM527.622 30.7881H525.148V30.9814H527.622V30.7881ZM524.875 30.7373H527.63V30.544H524.875V30.7373ZM527.63 30.7373C530.275 30.7373 532.089 32.5596 532.089 34.9146H532.282C532.282 32.4448 530.374 30.544 527.63 30.544V30.7373ZM532.089 34.9146V34.9392H532.282V34.9146H532.089ZM532.089 34.9392C532.089 37.2942 530.275 39.1158 527.63 39.1158V39.3091C530.374 39.3091 532.282 37.409 532.282 34.9392H532.089ZM527.63 39.1158H524.875V39.3091H527.63V39.1158ZM524.972 39.2125V30.6406H524.778V39.2125H524.972Z" fill="white"/>
<path fill-rule="evenodd" clip-rule="evenodd" d="M542.902 30.6398H543.184L545.878 38.8443L548.486 30.6152H548.694L551.315 38.8563L554.009 30.6398H554.278L551.425 39.2726H551.192L548.584 31.1178L545.988 39.2726H545.756L542.902 30.6398Z" fill="white"/>
<path fill-rule="evenodd" clip-rule="evenodd" d="M542.902 30.6398H543.184L545.878 38.8443L548.486 30.6152H548.694L551.315 38.8563L554.009 30.6398H554.278L551.425 39.2726H551.192L548.584 31.1178L545.988 39.2726H545.756L542.902 30.6398Z" stroke="white" stroke-width="0.193269"/>
<path fill-rule="evenodd" clip-rule="evenodd" d="M570.725 36.3929L568.116 30.9316L565.508 36.3929H570.725ZM568.006 30.5762H568.238L572.365 39.2097H572.072L570.846 36.6381H565.385L564.161 39.2097H563.879L568.006 30.5762Z" fill="white"/>
<path d="M570.725 36.3929V36.4896H570.878L570.812 36.3513L570.725 36.3929ZM568.116 30.9316L568.203 30.89L568.116 30.7074L568.029 30.89L568.116 30.9316ZM565.508 36.3929L565.421 36.3513L565.355 36.4896H565.508V36.3929ZM568.006 30.5762V30.4795H567.945L567.919 30.5345L568.006 30.5762ZM568.238 30.5762L568.326 30.5345L568.299 30.4795H568.238V30.5762ZM572.365 39.2097V39.3063H572.519L572.452 39.168L572.365 39.2097ZM572.072 39.2097L571.984 39.2513L572.011 39.3063H572.072V39.2097ZM570.846 36.6381L570.934 36.5966L570.907 36.5415H570.846V36.6381ZM565.385 36.6381V36.5415H565.324L565.298 36.5966L565.385 36.6381ZM564.161 39.2097V39.3063H564.222L564.248 39.2512L564.161 39.2097ZM563.879 39.2097L563.792 39.168L563.726 39.3063H563.879V39.2097ZM570.812 36.3513L568.203 30.89L568.029 30.9733L570.637 36.4346L570.812 36.3513ZM568.029 30.89L565.421 36.3513L565.595 36.4346L568.203 30.9733L568.029 30.89ZM565.508 36.4896H570.725V36.2963H565.508V36.4896ZM568.006 30.6728H568.238V30.4795H568.006V30.6728ZM568.151 30.6178L572.278 39.2514L572.452 39.168L568.326 30.5345L568.151 30.6178ZM572.365 39.1131H572.072V39.3063H572.365V39.1131ZM572.159 39.1681L570.934 36.5966L570.759 36.6797L571.984 39.2513L572.159 39.1681ZM570.846 36.5415H565.385V36.7348H570.846V36.5415ZM565.298 36.5966L564.073 39.1681L564.248 39.2512L565.472 36.6797L565.298 36.5966ZM564.161 39.1131H563.879V39.3063H564.161V39.1131ZM563.966 39.2514L568.093 30.6178L567.919 30.5345L563.792 39.168L563.966 39.2514Z" fill="white"/>
<path fill-rule="evenodd" clip-rule="evenodd" d="M587.18 35.2317C589.164 35.2317 590.119 34.289 590.119 33.0764V33.0519C590.119 31.6929 589.065 30.8848 587.29 30.8848H584.082V35.2317H587.18ZM583.809 30.6406H587.311C588.425 30.6406 589.246 30.9224 589.772 31.4494C590.164 31.8412 590.385 32.3795 590.385 33.0412V33.0657C590.385 34.5102 589.233 35.3674 587.581 35.4655L590.433 39.2125H590.103L587.263 35.4781H584.078V39.2125H583.809V30.6406Z" fill="white"/>
<path d="M584.082 30.8848V30.7881H583.985V30.8848H584.082ZM584.082 35.2317H583.985V35.3283H584.082V35.2317ZM583.809 30.6406V30.544H583.712V30.6406H583.809ZM589.772 31.4494L589.704 31.5177L589.704 31.5178L589.772 31.4494ZM587.581 35.4655L587.575 35.3691L587.394 35.3798L587.504 35.5241L587.581 35.4655ZM590.433 39.2125V39.3091H590.628L590.51 39.1539L590.433 39.2125ZM590.103 39.2125L590.026 39.271L590.055 39.3091H590.103V39.2125ZM587.263 35.4781L587.339 35.4196L587.31 35.3815H587.263V35.4781ZM584.078 35.4781V35.3815H583.982V35.4781H584.078ZM584.078 39.2125V39.3091H584.175V39.2125H584.078ZM583.809 39.2125H583.712V39.3091H583.809V39.2125ZM587.18 35.3283C588.186 35.3283 588.945 35.0894 589.454 34.6844C589.965 34.2776 590.215 33.7102 590.215 33.0764H590.022C590.022 33.6553 589.795 34.1654 589.333 34.5331C588.869 34.9026 588.158 35.135 587.18 35.135V35.3283ZM590.215 33.0764V33.0519H590.022V33.0764H590.215ZM590.215 33.0519C590.215 32.3446 589.94 31.7736 589.429 31.382C588.921 30.993 588.191 30.7881 587.29 30.7881V30.9814C588.165 30.9814 588.848 31.1806 589.311 31.5354C589.771 31.8877 590.022 32.4002 590.022 33.0519H590.215ZM587.29 30.7881H584.082V30.9814H587.29V30.7881ZM583.985 30.8848V35.2317H584.179V30.8848H583.985ZM584.082 35.3283H587.18V35.135H584.082V35.3283ZM583.809 30.7373H587.311V30.544H583.809V30.7373ZM587.311 30.7373C588.411 30.7373 589.202 31.0153 589.704 31.5177L589.841 31.3812C589.29 30.8294 588.44 30.544 587.311 30.544V30.7373ZM589.704 31.5178C590.076 31.8896 590.288 32.4023 590.288 33.0412H590.482C590.482 32.3567 590.253 31.7929 589.841 31.3811L589.704 31.5178ZM590.288 33.0412V33.0657H590.482V33.0412H590.288ZM590.288 33.0657C590.288 33.7594 590.013 34.3073 589.541 34.6959C589.067 35.0865 588.387 35.3208 587.575 35.3691L587.586 35.562C588.427 35.5121 589.15 35.2687 589.664 34.8451C590.181 34.4194 590.482 33.8165 590.482 33.0657H590.288ZM587.504 35.5241L590.356 39.271L590.51 39.1539L587.658 35.407L587.504 35.5241ZM590.433 39.1158H590.103V39.3091H590.433V39.1158ZM590.18 39.154L587.339 35.4196L587.186 35.5367L590.026 39.271L590.18 39.154ZM587.263 35.3815H584.078V35.5748H587.263V35.3815ZM583.982 35.4781V39.2125H584.175V35.4781H583.982ZM584.078 39.1158H583.809V39.3091H584.078V39.1158ZM583.905 39.2125V30.6406H583.712V39.2125H583.905Z" fill="white"/>
<path fill-rule="evenodd" clip-rule="evenodd" d="M602.391 30.6387H608.378V30.884H602.66V34.7774H607.852V35.0227H602.66V38.9652H608.44V39.2105H602.391V30.6387Z" fill="white"/>
<path fill-rule="evenodd" clip-rule="evenodd" d="M602.391 30.6387H608.378V30.884H602.66V34.7774H607.852V35.0227H602.66V38.9652H608.44V39.2105H602.391V30.6387Z" stroke="white" stroke-width="0.193269"/>
<mask id="mask0_322_12139" style="mask-type:alpha" maskUnits="userSpaceOnUse" x="441" y="10" width="17" height="34">
<path fill-rule="evenodd" clip-rule="evenodd" d="M441.926 10H457.541V43.545H441.926V10Z" fill="white"/>
</mask>
<g mask="url(#mask0_322_12139)">
<path fill-rule="evenodd" clip-rule="evenodd" d="M441.926 10V17.1532H450.388V36.3919H441.926V43.5451H457.541V10H441.926Z" fill="white"/>
</g>
<mask id="mask1_322_12139" style="mask-type:alpha" maskUnits="userSpaceOnUse" x="424" y="10" width="16" height="34">
<path fill-rule="evenodd" clip-rule="evenodd" d="M424 10H439.661V43.5448H424V10Z" fill="white"/>
</mask>
<g mask="url(#mask1_322_12139)">
<path fill-rule="evenodd" clip-rule="evenodd" d="M439.661 36.3919H431.153V17.1525H439.661V10H424V43.5451H439.661V36.3919Z" fill="white"/>
</g>
</g>
<g opacity="0.65">
<path d="M685.381 37.3702C680.743 37.3702 678.64 35.3964 679.05 31.4598H683.731C683.666 32.0853 683.828 32.6138 684.216 33.0344C684.605 33.4551 685.263 33.6708 686.169 33.6708C687.031 33.6708 687.722 33.5306 688.229 33.2501C688.735 32.9697 689.027 32.5922 689.113 32.1177C689.21 31.6 688.951 31.2117 688.347 30.9636C687.743 30.7156 686.988 30.5106 686.104 30.3596C685.209 30.2086 684.324 30.0037 683.44 29.7449C682.555 29.486 681.854 28.9791 681.337 28.2133C680.819 27.4584 680.679 26.4445 680.894 25.1934C681.175 23.608 682.038 22.2814 683.483 21.2028C684.928 20.1243 686.675 19.5742 688.703 19.5742C691.022 19.5742 692.64 20.1566 693.557 21.3322C694.473 22.4971 694.851 23.8345 694.667 25.3229H690.213C690.278 24.7404 690.116 24.2551 689.738 23.8668C689.361 23.4785 688.789 23.2844 688.002 23.2844C687.269 23.2844 686.665 23.4462 686.201 23.759C685.737 24.0717 685.457 24.4708 685.37 24.9454C685.284 25.4631 685.532 25.8406 686.147 26.0778C686.751 26.3151 687.506 26.5093 688.401 26.6495C689.296 26.7897 690.181 26.9946 691.054 27.2534C691.928 27.5123 692.618 28.03 693.136 28.8173C693.643 29.5939 693.794 30.6401 693.557 31.9343C693.276 33.5198 692.402 34.8248 690.936 35.8494C689.458 36.8525 687.603 37.3702 685.381 37.3702Z" fill="white"/>
<path d="M711.981 29.8018H699.642C699.588 30.9666 699.858 31.8618 700.473 32.4766C701.077 33.0914 701.961 33.4041 703.137 33.4041C703.87 33.4041 704.571 33.2424 705.218 32.9296C705.865 32.6168 706.383 32.153 706.75 31.549H711.398C710.589 33.2855 709.371 34.6876 707.721 35.7554C706.07 36.8231 704.269 37.3624 702.317 37.3624C699.804 37.3624 697.895 36.5319 696.59 34.8602C695.285 33.1884 694.854 31.0529 695.317 28.432C695.759 25.8975 696.935 23.7835 698.833 22.101C700.732 20.4077 702.932 19.5664 705.423 19.5664C707.915 19.5664 709.791 20.4077 711.064 22.0794C712.337 23.7619 712.747 25.8759 712.304 28.432L711.981 29.8018ZM704.722 23.2766C703.687 23.2766 702.781 23.5678 702.004 24.1394C701.228 24.7111 700.656 25.4984 700.289 26.4907H708.023C708.023 25.52 707.731 24.7326 707.17 24.1502C706.599 23.5678 705.779 23.2766 704.722 23.2766Z" fill="white"/>
<path d="M717.694 36.9727H713.078L717.371 12.6191H721.987L717.694 36.9727Z" fill="white"/>
<path d="M725.722 36.9727H721.105L725.398 12.6191H730.014L725.722 36.9727Z" fill="white"/>
<path d="M741.111 29.6413L742.815 19.9668H747.431L744.433 36.9862H740.183L740.55 34.9046C739.374 36.5548 737.562 37.3745 735.114 37.3745C733.119 37.3745 731.695 36.7597 730.843 35.541C729.991 34.3222 729.743 32.6613 730.11 30.5905L731.986 19.9668H736.602L734.823 30.0728C734.435 32.3053 735.179 33.4162 737.055 33.4162C738.177 33.4162 739.083 33.0927 739.773 32.4456C740.442 31.7876 740.895 30.8493 741.111 29.6413Z" fill="white"/>
<path d="M752.767 35.1631L751.257 43.7375H746.641L750.836 19.9664H755.086L754.719 22.048C756.132 20.3978 758.073 19.5781 760.543 19.5781C762.948 19.5781 764.706 20.4194 765.817 22.1127C766.928 23.806 767.252 25.92 766.809 28.4761C766.356 31.0322 765.278 33.157 763.574 34.8395C761.87 36.5328 759.81 37.3741 757.415 37.3741C756.294 37.3741 755.323 37.1584 754.525 36.7377C753.716 36.3171 753.133 35.7886 752.767 35.1631ZM755.582 24.9924C754.654 25.8984 754.061 27.0632 753.813 28.4653C753.565 29.8782 753.748 31.0322 754.352 31.9382C754.956 32.8442 755.895 33.2972 757.146 33.2972C758.397 33.2972 759.497 32.8442 760.424 31.9382C761.352 31.0322 761.945 29.8674 762.193 28.4653C762.441 27.0632 762.258 25.8984 761.654 24.9924C761.05 24.0864 760.112 23.6334 758.861 23.6334C757.599 23.6334 756.509 24.0864 755.582 24.9924Z" fill="white"/>
<path d="M696.157 15.3465L688.629 11L681.09 15.3465V19.7686L688.629 15.422L696.157 19.7686V15.3465Z" fill="white"/>
</g>
<g opacity="0.65">
<path fill-rule="evenodd" clip-rule="evenodd" d="M901.073 19.0815C900.629 19.0304 900.145 19.0039 899.621 19.0039H897.773V21.6289H899.496C899.773 21.6289 900.029 21.6422 900.264 21.6687C900.502 21.6933 900.715 21.7311 900.901 21.7803C901.092 21.8314 901.27 21.9052 901.427 21.9942C901.59 22.0869 901.73 22.2005 901.85 22.3311C901.968 22.4597 902.072 22.6149 902.157 22.7891C902.24 22.9575 902.306 23.1505 902.354 23.3644C902.403 23.5688 902.439 23.7997 902.462 24.0533C902.487 24.305 902.498 24.5794 902.498 24.869V28.1943C902.498 28.4876 902.487 28.7601 902.462 29.0118C902.439 29.2654 902.403 29.4963 902.354 29.7007C902.306 29.9108 902.24 30.1058 902.157 30.2761C902.073 30.4502 901.968 30.6054 901.851 30.7341C901.73 30.8647 901.59 30.9782 901.429 31.071C901.271 31.1618 901.092 31.2337 900.901 31.2848C900.715 31.334 900.502 31.3738 900.264 31.3984C900.029 31.423 899.773 31.4343 899.496 31.4343H897.773V34.0631H899.621C900.147 34.0631 900.631 34.0366 901.073 33.9855C901.517 33.9344 901.921 33.8587 902.281 33.7603C902.641 33.6619 902.965 33.5294 903.253 33.3723C903.538 33.2134 903.792 33.026 904.012 32.8065C904.23 32.5907 904.422 32.3371 904.58 32.0513C904.741 31.7655 904.873 31.4438 904.97 31.088C905.072 30.7303 905.149 30.3272 905.199 29.8881C905.249 29.4433 905.276 28.9589 905.276 28.4384V24.6267C905.276 24.1044 905.249 23.6218 905.199 23.1808C905.149 22.7417 905.072 22.3443 904.97 21.9866C904.873 21.6365 904.741 21.3166 904.58 21.0327C904.422 20.7508 904.232 20.499 904.012 20.2814C903.794 20.0637 903.538 19.8726 903.253 19.7136C902.961 19.5509 902.637 19.4184 902.279 19.3162C901.918 19.2121 901.515 19.1345 901.073 19.0815ZM894.991 19.0039H893.142C892.619 19.0039 892.134 19.0285 891.692 19.0815C891.251 19.1345 890.85 19.2121 890.494 19.3143C890.141 19.4165 889.817 19.5509 889.529 19.7136C889.243 19.8726 888.988 20.0637 888.77 20.2814C888.552 20.499 888.36 20.7508 888.201 21.0327C888.038 21.3166 887.904 21.6384 887.802 21.9885C887.698 22.3462 887.617 22.7455 887.567 23.1808C887.513 23.6161 887.488 24.1006 887.488 24.6267V28.4384C887.488 28.9645 887.513 29.4471 887.567 29.8862C887.619 30.3291 887.698 30.7284 887.802 31.0861C887.905 31.4419 888.038 31.7636 888.199 32.0513C888.36 32.3352 888.55 32.5869 888.77 32.8065C888.988 33.0241 889.243 33.2134 889.527 33.3723C889.814 33.5294 890.138 33.6619 890.492 33.7603C890.85 33.8587 891.251 33.9344 891.692 33.9855C892.132 34.0366 892.617 34.0631 893.142 34.0631H894.991V31.4343H893.267C892.991 31.4343 892.733 31.423 892.499 31.3984C892.263 31.3738 892.048 31.334 891.862 31.2848C891.668 31.2337 891.491 31.1618 891.334 31.071C891.172 30.9782 891.033 30.8647 890.913 30.7341C890.791 30.6035 890.689 30.4502 890.605 30.2761C890.524 30.1039 890.456 29.9108 890.406 29.7007C890.36 29.4963 890.324 29.2654 890.301 29.0118C890.276 28.7601 890.263 28.4876 890.263 28.1943V24.869C890.263 24.5794 890.276 24.305 890.301 24.0533C890.324 23.7997 890.36 23.5688 890.406 23.3644C890.458 23.1505 890.524 22.9594 890.605 22.7891C890.689 22.6149 890.791 22.4616 890.913 22.3311C891.033 22.2005 891.172 22.0869 891.334 21.9942C891.491 21.9052 891.668 21.8314 891.863 21.7803C892.05 21.7311 892.264 21.6933 892.499 21.6687C892.733 21.6422 892.991 21.6289 893.267 21.6289H894.991V19.0039Z" fill="white"/>
<path fill-rule="evenodd" clip-rule="evenodd" d="M923.489 19.2651C923.489 19.091 923.406 19.0039 923.242 19.0039H913.788C913.265 19.0039 912.78 19.0285 912.338 19.0815C911.896 19.1345 911.496 19.2121 911.14 19.3143C910.788 19.4165 910.465 19.5509 910.175 19.7136C909.889 19.8726 909.637 20.0637 909.418 20.2814C909.2 20.499 909.006 20.7508 908.845 21.0327C908.684 21.3166 908.55 21.6384 908.45 21.9885C908.344 22.3462 908.263 22.7436 908.212 23.1808C908.158 23.6161 908.133 24.1006 908.133 24.6267V28.4384C908.133 28.9645 908.158 29.4471 908.212 29.8862C908.263 30.3253 908.344 30.7246 908.45 31.0861C908.552 31.4419 908.684 31.7636 908.845 32.0513C909.006 32.3352 909.198 32.5869 909.418 32.8065C909.637 33.0241 909.889 33.2134 910.174 33.3723C910.464 33.5294 910.784 33.6619 911.138 33.7603C911.496 33.8587 911.897 33.9344 912.338 33.9855C912.78 34.0366 913.263 34.0631 913.788 34.0631H923.242C923.336 34.0631 923.403 34.0423 923.437 34.0063C923.471 33.9704 923.489 33.9023 923.489 33.802V31.6312C923.489 31.457 923.406 31.37 923.242 31.37H913.913C913.638 31.37 913.38 31.3567 913.147 31.3302C912.909 31.3075 912.696 31.2678 912.51 31.2186C912.315 31.1656 912.137 31.0918 911.98 31.0047C911.819 30.912 911.677 30.7984 911.559 30.6697C911.437 30.5354 911.335 30.3802 911.251 30.2079C911.169 30.0376 911.103 29.8446 911.054 29.6345C911.006 29.4282 910.97 29.1973 910.947 28.9399C910.922 28.6825 910.911 28.4062 910.911 28.1053V24.9598C910.911 24.6608 910.922 24.3826 910.947 24.1271C910.97 23.8735 911.006 23.6426 911.054 23.442C911.103 23.2338 911.169 23.0446 911.251 22.8761C911.337 22.702 911.439 22.5506 911.557 22.42C911.679 22.2875 911.821 22.174 911.98 22.0831C912.139 21.9942 912.316 21.9204 912.508 21.8693C912.696 21.8182 912.909 21.7803 913.147 21.7557C913.38 21.7311 913.638 21.7179 913.913 21.7179H923.242C923.335 21.7179 923.399 21.6989 923.433 21.6611C923.469 21.6213 923.489 21.5437 923.489 21.4359V19.2651Z" fill="white"/>
<path fill-rule="evenodd" clip-rule="evenodd" d="M941.348 19.2651C941.348 19.091 941.267 19.0039 941.103 19.0039H931.649C931.125 19.0039 930.641 19.0285 930.199 19.0815C929.757 19.1345 929.356 19.2121 929.001 19.3143C928.649 19.4165 928.325 19.5509 928.037 19.7136C927.75 19.8726 927.496 20.0637 927.278 20.2814C927.059 20.499 926.868 20.7508 926.708 21.0327C926.545 21.3185 926.411 21.6384 926.309 21.9885C926.205 22.3462 926.125 22.7436 926.071 23.1808C926.019 23.6161 925.992 24.1006 925.992 24.6267V28.4384C925.992 28.9645 926.019 29.4471 926.071 29.8862C926.125 30.3253 926.205 30.7246 926.309 31.0861C926.413 31.4419 926.545 31.7636 926.708 32.0513C926.868 32.3371 927.059 32.5869 927.278 32.8065C927.496 33.0241 927.75 33.2134 928.035 33.3723C928.321 33.5294 928.645 33.6619 929 33.7603C929.358 33.8606 929.759 33.9344 930.199 33.9855C930.639 34.0366 931.125 34.0631 931.649 34.0631H941.103C941.198 34.0631 941.264 34.0423 941.296 34.0063C941.332 33.9704 941.348 33.9023 941.348 33.802V31.6312C941.348 31.457 941.267 31.37 941.103 31.37H931.774C931.499 31.37 931.243 31.3567 931.008 31.3302C930.77 31.3075 930.557 31.2678 930.371 31.2186C930.174 31.1656 929.999 31.0918 929.841 31.0047C929.68 30.912 929.538 30.7984 929.419 30.6678C929.299 30.5354 929.195 30.3821 929.112 30.2098C929.03 30.0376 928.966 29.8446 928.915 29.6345C928.867 29.4282 928.83 29.1973 928.808 28.9399C928.783 28.6825 928.77 28.4062 928.77 28.1053V24.9598C928.77 24.6608 928.783 24.3826 928.808 24.1271C928.83 23.8716 928.867 23.6407 928.914 23.442C928.966 23.2338 929.03 23.0427 929.114 22.8742C929.197 22.702 929.3 22.5506 929.419 22.42C929.538 22.2894 929.68 22.174 929.841 22.0831C929.999 21.9942 930.176 21.9204 930.369 21.8693C930.555 21.8182 930.768 21.7803 931.006 21.7557C931.241 21.7311 931.499 21.7179 931.774 21.7179H941.103C941.196 21.7179 941.26 21.6989 941.293 21.6611C941.33 21.6213 941.348 21.5437 941.348 21.4359V19.2651Z" fill="white"/>
<path fill-rule="evenodd" clip-rule="evenodd" d="M958.947 19.0606C958.907 19.0208 958.836 19 958.732 19H949.509C948.985 19 948.503 19.0265 948.061 19.0795C947.617 19.1325 947.218 19.2101 946.863 19.3123C946.507 19.4145 946.187 19.5488 945.897 19.7116C945.612 19.8706 945.36 20.0617 945.139 20.2794C944.926 20.4913 944.74 20.7336 944.583 21.0061C944.473 21.1973 944.375 21.4055 944.289 21.6269H958.746C958.843 21.6269 958.911 21.6061 958.949 21.5682C958.983 21.5304 959 21.4641 959 21.3676V19.2631C959 19.1647 958.983 19.0965 958.947 19.0606ZM949.544 31.4297H944.281C944.365 31.6587 944.466 31.8707 944.577 32.0675C944.734 32.3438 944.922 32.5879 945.137 32.8018C945.355 33.0195 945.609 33.2087 945.894 33.3677C946.182 33.5248 946.503 33.6572 946.859 33.7557C947.215 33.856 947.616 33.9298 948.058 33.9809C948.499 34.032 948.982 34.0566 949.507 34.0566H958.729C958.833 34.0566 958.905 34.0377 958.944 33.9979C958.98 33.962 958.998 33.8938 958.998 33.7973V31.6928C958.998 31.5943 958.98 31.5281 958.946 31.4902C958.908 31.4524 958.84 31.4316 958.744 31.4297C955.969 31.6322 952.407 31.4297 949.544 31.4297ZM958.628 25.3163H943.855V27.5874H958.642C958.728 27.5874 958.791 27.5685 958.823 27.5325C958.857 27.4965 958.875 27.4265 958.875 27.3281V25.5756C958.875 25.4772 958.857 25.4071 958.823 25.3731C958.791 25.3352 958.728 25.3163 958.642 25.3144L958.628 25.3163Z" fill="white"/>
<path fill-rule="evenodd" clip-rule="evenodd" d="M973.916 19.2782C973.36 19.0946 972.692 19 971.911 19H962.25L964.694 21.5834H971.26C971.634 21.5834 971.96 21.6269 972.234 21.7158C972.524 21.8086 972.753 21.9505 972.925 22.1417C973.258 22.5088 973.424 23.0577 973.424 23.7825V24.7137C973.424 25.0676 973.385 25.3818 973.304 25.6505C973.22 25.9306 973.095 26.1653 972.925 26.3527C972.753 26.5438 972.524 26.6857 972.234 26.7804C971.962 26.8674 971.634 26.9129 971.26 26.9129H967.083L973.847 34.0611H976.605C976.662 34.0611 976.704 34.0535 976.722 34.0403L976.729 34.0214C976.739 33.9778 976.741 33.9419 976.736 33.9154L976.725 33.8927L972.008 28.9076H972.527C973.036 28.9076 973.696 28.7979 974.303 28.5045C974.765 28.2812 975.202 27.9519 975.51 27.4882C975.97 26.7898 976.202 25.8265 976.202 24.602V23.3397C976.202 22.6091 976.118 21.9713 975.952 21.4263C975.787 20.8907 975.54 20.4402 975.214 20.0844C974.892 19.7267 974.459 19.4599 973.916 19.2782ZM968.097 34.0037L968.162 33.9659L963.398 28.9316L963.364 28.9979C963.328 29.0812 963.309 29.1758 963.309 29.2761V33.3962C963.309 33.5817 963.378 33.7482 963.493 33.8675C963.606 33.9886 963.763 34.0643 963.939 34.0643H967.836C967.931 34.0643 968.018 34.0416 968.097 34.0037Z" fill="white"/>
<path fill-rule="evenodd" clip-rule="evenodd" d="M884.087 19.2651C884.087 19.091 884.005 19.0039 883.842 19.0039H872.731C872.118 19.0039 871.587 19.0834 871.143 19.2405C870.709 19.3938 870.353 19.6247 870.078 19.9294C869.798 20.2379 869.587 20.5975 869.447 21.0025C869.306 21.4132 869.234 21.8749 869.234 22.3897V24.006C869.234 24.5946 869.308 25.1131 869.453 25.5579C869.596 25.9951 869.811 26.3679 870.095 26.6745C870.378 26.9754 870.735 27.2044 871.161 27.3558C871.594 27.5129 872.104 27.5905 872.689 27.5905H880.552C880.974 27.5905 881.302 27.7192 881.525 27.9747C881.746 28.2245 881.855 28.586 881.855 29.0592V29.9676C881.855 30.1796 881.83 30.3745 881.783 30.5467C881.733 30.7246 881.656 30.8836 881.556 31.0161C881.447 31.1618 881.302 31.2678 881.121 31.3378C880.954 31.4041 880.756 31.4343 880.528 31.4343H869.523C869.421 31.4343 869.349 31.4552 869.31 31.493C869.276 31.5309 869.258 31.5971 869.258 31.6955V33.802C869.258 33.9761 869.345 34.0631 869.523 34.0631H881.137C881.751 34.0631 882.279 33.9836 882.723 33.8266C883.16 33.6714 883.514 33.4424 883.79 33.1358C884.069 32.8254 884.282 32.4677 884.42 32.0627C884.562 31.652 884.633 31.1902 884.633 30.6773V28.904C884.633 28.3135 884.56 27.7949 884.415 27.3502C884.272 26.913 884.059 26.542 883.772 26.2373C883.487 25.9345 883.133 25.7055 882.709 25.5541C882.276 25.397 881.764 25.3194 881.178 25.3194H873.318C872.892 25.3194 872.568 25.1907 872.344 24.9352C872.124 24.6854 872.014 24.3239 872.014 23.8508V23.0975C872.014 22.8875 872.038 22.6925 872.086 22.5184C872.134 22.3386 872.21 22.1815 872.313 22.0472C872.421 21.9052 872.566 21.7973 872.747 21.7273C872.915 21.6611 873.112 21.6289 873.339 21.6289H883.842C883.935 21.6289 884.001 21.6119 884.035 21.5759C884.069 21.5381 884.087 21.468 884.087 21.3696V19.2651Z" fill="white"/>
<path fill-rule="evenodd" clip-rule="evenodd" d="M859.836 19.0588C859.802 19.0228 859.737 19.0039 859.641 19.0039H857.378C857.274 19.0039 857.202 19.0228 857.163 19.0645C857.129 19.0985 857.109 19.1667 857.109 19.2651V33.802C857.109 33.9004 857.129 33.9685 857.165 34.0026C857.202 34.0423 857.276 34.0631 857.378 34.0631H859.641C859.805 34.0631 859.888 33.9761 859.888 33.802V19.2651C859.888 19.1648 859.87 19.0966 859.836 19.0588Z" fill="white"/>
<path fill-rule="evenodd" clip-rule="evenodd" d="M851.677 19.2821C851.122 19.0966 850.452 19.0039 849.67 19.0039H838.415C838.138 19.0039 838 19.1496 838 19.4411V21.6081H849.02C849.394 21.6081 849.72 21.6535 849.994 21.7406C850.282 21.8333 850.513 21.9771 850.685 22.1664C850.853 22.3538 850.982 22.5903 851.064 22.8704C851.145 23.1392 851.184 23.4534 851.184 23.8073V24.6495C851.184 25.0034 851.145 25.3175 851.064 25.5882C850.982 25.8664 850.853 26.1011 850.685 26.2884C850.35 26.6632 849.793 26.8486 849.02 26.8486H838V33.802C838 33.9004 838.018 33.9685 838.054 34.0026C838.091 34.0423 838.163 34.0631 838.267 34.0631H840.531C840.624 34.0631 840.691 34.0442 840.725 34.0063C840.76 33.9704 840.778 33.9023 840.778 33.802V29.3203H849.67C850.452 29.3203 851.122 29.2276 851.677 29.0421C852.217 28.8623 852.652 28.5936 852.975 28.2378C853.3 27.8801 853.547 27.4315 853.71 26.8959C853.879 26.3509 853.963 25.7112 853.963 24.9826V23.3417C853.963 22.613 853.879 21.9734 853.71 21.4283C853.547 20.8927 853.3 20.4423 852.975 20.0865C852.652 19.7307 852.217 19.4619 851.677 19.2821Z" fill="white"/>
</g>
<g opacity="0.65">
<path fill-rule="evenodd" clip-rule="evenodd" d="M1129.27 36.3331C1128.09 37.4989 1126.1 38.4318 1123.55 38.4318C1121.01 38.4318 1119.01 37.4989 1117.84 36.3331C1116.52 35.0213 1115.88 33.1558 1115.88 31.4941C1115.88 29.8327 1116.52 27.9672 1117.84 26.6554C1119.01 25.4892 1121.01 24.5566 1123.55 24.5566C1126.1 24.5566 1128.09 25.4892 1129.27 26.6554C1130.58 27.9672 1131.23 29.8327 1131.23 31.4941C1131.23 33.1558 1130.58 35.0213 1129.27 36.3331ZM1121.18 29.0462C1120.57 29.6583 1120.21 30.4454 1120.21 31.4948C1120.21 32.69 1120.68 33.4478 1121.18 33.9433C1121.71 34.4681 1122.47 34.8761 1123.58 34.8761C1124.52 34.8761 1125.31 34.5555 1125.93 33.9433C1126.54 33.3314 1126.89 32.5441 1126.89 31.4948C1126.89 30.4454 1126.54 29.6581 1125.93 29.0462C1125.31 28.434 1124.52 28.1133 1123.55 28.1133C1122.59 28.1133 1121.8 28.434 1121.18 29.0462Z" fill="white"/>
<path fill-rule="evenodd" clip-rule="evenodd" d="M1132.25 24.9998V22.4346C1132.25 20.9769 1132.39 19.3155 1133.71 17.9164C1134.56 17.0127 1135.76 16.4297 1137.37 16.4297C1138.31 16.4297 1139.07 16.6046 1139.77 16.8672V20.5399C1139.31 20.2483 1138.69 20.0445 1138.16 20.0445C1137.52 20.0445 1137.11 20.3358 1136.93 20.569C1136.46 21.1813 1136.46 22.2012 1136.46 22.8136V24.9998H1139.8V28.3812H1136.46V38.0005H1132.25V28.3812" fill="white"/>
<path fill-rule="evenodd" clip-rule="evenodd" d="M1154.07 32.2232H1144.32C1144.32 32.9225 1144.58 33.8555 1145.11 34.4384C1145.75 35.1381 1146.63 35.2547 1147.27 35.2547C1147.89 35.2547 1148.53 35.1381 1148.97 34.8759C1149.03 34.8465 1149.53 34.5259 1149.88 33.7971L1153.86 34.2052C1153.28 36.0417 1152.11 37.0038 1151.35 37.4699C1150.09 38.2281 1148.68 38.432 1147.22 38.432C1145.25 38.432 1143.52 38.0822 1142 36.5663C1140.86 35.4295 1140.04 33.7097 1140.04 31.5528C1140.04 29.6872 1140.71 27.7633 1142.03 26.4222C1143.61 24.8482 1145.58 24.5566 1147.04 24.5566C1148.5 24.5566 1150.61 24.8191 1152.22 26.5096C1153.78 28.1424 1154.07 30.1827 1154.07 31.7858V32.2232ZM1150.18 29.7192C1150.15 29.6026 1149.94 28.7861 1149.33 28.2032C1148.86 27.7662 1148.19 27.4746 1147.34 27.4746C1146.25 27.4746 1145.61 27.912 1145.2 28.3201C1144.87 28.6698 1144.58 29.1363 1144.46 29.7192H1150.18Z" fill="white"/>
<path fill-rule="evenodd" clip-rule="evenodd" d="M1168.88 32.2232H1159.12C1159.12 32.9225 1159.39 33.8555 1159.92 34.4384C1160.56 35.1381 1161.44 35.2547 1162.08 35.2547C1162.7 35.2547 1163.34 35.1381 1163.78 34.8759C1163.84 34.8465 1164.34 34.5259 1164.69 33.7971L1168.67 34.2052C1168.09 36.0417 1166.92 37.0038 1166.15 37.4699C1164.89 38.2281 1163.49 38.432 1162.02 38.432C1160.06 38.432 1158.33 38.0822 1156.81 36.5663C1155.67 35.4295 1154.85 33.7097 1154.85 31.5528C1154.85 29.6872 1155.52 27.7633 1156.84 26.4222C1158.42 24.8482 1160.38 24.5566 1161.85 24.5566C1163.31 24.5566 1165.42 24.8191 1167.03 26.5096C1168.59 28.1424 1168.88 30.1827 1168.88 31.7858V32.2232ZM1164.99 29.7192C1164.96 29.6026 1164.75 28.7861 1164.14 28.2032C1163.67 27.7662 1162.99 27.4746 1162.14 27.4746C1161.06 27.4746 1160.42 27.912 1160.01 28.3201C1159.68 28.6698 1159.39 29.1363 1159.27 29.7192H1164.99Z" fill="white"/>
<path fill-rule="evenodd" clip-rule="evenodd" d="M1105.6 31.085C1105.59 32.5821 1105.46 33.96 1104.13 35.2533C1102.64 36.7108 1100.44 36.9441 1098.89 36.9441C1097.28 36.9441 1095.11 36.7108 1093.62 35.2533C1092.42 34.0875 1092.18 32.7757 1092.18 31.3473V23.5059H1096.4V30.6769C1096.4 31.2599 1096.46 32.1635 1097.13 32.7757C1097.43 33.0379 1097.95 33.3877 1098.89 33.3877C1099.68 33.3877 1100.3 33.1254 1100.68 32.7757C1101.29 32.1928 1101.39 31.3101 1101.39 30.6689V29.3652C1101.4 27.8677 1101.52 26.4899 1102.85 25.1966C1104.35 23.7391 1106.54 23.5059 1108.09 23.5059C1109.71 23.5059 1111.87 23.7391 1113.37 25.1966C1114.57 26.3628 1114.8 27.6744 1114.8 29.1026V36.9441H1110.58V29.7733C1110.58 29.1901 1110.53 28.2865 1109.85 27.6744C1109.56 27.4122 1109.03 27.062 1108.09 27.062C1107.3 27.062 1106.69 27.3245 1106.31 27.6744C1105.69 28.2575 1105.6 29.132 1105.6 29.7733L1105.6 30.6691V31.085Z" fill="white"/>
<path fill-rule="evenodd" clip-rule="evenodd" d="M1067.07 7L1060.5 13.4761V11.1772H1054.45V19.559L1048 26.0426H1054.45L1067.09 13.4637L1079.73 26.0426H1086.18L1067.07 7Z" fill="white"/>
<path fill-rule="evenodd" clip-rule="evenodd" d="M1073.64 34.2732C1073.64 38.1597 1071.41 40.8342 1067.09 40.8342C1062.76 40.8342 1060.49 38.1597 1060.49 34.2732V22.0303L1054.45 28.048V34.4403C1054.45 41.3357 1058.56 46.1002 1067.09 46.1002C1075.61 46.1002 1079.73 41.3357 1079.73 34.4403V28.048L1073.64 21.9883V34.2732Z" fill="white"/>
</g>
<defs>
<clipPath id="clip0_322_12139">
<rect width="160.21" height="35.7391" fill="white" transform="translate(193 9)"/>
</clipPath>
</defs>
</svg>
