<svg width="1173" height="60" viewBox="0 0 1173 60" fill="none" xmlns="http://www.w3.org/2000/svg">
<g opacity="0.65">
<path d="M64.008 17.088H66.976L71.19 23.976H71.218V17.088H73.402V27H70.546L66.22 19.944H66.192V27H64.008V17.088ZM77.508 17.088H84.242V19.104H79.692V20.952H83.99V22.968H79.692V24.984H84.494V27H77.508V17.088ZM87.2064 17.088H89.5864L91.1684 23.444H91.1964L93.2684 17.088H95.2984L97.3564 23.612H97.3844L99.0504 17.088H101.262L98.3644 27H96.4184L94.2344 20.14H94.2064L92.0224 27H90.1464L87.2064 17.088ZM68.908 34.51C68.7307 34.286 68.488 34.1227 68.18 34.02C67.8813 33.908 67.5967 33.852 67.326 33.852C67.1673 33.852 67.004 33.8707 66.836 33.908C66.668 33.9453 66.5093 34.006 66.36 34.09C66.2107 34.1647 66.0893 34.2673 65.996 34.398C65.9027 34.5287 65.856 34.6873 65.856 34.874C65.856 35.1727 65.968 35.4013 66.192 35.56C66.416 35.7187 66.696 35.854 67.032 35.966C67.3773 36.078 67.746 36.19 68.138 36.302C68.53 36.414 68.894 36.5727 69.23 36.778C69.5753 36.9833 69.86 37.2587 70.084 37.604C70.308 37.9493 70.42 38.4113 70.42 38.99C70.42 39.5407 70.3173 40.0213 70.112 40.432C69.9067 40.8427 69.6267 41.1833 69.272 41.454C68.9267 41.7247 68.5207 41.9253 68.054 42.056C67.5967 42.1867 67.1113 42.252 66.598 42.252C65.954 42.252 65.3567 42.154 64.806 41.958C64.2553 41.762 63.742 41.4447 63.266 41.006L64.82 39.298C65.044 39.5967 65.324 39.83 65.66 39.998C66.0053 40.1567 66.36 40.236 66.724 40.236C66.9013 40.236 67.0787 40.2173 67.256 40.18C67.4427 40.1333 67.606 40.068 67.746 39.984C67.8953 39.9 68.012 39.7927 68.096 39.662C68.1893 39.5313 68.236 39.3773 68.236 39.2C68.236 38.9013 68.1193 38.668 67.886 38.5C67.662 38.3227 67.3773 38.1733 67.032 38.052C66.6867 37.9307 66.3133 37.8093 65.912 37.688C65.5107 37.5667 65.1373 37.4033 64.792 37.198C64.4467 36.9927 64.1573 36.722 63.924 36.386C63.7 36.05 63.588 35.6067 63.588 35.056C63.588 34.524 63.6907 34.0573 63.896 33.656C64.1107 33.2547 64.3907 32.9187 64.736 32.648C65.0907 32.3773 65.4967 32.1767 65.954 32.046C66.4113 31.906 66.8827 31.836 67.368 31.836C67.928 31.836 68.4693 31.9153 68.992 32.074C69.5147 32.2327 69.986 32.4987 70.406 32.872L68.908 34.51ZM74.0471 32.088H76.2311V35.784H80.4731V32.088H82.6571V42H80.4731V37.716H76.2311V42H74.0471V32.088ZM89.9321 32.088H91.7381L96.0501 42H93.5861L92.7321 39.9H88.8821L88.0561 42H85.6481L89.9321 32.088ZM90.7721 34.972L89.5681 38.052H91.9901L90.7721 34.972ZM99.0471 32.088H102.323C103.116 32.088 103.868 32.1767 104.577 32.354C105.296 32.5313 105.921 32.8207 106.453 33.222C106.985 33.614 107.405 34.1273 107.713 34.762C108.03 35.3967 108.189 36.1667 108.189 37.072C108.189 37.8747 108.035 38.584 107.727 39.2C107.428 39.8067 107.022 40.32 106.509 40.74C105.996 41.1507 105.403 41.4633 104.731 41.678C104.059 41.8927 103.354 42 102.617 42H99.0471V32.088ZM101.231 39.984H102.365C102.869 39.984 103.336 39.9327 103.765 39.83C104.204 39.7273 104.582 39.5593 104.899 39.326C105.216 39.0833 105.464 38.7707 105.641 38.388C105.828 37.996 105.921 37.52 105.921 36.96C105.921 36.4747 105.828 36.0547 105.641 35.7C105.464 35.336 105.221 35.0373 104.913 34.804C104.605 34.5707 104.241 34.398 103.821 34.286C103.41 34.1647 102.976 34.104 102.519 34.104H101.231V39.984ZM111.754 32.088H118.488V34.104H113.938V35.952H118.236V37.968H113.938V39.984H118.74V42H111.754V32.088ZM127.388 34.51C127.211 34.286 126.968 34.1227 126.66 34.02C126.362 33.908 126.077 33.852 125.806 33.852C125.648 33.852 125.484 33.8707 125.316 33.908C125.148 33.9453 124.99 34.006 124.84 34.09C124.691 34.1647 124.57 34.2673 124.476 34.398C124.383 34.5287 124.336 34.6873 124.336 34.874C124.336 35.1727 124.448 35.4013 124.672 35.56C124.896 35.7187 125.176 35.854 125.512 35.966C125.858 36.078 126.226 36.19 126.618 36.302C127.01 36.414 127.374 36.5727 127.71 36.778C128.056 36.9833 128.34 37.2587 128.564 37.604C128.788 37.9493 128.9 38.4113 128.9 38.99C128.9 39.5407 128.798 40.0213 128.592 40.432C128.387 40.8427 128.107 41.1833 127.752 41.454C127.407 41.7247 127.001 41.9253 126.534 42.056C126.077 42.1867 125.592 42.252 125.078 42.252C124.434 42.252 123.837 42.154 123.286 41.958C122.736 41.762 122.222 41.4447 121.746 41.006L123.3 39.298C123.524 39.5967 123.804 39.83 124.14 39.998C124.486 40.1567 124.84 40.236 125.204 40.236C125.382 40.236 125.559 40.2173 125.736 40.18C125.923 40.1333 126.086 40.068 126.226 39.984C126.376 39.9 126.492 39.7927 126.576 39.662C126.67 39.5313 126.716 39.3773 126.716 39.2C126.716 38.9013 126.6 38.668 126.366 38.5C126.142 38.3227 125.858 38.1733 125.512 38.052C125.167 37.9307 124.794 37.8093 124.392 37.688C123.991 37.5667 123.618 37.4033 123.272 37.198C122.927 36.9927 122.638 36.722 122.404 36.386C122.18 36.05 122.068 35.6067 122.068 35.056C122.068 34.524 122.171 34.0573 122.376 33.656C122.591 33.2547 122.871 32.9187 123.216 32.648C123.571 32.3773 123.977 32.1767 124.434 32.046C124.892 31.906 125.363 31.836 125.848 31.836C126.408 31.836 126.95 31.9153 127.472 32.074C127.995 32.2327 128.466 32.4987 128.886 32.872L127.388 34.51Z" fill="white"/>
<path d="M26.4844 18.2422L35.4978 27.2557L44.5113 18.2422" stroke="white" stroke-width="2.48649"/>
<path d="M6.90625 39.377L15.9197 30.3635L24.9332 39.377" stroke="white" stroke-width="2.48649"/>
<path d="M1 34.0927L15.9188 19.1738L35.4998 38.7548L50.1079 24.1468" stroke="white" stroke-width="2.48649"/>
</g>
<g opacity="0.65">
<path fill-rule="evenodd" clip-rule="evenodd" d="M258.088 29.6011L269.282 13.636L281.811 31.5071C286.07 32.3471 290.043 33.4361 293.64 34.7375L269.282 0L248.023 30.3177C251.269 29.9359 254.634 29.6921 258.088 29.6011Z" fill="white"/>
<path fill-rule="evenodd" clip-rule="evenodd" d="M230.207 34.1836L254.177 0L260.494 9.00853L255.711 15.8265L254.177 13.636L241.83 31.2435C237.671 31.9983 233.772 32.9905 230.207 34.1836ZM275.549 30.4876L267.749 19.3633L262.969 26.1818L265.396 29.6444C268.886 29.7725 272.282 30.0587 275.549 30.4876ZM216.621 43.0875C218.77 41.3907 221.419 39.797 224.552 38.3455C234.29 33.8431 247.279 31.3633 261.123 31.3633C274.968 31.3633 287.957 33.8431 297.694 38.3455C300.83 39.797 303.479 41.3907 305.627 43.0875C304.929 42.7784 304.21 42.4745 303.466 42.1758C292.191 37.6729 277.154 35.1915 261.123 35.1915C245.093 35.1915 230.056 37.6729 218.781 42.1758C218.037 42.4745 217.318 42.7784 216.621 43.0875Z" fill="white"/>
<path fill-rule="evenodd" clip-rule="evenodd" d="M307.455 58.7936C308.016 58.7277 308.348 58.4496 308.348 57.9762V51.8119C308.348 51.1803 308.348 51.047 307.43 50.8498V50.4553H308.401C310.011 50.4553 310.505 50.4023 310.505 50.4023L310.571 50.4553C310.571 50.4553 310.131 51.0215 310.131 52.1141V57.817C310.131 58.2134 310.065 58.5559 310.065 58.5559H311.982C313.061 58.5559 313.352 58.0551 314.019 56.7364H314.538L313.979 59.24H309.731C308.84 59.24 307.455 59.2805 307.455 59.2805V58.7936ZM302.213 52.4863L300.922 55.8179H303.385L302.546 53.4995C302.44 53.2234 302.293 52.7495 302.213 52.4863ZM298.285 58.8021C298.805 58.7477 299.059 58.4716 299.178 58.1815L302.266 50.5297L303.078 50.3574L305.993 57.8529C306.22 58.4461 306.419 58.7617 306.925 58.8276L306.872 59.2485H306.325C305.7 59.2485 303.73 59.301 303.73 59.301V58.7881C304.09 58.7746 304.409 58.6568 304.262 58.2608L303.637 56.5616H300.802L300.575 56.7199L299.831 58.6568L300.975 58.8021L300.895 59.2485H298.285V58.8021ZM292.935 58.8005C293.494 58.7346 293.827 58.4176 293.827 57.9442V51.1468H292.683C291.831 51.1468 291.432 51.4099 290.899 52.7397H290.379L290.793 50.3828C290.793 50.3828 291.139 50.4622 291.684 50.4622H298.233C298.779 50.4622 299.191 50.3828 299.191 50.3828L298.779 52.7397H298.259C298.259 51.4099 297.821 51.1468 296.822 51.1468H295.77L295.611 51.3051V57.9442C295.611 58.3387 295.545 58.6552 295.545 58.6552L296.875 58.7731L296.822 59.208L292.935 59.2874V58.8005ZM286.336 58.7936C286.894 58.7277 287.227 58.4106 287.227 57.9372V51.8119C287.227 51.1803 287.227 51.047 286.309 50.8498V50.4553H287.281C288.944 50.4553 289.384 50.4023 289.384 50.4023L289.45 50.4553C289.45 50.4553 289.011 51.0215 289.011 52.1141V57.9372C289.011 58.3317 288.944 58.6483 288.944 58.6483L290.075 58.7662L290.023 59.2011L286.336 59.2805V58.7936ZM278.551 58.7875C279.097 58.7216 279.443 58.4181 279.443 57.9702V51.8059C279.443 51.1742 279.377 51.041 278.418 50.8437V50.4492H282.157C283.742 50.4492 285.539 50.9885 285.539 52.7801C285.539 54.5842 283.795 55.7831 282.079 55.6114V55.1105C283.117 55.0196 283.582 54.2677 283.582 53.2275C283.582 51.8718 282.718 51.1338 281.693 51.1338H281.386L281.227 51.2921V57.9702C281.227 58.3521 281.161 58.6422 281.161 58.6422L282.425 58.7601L282.371 59.195L278.551 59.2744V58.7875ZM273.295 52.4863L272.004 55.8179H274.466L273.627 53.4995C273.52 53.2234 273.375 52.7495 273.295 52.4863ZM269.367 58.8021C269.887 58.7477 270.139 58.4716 270.258 58.1815L273.347 50.5297L274.158 50.3574L277.073 57.8529C277.3 58.4461 277.499 58.7617 278.005 58.8276L277.952 59.2485H277.407C276.782 59.2485 274.811 59.301 274.811 59.301V58.7881C275.17 58.7746 275.49 58.6568 275.344 58.2608L274.719 56.5616H271.884L271.657 56.7199L270.911 58.6568L272.056 58.8021L271.976 59.2485H269.367V58.8021ZM265.905 50.2988C267.063 50.2988 268.327 50.6019 269.046 50.6673L268.647 52.7346H268.128C268.074 51.4179 266.996 50.9579 265.759 50.9579C263.629 50.9579 262.711 52.6297 262.711 54.4478C262.711 56.897 264.468 58.2402 266.437 58.2402C267.969 58.2402 268.993 57.3319 268.993 57.3319L269.22 57.6759C269.22 57.6759 268.128 59.4006 265.613 59.4006C262.67 59.4006 260.914 57.253 260.914 54.9746C260.914 52.7481 262.59 50.2988 265.905 50.2988ZM251.896 58.7936C252.455 58.7277 252.787 58.4106 252.787 57.9372V55.3542L250.338 51.4295C250.018 50.9157 249.633 50.8498 249.633 50.8498V50.4553H250.338C251.523 50.4553 252.228 50.4023 252.228 50.4023L252.281 50.4553C252.281 50.4553 252.042 50.9691 252.308 51.403L253.772 53.8523C253.893 54.063 254.039 54.3526 254.145 54.5903L255.943 51.6671C256.155 51.3232 256.089 50.9561 255.409 50.8498V50.4553H257.672L257.74 50.7045C257.74 50.7045 257.325 50.8498 256.94 51.4564L254.571 55.1955V57.9372C254.571 58.3317 254.505 58.6483 254.505 58.6483L255.636 58.7662L255.582 59.2011L251.896 59.2805V58.7936ZM242.364 58.7936C242.922 58.7277 243.255 58.4496 243.255 57.9762V51.8119C243.255 51.1803 243.188 51.047 242.23 50.8498V50.4553H248.02C248.566 50.4553 249.045 50.4023 249.045 50.4023L248.632 52.7328H248.114C248.181 51.3775 247.741 51.1399 246.676 51.1399H245.199L245.039 51.2981V54.4185H247.262L247.368 53.655L247.927 53.5756V56.0927H247.235V55.1046H245.199L245.039 55.2614V57.817C245.039 58.2134 244.972 58.5559 244.972 58.5559H246.823C247.967 58.5559 248.128 58.3837 248.792 57.001H249.311L248.819 59.24H244.64C243.747 59.24 242.364 59.2805 242.364 59.2805V58.7936ZM235.748 56.5939H236.267C236.267 58.3196 237.372 58.7411 238.197 58.7411C238.915 58.7411 239.648 58.3855 239.648 57.5831C239.648 55.5283 235.535 55.5937 235.535 52.788C235.535 51.3794 236.586 50.2988 238.662 50.2988C239.447 50.2988 240.326 50.4432 241.045 50.5495L240.606 52.7346H240.086C240.113 51.7349 239.727 50.9579 238.556 50.9579C237.665 50.9579 237.105 51.4049 237.105 52.1024C237.105 54.1846 241.218 53.947 241.218 56.8715C241.218 58.5708 239.834 59.4006 238.13 59.4006C236.932 59.4006 235.388 59.0312 235.348 58.057C235.348 57.9121 235.388 57.6216 235.748 56.5939ZM228.867 56.5939H229.387C229.387 58.3196 230.491 58.7411 231.317 58.7411C232.035 58.7411 232.767 58.3855 232.767 57.5831C232.767 55.5283 228.654 55.5937 228.654 52.788C228.654 51.3794 229.706 50.2988 231.783 50.2988C232.568 50.2988 233.447 50.4432 234.165 50.5495L233.726 52.7346H233.207C233.234 51.7349 232.847 50.9579 231.675 50.9579C230.784 50.9579 230.225 51.4049 230.225 52.1024C230.225 54.1846 234.338 53.947 234.338 56.8715C234.338 58.5708 232.953 59.4006 231.249 59.4006C230.051 59.4006 228.508 59.0312 228.469 58.057C228.469 57.9121 228.508 57.6216 228.867 56.5939ZM223.346 52.4863L222.055 55.8179H224.517L223.679 53.4995C223.571 53.2234 223.426 52.7495 223.346 52.4863ZM219.418 58.8021C219.938 58.7477 220.19 58.4716 220.309 58.1815L223.398 50.5297L224.209 50.3574L227.124 57.8529C227.351 58.4461 227.55 58.7617 228.056 58.8276L228.003 59.2485H227.458C226.832 59.2485 224.861 59.301 224.861 59.301V58.7881C225.221 58.7746 225.541 58.6568 225.395 58.2608L224.77 56.5616H221.935L221.708 56.7199L220.962 58.6568L222.107 58.8021L222.026 59.2485H219.418V58.8021ZM208 58.7936C208.559 58.7277 208.931 58.4496 208.958 57.9762L209.224 51.8119C209.25 51.1663 209.157 51.0605 208.199 50.8498V50.4553H209.198C210.515 50.4553 211.314 50.4023 211.314 50.4023L211.367 50.4553C211.367 50.4553 211.5 50.9287 211.753 51.6671L213.364 55.8281C213.457 56.0523 213.549 56.3554 213.616 56.5921L215.733 51.403C215.853 51.1129 216.027 50.4553 216.027 50.4553H216.678C217.756 50.4553 218.422 50.4023 218.422 50.4023L218.488 50.4553C218.488 50.4553 218.036 51.008 218.076 52.1141L218.328 58.0161C218.342 58.4241 218.289 58.6873 218.289 58.6873L219.393 58.7662L219.341 59.2011L215.667 59.2805V58.7936C216.225 58.7277 216.572 58.4631 216.558 58.0161L216.331 51.9029L213.324 59.24L212.791 59.0818L209.995 51.8509C209.995 51.8509 209.983 52.1275 209.97 52.3772L209.743 57.9762C209.729 58.3447 209.65 58.6873 209.65 58.6873L210.874 58.7662L210.821 59.2011L208 59.2805V58.7936Z" fill="white"/>
</g>
<g opacity="0.65">
<path d="M475.26 13H391V46.9124H475.26V13Z" fill="white"/>
<path d="M462.309 20.9016V15.7109H447.865L445.49 33.0519L443.139 15.711H437.93L438.514 20.3381C437.912 19.1528 435.78 15.711 431.087 15.711C431.056 15.709 425.871 15.711 425.871 15.711L425.851 40.9868L422.054 15.711L415.233 15.707L411.305 41.8962L411.307 15.7108H404.779L402.425 30.4214L400.132 15.711H393.602V44.183H398.744V30.4595L401.084 44.1826H403.818L406.125 30.4595V44.1826H416.039L416.641 39.8015H420.633L421.232 44.1826L430.966 44.1886H430.974V44.1826H430.98H430.986V34.9406L432.179 34.7667L434.65 44.1886H434.656H439.678H439.684L439.682 44.1826H439.691H439.697L436.455 33.1398C438.098 31.9246 439.953 28.8385 439.46 25.8863V25.8844C439.466 25.9243 442.52 44.2008 442.52 44.2008L448.508 44.1826L452.599 18.3751V44.1827H462.309V39.062H457.7V32.5322H462.309V27.3335H457.7V20.9016H462.309ZM417.247 35.2865L418.659 23.1142L420.125 35.2865H417.247ZM432.196 29.666C431.8 29.858 431.387 29.954 430.986 29.954V20.7957C430.993 20.7957 431.001 20.7938 431.011 20.7938C431.413 20.7918 434.416 20.9156 434.416 25.3248C434.416 27.6313 433.395 29.0845 432.196 29.666ZM472.671 39.058V44.1787H463.199V15.707H468.299V39.058H472.671Z" fill="#040229"/>
</g>
<path opacity="0.65" fill-rule="evenodd" clip-rule="evenodd" d="M792 44.2285H990V15H792V44.2285Z" fill="white"/>
<path fill-rule="evenodd" clip-rule="evenodd" d="M805.692 24.2715L806.343 30.9941H806.375L809.366 24.2715H813.803L811.771 35.0082H809.008L810.519 27.0282H810.487L806.733 35.0082H804.441L803.677 27.125H803.645L802.149 35.0082H799.598L801.629 24.2715H805.692Z" fill="#040229"/>
<path fill-rule="evenodd" clip-rule="evenodd" d="M824.465 31.2174H826.773L826.416 27.0903H826.383L824.465 31.2174ZM826.952 33.2648H823.523L822.726 35.006H819.801L825.229 24.2207H828.691L830.007 35.006H827.114L826.952 33.2648Z" fill="#040229"/>
<path fill-rule="evenodd" clip-rule="evenodd" d="M847.077 24.2715L846.589 26.8509H843.712L842.168 35.0082H839.243L840.787 26.8509H837.91L838.398 24.2715H847.077Z" fill="#040229"/>
<path fill-rule="evenodd" clip-rule="evenodd" d="M863.557 24.2715L863.07 26.8509H860.193L858.649 35.0082H855.724L857.267 26.8509H854.391L854.878 24.2715H863.557Z" fill="#040229"/>
<path fill-rule="evenodd" clip-rule="evenodd" d="M879.452 24.2715L878.997 26.6897H874.3L873.975 28.3987H877.486L877.047 30.704H873.536L873.179 32.5901H877.876L877.405 35.0082H869.863L871.895 24.2715H879.452Z" fill="#040229"/>
<path fill-rule="evenodd" clip-rule="evenodd" d="M890.05 29.2367H891.367C892.115 29.2367 892.602 28.9465 892.797 28.5596C892.927 28.2855 893.025 27.8985 893.025 27.4957C893.025 26.8185 892.684 26.5122 891.66 26.5122H890.537L890.05 29.2367ZM888.945 35.0083H886.02L888.051 24.2715H892.001C894.975 24.2715 895.999 25.3678 895.999 27.2056C895.999 28.0115 895.804 28.9143 895.495 29.5431C895.121 30.3006 894.422 30.8004 893.512 31.0907L894.878 35.0083H891.854L890.684 31.3809H889.627L888.945 35.0083Z" fill="#040229"/>
<path fill-rule="evenodd" clip-rule="evenodd" d="M923.04 24.2715L923.69 30.9941H923.722L926.713 24.2715H931.15L929.119 35.0083H926.356L927.867 27.0282H927.835L924.08 35.0083H921.788L921.025 27.1249H920.992L919.497 35.0083H916.945L918.977 24.2715H923.04Z" fill="#040229"/>
<path fill-rule="evenodd" clip-rule="evenodd" d="M941.817 31.2175H944.125L943.768 27.0903H943.735L941.817 31.2175ZM944.304 33.2648H940.875L940.078 35.0061H937.152L942.581 24.2207H946.043L947.359 35.0061H944.466L944.304 33.2648Z" fill="#040229"/>
<path fill-rule="evenodd" clip-rule="evenodd" d="M959.566 32.6867C960.817 32.6867 961.468 32.2033 961.841 31.4453C962.183 30.7844 962.54 29.0918 962.54 28.1244C962.54 27.0442 962.004 26.5927 960.769 26.5927H959.842L958.705 32.6867H959.566ZM957.372 24.2715H961.061C964.052 24.2715 965.433 25.5452 965.433 27.8021C965.433 29.1724 965.027 31.3327 964.442 32.4772C963.613 34.0734 962.15 35.0082 959.323 35.0082H955.324L957.372 24.2715Z" fill="#040229"/>
<path fill-rule="evenodd" clip-rule="evenodd" d="M982.402 24.2715L981.947 26.6896H977.25L976.925 28.3986H980.435L979.997 30.704H976.487L976.129 32.5901H980.826L980.354 35.0083H972.812L974.845 24.2715H982.402Z" fill="#040229"/>
<path fill-rule="evenodd" clip-rule="evenodd" d="M905.85 37.5869L908.857 21.6914H908.105L905.098 37.5869H905.85Z" fill="#040229"/>
<g opacity="0.65">
<path d="M1110.47 31.7894C1109.65 33.3934 1108.02 34.3906 1106.22 34.3906C1103.59 34.3906 1101.45 32.2513 1101.45 29.6203C1101.45 26.9893 1103.59 24.85 1106.22 24.85C1108 24.85 1109.63 25.8354 1110.45 27.4196L1110.5 27.5048H1113.61L1113.55 27.2986C1112.53 24.0927 1109.59 21.9375 1106.22 21.9375C1101.98 21.9375 1098.54 25.3854 1098.54 29.6223C1098.54 33.8593 1101.98 37.3071 1106.22 37.3071C1109.6 37.3071 1112.55 35.1401 1113.56 31.9123L1113.62 31.7061H1110.51L1110.47 31.7894Z" fill="white"/>
<path d="M1145.61 33.2584C1144.52 33.2822 1143.69 34.1169 1143.69 35.1836C1143.69 36.2839 1144.54 37.1226 1145.66 37.1186C1146.79 37.1147 1147.62 36.2919 1147.61 35.1736C1147.6 34.0752 1146.73 33.2326 1145.61 33.2584Z" fill="white"/>
<path d="M1074.15 28.2999L1073.87 28.2087C1072.27 27.6952 1070.89 27.2511 1070.89 26.2598V26.2042C1070.89 25.3537 1071.68 24.8045 1072.9 24.8045C1074.06 24.8045 1075.56 25.3061 1077 26.1824L1077.04 26.2042L1078.41 23.7537L1078.37 23.7338C1076.79 22.689 1074.78 22.0664 1072.98 22.0664C1069.89 22.0664 1067.73 23.9162 1067.73 26.5651V26.6206C1067.73 29.4201 1070.11 30.3242 1072.33 30.9508C1072.45 30.9864 1072.56 31.0201 1072.68 31.0558C1074.23 31.5257 1075.57 31.9322 1075.57 32.9632V33.0187C1075.57 33.9823 1074.74 34.5572 1073.34 34.5572C1071.83 34.5572 1070.13 33.9208 1068.57 32.7649L1068.54 32.7391L1067.02 35.045L1067 35.0747L1067.03 35.0965C1068.8 36.4923 1071.07 37.2933 1073.26 37.2933C1076.63 37.2933 1078.72 35.5168 1078.72 32.6559V32.6003C1078.72 30.0724 1076.53 29.0395 1074.15 28.2999Z" fill="white"/>
<path d="M1085.78 18.6309H1082.5V22.5684H1080.68V25.3918H1082.5V32.9398C1082.5 36.0883 1084.21 37.149 1086.62 37.149C1087.87 37.149 1088.77 36.8774 1089.58 36.4154V33.7269C1088.93 34.0521 1088.28 34.2147 1087.55 34.2147C1086.44 34.2147 1085.78 33.6992 1085.78 32.4223V25.3898H1089.64V22.5665H1085.78V18.6309Z" fill="white"/>
<path d="M1096.18 22.5508H1092.89V36.8855H1096.18V22.5508Z" fill="white"/>
<path d="M1129.16 22.5641H1125.17L1119.23 28.9186V17.0801H1115.94V36.9008H1119.23V32.8007L1121.26 30.6832L1125.5 36.9008H1129.35L1123.46 28.4011L1129.16 22.5641Z" fill="white"/>
<path d="M1141.27 22.5528L1137.55 33.1957L1133.51 22.5528H1129.98L1135.95 36.9152C1135.41 38.1365 1134.84 38.545 1133.91 38.545C1133.24 38.545 1132.58 38.3269 1131.99 38.0017L1130.87 40.4444C1131.88 40.9876 1132.91 41.3128 1134.27 41.3128C1136.58 41.3128 1137.85 40.2263 1138.99 37.2939L1144.7 22.5508H1141.27V22.5528Z" fill="white"/>
<path d="M1094.49 14.0008C1092.86 14.0365 1091.62 15.2816 1091.61 16.8777C1091.61 18.5213 1092.89 19.7724 1094.55 19.7684C1096.24 19.7624 1097.48 18.5332 1097.47 16.8618C1097.46 15.2221 1096.15 13.9632 1094.49 14.0008Z" fill="white"/>
<path d="M1154.21 22.5723H1150.93V36.907H1154.21V22.5723Z" fill="white"/>
<path d="M1152.62 45.4825C1154.25 45.4468 1155.5 44.2017 1155.5 42.6056C1155.5 40.962 1154.23 39.7109 1152.56 39.7149C1150.87 39.7208 1149.63 40.9501 1149.64 42.6215C1149.65 44.2611 1150.96 45.5201 1152.62 45.4825Z" fill="white"/>
<path d="M1164.6 22.125C1160.13 22.125 1156.81 25.5768 1156.81 29.7464V29.8019C1156.81 33.9437 1160.1 37.34 1164.54 37.34C1169.05 37.34 1172.36 33.8882 1172.36 29.7464V29.6909C1172.36 25.5213 1169.08 22.125 1164.6 22.125ZM1169.02 29.8019C1169.02 32.3159 1167.31 34.4136 1164.6 34.4136C1162.01 34.4136 1160.16 32.2881 1160.16 29.7464V29.6909C1160.16 27.1511 1161.87 25.0514 1164.55 25.0514C1167.17 25.0514 1169.02 27.1788 1169.02 29.7464V29.8019H1169.02Z" fill="white"/>
</g>
<g opacity="0.65">
<path d="M571.48 30.6758C570.496 32.898 568.888 34.7869 566.852 36.1135C564.816 37.4402 562.438 38.1474 560.008 38.1496C559.328 38.1509 558.651 38.0925 557.982 37.9752C558.848 39.8842 559.222 41.9798 559.069 44.0706C558.917 46.1614 558.243 48.1807 557.109 49.944L564.865 42.7386L564.691 42.5104L567.965 46.5358L574.553 39.9074L578.176 44.872C579.01 43.4182 579.449 41.7714 579.45 40.0952C579.438 37.8424 578.633 35.6659 577.175 33.9481C575.717 32.2303 573.701 31.0812 571.48 30.7026" fill="white"/>
<path d="M557.834 42.9655C556.28 41.2449 555.224 39.1331 554.781 36.8573C554.338 34.5816 554.524 32.228 555.319 30.0501C556.114 27.8721 557.488 25.9522 559.293 24.4971C561.098 23.0419 563.266 22.1066 565.563 21.7919V19.2559C562.6 19.5915 559.8 20.7866 557.508 22.6939C555.216 24.6012 553.531 27.1374 552.663 29.9899C551.794 32.8425 551.779 35.8869 552.619 38.7479C553.459 41.609 555.118 44.1618 557.391 46.0918C557.666 45.0727 557.801 44.021 557.794 42.9655" fill="white"/>
<path d="M579.224 24.9861C577.456 22.7106 575.085 20.9766 572.381 19.9812C572.659 19.3137 572.802 18.5977 572.802 17.8746C572.802 17.1514 572.659 16.4354 572.381 15.768L569.563 19.3237C569.214 19.1359 568.61 18.2905 568.61 14.7079C568.61 13.9001 568.931 13.1254 569.503 12.5542C570.074 11.983 570.849 11.6621 571.656 11.6621C572.167 11.6517 572.673 11.756 573.137 11.9674C573.601 12.1787 574.013 12.4916 574.34 12.8831C574.11 11.9323 573.519 11.1081 572.692 10.5848C571.866 10.0615 570.868 9.87993 569.91 10.0785C568.952 10.277 568.109 10.8402 567.558 11.6489C567.008 12.4577 566.793 13.4487 566.96 14.4127L566.826 22.7319L562.371 28.3675C562.75 28.9303 563.239 29.4106 563.809 29.7796C564.378 30.1485 565.017 30.3985 565.685 30.5143C567.081 29.6425 568.677 29.1417 570.321 29.0595C571.964 28.9773 573.602 29.3164 575.078 30.0447C576.813 30.8414 578.283 32.1198 579.313 33.7278C580.343 35.3357 580.89 37.2057 580.888 39.1153C580.891 39.9666 580.783 40.8146 580.566 41.6378C582.062 38.9833 582.717 35.9374 582.444 32.9027C582.176 29.9994 581.082 27.2337 579.291 24.9324L579.224 24.9861ZM564.531 27.9783L570.127 21.3364C570.127 21.3364 571.549 20.9741 573.897 22.799L564.531 27.9783Z" fill="white"/>
<path d="M604.232 27.0464C604.232 23.7321 602.38 21.9609 598.864 21.9609H591.391V38.398H598.891C602.38 38.398 604.258 36.6402 604.258 33.3126C604.295 32.7208 604.193 32.1286 603.96 31.5833C603.727 31.0381 603.37 30.555 602.917 30.1727C603.372 29.7954 603.731 29.315 603.965 28.7714C604.198 28.2278 604.299 27.6365 604.258 27.0464H604.232ZM600.045 33.4602C600.045 34.4263 599.656 34.802 598.703 34.802H595.349V25.5435H598.771C599.71 25.5435 600.112 25.9461 600.112 26.8853C600.149 27.1872 600.115 27.4935 600.014 27.7802C599.912 28.0669 599.746 28.3262 599.528 28.538C599.309 28.7498 599.045 28.9082 598.756 29.0009C598.466 29.0936 598.159 29.1181 597.858 29.0725V31.2596C598.155 31.2248 598.456 31.2579 598.738 31.3564C599.02 31.4549 599.276 31.6163 599.487 31.8282C599.697 32.0401 599.857 32.2972 599.954 32.5799C600.051 32.8626 600.082 33.1636 600.045 33.4602Z" fill="white"/>
<path d="M616.764 31.8574C616.764 33.9774 615.757 34.9569 613.584 34.9569C611.41 34.9569 610.404 33.9774 610.404 31.8574V22.0488H606.445V31.8574C606.445 36.2182 608.914 38.5664 613.584 38.5664C618.253 38.5664 620.709 36.2451 620.709 31.8574V22.0488H616.764V31.8574Z" fill="white"/>
<path d="M630.704 28.3667H628.302C627.229 28.3667 626.961 27.8971 626.961 27.1994C626.961 26.7834 626.961 25.5221 630.261 25.5221C631.855 25.5179 633.437 25.7997 634.931 26.354L635.682 26.6358V22.8519L635.293 22.7312C633.668 22.202 631.97 21.9348 630.261 21.9395C624.264 21.9395 623.016 24.811 623.016 27.1994C623.016 29.5878 623.928 32.0567 628.262 32.0567H630.664C632.006 32.0567 632.261 32.6068 632.261 33.1972C632.261 33.7876 632.261 34.9952 629.295 34.9952C627.595 35.0176 625.905 34.7359 624.304 34.1633L623.539 33.8815V37.6654L623.941 37.7862C625.677 38.3325 627.489 38.5997 629.309 38.5778C635.052 38.5644 636.273 35.6527 636.273 33.1972C636.273 30.9967 635.32 28.3667 630.731 28.3667" fill="white"/>
<path d="M675.055 31.8557C675.055 33.9623 674.049 34.9418 671.875 34.9418C669.701 34.9418 668.695 33.9623 668.695 31.8557V22.0605H664.75V31.8557C664.75 36.2165 667.205 38.5647 671.875 38.5647C676.544 38.5647 679.013 36.2568 679.013 31.8557V22.0605H675.055V31.8557Z" fill="white"/>
<path d="M690.414 21.9507C684.577 21.9507 681.625 24.6343 681.625 30.0015C681.625 35.6505 684.577 38.5219 690.414 38.5219C692.01 38.546 693.597 38.2776 695.097 37.7303L695.459 37.5961V33.8525L694.681 34.1879C693.408 34.7282 692.038 35.0022 690.655 34.993C687.287 34.993 685.717 33.4231 685.717 30.0552C685.717 26.969 687.287 25.5333 690.655 25.5333C692.04 25.5222 693.411 25.801 694.681 26.3518L695.459 26.6873V22.8765L695.097 22.7424C693.597 22.195 692.01 21.9267 690.414 21.9507Z" fill="white"/>
<path d="M702.025 22.0742H698.066V38.4844H702.025V22.0742Z" fill="white"/>
<path d="M707.312 29.7538L714.169 22.2666L709.231 22.2129L703.367 28.7206V30.9748L709.58 38.4755H715.001L707.312 29.7538Z" fill="white"/>
<path d="M662.375 27.0517C662.375 23.7375 660.524 21.9663 657.008 21.9663H649.534V28.2459H642.986V21.9395H638.961V38.3497H642.986V31.8553H649.481V38.4302H656.981C660.47 38.4302 662.348 36.6724 662.348 33.3447C662.388 32.7527 662.287 32.1598 662.053 31.6142C661.82 31.0687 661.462 30.5858 661.007 30.2049C661.464 29.829 661.824 29.3489 662.058 28.8049C662.291 28.261 662.391 27.669 662.348 27.0785L662.375 27.0517ZM658.243 33.4655C658.243 34.4316 657.853 34.8073 656.901 34.8073H653.479V25.5489H656.914C657.853 25.5489 658.256 25.9514 658.256 26.8907C658.293 27.1939 658.259 27.5015 658.157 27.7894C658.055 28.0773 657.887 28.3375 657.667 28.5496C657.448 28.7616 657.181 28.9197 656.89 29.0114C656.599 29.103 656.29 29.1258 655.988 29.0778V31.265C656.29 31.2198 656.597 31.2445 656.887 31.3372C657.177 31.4299 657.442 31.5881 657.661 31.7995C657.881 32.0109 658.048 32.2699 658.151 32.5565C658.254 32.843 658.29 33.1495 658.256 33.4521" fill="white"/>
</g>
</svg>
