<svg width="132" height="129" viewBox="0 0 132 129" fill="none" xmlns="http://www.w3.org/2000/svg">
<g opacity="0.7">
<path d="M113.735 42.0572C113.917 42.6844 113.95 43.3611 114.247 43.9387C114.412 44.2523 114.858 44.1038 114.825 43.7572C114.759 43.163 114.594 42.5194 114.412 41.9417C114.297 41.5126 113.603 41.6281 113.735 42.0572Z" fill="#000412"/>
<path d="M115.09 40.8356C115.04 42.0074 115.205 43.4928 116.146 44.3015C116.427 44.5491 116.757 44.153 116.641 43.8724C116.443 43.3443 116.146 42.8821 115.998 42.321C115.866 41.8259 115.816 41.3142 115.783 40.8026C115.75 40.4065 115.106 40.4395 115.09 40.8356Z" fill="#000412"/>
<path d="M116.868 41.9755C116.901 42.6027 117.017 43.3124 117.429 43.8075C117.644 44.0716 118.09 43.857 118.024 43.5269C117.925 42.9823 117.66 42.5037 117.611 41.9425C117.578 41.5134 116.835 41.5464 116.868 41.9755Z" fill="#000412"/>
<path d="M19.3474 63.0029C20.3707 55.6584 22.5493 49.3042 24.9094 42.3558C25.0745 41.8607 24.4143 41.4976 24.1007 41.9267C19.9086 47.7197 18.2416 55.9885 18.6872 63.0359C18.7037 63.432 19.2979 63.366 19.3474 63.0029Z" fill="#000412"/>
<path d="M24.349 42.8355C28.3761 42.588 28.3596 37.8347 29.0528 34.9959C29.1353 34.6493 28.8217 34.2697 28.4586 34.4513C27.1712 35.0784 26.9897 36.5473 26.8246 37.8347C26.6761 38.957 26.4285 39.8482 25.5868 40.6404C25.0257 41.1686 24.3655 41.5317 23.9364 42.1588C23.6888 42.4889 24.0024 42.852 24.349 42.8355Z" fill="#000412"/>
<path d="M28.5064 35.9352C30.1074 34.0537 31.6753 32.1227 33.3422 30.3072C34.6461 28.9043 36.247 27.65 37.1217 25.917C37.3033 25.5539 36.8412 25.2238 36.5111 25.3724C34.6461 26.1811 33.2597 28.0131 31.9558 29.515C30.3549 31.3635 28.9521 33.278 27.7472 35.4071C27.4667 35.9352 28.1268 36.3974 28.5064 35.9352Z" fill="#000412"/>
<path d="M48.592 16.1798C53.0812 17.0711 57.4879 14.8595 61.9111 14.1333C68.3808 13.077 74.405 13.7702 80.8417 14.1993C81.4194 14.2323 81.6669 13.3576 81.0727 13.1925C69.8002 9.95767 59.65 14.1168 48.559 15.2556C47.9978 15.3216 48.1134 16.0808 48.592 16.1798Z" fill="#000412"/>
<path d="M93.0713 18.3741C96.9663 21.4604 101.439 23.7216 105.417 26.7089C109.114 29.4816 111.639 32.799 114.312 36.496C114.544 36.8261 115.138 36.5455 115.039 36.1494C112.811 26.8904 101.225 21.576 93.649 17.5819C93.0878 17.3013 92.5761 17.978 93.0713 18.3741Z" fill="#000412"/>
<path d="M114.233 35.3082C113.078 38.6751 116.412 41.2168 118.557 43.1148C118.854 43.3789 119.382 43.1148 119.399 42.7352C119.415 41.2003 118.161 40.7382 117.204 39.7644C115.916 38.4441 115.751 36.9091 115.124 35.2752C114.959 34.8791 114.365 34.9286 114.233 35.3082Z" fill="#000412"/>
<path d="M117.924 41.9738C119.657 46.2154 121.341 50.2755 121.951 54.8637C122.43 58.3957 122.298 62.1257 123.255 65.5586C123.437 66.1858 124.411 66.2353 124.46 65.5091C125.137 57.7685 123.305 47.8328 118.898 41.3466C118.502 40.7689 117.677 41.3961 117.924 41.9738Z" fill="#000412"/>
<path d="M123.009 65.1998C123.718 66.9327 124.445 68.5172 124.478 70.4317C124.511 72.0986 123.982 73.6996 123.9 75.35C123.883 75.8781 124.643 76.2743 124.94 75.7296C126.788 72.4287 126.623 67.4114 123.982 64.5561C123.537 64.061 122.761 64.5726 123.009 65.1998Z" fill="#000412"/>
<path d="M122.563 78.5167C123.487 77.675 124.56 76.5197 125.072 75.3809C125.369 74.7372 124.477 74.1926 123.982 74.6217C123.025 75.4304 122.233 76.7838 121.688 77.9061C121.424 78.4012 122.167 78.8798 122.563 78.5167Z" fill="#000412"/>
<path d="M122.185 76.686C119.643 82.1655 118.059 87.9916 114.94 93.2235C112.365 97.5311 109.015 100.948 105.219 104.182C104.822 104.513 105.252 105.206 105.714 104.958C115.402 99.7757 120.716 87.1498 123.06 76.9996C123.192 76.4385 122.433 76.1249 122.185 76.686Z" fill="#000412"/>
<path d="M68.0174 118.441C81.4025 120.851 98.5671 114.926 106.885 103.934C107.265 103.422 106.572 102.844 106.093 103.208C93.7974 112.648 83.7791 117.071 68.0999 117.599C67.5718 117.632 67.4893 118.359 68.0174 118.441Z" fill="#000412"/>
<path d="M19.0991 61.0553C17.0856 67.6241 20.1719 74.2754 18.571 80.8277C18.4225 81.4383 19.2477 82.016 19.6273 81.3888C21.0136 79.0782 20.9476 76.1404 20.6341 73.5162C20.1389 69.3571 20.0564 65.3135 19.8253 61.1379C19.8088 60.7418 19.1981 60.7087 19.0991 61.0553Z" fill="#000412"/>
<path d="M18.751 80.678C18.3219 81.7178 18.6355 83.0381 18.9821 84.0779C19.2957 85.0352 19.7578 86.537 20.8141 86.8506C21.1277 86.9497 21.5403 86.7681 21.5568 86.3885C21.5898 85.4478 20.8141 84.639 20.484 83.7643C20.1044 82.741 20.1539 81.6352 19.7413 80.645C19.5598 80.1828 18.9326 80.2654 18.751 80.678Z" fill="#000412"/>
<path d="M20.403 86.2403C21.3273 87.5111 22.7137 88.2043 23.7865 89.3431C25.1068 90.746 25.932 92.5945 26.9718 94.212C28.8533 97.1167 31.1144 99.7244 34.0027 101.655C34.3493 101.887 34.7949 101.441 34.5144 101.094C31.7581 97.8264 29.1834 94.6576 26.9718 90.9771C25.5029 88.5509 23.6709 86.4218 20.8487 85.6131C20.4526 85.5141 20.1555 85.9102 20.403 86.2403Z" fill="#000412"/>
<path d="M39.3526 107.202C41.6798 110.024 45.1622 111.955 48.4301 113.539C52.7212 115.602 57.9037 115.965 61.8812 118.507C62.6569 119.002 63.4492 117.88 62.7065 117.335C59.6696 115.107 55.758 114.794 52.2756 113.506C47.7204 111.806 44.0729 108.918 39.8973 106.624C39.5177 106.409 39.0556 106.838 39.3526 107.202Z" fill="#000412"/>
<path d="M61.5797 117.747C62.0418 119.1 63.3952 119.909 64.7815 120.091C65.4417 120.173 66.1019 120.107 66.729 119.909C67.7853 119.563 68.5941 118.589 69.7659 118.721C70.096 118.754 70.3766 118.391 70.2116 118.094C69.5844 116.938 68.4456 117.169 67.4388 117.764C65.4253 118.935 63.9564 118.754 62.1739 117.268C61.8273 116.955 61.4806 117.417 61.5797 117.747Z" fill="#000412"/>
<path d="M80.4629 13.652C83.0376 15.4675 86.3385 14.2297 89.0948 15.6821C91.3559 16.8704 92.9733 19.3626 95.5975 19.7091C95.9276 19.7587 96.1751 19.3131 95.944 19.049C94.2441 17.2995 91.9004 15.3685 89.7384 14.2462C86.9986 12.8268 83.7143 13.3054 80.7435 12.9093C80.3144 12.8598 80.1328 13.421 80.4629 13.652Z" fill="#000412"/>
<path d="M43.0432 20.4198C43.9345 19.215 44.8752 18.1257 46.1956 17.3995C47.4499 16.7064 48.7703 16.6238 50.1237 16.2607C50.6353 16.1287 50.8498 15.3035 50.2227 15.1219C47.0703 14.2472 43.1918 17.086 42.3006 20.0403C42.1685 20.4859 42.7462 20.816 43.0432 20.4198Z" fill="#000412"/>
<path d="M35.6226 26.8097C37.6032 26.0175 39.3527 24.3505 40.8381 22.8651C42.2409 21.4623 43.8749 19.9273 44.6506 18.0623C44.8486 17.5837 44.2379 17.2206 43.8583 17.5177C42.1749 18.7885 40.9206 20.67 39.4187 22.1554C38.0323 23.5253 36.3983 24.7796 35.21 26.3476C35.0285 26.6116 35.3421 26.9252 35.6226 26.8097Z" fill="#000412"/>
<path d="M34.1996 30.2756C35.7675 29.0377 37.2694 27.7009 38.8043 26.4135C40.1742 25.2417 41.6596 24.1359 42.7984 22.7496C42.98 22.5185 42.6829 22.1389 42.4188 22.2874C40.8839 23.2282 39.5965 24.565 38.2432 25.7534C36.7413 27.0902 35.2229 28.3941 33.787 29.7969C33.4899 30.061 33.8695 30.5231 34.1996 30.2756Z" fill="#000412"/>
<path d="M44.0693 20.717C44.2178 20.3374 44.5314 20.1889 44.845 19.9743C45.1255 19.7763 44.9275 19.3637 44.6469 19.3307C43.8877 19.2316 43.3926 19.8588 43.2606 20.5355C43.178 21.0141 43.8877 21.1296 44.0693 20.717Z" fill="#000412"/>
<path d="M49.3018 17.3021C51.8105 17.4012 54.5833 17.1536 56.9269 16.1964C57.2405 16.0643 57.0755 15.5692 56.7454 15.6187C54.2532 16.0478 51.9261 16.5264 49.3679 16.576C48.9223 16.576 48.8397 17.2856 49.3018 17.3021Z" fill="#000412"/>
<path d="M69.3854 14.2829C72.0591 14.2664 74.6338 14.4975 77.291 14.811C77.6211 14.8441 77.7531 14.3159 77.423 14.2334C74.8153 13.5402 72.0426 13.3917 69.3689 13.6227C68.9728 13.6557 69.0058 14.2829 69.3854 14.2829Z" fill="#000412"/>
<path d="M21.5078 55.9046C21.8379 54.9804 22.1184 54.0727 22.1349 53.0824C22.1349 52.7688 21.6728 52.5047 21.4912 52.8513C20.9961 53.7591 20.7981 54.6998 20.6165 55.7066C20.501 56.2182 21.3262 56.3833 21.5078 55.9046Z" fill="#000412"/>
<path d="M23.0602 50.0127C23.3903 48.9399 23.7698 47.9002 24.232 46.8769C24.6941 45.8701 25.3378 44.9129 25.6678 43.8566C25.7999 43.444 25.2883 43.2129 25.0242 43.5265C23.5883 45.1274 22.9446 47.7351 22.4165 49.7817C22.3009 50.1943 22.9281 50.4419 23.0602 50.0127Z" fill="#000412"/>
<path d="M27.4663 42.7185C28.4566 41.8108 29.6614 40.4904 29.843 39.104C29.8925 38.7739 29.4304 38.6254 29.2488 38.8895C28.8857 39.4011 28.6877 40.0283 28.3411 40.5564C27.9615 41.1506 27.5159 41.6787 27.0207 42.1739C26.6906 42.4874 27.1197 43.0156 27.4663 42.7185Z" fill="#000412"/>
<path d="M20.8485 71.0751C20.5349 73.0392 20.6009 75.9439 21.2775 77.8089C21.4096 78.172 21.9872 78.04 22.0037 77.6769C22.0863 76.6371 21.8717 75.5808 21.7892 74.5411C21.7066 73.3693 21.7397 72.1974 21.5581 71.0421C21.5086 70.613 20.9145 70.679 20.8485 71.0751Z" fill="#000412"/>
<path d="M104.329 103.984C108.636 101.146 112.977 96.871 114.875 91.9692C115.007 91.6226 114.496 91.342 114.281 91.6556C111.343 96.3099 108.504 100.287 103.916 103.489C103.57 103.737 103.982 104.216 104.329 103.984Z" fill="#000412"/>
<path d="M117.136 87.6951C117.449 86.9689 117.845 86.2262 118.043 85.4339C118.109 85.1369 117.713 84.8398 117.515 85.1534C117.086 85.8631 116.822 86.6883 116.508 87.4475C116.343 87.8601 116.954 88.0912 117.136 87.6951Z" fill="#000412"/>
<path d="M115.272 89.3254C115.206 89.4079 115.14 89.4905 115.074 89.573C114.761 89.9691 115.338 90.4642 115.718 90.1672C115.801 90.1011 115.883 90.0351 115.965 89.9691C116.494 89.54 115.718 88.7643 115.272 89.3254Z" fill="#000412"/>
<path d="M118.723 82.856C119.317 81.9152 119.895 80.8589 120.258 79.8027C120.373 79.4561 119.911 79.2085 119.697 79.5056C119.02 80.3968 118.459 81.4531 117.997 82.4764C117.799 82.9055 118.475 83.2521 118.723 82.856Z" fill="#000412"/>
<path d="M33.2443 101.128C34.2181 102.531 35.9346 103.141 37.0899 104.396C38.3277 105.733 39.1364 107.466 40.6879 108.489C41.0675 108.736 41.4471 108.34 41.315 107.961C40.7044 106.195 39.186 104.412 37.8491 103.141C36.6938 102.036 35.1258 101.177 33.657 100.534C33.2774 100.369 33.0463 100.847 33.2443 101.128Z" fill="#000412"/>
<path d="M32.3489 98.2401C32.613 99.0653 33.2566 100.072 34.0324 100.485C34.2634 100.617 34.643 100.468 34.5605 100.138C34.3295 99.2799 33.5537 98.3887 32.7945 97.943C32.5965 97.844 32.2664 97.9761 32.3489 98.2401Z" fill="#000412"/>
<path d="M30.3232 95.7134C30.5708 96.0105 30.7689 96.2251 31.1155 96.4066C31.396 96.5552 31.7921 96.3076 31.6271 95.9775C31.429 95.6144 31.198 95.3834 30.8844 95.1193C30.5048 94.8057 30.0261 95.3668 30.3232 95.7134Z" fill="#000412"/>
<path d="M36.4956 101.408C36.8092 101.639 37.0238 101.755 37.3869 101.837C37.684 101.903 37.849 101.491 37.684 101.276C37.4529 100.996 37.1888 100.864 36.8587 100.698C36.4296 100.517 36.149 101.144 36.4956 101.408Z" fill="#000412"/>
<path d="M41.326 107.502C42.2667 107.964 43.0755 108.69 43.9997 109.135C44.3628 109.301 44.5774 108.838 44.3958 108.574C43.8016 107.683 42.5638 107.155 41.5736 106.825C41.1279 106.643 40.9133 107.287 41.326 107.502Z" fill="#000412"/>
<path d="M44.7974 109.678C45.1275 110.074 45.5731 110.305 46.0352 110.536C46.4808 110.751 46.7944 110.074 46.4148 109.793C46.0352 109.513 45.6391 109.249 45.1605 109.15C44.8634 109.067 44.5663 109.397 44.7974 109.678Z" fill="#000412"/>
<path d="M69.6188 117.25C70.7741 117.283 71.946 117.349 73.1013 117.299C73.5634 117.283 73.5304 116.507 73.0683 116.49C71.946 116.441 70.8072 116.507 69.6849 116.54C69.2228 116.54 69.1402 117.233 69.6188 117.25Z" fill="#000412"/>
<path d="M74.8986 117.02C74.9646 117.004 75.0471 116.987 75.1132 116.971C75.3772 116.905 75.4928 116.459 75.1627 116.377C75.0967 116.36 75.0307 116.344 74.9647 116.327C74.321 116.162 74.3705 117.152 74.8986 117.02Z" fill="#000412"/>
<path d="M77.1592 116.871C77.9844 116.722 78.9582 116.656 79.7174 116.277C80.031 116.128 79.9815 115.583 79.5854 115.567C78.7272 115.55 77.8524 115.897 77.0272 116.112C76.5651 116.244 76.6806 116.97 77.1592 116.871Z" fill="#000412"/>
<path d="M43.481 61.4177C41.0053 65.7089 41.0053 71.535 45.1974 74.7698C48.5643 77.3775 55.9583 78.1367 56.3544 72.3272C56.3874 71.9146 55.7767 71.766 55.6282 72.1621C53.5817 77.6251 46.4187 75.8756 44.0421 71.6505C42.2761 68.5312 42.8703 64.9827 44.4217 61.9129C44.6858 61.3847 43.7945 60.9061 43.481 61.4177Z" fill="#000412"/>
<path d="M56.3174 71.8C57.3242 69.2418 56.0038 66.6506 56.3669 64.0099C56.631 62.0128 56.8455 60.4614 55.4756 58.7614C52.9009 55.5596 47.9166 55.5266 45.2429 58.4479C44.9293 58.7945 45.2264 59.3061 45.6885 59.1245C47.3225 58.5139 48.5108 57.4741 50.3923 57.6722C53.6602 58.0187 55.6077 60.3789 55.0466 63.5973C54.5679 66.337 55.9708 68.8787 55.4592 71.5854C55.3601 72.1135 56.1358 72.2621 56.3174 71.8Z" fill="#000412"/>
<path d="M37.7325 35.8529C38.9538 34.1364 39.9276 32.2714 41.1159 30.5385C42.2547 28.8715 44.9284 25.7522 47.3216 27.056C50.7215 28.9045 45.7537 32.354 44.4498 33.3937C43.278 34.3345 42.3538 35.2587 41.8421 36.6781C41.6771 37.1403 42.3702 37.4043 42.5683 36.9422C43.7896 34.0374 47.14 33.2122 48.5759 30.5055C49.3186 29.0861 49.5662 26.5609 47.7672 25.8842C42.4528 23.9037 38.7888 31.9248 36.9898 35.4403C36.7753 35.9024 37.4684 36.2325 37.7325 35.8529Z" fill="#000412"/>
<path d="M40.4723 38.6928C39.7461 39.6666 38.4753 41.1685 37.1219 40.2938C35.9501 39.5511 37.7161 38.3462 36.8248 37.422C36.6433 37.2239 36.3132 37.2239 36.1647 37.455C35.2074 38.8249 35.0093 40.8054 36.8413 41.4821C38.7228 42.1753 40.0597 40.4093 41.017 39.0724C41.2645 38.7258 40.7364 38.3462 40.4723 38.6928Z" fill="#000412"/>
<path d="M86.6223 22.0045C89.0979 23.2753 91.6396 24.3977 94.1648 25.553C96.756 26.7248 103.886 31.1315 98.2744 34.0528C97.9443 34.2178 98.0928 34.812 98.489 34.7129C101.493 33.9702 102.004 30.5703 100.37 28.2102C99.2976 26.6588 97.5647 25.751 95.8977 24.9753C92.96 23.6054 89.9561 22.3181 86.9193 21.1628C86.3912 20.9482 86.1271 21.7569 86.6223 22.0045Z" fill="#000412"/>
<path d="M97.8588 33.9038C96.0598 33.6397 95.5151 31.7747 94.2938 30.801C93.6006 30.2563 92.8084 29.9592 91.9502 29.7777C90.6793 29.4971 89.3425 29.5961 88.0717 29.266C85.1339 28.5233 84.9358 26.6253 83.83 24.3147C83.632 23.9021 83.0543 24.1332 83.0873 24.5458C83.3184 27.6816 85.1504 29.9592 88.2697 30.4709C90.9764 30.9 92.8579 30.8175 94.921 32.9135C95.8287 33.8213 96.4724 34.5145 97.7927 34.6795C98.2878 34.729 98.3539 33.9698 97.8588 33.9038Z" fill="#000412"/>
<path d="M111.421 59.5339C112.114 57.4543 113.567 57.0087 115.762 58.1805C116.356 58.9562 116.769 59.831 116.983 60.7882C117.264 61.9105 117.28 63.0988 117.115 64.2376C116.719 66.9444 114.375 71.4831 110.926 69.7666C110.398 69.5026 110.068 70.3113 110.464 70.6414C115.019 74.4044 118.65 65.5745 118.386 62.2571C118.221 60.194 117.33 57.1902 115.151 56.3815C112.956 55.5728 111.339 57.3883 110.497 59.1873C110.249 59.7814 111.157 60.095 111.421 59.5339Z" fill="#000412"/>
<path d="M110.223 66.5368C110.091 65.7281 110.107 64.9194 110.272 64.1107C110.421 63.434 110.8 62.8233 110.883 62.1466C110.916 61.8331 110.536 61.635 110.305 61.8496C109.1 62.9059 109.133 65.266 109.447 66.6854C109.546 67.164 110.305 67.032 110.223 66.5368Z" fill="#000412"/>
<path d="M72.5767 109.299C75.9271 109.15 78.4688 110.9 81.8687 110.141C84.1463 109.629 87.0016 108.688 88.751 107.12C90.6986 105.371 90.9792 102.383 88.3715 101.212C87.9588 101.03 87.7277 101.674 88.1239 101.872C91.9529 103.753 86.9191 107.021 85.0871 107.764C83.6017 108.375 82.0337 109.051 80.4163 109.183C77.5775 109.431 75.1513 107.665 72.4116 108.441C71.8834 108.606 72.0155 109.332 72.5767 109.299Z" fill="#000412"/>
<path d="M85.8927 100.718C83.45 101.988 80.7432 102.896 78.119 103.705C76.5841 104.167 74.9007 104.464 73.4978 105.289C71.8474 106.28 70.5105 108.392 73.0027 109.267C73.4978 109.448 73.9434 108.689 73.4482 108.425C70.9066 107.039 76.3035 105.322 76.6666 105.223C77.5579 104.959 78.4656 104.745 79.3403 104.448C81.7665 103.655 83.9286 102.5 86.1732 101.312C86.5693 101.114 86.2888 100.52 85.8927 100.718Z" fill="#000412"/>
<path d="M105.454 93.8828C106.856 93.1071 107.913 91.8692 108.342 90.3013C108.622 89.2285 108.622 87.5286 107.385 87.0334C106.081 86.5218 104.694 88.0237 103.952 88.8984C102.945 90.0868 101.988 91.8032 102.103 93.4206C102.12 93.7672 102.631 93.7673 102.747 93.4702C103.143 92.4469 103.308 91.4071 103.886 90.4499C104.381 89.6246 105.025 88.8819 105.784 88.3043C107.599 86.9179 107.863 89.1295 107.467 90.3673C107.088 91.5887 106.246 92.5624 105.14 93.1896C104.727 93.4536 105.041 94.1303 105.454 93.8828Z" fill="#000412"/>
<path d="M101.62 95.8143C102.924 96.1774 104.558 95.7648 105.136 94.4114C105.284 94.0483 104.839 93.8007 104.558 94.0153C103.7 94.6425 102.908 95.1541 101.802 95.0551C101.356 95.0056 101.175 95.6823 101.62 95.8143Z" fill="#000412"/>
<path d="M38.8379 97.017C39.9272 99.9053 43.3766 104.675 46.9251 104.527C48.3114 104.46 49.3842 103.586 49.4997 102.199C49.6318 100.516 48.3774 99.2781 47.1726 98.3208C46.9085 98.1063 46.5289 98.5189 46.76 98.7665C47.6843 99.7402 48.9551 100.995 48.5095 102.496C47.9153 104.51 45.2086 103.206 44.1523 102.381C42.1388 100.83 40.8184 98.8325 39.5146 96.6869C39.267 96.2743 38.6563 96.5549 38.8379 97.017Z" fill="#000412"/>
<path d="M39.486 96.2434C38.7103 94.6425 41.219 95.2696 41.6151 95.4842C41.9617 95.6822 42.2917 95.9298 42.6218 96.1444C43.414 96.6725 44.1898 97.2997 45.114 97.5802C45.5101 97.6958 45.8567 97.2502 45.5761 96.9201C44.8499 96.0453 43.7111 95.4347 42.7539 94.824C41.9782 94.3454 41.1199 93.8668 40.1627 93.9823C38.9083 94.1473 38.1491 95.5667 38.8588 96.6395C39.1064 97.0026 39.6675 96.623 39.486 96.2434Z" fill="#000412"/>
<path d="M29.3329 81.7349C28.5242 80.2991 27.8145 78.8136 27.3523 77.2292C27.1213 76.4205 26.9232 75.5788 26.8077 74.7535C26.7747 74.3079 26.7417 73.8623 26.7087 73.4167C28.6397 71.4857 29.7785 71.2711 30.1086 72.7565C30.5707 73.5982 30.6698 74.6545 31.0989 75.5293C31.7425 76.8166 35.6871 82.3786 31.1649 82.5272C30.5047 82.5437 30.3891 83.5669 31.0658 83.5669C33.393 83.5339 34.3667 81.1738 33.8551 79.1107C33.3599 77.1632 31.8911 75.6283 31.2639 73.7138C30.9503 72.7565 30.8348 71.5517 30.1251 70.776C28.5572 69.0595 26.2796 70.5614 25.8339 72.4594C25.1243 75.5788 27.0058 79.5398 28.5737 82.0815C28.8378 82.5602 29.597 82.2136 29.3329 81.7349Z" fill="#000412"/>
<path d="M88.2372 61.3682C87.3955 64.4545 84.8869 70.9407 88.3528 73.3339C91.7197 75.661 95.2186 71.7 97.0671 69.3233C99.9719 65.5933 100.979 61.2857 98.4865 57.011C96.9186 54.3373 93.1556 51.482 90.746 54.8819C90.4159 55.3441 91.0595 55.9712 91.4886 55.5586C94.4264 52.6868 96.539 56.0042 97.5127 57.7372C98.47 59.4371 99.0642 61.3682 98.7836 63.3487C98.4205 65.9069 96.704 68.1515 95.0371 70.033C94.3274 70.8252 93.2876 72.0796 92.2478 72.4262C87.6926 73.9611 87.6596 70.2971 87.8246 68.168C88.0062 65.9564 88.6828 63.7448 89.0129 61.5497C89.0789 61.1041 88.3528 60.9225 88.2372 61.3682Z" fill="#000412"/>
<path d="M90.4651 56.3374C89.2933 56.8491 88.0555 58.7636 88.9963 59.9684C89.2108 60.2325 89.5903 60.0674 89.6399 59.7703C89.7224 59.2917 89.5738 58.8296 89.7554 58.351C89.9369 57.8063 90.3331 57.3772 90.8117 57.0966C91.2573 56.8161 90.9602 56.1229 90.4651 56.3374Z" fill="#000412"/>
<path d="M67.5575 24.1001C64.9828 25.0903 64.1906 27.2524 64.0916 29.8271C63.9761 33.161 64.4382 32.2367 63.3819 34.3988C62.9693 35.2571 62.3917 36.2638 62.1606 37.2046C61.8965 38.2774 61.814 39.1851 62.3421 40.2084C65.1149 45.5723 73.9778 44.6481 76.3049 39.5812C76.4535 39.2511 75.9418 39.0036 75.7437 39.2841C73.7302 42.1064 70.5944 43.5423 67.1285 42.486C64.8178 41.7763 64.1741 41.1161 63.6955 38.7395C63.1509 35.9998 63.3984 36.2968 64.5702 33.8707C64.9663 33.0785 65.1975 32.5833 65.28 31.6921C65.346 30.7513 64.9168 29.7941 65.0159 28.8698C65.2139 27.0378 66.5013 25.7175 67.9372 24.7602C68.3333 24.4797 67.9206 23.9515 67.5575 24.1001Z" fill="#000412"/>
<path d="M77.2145 37.1079C78.5844 33.906 75.1349 30.7867 73.8641 28.0965C72.8738 25.9839 70.8438 22.749 68.0875 24.3169C67.7409 24.515 67.873 25.0926 68.3186 25.0101C72.0486 24.3004 72.6593 27.8324 74.0292 30.2585C75.2175 32.3711 77.7756 34.1371 76.6368 36.9098C76.4718 37.2729 77.0495 37.471 77.2145 37.1079Z" fill="#000412"/>
<path d="M65.4103 86.6697C65.0637 89.8551 68.051 92.7268 71.1044 93.0404C74.0587 93.3375 78.845 90.8619 79.8847 87.9241C81.0566 84.6397 76.8479 83.6494 74.5208 83.9465C72.5073 84.1941 66.2026 81.4708 65.856 85.5144C65.823 85.9105 66.4006 86.0425 66.5491 85.6629C67.7044 82.6096 71.0548 84.8707 73.1509 84.9202C74.1907 84.9367 75.5441 84.2435 76.4848 84.5241C77.3596 85.1513 78.2178 85.795 79.0926 86.4222C79.1091 87.594 78.6469 88.5017 77.7227 89.1784C73.349 93.2055 67.7705 92.8094 66.054 86.6367C65.9385 86.3231 65.4433 86.3066 65.4103 86.6697Z" fill="#000412"/>
<path d="M65.2314 62.1114C66.8653 64.2075 70.2817 64.6696 71.7011 62.0454C72.7409 60.1144 70.9915 56.731 68.5653 57.4242C68.2022 57.5232 68.0371 58.1174 68.4992 58.2494C69.9681 58.6785 71.6516 59.8008 70.8429 61.5998C69.8692 63.8114 67.0304 63.1677 65.743 61.6823C65.4624 61.3522 64.9673 61.7648 65.2314 62.1114Z" fill="#000412"/>
<path d="M122.848 74.6565C123.855 72.94 123.641 71.3061 123.145 69.4081C122.304 66.1897 122.056 63.351 122.023 60.0171C122.023 59.6705 121.445 59.4559 121.363 59.8685C120.917 61.783 120.967 63.7471 121.214 65.7111C121.594 68.5664 123.211 71.4051 122.023 74.2274C121.841 74.706 122.584 75.1186 122.848 74.6565Z" fill="#000412"/>
<path d="M121.622 56.9136C121.523 56.0059 121.424 55.1147 121.259 54.2234C121.176 53.8273 120.648 53.9428 120.664 54.3224C120.714 55.2302 120.846 56.1214 120.962 57.0292C120.995 57.4583 121.671 57.3428 121.622 56.9136Z" fill="#000412"/>
<path d="M50.5747 112.813C51.9776 112.962 53.3805 113.094 54.7338 113.457C55.9717 113.787 57.1105 114.381 58.3483 114.662C58.7609 114.761 59.0579 114.282 58.6948 113.985C56.6648 112.368 53.1824 111.806 50.6407 111.906C50.1126 111.939 49.9805 112.747 50.5747 112.813Z" fill="#000412"/>
<path d="M54.3193 111.854C55.029 111.788 55.6231 112.003 56.3163 112.052C56.6134 112.069 56.894 111.673 56.6464 111.425C55.9697 110.798 55.029 110.765 54.1707 110.963C53.5931 111.095 53.7417 111.92 54.3193 111.854Z" fill="#000412"/>
<path d="M23.106 63.9267C23.2215 61.583 23.7166 59.3219 23.9477 56.9948C23.9972 56.5327 23.3866 56.4502 23.205 56.8298C22.1322 58.9588 22.0002 61.6161 22.1982 63.9597C22.2312 64.4878 23.073 64.4548 23.106 63.9267Z" fill="#000412"/>
<path d="M46.5284 55.0805C42.7984 57.2756 39.349 63.1512 40.3062 67.5579C40.3722 67.8714 40.9169 68.0035 40.9994 67.6239C41.4781 65.5773 41.5276 63.5638 42.4188 61.5998C43.4916 59.2066 45.1255 57.5727 46.974 55.7902C47.3041 55.4766 46.9575 54.8164 46.5284 55.0805Z" fill="#000412"/>
<path d="M41.909 72.3614C42.9323 76.2565 49.1049 81.2738 52.9505 77.9729C53.2971 77.6759 52.9175 77.0322 52.5049 77.2798C48.8574 79.3428 43.7575 75.7944 42.5692 72.1469C42.4371 71.7838 41.81 71.9818 41.909 72.3614Z" fill="#000412"/>
<path d="M56.5626 74.3733C57.6353 73.3005 57.7013 72.0627 57.6848 70.5938C57.6518 68.3987 57.7509 65.956 57.2392 63.8269C57.1402 63.4143 56.5296 63.4143 56.48 63.8599C56.315 65.2463 56.513 66.6657 56.6121 68.0521C56.7441 69.7685 57.4208 72.3762 56.0674 73.7791C55.6878 74.1257 56.1995 74.7364 56.5626 74.3733Z" fill="#000412"/>
<path d="M59.1729 69.3426C59.2389 68.4018 59.3709 67.4446 59.1233 66.5203C59.0408 66.1902 58.4797 66.0417 58.3806 66.4543C58.1166 67.4116 58.2486 68.4018 58.3146 69.3756C58.3476 69.8707 59.1399 69.8212 59.1729 69.3426Z" fill="#000412"/>
<path d="M64.7121 83.5025C61.6588 88.916 66.2305 96.211 72.6177 94.8411C72.9643 94.7586 72.9809 94.1809 72.5848 94.1809C66.8412 94.2139 63.0286 89.3616 65.3888 83.8656C65.5703 83.453 64.9267 83.1064 64.7121 83.5025Z" fill="#000412"/>
<path d="M76.9437 92.8085C78.5281 92.1978 79.8485 91.1415 80.6737 89.6396C81.3834 88.3523 81.9941 86.4708 81.3504 85.0679C81.1689 84.6883 80.6572 84.8368 80.5912 85.1999C80.3271 86.5863 80.4426 87.8406 79.7329 89.1445C79.0232 90.4648 77.9835 91.4881 76.5971 92.0823C76.135 92.2968 76.4816 92.99 76.9437 92.8085Z" fill="#000412"/>
<path d="M73.4321 82.9588C74.4058 83.0083 75.3631 83.0908 76.3203 83.2559C77.2776 83.4044 78.2183 83.7015 79.1756 83.7015C79.4892 83.7015 79.7697 83.2393 79.4231 83.0413C77.7231 82.117 75.3961 82.1005 73.5146 82.051C72.9369 82.0345 72.8379 82.9257 73.4321 82.9588Z" fill="#000412"/>
<path d="M86.8674 71.8995C86.2237 68.8957 87.148 66.3705 87.7587 63.4822C88.4024 60.4124 87.5771 57.161 89.6401 54.5533C89.9207 54.1902 89.4256 53.8436 89.0955 54.0582C86.4383 55.8076 87.2635 59.5376 86.8674 62.2774C86.3722 65.6773 84.7713 68.7471 86.0422 72.1636C86.2072 72.6422 86.9829 72.3946 86.8674 71.8995Z" fill="#000412"/>
<path d="M94.6754 73.2197C98.6035 70.9586 102.333 65.5946 100.865 60.8249C100.749 60.4288 100.155 60.3958 100.105 60.8579C99.8743 63.119 99.9238 65.1655 98.95 67.3111C97.9432 69.5062 96.3093 71.3547 94.2958 72.6586C93.9822 72.8566 94.3453 73.4013 94.6754 73.2197Z" fill="#000412"/>
<path d="M100.004 57.3918C99.4591 55.8899 98.7494 54.1899 97.6436 53.0181C97.2805 52.6385 96.5708 53.0346 96.8349 53.5463C97.5776 54.9821 98.5349 56.3025 99.2116 57.7714C99.4591 58.283 100.202 57.9034 100.004 57.3918Z" fill="#000412"/>
<path d="M85.5437 19.7767C82.4079 19.6447 79.4701 23.5562 81.8467 26.2464C82.0778 26.494 82.5729 26.3125 82.4739 25.9494C82.1603 24.7445 81.8963 23.5397 82.5894 22.3844C83.2166 21.3116 84.3554 20.767 85.5767 20.6349C86.0884 20.6019 86.0388 19.8097 85.5437 19.7767Z" fill="#000412"/>
<path d="M82.4113 28.0142C82.9395 29.6316 84.2599 30.5394 85.8113 31.1335C87.9734 31.9588 90.4655 32.6024 92.7596 32.817C93.1722 32.85 93.2878 32.2723 92.9247 32.1073C90.0695 30.919 84.491 31.084 83.3191 27.5851C83.1046 26.9744 82.2133 27.4035 82.4113 28.0142Z" fill="#000412"/>
<path d="M64.1535 43.1493C62.305 41.3503 61.1662 38.9737 61.5953 36.333C61.9254 34.2864 63.2623 32.603 63.4273 30.5234C63.4603 30.1438 62.9158 30.0283 62.7837 30.3749C61.8265 32.7515 60.4235 35.1777 60.5556 37.8184C60.6876 40.1785 61.81 42.2746 63.6089 43.76C63.9555 44.0736 64.5001 43.4959 64.1535 43.1493Z" fill="#000412"/>
<path d="M63.3652 28.1301C63.3487 26.6282 63.9264 25.2088 65.1478 24.3011C66.4186 23.3438 67.6069 23.6079 69.0428 23.3768C69.3729 23.3273 69.4884 22.8487 69.2078 22.6671C67.8214 21.7924 65.6594 22.5681 64.4875 23.5088C63.1012 24.6476 62.507 26.4136 62.639 28.1631C62.6556 28.5757 63.3652 28.5427 63.3652 28.1301Z" fill="#000412"/>
<path d="M60.9372 32.2728C61.3828 31.6622 61.8119 30.8865 61.5808 30.1108C61.4488 29.6981 60.9536 29.6321 60.7556 30.0282C60.4915 30.5729 60.4585 31.167 60.1449 31.6952C59.8148 32.2563 60.5576 32.7845 60.9372 32.2728Z" fill="#000412"/>
<path d="M34.3984 41.1529C34.877 39.1228 35.3887 37.1258 36.2634 35.2113C37.2372 33.0657 38.64 31.2997 39.9109 29.3522C40.1089 29.0551 39.7293 28.692 39.4487 28.9396C36.1313 31.8113 34.1013 36.6967 33.6392 40.9878C33.5897 41.4169 34.2994 41.5985 34.3984 41.1529Z" fill="#000412"/>
<path d="M44.6652 25.142C45.6059 24.9769 46.5467 24.9769 47.4709 25.241C48.2631 25.4721 48.8903 26.0497 49.6825 26.2478C50.0126 26.3303 50.3757 26.0332 50.1942 25.6866C49.7486 24.7954 48.5272 24.3663 47.6195 24.1682C46.5137 23.9206 45.4574 23.9867 44.4011 24.3333C43.9225 24.4818 44.2031 25.2245 44.6652 25.142Z" fill="#000412"/>
<path d="M34.9589 42.5053C35.5035 43.1655 36.4278 43.5451 37.2365 43.116C37.5171 42.9674 37.5006 42.4393 37.121 42.4393C36.5268 42.4393 36.0317 42.4393 35.6191 41.9441C35.2395 41.548 34.5958 42.0927 34.9589 42.5053Z" fill="#000412"/>
<path d="M26.4427 78.8453C25.3204 74.8017 24.4621 71.2698 28.3077 68.4475C28.6047 68.233 28.3572 67.7213 28.0106 67.8038C23.0098 68.8271 24.5117 75.858 25.799 79.0599C25.931 79.4065 26.5582 79.2249 26.4427 78.8453Z" fill="#000412"/>
<path d="M26.7903 81.3862C27.764 84.555 31.9232 86.8161 34.9765 84.9181C35.4716 84.6045 35.1415 83.8948 34.5804 84.0929C31.7581 85.1492 28.5728 84.1424 27.5 81.1551C27.368 80.759 26.6747 80.9735 26.7903 81.3862Z" fill="#000412"/>
<path d="M79.7658 111.888C84.2715 111.674 90.8568 110.056 91.8305 104.775C91.8965 104.412 91.3519 104.214 91.1704 104.527C90.0151 106.491 88.7938 108.109 86.7307 109.198C84.5521 110.353 82.0434 110.7 79.6173 111.03C79.0396 111.112 79.2211 111.921 79.7658 111.888Z" fill="#000412"/>
<path d="M84.6714 100.368C85.4966 100.186 86.2888 100.17 87.1305 100.236C87.8237 100.285 88.4839 100.467 89.1606 100.434C89.5237 100.417 89.5732 99.9059 89.3091 99.7243C87.9888 98.767 85.9752 99.1466 84.5228 99.5592C84.0277 99.6913 84.1433 100.484 84.6714 100.368Z" fill="#000412"/>
<path d="M94.9362 87.3464C95.976 87.5939 96.9663 87.3464 97.742 86.6037C98.3691 86.0095 99.0788 84.8377 98.4682 84.0455C98.2701 83.7979 97.9235 83.8639 97.742 84.0785C97.3624 84.5571 97.4283 85.2008 96.9662 85.6794C96.5041 86.1746 95.8274 86.4386 95.1508 86.4056C94.6226 86.3726 94.375 87.2143 94.9362 87.3464Z" fill="#000412"/>
<path d="M100.039 82.4763C101.161 82.3607 102.168 80.9909 101.574 79.9181C101.359 79.522 100.567 79.5385 100.6 80.0831C100.617 80.7103 100.6 81.2879 99.8739 81.486C99.2467 81.6676 99.3953 82.5423 100.039 82.4763Z" fill="#000412"/>
<path d="M42.9977 84.6578C42.3705 85.4996 42.4531 86.6879 43.2453 87.4141C43.8889 88.0082 45.2588 88.3713 45.82 87.4966C45.952 87.282 45.886 86.952 45.6219 86.8695C45.1928 86.7374 44.7307 86.886 44.3181 86.6879C43.6744 86.3908 43.5258 85.6316 43.7074 85.0044C43.8229 84.6083 43.2783 84.2782 42.9977 84.6578Z" fill="#000412"/>
<path d="M45.8544 87.7285C45.1777 89.313 47.0922 92.0527 48.7922 90.6663C49.0728 90.4353 48.9077 90.0062 48.5776 89.9567C47.6534 89.8081 46.3825 89.2635 46.8282 88.0752C47.0262 87.4645 46.102 87.1344 45.8544 87.7285Z" fill="#000412"/>
<path d="M59.6188 20.1891C60.0809 19.4795 60.7412 18.9018 61.5664 18.6707C62.3586 18.4397 63.0848 18.7038 63.877 18.7533C64.2236 18.7698 64.4382 18.3737 64.2236 18.0931C62.7382 16.2776 59.4373 17.9115 58.8101 19.76C58.6616 20.2552 59.3382 20.6513 59.6188 20.1891Z" fill="#000412"/>
<path d="M34.1345 113.361C38.8218 119.319 46.4633 124.221 54.2204 124.534C54.6661 124.551 54.8971 123.841 54.402 123.709C46.5624 121.745 40.2411 118.989 34.6791 112.899C34.3655 112.552 33.8374 112.998 34.1345 113.361Z" fill="#000412"/>
<path d="M72.0639 126.747C93.3381 131.368 116.444 119.881 125.571 100.092C125.835 99.5143 124.878 99.0192 124.581 99.5803C114.381 119.006 93.8497 129.42 72.1299 125.971C71.6348 125.888 71.5853 126.648 72.0639 126.747Z" fill="#000412"/>
<path d="M110.103 110.453C112.365 109.215 114.774 107.416 115.996 105.089C116.177 104.759 115.764 104.248 115.451 104.594C113.652 106.542 112.084 108.357 109.74 109.678C109.262 109.942 109.608 110.717 110.103 110.453Z" fill="#000412"/>
<path d="M123.178 96.0952C126.826 89.675 129.995 82.8091 131.364 75.5142C131.463 74.986 130.589 74.7879 130.44 75.2996C128.311 82.38 126.149 89.1468 122.535 95.6496C122.304 96.0787 122.931 96.5408 123.178 96.0952Z" fill="#000412"/>
<path d="M22.4534 25.5537C32.323 9.32979 48.4313 2.10085 66.9823 2.18337C67.56 2.18337 67.659 1.35814 67.0648 1.27562C48.9429 -1.3816 30.4415 9.47833 21.6446 24.9925C21.3475 25.5372 22.1233 26.0983 22.4534 25.5537Z" fill="#000412"/>
<path d="M76.1729 1.06292C82.3785 2.05319 87.759 4.36381 93.7171 6.11328C94.1957 6.26182 94.6249 5.58514 94.1462 5.28806C88.9803 2.08619 82.23 0.815357 76.2719 0.00663872C75.5952 -0.092388 75.5127 0.947391 76.1729 1.06292Z" fill="#000412"/>
<path d="M9.36255 55.1305C5.30246 66.271 5.7151 78.8144 11.7722 89.1792C11.9868 89.5588 12.5809 89.2947 12.3994 88.8821C7.53055 77.9067 6.30923 66.9312 10.1383 55.4111C10.3033 54.916 9.5441 54.6354 9.36255 55.1305Z" fill="#000412"/>
<path d="M0.168201 74.6089C-0.425958 79.3457 0.514789 84.5611 3.61762 88.3076C3.86519 88.6047 4.40981 88.2746 4.21176 87.928C1.7526 83.7029 0.333216 79.6593 0.910871 74.6749C0.960384 74.1963 0.217715 74.1303 0.168201 74.6089Z" fill="#000412"/>
<path d="M8.80036 101.706C4.4927 102.911 3.00728 108.688 5.48295 112.203C8.47026 116.445 15.7157 115.917 18.6205 111.89C18.8681 111.543 18.3894 111.114 18.0759 111.394C14.94 114.019 9.65858 115.735 6.52274 112.022C3.91504 108.935 5.20238 103.687 8.99841 102.334C9.3615 102.202 9.16346 101.607 8.80036 101.706Z" fill="#000412"/>
<path d="M7.2641 101.889C10.631 100.304 16.0279 100.205 18.19 103.836C19.989 106.84 18.4376 110.57 15.2852 111.692C14.526 111.973 14.9882 113.029 15.6978 112.963C20.055 112.567 21.3919 106.757 19.6754 103.407C17.2493 98.6867 10.9281 98.9013 6.93399 101.179C6.48837 101.41 6.80197 102.103 7.2641 101.889Z" fill="#000412"/>
<path d="M14.4937 111.066C18.5868 116.414 23.6866 122.207 29.6117 125.59C30.0244 125.821 30.3709 125.31 30.0244 124.996C24.7759 120.292 19.544 116.117 15.1704 110.505C14.8073 110.076 14.1636 110.637 14.4937 111.066Z" fill="#000412"/>
<path d="M5.87888 99.7105C5.10317 98.0436 4.37695 96.0795 3.27115 94.6106C3.0731 94.3465 2.57799 94.5611 2.67701 94.8912C3.20515 96.6737 4.32746 98.4066 5.20219 100.041C5.43325 100.453 6.09344 100.156 5.87888 99.7105Z" fill="#000412"/>
<path d="M13.6713 118.624C15.3548 120.555 16.9392 122.685 18.7877 124.45C19.0848 124.731 19.4974 124.384 19.2663 124.054C17.7809 121.975 15.8664 120.126 14.183 118.195C13.9024 117.882 13.3908 118.311 13.6713 118.624Z" fill="#000412"/>
<path d="M99.6114 6.97208C96.492 8.30894 96.1124 13.2603 98.9346 15.1253C101.74 16.9738 107.038 14.2505 106.065 10.6361C105.949 10.2234 105.388 10.24 105.322 10.6691C105.091 12.105 104.645 13.2603 103.391 14.0855C102.203 14.8612 100.585 15.1253 99.3638 14.2505C97.0862 12.6331 97.6473 8.87008 99.9084 7.56623C100.239 7.35167 99.991 6.80704 99.6114 6.97208Z" fill="#000412"/>
<path d="M99.2964 7.36892C99.7255 5.48741 102.498 5.27284 103.786 6.32913C105.651 7.88055 104.974 10.3562 104.99 12.4193C104.99 13.1125 105.882 13.3435 106.179 12.6834C107.301 10.2077 106.426 6.01555 103.736 4.89325C101.673 4.03502 98.9168 4.87674 98.6362 7.3029C98.5537 7.74852 99.1974 7.78153 99.2964 7.36892Z" fill="#000412"/>
<path d="M107.955 15.9492C110.348 19.0355 112.593 22.584 115.415 25.2742C115.695 25.5383 116.257 25.2742 116.026 24.8781C114.062 21.4452 111.157 18.3919 108.714 15.289C108.318 14.7939 107.559 15.4376 107.955 15.9492Z" fill="#000412"/>
<path d="M100.168 8.98431C99.2772 8.60471 98.6006 9.16587 98.353 10.0241C98.0559 11.0639 98.5015 12.0707 99.2938 12.7473C101.241 14.3978 104.212 13.6386 105.054 11.2124C105.846 8.9018 104.328 6.59117 101.868 6.50864C99.5413 6.42612 97.5608 8.43967 98.353 10.7998C99.0792 12.9619 101.835 14.2822 103.667 12.5493C105.153 11.1464 105.12 8.29113 103.288 7.20184C101.307 6.01352 98.3364 7.13582 97.6928 9.34741C97.0326 11.6415 99.4423 14.2162 101.786 13.457C104.047 12.7143 104.212 9.21537 102.166 8.09307C100.862 7.38338 99.7889 8.32414 99.1782 9.47945C98.4685 10.7833 98.4685 12.3677 99.1617 13.6716C99.4918 14.2822 100.466 14.4968 100.862 13.8201C101.324 13.0444 102.281 12.7473 102.793 12.0046C103.222 11.3775 103.42 10.5192 103.106 9.80953C102.512 8.40666 100.565 8.5387 100.35 10.0901C100.268 10.6348 100.433 11.2619 100.895 11.5755C101.505 11.9881 102.132 11.658 102.677 11.2949C104.13 10.3377 104.641 8.34064 103.783 6.80573C103.535 6.37661 102.925 6.01351 102.446 6.32709C100.449 7.59794 99.3762 10.7833 101.307 12.6153C102 13.2755 103.321 12.6318 102.826 11.6415C102.248 10.5027 102.067 8.9513 103.321 8.15909C102.875 7.99404 102.43 7.8455 101.984 7.68046C102.248 8.15909 102.314 8.67073 102.033 9.18237C101.934 9.38042 101.769 9.52896 101.588 9.661C101.373 9.80954 100.812 9.89206 101.357 9.80953C101.604 9.85905 101.852 9.92507 102.1 9.97459C102.496 10.3212 102.397 10.5192 101.786 10.5522C101.439 10.5522 101.208 10.7173 101.093 10.9979C100.878 11.1629 100.664 11.3279 100.433 11.493C99.9539 11.8396 99.5578 12.1862 99.2442 12.6978C99.8053 12.7473 100.383 12.7968 100.944 12.8464C100.301 11.658 100.614 10.3377 101.703 9.54547C101.456 9.62799 101.225 9.69401 100.977 9.77653C101.769 9.85905 101.918 11.2124 101.324 11.625C100.086 12.4668 98.9471 10.1726 99.8714 9.23188C100.548 8.53869 102.182 8.24161 102.76 9.21537C103.222 10.0241 102.809 11.427 101.835 11.592C100.565 11.8066 99.4257 10.0241 100.152 8.96782C100.796 8.02706 102.446 7.99405 103.222 8.78627C104.262 9.85906 103.601 11.8561 102.182 12.1532C101.439 12.3182 100.565 12.0541 100.053 11.493C99.7558 11.1629 99.4093 10.1396 100.086 9.99108C100.581 9.84254 100.631 9.18236 100.168 8.98431Z" fill="#000412"/>
</g>
<g opacity="0.7">
<path d="M113.735 42.5065C113.917 43.1336 113.95 43.8103 114.247 44.388C114.412 44.7015 114.858 44.553 114.825 44.2064C114.759 43.6123 114.594 42.9686 114.412 42.3909C114.297 41.9618 113.603 42.0773 113.735 42.5065Z" fill="white"/>
<path d="M115.09 41.2848C115.04 42.4566 115.205 43.942 116.146 44.7507C116.427 44.9983 116.757 44.6022 116.641 44.3216C116.443 43.7935 116.146 43.3314 115.998 42.7702C115.866 42.2751 115.816 41.7634 115.783 41.2518C115.75 40.8557 115.106 40.8887 115.09 41.2848Z" fill="white"/>
<path d="M116.868 42.4248C116.901 43.0519 117.017 43.7616 117.429 44.2568C117.644 44.5208 118.09 44.3063 118.024 43.9762C117.925 43.4315 117.66 42.9529 117.611 42.3917C117.578 41.9626 116.835 41.9956 116.868 42.4248Z" fill="white"/>
<path d="M19.3474 63.4521C20.3707 56.1076 22.5493 49.7534 24.9094 42.805C25.0745 42.3099 24.4143 41.9468 24.1007 42.3759C19.9086 48.169 18.2416 56.4377 18.6872 63.4851C18.7037 63.8812 19.2979 63.8152 19.3474 63.4521Z" fill="white"/>
<path d="M24.349 43.2847C28.3761 43.0372 28.3596 38.2839 29.0528 35.4451C29.1353 35.0985 28.8217 34.7189 28.4586 34.9005C27.1712 35.5276 26.9897 36.9965 26.8246 38.2839C26.6761 39.4062 26.4285 40.2974 25.5868 41.0896C25.0257 41.6178 24.3655 41.9809 23.9364 42.6081C23.6888 42.9382 24.0024 43.3012 24.349 43.2847Z" fill="white"/>
<path d="M28.5064 36.3845C30.1074 34.5029 31.6753 32.5719 33.3422 30.7564C34.6461 29.3536 36.247 28.0992 37.1217 26.3663C37.3033 26.0032 36.8412 25.6731 36.5111 25.8216C34.6461 26.6303 33.2597 28.4623 31.9558 29.9642C30.3549 31.8127 28.9521 33.7272 27.7472 35.8563C27.4667 36.3845 28.1268 36.8466 28.5064 36.3845Z" fill="white"/>
<path d="M48.592 16.6291C53.0812 17.5203 57.4879 15.3087 61.9111 14.5825C68.3808 13.5262 74.405 14.2194 80.8417 14.6485C81.4194 14.6815 81.6669 13.8068 81.0727 13.6418C69.8002 10.4069 59.65 14.566 48.559 15.7048C47.9978 15.7708 48.1134 16.53 48.592 16.6291Z" fill="white"/>
<path d="M93.0713 18.8233C96.9663 21.9097 101.439 24.1708 105.417 27.1581C109.114 29.9308 111.639 33.2482 114.312 36.9452C114.544 37.2753 115.138 36.9947 115.039 36.5986C112.811 27.3396 101.225 22.0252 93.649 18.0311C93.0878 17.7505 92.5761 18.4272 93.0713 18.8233Z" fill="white"/>
<path d="M114.233 35.7574C113.078 39.1243 116.412 41.666 118.557 43.564C118.854 43.8281 119.382 43.564 119.399 43.1844C119.415 41.6495 118.161 41.1874 117.204 40.2136C115.916 38.8933 115.751 37.3584 115.124 35.7244C114.959 35.3283 114.365 35.3778 114.233 35.7574Z" fill="white"/>
<path d="M117.924 42.423C119.657 46.6646 121.341 50.7247 121.951 55.3129C122.43 58.8449 122.298 62.5749 123.255 66.0078C123.437 66.635 124.411 66.6845 124.46 65.9583C125.137 58.2177 123.305 48.282 118.898 41.7958C118.502 41.2181 117.677 41.8453 117.924 42.423Z" fill="white"/>
<path d="M123.009 65.649C123.718 67.382 124.445 68.9664 124.478 70.8809C124.511 72.5479 123.982 74.1488 123.9 75.7992C123.883 76.3274 124.643 76.7235 124.94 76.1788C126.788 72.878 126.623 67.8606 123.982 65.0053C123.537 64.5102 122.761 65.0218 123.009 65.649Z" fill="white"/>
<path d="M122.563 78.9659C123.487 78.1242 124.56 76.9689 125.072 75.8301C125.369 75.1864 124.477 74.6418 123.982 75.0709C123.025 75.8796 122.233 77.233 121.688 78.3553C121.424 78.8504 122.167 79.329 122.563 78.9659Z" fill="white"/>
<path d="M122.185 77.1352C119.643 82.6147 118.059 88.4408 114.94 93.6727C112.365 97.9804 109.015 101.397 105.219 104.632C104.822 104.962 105.252 105.655 105.714 105.407C115.402 100.225 120.716 87.5991 123.06 77.4488C123.192 76.8877 122.433 76.5741 122.185 77.1352Z" fill="white"/>
<path d="M68.0174 118.89C81.4025 121.3 98.5671 115.375 106.885 104.383C107.265 103.871 106.572 103.294 106.093 103.657C93.7974 113.097 83.7791 117.52 68.0999 118.049C67.5718 118.082 67.4893 118.808 68.0174 118.89Z" fill="white"/>
<path d="M19.0991 61.5046C17.0856 68.0733 20.1719 74.7246 18.571 81.2769C18.4225 81.8876 19.2477 82.4652 19.6273 81.838C21.0136 79.5274 20.9476 76.5896 20.6341 73.9654C20.1389 69.8063 20.0564 65.7627 19.8253 61.5871C19.8088 61.191 19.1981 61.158 19.0991 61.5046Z" fill="white"/>
<path d="M18.751 81.1272C18.3219 82.167 18.6355 83.4873 18.9821 84.5271C19.2957 85.4844 19.7578 86.9863 20.8141 87.2999C21.1277 87.3989 21.5403 87.2173 21.5568 86.8377C21.5898 85.897 20.8141 85.0883 20.484 84.2135C20.1044 83.1903 20.1539 82.0845 19.7413 81.0942C19.5598 80.6321 18.9326 80.7146 18.751 81.1272Z" fill="white"/>
<path d="M20.403 86.6895C21.3273 87.9604 22.7137 88.6536 23.7865 89.7924C25.1068 91.1952 25.932 93.0437 26.9718 94.6612C28.8533 97.566 31.1144 100.174 34.0027 102.105C34.3493 102.336 34.7949 101.89 34.5144 101.544C31.7581 98.2756 29.1834 95.1068 26.9718 91.4263C25.5029 89.0001 23.6709 86.8711 20.8487 86.0623C20.4526 85.9633 20.1555 86.3594 20.403 86.6895Z" fill="white"/>
<path d="M39.3526 107.651C41.6798 110.473 45.1622 112.404 48.4301 113.988C52.7212 116.052 57.9037 116.415 61.8812 118.956C62.6569 119.451 63.4492 118.329 62.7065 117.785C59.6696 115.556 55.758 115.243 52.2756 113.955C47.7204 112.256 44.0729 109.367 39.8973 107.073C39.5177 106.859 39.0556 107.288 39.3526 107.651Z" fill="white"/>
<path d="M61.5797 118.196C62.0418 119.55 63.3952 120.358 64.7815 120.54C65.4417 120.622 66.1019 120.556 66.729 120.358C67.7853 120.012 68.5941 119.038 69.7659 119.17C70.096 119.203 70.3766 118.84 70.2116 118.543C69.5844 117.388 68.4456 117.619 67.4388 118.213C65.4253 119.385 63.9564 119.203 62.1739 117.718C61.8273 117.404 61.4806 117.866 61.5797 118.196Z" fill="white"/>
<path d="M80.4629 14.1012C83.0376 15.9167 86.3385 14.6789 89.0948 16.1313C91.3559 17.3196 92.9733 19.8118 95.5975 20.1584C95.9276 20.2079 96.1751 19.7623 95.944 19.4982C94.2441 17.7487 91.9004 15.8177 89.7384 14.6954C86.9986 13.276 83.7143 13.7547 80.7435 13.3585C80.3144 13.309 80.1328 13.8702 80.4629 14.1012Z" fill="white"/>
<path d="M43.0432 20.8691C43.9345 19.6642 44.8752 18.575 46.1956 17.8488C47.4499 17.1556 48.7703 17.073 50.1237 16.71C50.6353 16.5779 50.8498 15.7527 50.2227 15.5711C47.0703 14.6964 43.1918 17.5352 42.3006 20.4895C42.1685 20.9351 42.7462 21.2652 43.0432 20.8691Z" fill="white"/>
<path d="M35.6226 27.2589C37.6032 26.4667 39.3527 24.7998 40.8381 23.3144C42.2409 21.9115 43.8749 20.3766 44.6506 18.5116C44.8486 18.0329 44.2379 17.6698 43.8583 17.9669C42.1749 19.2378 40.9206 21.1193 39.4187 22.6047C38.0323 23.9745 36.3983 25.2289 35.21 26.7968C35.0285 27.0609 35.3421 27.3744 35.6226 27.2589Z" fill="white"/>
<path d="M34.1996 30.7248C35.7675 29.487 37.2694 28.1501 38.8043 26.8628C40.1742 25.6909 41.6596 24.5851 42.7984 23.1988C42.98 22.9677 42.6829 22.5881 42.4188 22.7367C40.8839 23.6774 39.5965 25.0143 38.2432 26.2026C36.7413 27.5394 35.2229 28.8433 33.787 30.2462C33.4899 30.5102 33.8695 30.9724 34.1996 30.7248Z" fill="white"/>
<path d="M44.0693 21.1663C44.2178 20.7866 44.5314 20.6381 44.845 20.4236C45.1255 20.2255 44.9275 19.8129 44.6469 19.7799C43.8877 19.6809 43.3926 20.308 43.2606 20.9847C43.178 21.4633 43.8877 21.5789 44.0693 21.1663Z" fill="white"/>
<path d="M49.3018 17.7514C51.8105 17.8504 54.5833 17.6028 56.9269 16.6456C57.2405 16.5135 57.0755 16.0184 56.7454 16.0679C54.2532 16.497 51.9261 16.9757 49.3679 17.0252C48.9223 17.0252 48.8397 17.7349 49.3018 17.7514Z" fill="white"/>
<path d="M69.3854 14.7321C72.0591 14.7156 74.6338 14.9467 77.291 15.2603C77.6211 15.2933 77.7531 14.7651 77.423 14.6826C74.8153 13.9894 72.0426 13.8409 69.3689 14.0719C68.9728 14.105 69.0058 14.7321 69.3854 14.7321Z" fill="white"/>
<path d="M21.5078 56.3539C21.8379 55.4296 22.1184 54.5219 22.1349 53.5316C22.1349 53.218 21.6728 52.954 21.4912 53.3005C20.9961 54.2083 20.7981 55.1491 20.6165 56.1558C20.501 56.6675 21.3262 56.8325 21.5078 56.3539Z" fill="white"/>
<path d="M23.0602 50.462C23.3903 49.3892 23.7698 48.3494 24.232 47.3261C24.6941 46.3193 25.3378 45.3621 25.6678 44.3058C25.7999 43.8932 25.2883 43.6621 25.0242 43.9757C23.5883 45.5766 22.9446 48.1843 22.4165 50.2309C22.3009 50.6435 22.9281 50.8911 23.0602 50.462Z" fill="white"/>
<path d="M27.4663 43.1677C28.4566 42.26 29.6614 40.9396 29.843 39.5533C29.8925 39.2232 29.4304 39.0746 29.2488 39.3387C28.8857 39.8503 28.6877 40.4775 28.3411 41.0057C27.9615 41.5998 27.5159 42.1279 27.0207 42.6231C26.6906 42.9367 27.1197 43.4648 27.4663 43.1677Z" fill="white"/>
<path d="M20.8485 71.5243C20.5349 73.4884 20.6009 76.3932 21.2775 78.2582C21.4096 78.6213 21.9872 78.4892 22.0037 78.1261C22.0863 77.0863 21.8717 76.0301 21.7892 74.9903C21.7066 73.8185 21.7397 72.6466 21.5581 71.4913C21.5086 71.0622 20.9145 71.1282 20.8485 71.5243Z" fill="white"/>
<path d="M104.329 104.434C108.636 101.595 112.977 97.3203 114.875 92.4184C115.007 92.0718 114.496 91.7913 114.281 92.1048C111.343 96.7591 108.504 100.737 103.916 103.939C103.57 104.186 103.982 104.665 104.329 104.434Z" fill="white"/>
<path d="M117.136 88.1443C117.449 87.4181 117.845 86.6754 118.043 85.8832C118.109 85.5861 117.713 85.289 117.515 85.6026C117.086 86.3123 116.822 87.1375 116.508 87.8967C116.343 88.3093 116.954 88.5404 117.136 88.1443Z" fill="white"/>
<path d="M115.272 89.7746C115.206 89.8572 115.14 89.9397 115.074 90.0222C114.761 90.4183 115.338 90.9135 115.718 90.6164C115.801 90.5504 115.883 90.4843 115.965 90.4183C116.494 89.9892 115.718 89.2135 115.272 89.7746Z" fill="white"/>
<path d="M118.723 83.3052C119.317 82.3645 119.895 81.3082 120.258 80.2519C120.373 79.9053 119.911 79.6577 119.697 79.9548C119.02 80.8461 118.459 81.9023 117.997 82.9256C117.799 83.3547 118.475 83.7013 118.723 83.3052Z" fill="white"/>
<path d="M33.2443 101.577C34.2181 102.98 35.9346 103.591 37.0899 104.845C38.3277 106.182 39.1364 107.915 40.6879 108.938C41.0675 109.186 41.4471 108.79 41.315 108.41C40.7044 106.644 39.186 104.862 37.8491 103.591C36.6938 102.485 35.1258 101.627 33.657 100.983C33.2774 100.818 33.0463 101.297 33.2443 101.577Z" fill="white"/>
<path d="M32.3489 98.6893C32.613 99.5146 33.2566 100.521 34.0324 100.934C34.2634 101.066 34.643 100.917 34.5605 100.587C34.3295 99.7291 33.5537 98.8379 32.7945 98.3923C32.5965 98.2932 32.2664 98.4253 32.3489 98.6893Z" fill="white"/>
<path d="M30.3232 96.1627C30.5708 96.4597 30.7689 96.6743 31.1155 96.8559C31.396 97.0044 31.7921 96.7568 31.6271 96.4267C31.429 96.0636 31.198 95.8326 30.8844 95.5685C30.5048 95.2549 30.0261 95.8161 30.3232 96.1627Z" fill="white"/>
<path d="M36.4956 101.857C36.8092 102.088 37.0238 102.204 37.3869 102.287C37.684 102.353 37.849 101.94 37.684 101.725C37.4529 101.445 37.1888 101.313 36.8587 101.148C36.4296 100.966 36.149 101.593 36.4956 101.857Z" fill="white"/>
<path d="M41.326 107.951C42.2667 108.413 43.0755 109.139 43.9997 109.585C44.3628 109.75 44.5774 109.288 44.3958 109.024C43.8016 108.132 42.5638 107.604 41.5736 107.274C41.1279 107.093 40.9133 107.736 41.326 107.951Z" fill="white"/>
<path d="M44.7974 110.127C45.1275 110.523 45.5731 110.754 46.0352 110.985C46.4808 111.2 46.7944 110.523 46.4148 110.242C46.0352 109.962 45.6391 109.698 45.1605 109.599C44.8634 109.516 44.5663 109.846 44.7974 110.127Z" fill="white"/>
<path d="M69.6188 117.699C70.7741 117.732 71.946 117.798 73.1013 117.748C73.5634 117.732 73.5304 116.956 73.0683 116.94C71.946 116.89 70.8072 116.956 69.6849 116.989C69.2228 116.989 69.1402 117.682 69.6188 117.699Z" fill="white"/>
<path d="M74.8986 117.47C74.9646 117.453 75.0471 117.437 75.1132 117.42C75.3772 117.354 75.4928 116.908 75.1627 116.826C75.0967 116.809 75.0307 116.793 74.9647 116.776C74.321 116.611 74.3705 117.602 74.8986 117.47Z" fill="white"/>
<path d="M77.1592 117.32C77.9844 117.171 78.9582 117.105 79.7174 116.726C80.031 116.577 79.9815 116.033 79.5854 116.016C78.7272 116 77.8524 116.346 77.0272 116.561C76.5651 116.693 76.6806 117.419 77.1592 117.32Z" fill="white"/>
<path d="M43.481 61.8669C41.0053 66.1581 41.0053 71.9842 45.1974 75.2191C48.5643 77.8268 55.9583 78.586 56.3544 72.7764C56.3874 72.3638 55.7767 72.2152 55.6282 72.6114C53.5817 78.0743 46.4187 76.3249 44.0421 72.0997C42.2761 68.9804 42.8703 65.4319 44.4217 62.3621C44.6858 61.8339 43.7945 61.3553 43.481 61.8669Z" fill="white"/>
<path d="M56.3174 72.2492C57.3242 69.691 56.0038 67.0998 56.3669 64.4591C56.631 62.462 56.8455 60.9106 55.4756 59.2107C52.9009 56.0088 47.9166 55.9758 45.2429 58.8971C44.9293 59.2437 45.2264 59.7553 45.6885 59.5738C47.3225 58.9631 48.5108 57.9233 50.3923 58.1214C53.6602 58.468 55.6077 60.8281 55.0466 64.0465C54.5679 66.7862 55.9708 69.3279 55.4592 72.0346C55.3601 72.5628 56.1358 72.7113 56.3174 72.2492Z" fill="white"/>
<path d="M37.7325 36.3021C38.9538 34.5857 39.9276 32.7207 41.1159 30.9877C42.2547 29.3207 44.9284 26.2014 47.3216 27.5053C50.7215 29.3537 45.7537 32.8032 44.4498 33.843C43.278 34.7837 42.3538 35.708 41.8421 37.1273C41.6771 37.5895 42.3702 37.8535 42.5683 37.3914C43.7896 34.4866 47.14 33.6614 48.5759 30.9547C49.3186 29.5353 49.5662 27.0101 47.7672 26.3334C42.4528 24.3529 38.7888 32.3741 36.9898 35.8895C36.7753 36.3516 37.4684 36.6817 37.7325 36.3021Z" fill="white"/>
<path d="M40.4723 39.1421C39.7461 40.1158 38.4753 41.6177 37.1219 40.743C35.9501 40.0003 37.7161 38.7955 36.8248 37.8712C36.6433 37.6732 36.3132 37.6732 36.1647 37.9042C35.2074 39.2741 35.0093 41.2546 36.8413 41.9313C38.7228 42.6245 40.0597 40.8585 41.017 39.5217C41.2645 39.1751 40.7364 38.7955 40.4723 39.1421Z" fill="white"/>
<path d="M86.6223 22.4537C89.0979 23.7246 91.6396 24.8469 94.1648 26.0022C96.756 27.174 103.886 31.5807 98.2744 34.502C97.9443 34.667 98.0928 35.2612 98.489 35.1622C101.493 34.4195 102.004 31.0195 100.37 28.6594C99.2976 27.108 97.5647 26.2002 95.8977 25.4245C92.96 24.0547 89.9561 22.7673 86.9193 21.612C86.3912 21.3974 86.1271 22.2062 86.6223 22.4537Z" fill="white"/>
<path d="M97.8588 34.353C96.0598 34.0889 95.5151 32.2239 94.2938 31.2502C93.6006 30.7055 92.8084 30.4085 91.9502 30.2269C90.6793 29.9463 89.3425 30.0453 88.0717 29.7153C85.1339 28.9726 84.9358 27.0745 83.83 24.7639C83.632 24.3513 83.0543 24.5824 83.0873 24.995C83.3184 28.1308 85.1504 30.4085 88.2697 30.9201C90.9764 31.3492 92.8579 31.2667 94.921 33.3627C95.8287 34.2705 96.4724 34.9637 97.7927 35.1287C98.2878 35.1782 98.3539 34.419 97.8588 34.353Z" fill="white"/>
<path d="M111.421 59.9831C112.114 57.9035 113.567 57.4579 115.762 58.6297C116.356 59.4054 116.769 60.2802 116.983 61.2374C117.264 62.3597 117.28 63.548 117.115 64.6869C116.719 67.3936 114.375 71.9323 110.926 70.2158C110.398 69.9518 110.068 70.7605 110.464 71.0906C115.019 74.8536 118.65 66.0237 118.386 62.7063C118.221 60.6433 117.33 57.6394 115.151 56.8307C112.956 56.022 111.339 57.8375 110.497 59.6365C110.249 60.2307 111.157 60.5442 111.421 59.9831Z" fill="white"/>
<path d="M110.223 66.9861C110.091 66.1773 110.107 65.3686 110.272 64.5599C110.421 63.8832 110.8 63.2725 110.883 62.5959C110.916 62.2823 110.536 62.0842 110.305 62.2988C109.1 63.3551 109.133 65.7152 109.447 67.1346C109.546 67.6132 110.305 67.4812 110.223 66.9861Z" fill="white"/>
<path d="M72.5767 109.748C75.9271 109.599 78.4688 111.349 81.8687 110.59C84.1463 110.078 87.0016 109.137 88.751 107.569C90.6986 105.82 90.9792 102.833 88.3715 101.661C87.9588 101.479 87.7277 102.123 88.1239 102.321C91.9529 104.203 86.9191 107.47 85.0871 108.213C83.6017 108.824 82.0337 109.5 80.4163 109.632C77.5775 109.88 75.1513 108.114 72.4116 108.89C71.8834 109.055 72.0155 109.781 72.5767 109.748Z" fill="white"/>
<path d="M85.8927 101.167C83.45 102.438 80.7432 103.345 78.119 104.154C76.5841 104.616 74.9007 104.913 73.4978 105.739C71.8474 106.729 70.5105 108.841 73.0027 109.716C73.4978 109.898 73.9434 109.138 73.4482 108.874C70.9066 107.488 76.3035 105.772 76.6666 105.673C77.5579 105.408 78.4656 105.194 79.3403 104.897C81.7665 104.105 83.9286 102.949 86.1732 101.761C86.5693 101.563 86.2888 100.969 85.8927 101.167Z" fill="white"/>
<path d="M105.454 94.332C106.856 93.5563 107.913 92.3184 108.342 90.7505C108.622 89.6777 108.622 87.9778 107.385 87.4826C106.081 86.971 104.694 88.4729 103.952 89.3477C102.945 90.536 101.988 92.2524 102.103 93.8699C102.12 94.2164 102.631 94.2165 102.747 93.9194C103.143 92.8961 103.308 91.8563 103.886 90.8991C104.381 90.0739 105.025 89.3311 105.784 88.7535C107.599 87.3671 107.863 89.5787 107.467 90.8165C107.088 92.0379 106.246 93.0116 105.14 93.6388C104.727 93.9029 105.041 94.5796 105.454 94.332Z" fill="white"/>
<path d="M101.62 96.2635C102.924 96.6266 104.558 96.214 105.136 94.8606C105.284 94.4975 104.839 94.2499 104.558 94.4645C103.7 95.0917 102.908 95.6033 101.802 95.5043C101.356 95.4548 101.175 96.1315 101.62 96.2635Z" fill="white"/>
<path d="M38.8379 97.4662C39.9272 100.354 43.3766 105.124 46.9251 104.976C48.3114 104.91 49.3842 104.035 49.4997 102.649C49.6318 100.965 48.3774 99.7273 47.1726 98.77C46.9085 98.5555 46.5289 98.9681 46.76 99.2157C47.6843 100.189 48.9551 101.444 48.5095 102.946C47.9153 104.959 45.2086 103.655 44.1523 102.83C42.1388 101.279 40.8184 99.2817 39.5146 97.1361C39.267 96.7235 38.6563 97.0041 38.8379 97.4662Z" fill="white"/>
<path d="M39.486 96.6926C38.7103 95.0917 41.219 95.7188 41.6151 95.9334C41.9617 96.1314 42.2917 96.379 42.6218 96.5936C43.414 97.1217 44.1898 97.7489 45.114 98.0295C45.5101 98.145 45.8567 97.6994 45.5761 97.3693C44.8499 96.4946 43.7111 95.8839 42.7539 95.2732C41.9782 94.7946 41.1199 94.316 40.1627 94.4315C38.9083 94.5965 38.1491 96.0159 38.8588 97.0887C39.1064 97.4518 39.6675 97.0722 39.486 96.6926Z" fill="white"/>
<path d="M29.3329 82.1842C28.5242 80.7483 27.8145 79.2629 27.3523 77.6784C27.1213 76.8697 26.9232 76.028 26.8077 75.2028C26.7747 74.7571 26.7417 74.3115 26.7087 73.8659C28.6397 71.9349 29.7785 71.7203 30.1086 73.2057C30.5707 74.0475 30.6698 75.1037 31.0989 75.9785C31.7425 77.2658 35.6871 82.8278 31.1649 82.9764C30.5047 82.9929 30.3891 84.0162 31.0658 84.0162C33.393 83.9831 34.3667 81.623 33.8551 79.5599C33.3599 77.6124 31.8911 76.0775 31.2639 74.163C30.9503 73.2057 30.8348 72.0009 30.1251 71.2252C28.5572 69.5087 26.2796 71.0106 25.8339 72.9086C25.1243 76.028 27.0058 79.9891 28.5737 82.5307C28.8378 83.0094 29.597 82.6628 29.3329 82.1842Z" fill="white"/>
<path d="M88.2372 61.8174C87.3955 64.9037 84.8869 71.39 88.3528 73.7831C91.7197 76.1102 95.2186 72.1492 97.0671 69.7725C99.9719 66.0425 100.979 61.7349 98.4865 57.4602C96.9186 54.7865 93.1556 51.9312 90.746 55.3311C90.4159 55.7933 91.0595 56.4204 91.4886 56.0078C94.4264 53.136 96.539 56.4534 97.5127 58.1864C98.47 59.8864 99.0642 61.8174 98.7836 63.7979C98.4205 66.3561 96.704 68.6007 95.0371 70.4822C94.3274 71.2744 93.2876 72.5288 92.2478 72.8754C87.6926 74.4103 87.6596 70.7463 87.8246 68.6172C88.0062 66.4056 88.6828 64.194 89.0129 61.9989C89.0789 61.5533 88.3528 61.3718 88.2372 61.8174Z" fill="white"/>
<path d="M90.4651 56.7867C89.2933 57.2983 88.0555 59.2128 88.9963 60.4176C89.2108 60.6817 89.5903 60.5166 89.6399 60.2196C89.7224 59.7409 89.5738 59.2788 89.7554 58.8002C89.9369 58.2555 90.3331 57.8264 90.8117 57.5459C91.2573 57.2653 90.9602 56.5721 90.4651 56.7867Z" fill="white"/>
<path d="M67.5575 24.5493C64.9828 25.5395 64.1906 27.7016 64.0916 30.2763C63.9761 33.6102 64.4382 32.686 63.3819 34.848C62.9693 35.7063 62.3917 36.7131 62.1606 37.6538C61.8965 38.7266 61.814 39.6343 62.3421 40.6576C65.1149 46.0216 73.9778 45.0973 76.3049 40.0304C76.4535 39.7004 75.9418 39.4528 75.7437 39.7334C73.7302 42.5556 70.5944 43.9915 67.1285 42.9352C64.8178 42.2255 64.1741 41.5654 63.6955 39.1887C63.1509 36.449 63.3984 36.7461 64.5702 34.3199C64.9663 33.5277 65.1975 33.0326 65.28 32.1413C65.346 31.2006 64.9168 30.2433 65.0159 29.3191C65.2139 27.4871 66.5013 26.1667 67.9372 25.2095C68.3333 24.9289 67.9206 24.4007 67.5575 24.5493Z" fill="white"/>
<path d="M77.2145 37.5571C78.5844 34.3552 75.1349 31.2359 73.8641 28.5457C72.8738 26.4331 70.8438 23.1982 68.0875 24.7662C67.7409 24.9642 67.873 25.5419 68.3186 25.4593C72.0486 24.7496 72.6593 28.2816 74.0292 30.7078C75.2175 32.8203 77.7756 34.5863 76.6368 37.3591C76.4718 37.7222 77.0495 37.9202 77.2145 37.5571Z" fill="white"/>
<path d="M65.4103 87.1189C65.0637 90.3043 68.051 93.1761 71.1044 93.4896C74.0587 93.7867 78.845 91.3111 79.8847 88.3733C81.0566 85.0889 76.8479 84.0986 74.5208 84.3957C72.5073 84.6433 66.2026 81.92 65.856 85.9636C65.823 86.3597 66.4006 86.4918 66.5491 86.1122C67.7044 83.0588 71.0548 85.3199 73.1509 85.3695C74.1907 85.386 75.5441 84.6928 76.4848 84.9733C77.3596 85.6005 78.2178 86.2442 79.0926 86.8714C79.1091 88.0432 78.6469 88.9509 77.7227 89.6276C73.349 93.6547 67.7705 93.2586 66.054 87.0859C65.9385 86.7723 65.4433 86.7558 65.4103 87.1189Z" fill="white"/>
<path d="M65.2314 62.5607C66.8653 64.6567 70.2817 65.1188 71.7011 62.4946C72.7409 60.5636 70.9915 57.1802 68.5653 57.8734C68.2022 57.9724 68.0371 58.5666 68.4992 58.6986C69.9681 59.1277 71.6516 60.25 70.8429 62.049C69.8692 64.2606 67.0304 63.6169 65.743 62.1315C65.4624 61.8014 64.9673 62.2141 65.2314 62.5607Z" fill="white"/>
<path d="M122.848 75.1057C123.855 73.3893 123.641 71.7553 123.145 69.8573C122.304 66.639 122.056 63.8002 122.023 60.4663C122.023 60.1197 121.445 59.9051 121.363 60.3178C120.917 62.2323 120.967 64.1963 121.214 66.1603C121.594 69.0156 123.211 71.8544 122.023 74.6766C121.841 75.1552 122.584 75.5678 122.848 75.1057Z" fill="white"/>
<path d="M121.622 57.3629C121.523 56.4551 121.424 55.5639 121.259 54.6726C121.176 54.2765 120.648 54.3921 120.664 54.7717C120.714 55.6794 120.846 56.5707 120.962 57.4784C120.995 57.9075 121.671 57.792 121.622 57.3629Z" fill="white"/>
<path d="M50.5747 113.262C51.9776 113.411 53.3805 113.543 54.7338 113.906C55.9717 114.236 57.1105 114.83 58.3483 115.111C58.7609 115.21 59.0579 114.731 58.6948 114.434C56.6648 112.817 53.1824 112.256 50.6407 112.355C50.1126 112.388 49.9805 113.196 50.5747 113.262Z" fill="white"/>
<path d="M54.3193 112.304C55.029 112.238 55.6231 112.452 56.3163 112.502C56.6134 112.518 56.894 112.122 56.6464 111.874C55.9697 111.247 55.029 111.214 54.1707 111.412C53.5931 111.544 53.7417 112.37 54.3193 112.304Z" fill="white"/>
<path d="M23.106 64.3759C23.2215 62.0323 23.7166 59.7712 23.9477 57.444C23.9972 56.9819 23.3866 56.8994 23.205 57.279C22.1322 59.4081 22.0002 62.0653 22.1982 64.4089C22.2312 64.937 23.073 64.904 23.106 64.3759Z" fill="white"/>
<path d="M46.5284 55.5297C42.7984 57.7248 39.349 63.6004 40.3062 68.0071C40.3722 68.3207 40.9169 68.4527 40.9994 68.0731C41.4781 66.0266 41.5276 64.013 42.4188 62.049C43.4916 59.6558 45.1255 58.0219 46.974 56.2394C47.3041 55.9258 46.9575 55.2657 46.5284 55.5297Z" fill="white"/>
<path d="M41.909 72.8107C42.9323 76.7057 49.1049 81.7231 52.9505 78.4222C53.2971 78.1251 52.9175 77.4814 52.5049 77.729C48.8574 79.792 43.7575 76.2436 42.5692 72.5961C42.4371 72.233 41.81 72.4311 41.909 72.8107Z" fill="white"/>
<path d="M56.5626 74.8225C57.6353 73.7497 57.7013 72.5119 57.6848 71.043C57.6518 68.8479 57.7509 66.4052 57.2392 64.2762C57.1402 63.8635 56.5296 63.8635 56.48 64.3092C56.315 65.6955 56.513 67.1149 56.6121 68.5013C56.7441 70.2177 57.4208 72.8255 56.0674 74.2283C55.6878 74.5749 56.1995 75.1856 56.5626 74.8225Z" fill="white"/>
<path d="M59.1729 69.7918C59.2389 68.851 59.3709 67.8938 59.1233 66.9695C59.0408 66.6395 58.4797 66.4909 58.3806 66.9035C58.1166 67.8608 58.2486 68.851 58.3146 69.8248C58.3476 70.3199 59.1399 70.2704 59.1729 69.7918Z" fill="white"/>
<path d="M64.7121 83.9518C61.6588 89.3652 66.2305 96.6602 72.6177 95.2903C72.9643 95.2078 72.9809 94.6301 72.5848 94.6301C66.8412 94.6631 63.0286 89.8108 65.3888 84.3149C65.5703 83.9023 64.9267 83.5557 64.7121 83.9518Z" fill="white"/>
<path d="M76.9437 93.2577C78.5281 92.647 79.8485 91.5907 80.6737 90.0888C81.3834 88.8015 81.9941 86.92 81.3504 85.5171C81.1689 85.1375 80.6572 85.286 80.5912 85.6491C80.3271 87.0355 80.4426 88.2899 79.7329 89.5937C79.0232 90.9141 77.9835 91.9373 76.5971 92.5315C76.135 92.746 76.4816 93.4392 76.9437 93.2577Z" fill="white"/>
<path d="M73.4321 83.408C74.4058 83.4575 75.3631 83.54 76.3203 83.7051C77.2776 83.8536 78.2183 84.1507 79.1756 84.1507C79.4892 84.1507 79.7697 83.6886 79.4231 83.4905C77.7231 82.5663 75.3961 82.5497 73.5146 82.5002C72.9369 82.4837 72.8379 83.375 73.4321 83.408Z" fill="white"/>
<path d="M86.8674 72.3487C86.2237 69.3449 87.148 66.8197 87.7587 63.9314C88.4024 60.8616 87.5771 57.6102 89.6401 55.0025C89.9207 54.6394 89.4256 54.2928 89.0955 54.5074C86.4383 56.2569 87.2635 59.9869 86.8674 62.7266C86.3722 66.1265 84.7713 69.1964 86.0422 72.6128C86.2072 73.0914 86.9829 72.8438 86.8674 72.3487Z" fill="white"/>
<path d="M94.6754 73.6689C98.6035 71.4078 102.333 66.0439 100.865 61.2741C100.749 60.878 100.155 60.845 100.105 61.3071C99.8743 63.5682 99.9238 65.6148 98.95 67.7603C97.9432 69.9554 96.3093 71.8039 94.2958 73.1078C93.9822 73.3058 94.3453 73.8505 94.6754 73.6689Z" fill="white"/>
<path d="M100.004 57.841C99.4591 56.3391 98.7494 54.6391 97.6436 53.4673C97.2805 53.0877 96.5708 53.4838 96.8349 53.9955C97.5776 55.4314 98.5349 56.7517 99.2116 58.2206C99.4591 58.7323 100.202 58.3526 100.004 57.841Z" fill="white"/>
<path d="M85.5437 20.2259C82.4079 20.0939 79.4701 24.0054 81.8467 26.6957C82.0778 26.9432 82.5729 26.7617 82.4739 26.3986C82.1603 25.1938 81.8963 23.9889 82.5894 22.8336C83.2166 21.7608 84.3554 21.2162 85.5767 21.0842C86.0884 21.0511 86.0388 20.2589 85.5437 20.2259Z" fill="white"/>
<path d="M82.4113 28.4634C82.9395 30.0809 84.2599 30.9886 85.8113 31.5828C87.9734 32.408 90.4655 33.0517 92.7596 33.2662C93.1722 33.2992 93.2878 32.7216 92.9247 32.5565C90.0695 31.3682 84.491 31.5332 83.3191 28.0343C83.1046 27.4236 82.2133 27.8528 82.4113 28.4634Z" fill="white"/>
<path d="M64.1535 43.5985C62.305 41.7996 61.1662 39.4229 61.5953 36.7822C61.9254 34.7357 63.2623 33.0522 63.4273 30.9726C63.4603 30.593 62.9158 30.4775 62.7837 30.8241C61.8265 33.2007 60.4235 35.6269 60.5556 38.2676C60.6876 40.6277 61.81 42.7238 63.6089 44.2092C63.9555 44.5228 64.5001 43.9451 64.1535 43.5985Z" fill="white"/>
<path d="M63.3652 28.5793C63.3487 27.0774 63.9264 25.658 65.1478 24.7503C66.4186 23.793 67.6069 24.0571 69.0428 23.826C69.3729 23.7765 69.4884 23.2979 69.2078 23.1163C67.8214 22.2416 65.6594 23.0173 64.4875 23.9581C63.1012 25.0969 62.507 26.8628 62.639 28.6123C62.6556 29.0249 63.3652 28.9919 63.3652 28.5793Z" fill="white"/>
<path d="M60.9372 32.722C61.3828 32.1114 61.8119 31.3357 61.5808 30.56C61.4488 30.1474 60.9536 30.0813 60.7556 30.4774C60.4915 31.0221 60.4585 31.6163 60.1449 32.1444C59.8148 32.7055 60.5576 33.2337 60.9372 32.722Z" fill="white"/>
<path d="M34.3984 41.6021C34.877 39.572 35.3887 37.575 36.2634 35.6605C37.2372 33.5149 38.64 31.7489 39.9109 29.8014C40.1089 29.5043 39.7293 29.1412 39.4487 29.3888C36.1313 32.2606 34.1013 37.1459 33.6392 41.437C33.5897 41.8661 34.2994 42.0477 34.3984 41.6021Z" fill="white"/>
<path d="M44.6652 25.5912C45.6059 25.4261 46.5467 25.4262 47.4709 25.6902C48.2631 25.9213 48.8903 26.4989 49.6825 26.697C50.0126 26.7795 50.3757 26.4824 50.1942 26.1358C49.7486 25.2446 48.5272 24.8155 47.6195 24.6174C46.5137 24.3699 45.4574 24.4359 44.4011 24.7825C43.9225 24.931 44.2031 25.6737 44.6652 25.5912Z" fill="white"/>
<path d="M34.9589 42.9545C35.5035 43.6147 36.4278 43.9943 37.2365 43.5652C37.5171 43.4166 37.5006 42.8885 37.121 42.8885C36.5268 42.8885 36.0317 42.8885 35.6191 42.3934C35.2395 41.9973 34.5958 42.5419 34.9589 42.9545Z" fill="white"/>
<path d="M26.4427 79.2945C25.3204 75.251 24.4621 71.719 28.3077 68.8967C28.6047 68.6822 28.3572 68.1705 28.0106 68.2531C23.0098 69.2763 24.5117 76.3072 25.799 79.5091C25.931 79.8557 26.5582 79.6741 26.4427 79.2945Z" fill="white"/>
<path d="M26.7903 81.8354C27.764 85.0042 31.9232 87.2653 34.9765 85.3673C35.4716 85.0537 35.1415 84.344 34.5804 84.5421C31.7581 85.5984 28.5728 84.5916 27.5 81.6043C27.368 81.2082 26.6747 81.4228 26.7903 81.8354Z" fill="white"/>
<path d="M79.7658 112.337C84.2715 112.123 90.8568 110.505 91.8305 105.224C91.8965 104.861 91.3519 104.663 91.1704 104.976C90.0151 106.94 88.7938 108.558 86.7307 109.647C84.5521 110.802 82.0434 111.149 79.6173 111.479C79.0396 111.562 79.2211 112.37 79.7658 112.337Z" fill="white"/>
<path d="M84.6714 100.817C85.4966 100.636 86.2888 100.619 87.1305 100.685C87.8237 100.735 88.4839 100.916 89.1606 100.883C89.5237 100.867 89.5732 100.355 89.3091 100.174C87.9888 99.2163 85.9752 99.5959 84.5228 100.008C84.0277 100.141 84.1433 100.933 84.6714 100.817Z" fill="white"/>
<path d="M94.9362 87.7956C95.976 88.0431 96.9663 87.7956 97.742 87.0529C98.3691 86.4587 99.0788 85.2869 98.4682 84.4947C98.2701 84.2471 97.9235 84.3131 97.742 84.5277C97.3624 85.0063 97.4283 85.65 96.9662 86.1286C96.5041 86.6238 95.8274 86.8878 95.1508 86.8548C94.6226 86.8218 94.375 87.6635 94.9362 87.7956Z" fill="white"/>
<path d="M100.039 82.9255C101.161 82.81 102.168 81.4401 101.574 80.3673C101.359 79.9712 100.567 79.9877 100.6 80.5324C100.617 81.1595 100.6 81.7372 99.8739 81.9352C99.2467 82.1168 99.3953 82.9915 100.039 82.9255Z" fill="white"/>
<path d="M42.9977 85.1071C42.3705 85.9488 42.4531 87.1371 43.2453 87.8633C43.8889 88.4575 45.2588 88.8206 45.82 87.9458C45.952 87.7313 45.886 87.4012 45.6219 87.3187C45.1928 87.1866 44.7307 87.3352 44.3181 87.1371C43.6744 86.84 43.5258 86.0808 43.7074 85.4537C43.8229 85.0576 43.2783 84.7275 42.9977 85.1071Z" fill="white"/>
<path d="M45.8544 88.1778C45.1777 89.7622 47.0922 92.5019 48.7922 91.1156C49.0728 90.8845 48.9077 90.4554 48.5776 90.4059C47.6534 90.2573 46.3825 89.7127 46.8282 88.5244C47.0262 87.9137 46.102 87.5836 45.8544 88.1778Z" fill="white"/>
<path d="M59.6188 20.6384C60.0809 19.9287 60.7412 19.351 61.5664 19.12C62.3586 18.8889 63.0848 19.153 63.877 19.2025C64.2236 19.219 64.4382 18.8229 64.2236 18.5423C62.7382 16.7268 59.4373 18.3608 58.8101 20.2093C58.6616 20.7044 59.3382 21.1005 59.6188 20.6384Z" fill="white"/>
<path d="M34.1345 113.81C38.8218 119.768 46.4633 124.67 54.2204 124.983C54.6661 125 54.8971 124.29 54.402 124.158C46.5624 122.194 40.2411 119.438 34.6791 113.348C34.3655 113.001 33.8374 113.447 34.1345 113.81Z" fill="white"/>
<path d="M72.0639 127.196C93.3381 131.817 116.444 120.33 125.571 100.541C125.835 99.9635 124.878 99.4684 124.581 100.03C114.381 119.455 93.8497 129.87 72.1299 126.42C71.6348 126.338 71.5853 127.097 72.0639 127.196Z" fill="white"/>
<path d="M110.103 110.902C112.365 109.665 114.774 107.866 115.996 105.539C116.177 105.208 115.764 104.697 115.451 105.043C113.652 106.991 112.084 108.806 109.74 110.127C109.262 110.391 109.608 111.167 110.103 110.902Z" fill="white"/>
<path d="M123.178 96.5444C126.826 90.1242 129.995 83.2583 131.364 75.9634C131.463 75.4352 130.589 75.2372 130.44 75.7488C128.311 82.8292 126.149 89.596 122.535 96.0988C122.304 96.5279 122.931 96.99 123.178 96.5444Z" fill="white"/>
<path d="M22.4534 26.0029C32.323 9.77901 48.4313 2.55007 66.9823 2.63259C67.56 2.63259 67.659 1.80736 67.0648 1.72484C48.9429 -0.932377 30.4415 9.92755 21.6446 25.4417C21.3475 25.9864 22.1233 26.5475 22.4534 26.0029Z" fill="white"/>
<path d="M76.1729 1.51214C82.3785 2.50241 87.759 4.81303 93.7171 6.5625C94.1957 6.71104 94.6249 6.03436 94.1462 5.73728C88.9803 2.53541 82.23 1.26458 76.2719 0.455857C75.5952 0.356831 75.5127 1.39661 76.1729 1.51214Z" fill="white"/>
<path d="M9.36255 55.5798C5.30246 66.7203 5.7151 79.2636 11.7722 89.6284C11.9868 90.008 12.5809 89.7439 12.3994 89.3313C7.53055 78.3559 6.30923 67.3804 10.1383 55.8603C10.3033 55.3652 9.5441 55.0846 9.36255 55.5798Z" fill="white"/>
<path d="M0.168201 75.0581C-0.425958 79.7949 0.514789 85.0103 3.61762 88.7568C3.86519 89.0539 4.40981 88.7238 4.21176 88.3772C1.7526 84.1521 0.333216 80.1085 0.910871 75.1241C0.960384 74.6455 0.217715 74.5795 0.168201 75.0581Z" fill="white"/>
<path d="M8.80036 102.156C4.4927 103.36 3.00728 109.137 5.48295 112.652C8.47026 116.894 15.7157 116.366 18.6205 112.339C18.8681 111.992 18.3894 111.563 18.0759 111.844C14.94 114.468 9.65858 116.184 6.52274 112.471C3.91504 109.385 5.20238 104.136 8.99841 102.783C9.3615 102.651 9.16346 102.057 8.80036 102.156Z" fill="white"/>
<path d="M7.2641 102.338C10.631 100.753 16.0279 100.654 18.19 104.285C19.989 107.289 18.4376 111.019 15.2852 112.141C14.526 112.422 14.9882 113.478 15.6978 113.412C20.055 113.016 21.3919 107.207 19.6754 103.856C17.2493 99.1359 10.9281 99.3505 6.93399 101.628C6.48837 101.859 6.80197 102.552 7.2641 102.338Z" fill="white"/>
<path d="M14.4937 111.516C18.5868 116.863 23.6866 122.656 29.6117 126.04C30.0244 126.271 30.3709 125.759 30.0244 125.445C24.7759 120.742 19.544 116.566 15.1704 110.954C14.8073 110.525 14.1636 111.087 14.4937 111.516Z" fill="white"/>
<path d="M5.87888 100.16C5.10317 98.4928 4.37695 96.5287 3.27115 95.0598C3.0731 94.7958 2.57799 95.0103 2.67701 95.3404C3.20515 97.1229 4.32746 98.8559 5.20219 100.49C5.43325 100.902 6.09344 100.605 5.87888 100.16Z" fill="white"/>
<path d="M13.6713 119.074C15.3548 121.005 16.9392 123.134 18.7877 124.9C19.0848 125.18 19.4974 124.834 19.2663 124.504C17.7809 122.424 15.8664 120.576 14.183 118.645C13.9024 118.331 13.3908 118.76 13.6713 119.074Z" fill="white"/>
<path d="M99.6114 7.4213C96.492 8.75816 96.1124 13.7095 98.9346 15.5745C101.74 17.423 107.038 14.6998 106.065 11.0853C105.949 10.6727 105.388 10.6892 105.322 11.1183C105.091 12.5542 104.645 13.7095 103.391 14.5347C102.203 15.3104 100.585 15.5745 99.3638 14.6998C97.0862 13.0823 97.6473 9.3193 99.9084 8.01545C100.239 7.80089 99.991 7.25626 99.6114 7.4213Z" fill="white"/>
<path d="M99.2964 7.81814C99.7255 5.93663 102.498 5.72206 103.786 6.77835C105.651 8.32977 104.974 10.8054 104.99 12.8685C104.99 13.5617 105.882 13.7927 106.179 13.1326C107.301 10.6569 106.426 6.46477 103.736 5.34247C101.673 4.48424 98.9168 5.32596 98.6362 7.75212C98.5537 8.19774 99.1974 8.23075 99.2964 7.81814Z" fill="white"/>
<path d="M107.955 16.3984C110.348 19.4848 112.593 23.0332 115.415 25.7234C115.695 25.9875 116.257 25.7235 116.026 25.3273C114.062 21.8944 111.157 18.8411 108.714 15.7383C108.318 15.2431 107.559 15.8868 107.955 16.3984Z" fill="white"/>
<path d="M100.168 9.43353C99.2772 9.05393 98.6006 9.61509 98.353 10.4733C98.0559 11.5131 98.5015 12.5199 99.2938 13.1966C101.241 14.847 104.212 14.0878 105.054 11.6616C105.846 9.35102 104.328 7.04039 101.868 6.95786C99.5413 6.87534 97.5608 8.88889 98.353 11.249C99.0792 13.4111 101.835 14.7315 103.667 12.9985C105.153 11.5956 105.12 8.74035 103.288 7.65106C101.307 6.46274 98.3364 7.58503 97.6928 9.79663C97.0326 12.0907 99.4423 14.6654 101.786 13.9062C104.047 13.1635 104.212 9.66459 102.166 8.54229C100.862 7.8326 99.7889 8.77336 99.1782 9.92867C98.4685 11.2325 98.4685 12.8169 99.1617 14.1208C99.4918 14.7315 100.466 14.946 100.862 14.2693C101.324 13.4936 102.281 13.1965 102.793 12.4538C103.222 11.8267 103.42 10.9684 103.106 10.2588C102.512 8.85587 100.565 8.98792 100.35 10.5393C100.268 11.084 100.433 11.7111 100.895 12.0247C101.505 12.4373 102.132 12.1073 102.677 11.7442C104.13 10.7869 104.641 8.78986 103.783 7.25494C103.535 6.82583 102.925 6.46273 102.446 6.77631C100.449 8.04716 99.3762 11.2325 101.307 13.0645C102 13.7247 103.321 13.081 102.826 12.0907C102.248 10.9519 102.067 9.40052 103.321 8.60831C102.875 8.44326 102.43 8.29472 101.984 8.12968C102.248 8.60831 102.314 9.11995 102.033 9.63159C101.934 9.82964 101.769 9.97818 101.588 10.1102C101.373 10.2588 100.812 10.3413 101.357 10.2588C101.604 10.3083 101.852 10.3743 102.1 10.4238C102.496 10.7704 102.397 10.9685 101.786 11.0015C101.439 11.0015 101.208 11.1665 101.093 11.4471C100.878 11.6121 100.664 11.7772 100.433 11.9422C99.9539 12.2888 99.5578 12.6354 99.2442 13.147C99.8053 13.1965 100.383 13.2461 100.944 13.2956C100.301 12.1073 100.614 10.7869 101.703 9.99469C101.456 10.0772 101.225 10.1432 100.977 10.2257C101.769 10.3083 101.918 11.6616 101.324 12.0743C100.086 12.916 98.9471 10.6219 99.8714 9.6811C100.548 8.98791 102.182 8.69083 102.76 9.66459C103.222 10.4733 102.809 11.8762 101.835 12.0412C100.565 12.2558 99.4257 10.4733 100.152 9.41703C100.796 8.47628 102.446 8.44327 103.222 9.23548C104.262 10.3083 103.601 12.3053 102.182 12.6024C101.439 12.7674 100.565 12.5034 100.053 11.9422C99.7558 11.6121 99.4093 10.5888 100.086 10.4403C100.581 10.2918 100.631 9.63158 100.168 9.43353Z" fill="white"/>
</g>
<mask id="mask0_307_6304" style="mask-type:alpha" maskUnits="userSpaceOnUse" x="0" y="0" width="131" height="65">
<rect width="131" height="65" fill="url(#paint0_linear_307_6304)"/>
</mask>
<g mask="url(#mask0_307_6304)">
<g opacity="0.65">
<path d="M113.735 42.5065C113.917 43.1336 113.95 43.8103 114.247 44.388C114.412 44.7015 114.858 44.553 114.825 44.2064C114.759 43.6123 114.594 42.9686 114.412 42.3909C114.297 41.9618 113.603 42.0773 113.735 42.5065Z" fill="#000412"/>
<path d="M115.09 41.2848C115.04 42.4566 115.205 43.942 116.146 44.7507C116.427 44.9983 116.757 44.6022 116.641 44.3216C116.443 43.7935 116.146 43.3314 115.998 42.7702C115.866 42.2751 115.816 41.7634 115.783 41.2518C115.75 40.8557 115.106 40.8887 115.09 41.2848Z" fill="#000412"/>
<path d="M116.868 42.4248C116.901 43.0519 117.017 43.7616 117.429 44.2568C117.644 44.5208 118.09 44.3063 118.024 43.9762C117.925 43.4315 117.66 42.9529 117.611 42.3917C117.578 41.9626 116.835 41.9956 116.868 42.4248Z" fill="#000412"/>
<path d="M19.3474 63.4521C20.3707 56.1076 22.5493 49.7534 24.9094 42.805C25.0745 42.3099 24.4143 41.9468 24.1007 42.3759C19.9086 48.169 18.2416 56.4377 18.6872 63.4851C18.7037 63.8812 19.2979 63.8152 19.3474 63.4521Z" fill="#000412"/>
<path d="M24.349 43.2847C28.3761 43.0372 28.3596 38.2839 29.0528 35.4451C29.1353 35.0985 28.8217 34.7189 28.4586 34.9005C27.1712 35.5276 26.9897 36.9965 26.8246 38.2839C26.6761 39.4062 26.4285 40.2974 25.5868 41.0896C25.0257 41.6178 24.3655 41.9809 23.9364 42.6081C23.6888 42.9382 24.0024 43.3012 24.349 43.2847Z" fill="#000412"/>
<path d="M28.5064 36.3845C30.1074 34.5029 31.6753 32.5719 33.3422 30.7564C34.6461 29.3536 36.247 28.0992 37.1217 26.3663C37.3033 26.0032 36.8412 25.6731 36.5111 25.8216C34.6461 26.6303 33.2597 28.4623 31.9558 29.9642C30.3549 31.8127 28.9521 33.7272 27.7472 35.8563C27.4667 36.3845 28.1268 36.8466 28.5064 36.3845Z" fill="#000412"/>
<path d="M48.592 16.6291C53.0812 17.5203 57.4879 15.3087 61.9111 14.5825C68.3808 13.5262 74.405 14.2194 80.8417 14.6485C81.4194 14.6815 81.6669 13.8068 81.0727 13.6418C69.8002 10.4069 59.65 14.566 48.559 15.7048C47.9978 15.7708 48.1134 16.53 48.592 16.6291Z" fill="#000412"/>
<path d="M93.0713 18.8233C96.9663 21.9097 101.439 24.1708 105.417 27.1581C109.114 29.9308 111.639 33.2482 114.312 36.9452C114.544 37.2753 115.138 36.9947 115.039 36.5986C112.811 27.3396 101.225 22.0252 93.649 18.0311C93.0878 17.7505 92.5761 18.4272 93.0713 18.8233Z" fill="#000412"/>
<path d="M114.233 35.7574C113.078 39.1243 116.412 41.666 118.557 43.564C118.854 43.8281 119.382 43.564 119.399 43.1844C119.415 41.6495 118.161 41.1874 117.204 40.2136C115.916 38.8933 115.751 37.3584 115.124 35.7244C114.959 35.3283 114.365 35.3778 114.233 35.7574Z" fill="#000412"/>
<path d="M117.924 42.423C119.657 46.6646 121.341 50.7247 121.951 55.3129C122.43 58.8449 122.298 62.5749 123.255 66.0078C123.437 66.635 124.411 66.6845 124.46 65.9583C125.137 58.2177 123.305 48.282 118.898 41.7958C118.502 41.2181 117.677 41.8453 117.924 42.423Z" fill="#000412"/>
<path d="M123.009 65.649C123.718 67.382 124.445 68.9664 124.478 70.8809C124.511 72.5479 123.982 74.1488 123.9 75.7992C123.883 76.3274 124.643 76.7235 124.94 76.1788C126.788 72.878 126.623 67.8606 123.982 65.0053C123.537 64.5102 122.761 65.0218 123.009 65.649Z" fill="#000412"/>
<path d="M19.0991 61.5046C17.0856 68.0733 20.1719 74.7246 18.571 81.2769C18.4225 81.8876 19.2477 82.4652 19.6273 81.838C21.0136 79.5274 20.9476 76.5896 20.6341 73.9654C20.1389 69.8063 20.0564 65.7627 19.8253 61.5871C19.8088 61.191 19.1981 61.158 19.0991 61.5046Z" fill="#000412"/>
<path d="M80.4629 14.1012C83.0376 15.9167 86.3385 14.6789 89.0948 16.1313C91.3559 17.3196 92.9733 19.8118 95.5975 20.1584C95.9276 20.2079 96.1751 19.7623 95.944 19.4982C94.2441 17.7487 91.9004 15.8177 89.7384 14.6954C86.9986 13.276 83.7143 13.7547 80.7435 13.3585C80.3144 13.309 80.1328 13.8702 80.4629 14.1012Z" fill="#000412"/>
<path d="M43.0432 20.8691C43.9345 19.6642 44.8752 18.575 46.1956 17.8488C47.4499 17.1556 48.7703 17.073 50.1237 16.71C50.6353 16.5779 50.8498 15.7527 50.2227 15.5711C47.0703 14.6964 43.1918 17.5352 42.3006 20.4895C42.1685 20.9351 42.7462 21.2652 43.0432 20.8691Z" fill="#000412"/>
<path d="M35.6226 27.2589C37.6032 26.4667 39.3527 24.7998 40.8381 23.3144C42.2409 21.9115 43.8749 20.3766 44.6506 18.5116C44.8486 18.0329 44.2379 17.6698 43.8583 17.9669C42.1749 19.2378 40.9206 21.1193 39.4187 22.6047C38.0323 23.9745 36.3983 25.2289 35.21 26.7968C35.0285 27.0609 35.3421 27.3744 35.6226 27.2589Z" fill="#000412"/>
<path d="M34.1996 30.7248C35.7675 29.487 37.2694 28.1501 38.8043 26.8628C40.1742 25.6909 41.6596 24.5851 42.7984 23.1988C42.98 22.9677 42.6829 22.5881 42.4188 22.7367C40.8839 23.6774 39.5965 25.0143 38.2432 26.2026C36.7413 27.5394 35.2229 28.8433 33.787 30.2462C33.4899 30.5102 33.8695 30.9724 34.1996 30.7248Z" fill="#000412"/>
<path d="M44.0693 21.1663C44.2178 20.7866 44.5314 20.6381 44.845 20.4236C45.1255 20.2255 44.9275 19.8129 44.6469 19.7799C43.8877 19.6809 43.3926 20.308 43.2606 20.9847C43.178 21.4633 43.8877 21.5789 44.0693 21.1663Z" fill="#000412"/>
<path d="M49.3018 17.7514C51.8105 17.8504 54.5833 17.6028 56.9269 16.6456C57.2405 16.5135 57.0755 16.0184 56.7454 16.0679C54.2532 16.497 51.9261 16.9757 49.3679 17.0252C48.9223 17.0252 48.8397 17.7349 49.3018 17.7514Z" fill="#000412"/>
<path d="M69.3854 14.7321C72.0591 14.7156 74.6338 14.9467 77.291 15.2603C77.6211 15.2933 77.7531 14.7651 77.423 14.6826C74.8153 13.9894 72.0426 13.8409 69.3689 14.0719C68.9728 14.105 69.0058 14.7321 69.3854 14.7321Z" fill="#000412"/>
<path d="M21.5078 56.3539C21.8379 55.4296 22.1184 54.5219 22.1349 53.5316C22.1349 53.218 21.6728 52.954 21.4912 53.3005C20.9961 54.2083 20.7981 55.1491 20.6165 56.1558C20.501 56.6675 21.3262 56.8325 21.5078 56.3539Z" fill="#000412"/>
<path d="M23.0602 50.462C23.3903 49.3892 23.7698 48.3494 24.232 47.3261C24.6941 46.3193 25.3378 45.3621 25.6678 44.3058C25.7999 43.8932 25.2883 43.6621 25.0242 43.9757C23.5883 45.5766 22.9446 48.1843 22.4165 50.2309C22.3009 50.6435 22.9281 50.8911 23.0602 50.462Z" fill="#000412"/>
<path d="M27.4663 43.1677C28.4566 42.26 29.6614 40.9396 29.843 39.5533C29.8925 39.2232 29.4304 39.0746 29.2488 39.3387C28.8857 39.8503 28.6877 40.4775 28.3411 41.0057C27.9615 41.5998 27.5159 42.1279 27.0207 42.6231C26.6906 42.9367 27.1197 43.4648 27.4663 43.1677Z" fill="#000412"/>
<path d="M43.481 61.8669C41.0053 66.1581 41.0053 71.9842 45.1974 75.2191C48.5643 77.8268 55.9583 78.586 56.3544 72.7764C56.3874 72.3638 55.7767 72.2152 55.6282 72.6114C53.5817 78.0743 46.4187 76.3249 44.0421 72.0997C42.2761 68.9804 42.8703 65.4319 44.4217 62.3621C44.6858 61.8339 43.7945 61.3553 43.481 61.8669Z" fill="#000412"/>
<path d="M56.3174 72.2492C57.3242 69.691 56.0038 67.0998 56.3669 64.4591C56.631 62.462 56.8455 60.9106 55.4756 59.2107C52.9009 56.0088 47.9166 55.9758 45.2429 58.8971C44.9293 59.2437 45.2264 59.7553 45.6885 59.5738C47.3225 58.9631 48.5108 57.9233 50.3923 58.1214C53.6602 58.468 55.6077 60.8281 55.0466 64.0465C54.5679 66.7862 55.9708 69.3279 55.4592 72.0346C55.3601 72.5628 56.1358 72.7113 56.3174 72.2492Z" fill="#000412"/>
<path d="M37.7325 36.3021C38.9538 34.5857 39.9276 32.7207 41.1159 30.9877C42.2547 29.3207 44.9284 26.2014 47.3216 27.5053C50.7215 29.3537 45.7537 32.8032 44.4498 33.843C43.278 34.7837 42.3538 35.708 41.8421 37.1273C41.6771 37.5895 42.3702 37.8535 42.5683 37.3914C43.7896 34.4866 47.14 33.6614 48.5759 30.9547C49.3186 29.5353 49.5662 27.0101 47.7672 26.3334C42.4528 24.3529 38.7888 32.3741 36.9898 35.8895C36.7753 36.3516 37.4684 36.6817 37.7325 36.3021Z" fill="#000412"/>
<path d="M40.4723 39.1421C39.7461 40.1158 38.4753 41.6177 37.1219 40.743C35.9501 40.0003 37.7161 38.7955 36.8248 37.8712C36.6433 37.6732 36.3132 37.6732 36.1647 37.9042C35.2074 39.2741 35.0093 41.2546 36.8413 41.9313C38.7228 42.6245 40.0597 40.8585 41.017 39.5217C41.2645 39.1751 40.7364 38.7955 40.4723 39.1421Z" fill="#000412"/>
<path d="M86.6223 22.4537C89.0979 23.7246 91.6396 24.8469 94.1648 26.0022C96.756 27.174 103.886 31.5807 98.2744 34.502C97.9443 34.667 98.0928 35.2612 98.489 35.1622C101.493 34.4195 102.004 31.0195 100.37 28.6594C99.2976 27.108 97.5647 26.2002 95.8977 25.4245C92.96 24.0547 89.9561 22.7673 86.9193 21.612C86.3912 21.3974 86.1271 22.2062 86.6223 22.4537Z" fill="#000412"/>
<path d="M97.8588 34.353C96.0598 34.0889 95.5151 32.2239 94.2938 31.2502C93.6006 30.7055 92.8084 30.4085 91.9502 30.2269C90.6793 29.9463 89.3425 30.0453 88.0717 29.7153C85.1339 28.9726 84.9358 27.0745 83.83 24.7639C83.632 24.3513 83.0543 24.5824 83.0873 24.995C83.3184 28.1308 85.1504 30.4085 88.2697 30.9201C90.9764 31.3492 92.8579 31.2667 94.921 33.3627C95.8287 34.2705 96.4724 34.9637 97.7927 35.1287C98.2878 35.1782 98.3539 34.419 97.8588 34.353Z" fill="#000412"/>
<path d="M111.421 59.9831C112.114 57.9035 113.567 57.4579 115.762 58.6297C116.356 59.4054 116.769 60.2802 116.983 61.2374C117.264 62.3597 117.28 63.548 117.115 64.6869C116.719 67.3936 114.375 71.9323 110.926 70.2158C110.398 69.9518 110.068 70.7605 110.464 71.0906C115.019 74.8536 118.65 66.0237 118.386 62.7063C118.221 60.6433 117.33 57.6394 115.151 56.8307C112.956 56.022 111.339 57.8375 110.497 59.6365C110.249 60.2307 111.157 60.5442 111.421 59.9831Z" fill="#000412"/>
<path d="M110.223 66.9861C110.091 66.1773 110.107 65.3686 110.272 64.5599C110.421 63.8832 110.8 63.2725 110.883 62.5959C110.916 62.2823 110.536 62.0842 110.305 62.2988C109.1 63.3551 109.133 65.7152 109.447 67.1346C109.546 67.6132 110.305 67.4812 110.223 66.9861Z" fill="#000412"/>
<path d="M88.2372 61.8174C87.3955 64.9037 84.8869 71.39 88.3528 73.7831C91.7197 76.1102 95.2186 72.1492 97.0671 69.7725C99.9719 66.0425 100.979 61.7349 98.4865 57.4602C96.9186 54.7865 93.1556 51.9312 90.746 55.3311C90.4159 55.7933 91.0595 56.4204 91.4886 56.0078C94.4264 53.136 96.539 56.4534 97.5127 58.1864C98.47 59.8864 99.0642 61.8174 98.7836 63.7979C98.4205 66.3561 96.704 68.6007 95.0371 70.4822C94.3274 71.2744 93.2876 72.5288 92.2478 72.8754C87.6926 74.4103 87.6596 70.7463 87.8246 68.6172C88.0062 66.4056 88.6828 64.194 89.0129 61.9989C89.0789 61.5533 88.3528 61.3718 88.2372 61.8174Z" fill="#000412"/>
<path d="M90.4651 56.7867C89.2933 57.2983 88.0555 59.2128 88.9963 60.4176C89.2108 60.6817 89.5903 60.5166 89.6399 60.2196C89.7224 59.7409 89.5738 59.2788 89.7554 58.8002C89.9369 58.2555 90.3331 57.8264 90.8117 57.5459C91.2573 57.2653 90.9602 56.5721 90.4651 56.7867Z" fill="#000412"/>
<path d="M67.5575 24.5493C64.9828 25.5395 64.1906 27.7016 64.0916 30.2763C63.9761 33.6102 64.4382 32.686 63.3819 34.848C62.9693 35.7063 62.3917 36.7131 62.1606 37.6538C61.8965 38.7266 61.814 39.6343 62.3421 40.6576C65.1149 46.0216 73.9778 45.0973 76.3049 40.0304C76.4535 39.7004 75.9418 39.4528 75.7437 39.7334C73.7302 42.5556 70.5944 43.9915 67.1285 42.9352C64.8178 42.2255 64.1741 41.5654 63.6955 39.1887C63.1509 36.449 63.3984 36.7461 64.5702 34.3199C64.9663 33.5277 65.1975 33.0326 65.28 32.1413C65.346 31.2006 64.9168 30.2433 65.0159 29.3191C65.2139 27.4871 66.5013 26.1667 67.9372 25.2095C68.3333 24.9289 67.9206 24.4007 67.5575 24.5493Z" fill="#000412"/>
<path d="M77.2145 37.5571C78.5844 34.3552 75.1349 31.2359 73.8641 28.5457C72.8738 26.4331 70.8438 23.1982 68.0875 24.7662C67.7409 24.9642 67.873 25.5419 68.3186 25.4593C72.0486 24.7496 72.6593 28.2816 74.0292 30.7078C75.2175 32.8203 77.7756 34.5863 76.6368 37.3591C76.4718 37.7222 77.0495 37.9202 77.2145 37.5571Z" fill="#000412"/>
<path d="M65.2314 62.5607C66.8653 64.6567 70.2817 65.1188 71.7011 62.4946C72.7409 60.5636 70.9915 57.1802 68.5653 57.8734C68.2022 57.9724 68.0371 58.5666 68.4992 58.6986C69.9681 59.1277 71.6516 60.25 70.8429 62.049C69.8692 64.2606 67.0304 63.6169 65.743 62.1315C65.4624 61.8014 64.9673 62.2141 65.2314 62.5607Z" fill="#000412"/>
<path d="M122.848 75.1057C123.855 73.3893 123.641 71.7553 123.145 69.8573C122.304 66.639 122.056 63.8002 122.023 60.4663C122.023 60.1197 121.445 59.9051 121.363 60.3178C120.917 62.2323 120.967 64.1963 121.214 66.1603C121.594 69.0156 123.211 71.8544 122.023 74.6766C121.841 75.1552 122.584 75.5678 122.848 75.1057Z" fill="#000412"/>
<path d="M121.622 57.3629C121.523 56.4551 121.424 55.5639 121.259 54.6726C121.176 54.2765 120.648 54.3921 120.664 54.7717C120.714 55.6794 120.846 56.5707 120.962 57.4784C120.995 57.9075 121.671 57.792 121.622 57.3629Z" fill="#000412"/>
<path d="M23.106 64.3759C23.2215 62.0323 23.7166 59.7712 23.9477 57.444C23.9972 56.9819 23.3866 56.8994 23.205 57.279C22.1322 59.4081 22.0002 62.0653 22.1982 64.4089C22.2312 64.937 23.073 64.904 23.106 64.3759Z" fill="#000412"/>
<path d="M46.5284 55.5297C42.7984 57.7248 39.349 63.6004 40.3062 68.0071C40.3722 68.3207 40.9169 68.4527 40.9994 68.0731C41.4781 66.0266 41.5276 64.013 42.4188 62.049C43.4916 59.6558 45.1255 58.0219 46.974 56.2394C47.3041 55.9258 46.9575 55.2657 46.5284 55.5297Z" fill="#000412"/>
<path d="M56.5626 74.8225C57.6353 73.7497 57.7013 72.5119 57.6848 71.043C57.6518 68.8479 57.7509 66.4052 57.2392 64.2762C57.1402 63.8635 56.5296 63.8635 56.48 64.3092C56.315 65.6955 56.513 67.1149 56.6121 68.5013C56.7441 70.2177 57.4208 72.8255 56.0674 74.2283C55.6878 74.5749 56.1995 75.1856 56.5626 74.8225Z" fill="#000412"/>
<path d="M86.8674 72.3487C86.2237 69.3449 87.148 66.8197 87.7587 63.9314C88.4024 60.8616 87.5771 57.6102 89.6401 55.0025C89.9207 54.6394 89.4256 54.2928 89.0955 54.5074C86.4383 56.2569 87.2635 59.9869 86.8674 62.7266C86.3722 66.1265 84.7713 69.1964 86.0422 72.6128C86.2072 73.0914 86.9829 72.8438 86.8674 72.3487Z" fill="#000412"/>
<path d="M94.6754 73.6689C98.6035 71.4078 102.333 66.0439 100.865 61.2741C100.749 60.878 100.155 60.845 100.105 61.3071C99.8743 63.5682 99.9238 65.6148 98.95 67.7603C97.9432 69.9554 96.3093 71.8039 94.2958 73.1078C93.9822 73.3058 94.3453 73.8505 94.6754 73.6689Z" fill="#000412"/>
<path d="M100.004 57.841C99.4591 56.3391 98.7494 54.6391 97.6436 53.4673C97.2805 53.0877 96.5708 53.4838 96.8349 53.9955C97.5776 55.4314 98.5349 56.7517 99.2116 58.2206C99.4591 58.7323 100.202 58.3526 100.004 57.841Z" fill="#000412"/>
<path d="M85.5437 20.2259C82.4079 20.0939 79.4701 24.0054 81.8467 26.6957C82.0778 26.9432 82.5729 26.7617 82.4739 26.3986C82.1603 25.1938 81.8963 23.9889 82.5894 22.8336C83.2166 21.7608 84.3554 21.2162 85.5767 21.0842C86.0884 21.0511 86.0388 20.2589 85.5437 20.2259Z" fill="#000412"/>
<path d="M82.4113 28.4634C82.9395 30.0809 84.2599 30.9886 85.8113 31.5828C87.9734 32.408 90.4655 33.0517 92.7596 33.2662C93.1722 33.2992 93.2878 32.7216 92.9247 32.5565C90.0695 31.3682 84.491 31.5332 83.3191 28.0343C83.1046 27.4236 82.2133 27.8528 82.4113 28.4634Z" fill="#000412"/>
<path d="M64.1535 43.5985C62.305 41.7996 61.1662 39.4229 61.5953 36.7822C61.9254 34.7357 63.2623 33.0522 63.4273 30.9726C63.4603 30.593 62.9158 30.4775 62.7837 30.8241C61.8265 33.2007 60.4235 35.6269 60.5556 38.2676C60.6876 40.6277 61.81 42.7238 63.6089 44.2092C63.9555 44.5228 64.5001 43.9451 64.1535 43.5985Z" fill="#000412"/>
<path d="M63.3652 28.5793C63.3487 27.0774 63.9264 25.658 65.1478 24.7503C66.4186 23.793 67.6069 24.0571 69.0428 23.826C69.3729 23.7765 69.4884 23.2979 69.2078 23.1163C67.8214 22.2416 65.6594 23.0173 64.4875 23.9581C63.1012 25.0969 62.507 26.8628 62.639 28.6123C62.6556 29.0249 63.3652 28.9919 63.3652 28.5793Z" fill="#000412"/>
<path d="M60.9372 32.722C61.3828 32.1114 61.8119 31.3357 61.5808 30.56C61.4488 30.1474 60.9536 30.0813 60.7556 30.4774C60.4915 31.0221 60.4585 31.6163 60.1449 32.1444C59.8148 32.7055 60.5576 33.2337 60.9372 32.722Z" fill="#000412"/>
<path d="M34.3984 41.6021C34.877 39.572 35.3887 37.575 36.2634 35.6605C37.2372 33.5149 38.64 31.7489 39.9109 29.8014C40.1089 29.5043 39.7293 29.1412 39.4487 29.3888C36.1313 32.2606 34.1013 37.1459 33.6392 41.437C33.5897 41.8661 34.2994 42.0477 34.3984 41.6021Z" fill="#000412"/>
<path d="M44.6652 25.5912C45.6059 25.4261 46.5467 25.4262 47.4709 25.6902C48.2631 25.9213 48.8903 26.4989 49.6825 26.697C50.0126 26.7795 50.3757 26.4824 50.1942 26.1358C49.7486 25.2446 48.5272 24.8155 47.6195 24.6174C46.5137 24.3699 45.4574 24.4359 44.4011 24.7825C43.9225 24.931 44.2031 25.6737 44.6652 25.5912Z" fill="#000412"/>
<path d="M34.9589 42.9545C35.5035 43.6147 36.4278 43.9943 37.2365 43.5652C37.5171 43.4166 37.5006 42.8885 37.121 42.8885C36.5268 42.8885 36.0317 42.8885 35.6191 42.3934C35.2395 41.9973 34.5958 42.5419 34.9589 42.9545Z" fill="#000412"/>
<path d="M59.6188 20.6384C60.0809 19.9287 60.7412 19.351 61.5664 19.12C62.3586 18.8889 63.0848 19.153 63.877 19.2025C64.2236 19.219 64.4382 18.8229 64.2236 18.5423C62.7382 16.7268 59.4373 18.3608 58.8101 20.2093C58.6616 20.7044 59.3382 21.1005 59.6188 20.6384Z" fill="#000412"/>
<path d="M22.4534 26.0029C32.323 9.77901 48.4313 2.55007 66.9823 2.63259C67.56 2.63259 67.659 1.80736 67.0648 1.72484C48.9429 -0.932377 30.4415 9.92755 21.6446 25.4417C21.3475 25.9864 22.1233 26.5475 22.4534 26.0029Z" fill="#000412"/>
<path d="M76.1729 1.51214C82.3785 2.50241 87.759 4.81303 93.7171 6.5625C94.1957 6.71104 94.6249 6.03436 94.1462 5.73728C88.9803 2.53541 82.23 1.26458 76.2719 0.455857C75.5952 0.356831 75.5127 1.39661 76.1729 1.51214Z" fill="#000412"/>
<path d="M9.36255 55.5798C5.30246 66.7203 5.7151 79.2636 11.7722 89.6284C11.9868 90.008 12.5809 89.7439 12.3994 89.3313C7.53055 78.3559 6.30923 67.3804 10.1383 55.8603C10.3033 55.3652 9.5441 55.0846 9.36255 55.5798Z" fill="#000412"/>
<path d="M99.6114 7.4213C96.492 8.75816 96.1124 13.7095 98.9346 15.5745C101.74 17.423 107.038 14.6998 106.065 11.0853C105.949 10.6727 105.388 10.6892 105.322 11.1183C105.091 12.5542 104.645 13.7095 103.391 14.5347C102.203 15.3104 100.585 15.5745 99.3638 14.6998C97.0862 13.0823 97.6473 9.3193 99.9084 8.01545C100.239 7.80089 99.991 7.25626 99.6114 7.4213Z" fill="#000412"/>
<path d="M99.2964 7.81814C99.7255 5.93663 102.498 5.72206 103.786 6.77835C105.651 8.32977 104.974 10.8054 104.99 12.8685C104.99 13.5617 105.882 13.7927 106.179 13.1326C107.301 10.6569 106.426 6.46477 103.736 5.34247C101.673 4.48424 98.9168 5.32596 98.6362 7.75212C98.5537 8.19774 99.1974 8.23075 99.2964 7.81814Z" fill="#000412"/>
<path d="M107.955 16.3984C110.348 19.4848 112.593 23.0332 115.415 25.7234C115.695 25.9875 116.257 25.7235 116.026 25.3273C114.062 21.8944 111.157 18.8411 108.714 15.7383C108.318 15.2431 107.559 15.8868 107.955 16.3984Z" fill="#000412"/>
<path d="M100.168 9.43353C99.2772 9.05393 98.6006 9.61509 98.353 10.4733C98.0559 11.5131 98.5015 12.5199 99.2938 13.1966C101.241 14.847 104.212 14.0878 105.054 11.6616C105.846 9.35102 104.328 7.04039 101.868 6.95786C99.5413 6.87534 97.5608 8.88889 98.353 11.249C99.0792 13.4111 101.835 14.7315 103.667 12.9985C105.153 11.5956 105.12 8.74035 103.288 7.65106C101.307 6.46274 98.3364 7.58503 97.6928 9.79663C97.0326 12.0907 99.4423 14.6654 101.786 13.9062C104.047 13.1635 104.212 9.66459 102.166 8.54229C100.862 7.8326 99.7889 8.77336 99.1782 9.92867C98.4685 11.2325 98.4685 12.8169 99.1617 14.1208C99.4918 14.7315 100.466 14.946 100.862 14.2693C101.324 13.4936 102.281 13.1965 102.793 12.4538C103.222 11.8267 103.42 10.9684 103.106 10.2588C102.512 8.85587 100.565 8.98792 100.35 10.5393C100.268 11.084 100.433 11.7111 100.895 12.0247C101.505 12.4373 102.132 12.1073 102.677 11.7442C104.13 10.7869 104.641 8.78986 103.783 7.25494C103.535 6.82583 102.925 6.46273 102.446 6.77631C100.449 8.04716 99.3762 11.2325 101.307 13.0645C102 13.7247 103.321 13.081 102.826 12.0907C102.248 10.9519 102.067 9.40052 103.321 8.60831C102.875 8.44326 102.43 8.29472 101.984 8.12968C102.248 8.60831 102.314 9.11995 102.033 9.63159C101.934 9.82964 101.769 9.97818 101.588 10.1102C101.373 10.2588 100.812 10.3413 101.357 10.2588C101.604 10.3083 101.852 10.3743 102.1 10.4238C102.496 10.7704 102.397 10.9685 101.786 11.0015C101.439 11.0015 101.208 11.1665 101.093 11.4471C100.878 11.6121 100.664 11.7772 100.433 11.9422C99.9539 12.2888 99.5578 12.6354 99.2442 13.147C99.8053 13.1965 100.383 13.2461 100.944 13.2956C100.301 12.1073 100.614 10.7869 101.703 9.99469C101.456 10.0772 101.225 10.1432 100.977 10.2257C101.769 10.3083 101.918 11.6616 101.324 12.0743C100.086 12.916 98.9471 10.6219 99.8714 9.6811C100.548 8.98791 102.182 8.69083 102.76 9.66459C103.222 10.4733 102.809 11.8762 101.835 12.0412C100.565 12.2558 99.4257 10.4733 100.152 9.41703C100.796 8.47628 102.446 8.44327 103.222 9.23548C104.262 10.3083 103.601 12.3053 102.182 12.6024C101.439 12.7674 100.565 12.5034 100.053 11.9422C99.7558 11.6121 99.4093 10.5888 100.086 10.4403C100.581 10.2918 100.631 9.63158 100.168 9.43353Z" fill="#000412"/>
</g>
</g>
<defs>
<linearGradient id="paint0_linear_307_6304" x1="-90.7903" y1="-7.03567" x2="23.5174" y2="155.31" gradientUnits="userSpaceOnUse">
<stop stop-color="#F1E4E4"/>
<stop offset="1" stop-color="#C3BEAE"/>
</linearGradient>
</defs>
</svg>
