<svg width="207" height="142" viewBox="0 0 207 142" fill="none" xmlns="http://www.w3.org/2000/svg">
<g opacity="0.65">
<path d="M147.651 74.3674C150.175 72.4759 153.545 71.2169 156.362 73.298C159.319 75.4711 158.881 79.0687 158.085 82.1805C157.832 83.1514 159.321 83.6214 159.737 82.732C163.683 74.202 153.572 66.6091 146.954 73.5978C146.574 74.0353 147.182 74.7323 147.651 74.3674Z" fill="#48494E"/>
<path d="M158.018 83.8032C159.057 83.5196 160.265 83.4555 160.918 84.4415C161.616 85.4637 161.254 86.8203 162.058 87.7666C162.316 88.0587 162.732 88.1392 163.009 87.818C164.202 86.4676 163.304 83.9332 162.2 82.7561C160.903 81.3702 159.055 81.3844 157.396 82.0724C156.309 82.5319 156.891 84.1118 158.018 83.8032Z" fill="#48494E"/>
<path d="M160.83 80.3367C162.555 80.5468 164.081 80.1574 165.689 81.0801C167.488 82.1141 168.742 83.9689 169.408 85.8909C170.063 87.7895 170.192 89.8956 169.578 91.8156C168.899 93.905 167.099 94.811 166.089 96.5995C165.84 97.0482 166.247 97.6106 166.731 97.562C169.112 97.3232 170.841 94.4112 171.462 92.3194C172.194 89.9394 171.971 87.3128 171.046 85.0012C169.732 81.7261 164.463 76.2476 160.656 79.5718C160.417 79.7913 160.419 80.2965 160.83 80.3367Z" fill="#48494E"/>
<path d="M165.521 94.888C165.474 95.4714 165.471 96.0912 165.349 96.6658C165.266 97.1387 164.963 97.5277 164.92 97.9966C164.886 98.3912 165.197 98.6453 165.579 98.558C166.854 98.2672 166.751 95.9383 166.718 94.9554C166.683 94.2824 165.567 94.2069 165.521 94.888Z" fill="#48494E"/>
<path d="M168.203 96.0997C170.168 98.2255 171.217 101.283 170.044 104.057C168.618 107.395 165.212 107.321 162.207 106.449C161.249 106.162 160.717 107.764 161.649 108.119C165.35 109.508 169.712 108.957 171.536 105.033C173.112 101.655 171.966 97.3768 168.95 95.2586C168.353 94.8376 167.726 95.5689 168.203 96.0997Z" fill="#48494E"/>
<path d="M162.022 104.731C161.785 108.056 160.816 110.908 157.128 111.522C153.769 112.087 151.004 110.278 149.058 107.694C148.345 106.763 147.02 107.695 147.563 108.716C149.523 112.334 154.048 114.211 158.019 113.259C161.904 112.331 164.336 108.542 163.381 104.627C163.225 103.967 162.074 104.033 162.022 104.731Z" fill="#48494E"/>
<path d="M152.129 111.037C149.577 114.839 146.286 115.837 142.112 113.55C137.747 111.152 135.557 106.709 136.371 101.819C136.579 100.559 134.761 100.236 134.452 101.457C132.973 107.278 136.608 113.124 141.86 115.589C145.94 117.51 152.321 117.009 153.158 111.546C153.261 111.022 152.484 110.513 152.129 111.037Z" fill="#48494E"/>
<path d="M149.165 71.7829C147.504 69.3658 144.455 68.8647 141.775 69.9404C139.457 70.882 136.061 74.2464 137.351 77.0268C137.599 77.5481 138.246 77.581 138.548 77.0943C139.151 76.1209 139.087 74.9129 139.709 73.8887C140.332 72.8645 141.278 72.0604 142.372 71.584C144.348 70.7256 146.687 71.0534 148.289 72.5554C148.762 73.0459 149.538 72.3324 149.165 71.7829Z" fill="#48494E"/>
<path d="M142.031 76.203C137.6 73.8763 132.543 76.6085 130.792 81.0062C129.266 84.8107 131.175 92.1341 136.374 91.7267C136.835 91.6886 137.199 91.0897 136.866 90.6912C135.564 89.1672 133.575 88.682 132.653 86.7205C131.905 85.1165 131.995 83.2492 132.625 81.6456C134.129 77.7943 137.768 76.4432 141.533 77.663C142.394 77.9516 142.789 76.6079 142.031 76.203Z" fill="#48494E"/>
<path d="M133.801 89.8181C130.686 90.049 128.613 92.9467 128.636 95.9437C128.657 99.5605 131.184 102.812 134.296 104.423C135.481 105.03 136.284 103.278 135.205 102.596C132.934 101.169 130.949 99.0942 130.643 96.2804C130.336 93.4666 131.991 92.1758 134.192 90.8792C134.699 90.5675 134.359 89.7784 133.801 89.8181Z" fill="#48494E"/>
<path d="M146.557 78.9372C144.256 79.0703 142.081 80.2991 141.562 82.6822C141.08 84.866 142.152 87.7578 144.217 88.7571C144.825 89.0466 145.335 88.3678 145.036 87.8272C144.203 86.3459 142.922 85.2762 143.029 83.4153C143.147 81.4229 144.886 80.4742 146.651 80.1178C147.369 79.9643 147.328 78.9007 146.557 78.9372Z" fill="#48494E"/>
<path d="M139.301 88.7696C137.895 89.3018 136.944 90.2204 136.656 91.7408C136.384 93.17 136.705 94.825 137.746 95.8617C138.082 96.2029 138.601 95.8574 138.584 95.4434C138.547 94.4202 138.087 93.4883 138.113 92.4505C138.134 91.2748 138.836 90.3974 139.799 89.7548C140.318 89.4092 139.89 88.5475 139.301 88.7696Z" fill="#48494E"/>
<path d="M156.84 93.5648C156.805 95.4918 156.606 97.2397 154.857 98.4176C153.139 99.5681 151.612 98.8899 149.744 98.955C149.192 98.9777 149.102 99.6225 149.414 99.9743C151.088 101.795 154.429 100.971 156.127 99.6188C157.932 98.1908 159.032 95.5049 157.981 93.3199C157.685 92.7221 156.852 92.8708 156.84 93.5648Z" fill="#48494E"/>
<path d="M142.507 94.2585C142.405 95.1898 142.503 96.0032 143.015 96.7995C143.451 97.4893 144.175 98.2888 145.046 98.0384C145.348 97.9592 145.437 97.6243 145.368 97.3459C145.22 96.7657 144.644 96.5464 144.302 96.0672C143.951 95.5645 143.731 94.9182 143.647 94.3235C143.586 93.7183 142.587 93.5903 142.507 94.2585Z" fill="#48494E"/>
<path d="M139.158 102.899C139.054 104.295 139.284 105.373 140.309 106.403C141.234 107.337 142.671 108.098 144.019 107.97C144.423 107.93 144.653 107.377 144.308 107.11C143.52 106.48 142.508 106.231 141.72 105.601C140.925 104.988 140.422 103.963 140.338 102.96C140.273 102.315 139.211 102.201 139.158 102.899Z" fill="#48494E"/>
<path d="M149.627 85.25C151.92 85.0363 153.517 86.2455 155.544 87.0365C155.917 87.1784 156.469 86.7481 156.129 86.3665C154.381 84.3819 151.988 83.2771 149.36 83.9646C148.628 84.1521 148.884 85.3164 149.627 85.25Z" fill="#48494E"/>
<path d="M137.117 55.3627C147.73 60.4111 159.687 64.632 168.287 72.9307C178.078 82.3813 181.918 97.8327 174.301 109.738C157.07 136.709 126.91 108.232 112.935 93.1534C112.54 92.7121 111.801 93.3813 112.148 93.8436C125.411 111.252 157.934 138.416 175.758 110.856C181.792 101.529 181.29 89.5413 175.927 80.0297C167.908 65.8206 151.462 60.803 137.452 54.6363C137.001 54.4452 136.656 55.1482 137.117 55.3627Z" fill="#48494E"/>
<path d="M135.698 55.38C137.47 57.3541 139.056 59.3549 140.531 61.5462C140.79 61.9359 141.394 61.6226 141.252 61.1804C140.403 58.5677 138.334 56.4606 136.422 54.5494C135.915 54.046 135.232 54.8726 135.698 55.38Z" fill="#48494E"/>
<path d="M139.848 61.6365C132.694 56.7791 124.357 54.9256 117.149 49.8535C111.089 45.5873 105.574 41.4702 97.9138 40.9996C97.29 40.9562 97.0732 41.8827 97.735 41.9793C106.819 43.3993 112.75 48.6646 120.164 53.5041C126.191 57.4476 133.313 58.5671 139.444 62.2394C139.791 62.4491 140.189 61.8632 139.848 61.6365Z" fill="#48494E"/>
<path d="M97.6012 41.927C100.573 43.1939 109.33 50.2134 109.341 54.312C109.35 55.0528 110.491 54.9629 110.498 54.2285C110.499 54.0736 110.517 53.9251 110.518 53.7702C110.549 53.4329 110.383 53.1561 110.048 53.0674C89.7682 48.1817 78.0357 26.0397 55.8243 26.8411C55.3127 26.8598 55.2363 27.7233 55.7624 27.7683C69.1954 28.6706 78.2935 35.3544 88.6185 43.3007C90.2255 44.5333 109.267 55.6806 109.318 54.3225C109.285 54.9697 110.424 55.0347 110.457 54.3875C110.736 49.5263 102.132 42.5648 98.0044 41.0715C97.4516 40.8417 97.0144 41.6843 97.6012 41.927Z" fill="#48494E"/>
<path d="M56.3111 28.2677C69.872 33.371 76.3793 44.2106 82.6103 56.4391C87.7101 66.4907 94.4297 69.5334 104.16 74.5562C104.727 74.8498 105.349 73.9805 104.797 73.5958C98.9132 69.3771 92.0697 67.7813 87.5085 61.7184C84.1325 57.2319 82.4314 51.8112 79.6492 46.988C74.5522 38.1016 66.5932 30.2603 56.5352 27.5769C56.1559 27.4519 55.9213 28.1194 56.3111 28.2677Z" fill="#48494E"/>
<path d="M103.599 72.1124C94.5851 74.231 86.3258 66.159 77.6342 69.2151C77.2089 69.3637 77.3544 70.0011 77.7917 69.9736C86.895 69.5577 94.9769 75.6995 104.049 73.4285C104.941 73.2248 104.468 71.9193 103.599 72.1124Z" fill="#48494E"/>
<path d="M78.2925 70.0717C86.2075 70.8917 90.7152 76.5851 96.8688 80.8093C101.622 84.0737 107.266 86.6293 112.546 88.9687C112.997 89.1598 113.301 88.6158 112.999 88.2875C108.266 83.0323 99.4963 80.8392 93.7913 76.4558C88.9533 72.7517 84.6665 69.1797 78.3479 69.1615C77.8323 69.1398 77.7728 70.0097 78.2925 70.0717Z" fill="#48494E"/>
<path d="M111.48 87.3955C107.437 87.7195 103.668 86.7119 99.6852 86.5735C99.3011 86.5631 99.1705 87.2119 99.5329 87.3304C103.145 88.6471 107.756 89.0243 111.551 88.4316C112.22 88.3564 112.159 87.3437 111.48 87.3955Z" fill="#48494E"/>
<path d="M98.9874 87.9958C101.823 88.8035 104.581 89.562 107.247 90.8677C109.749 92.0919 111.9 93.7835 114.248 95.2595C114.623 95.4991 115.105 94.9454 114.81 94.6001C111.258 90.4735 104.54 87.5285 99.1421 87.1815C98.6264 87.1599 98.483 87.8426 98.9874 87.9958Z" fill="#48494E"/>
<path d="M159.039 63.2717C146.857 56.4815 138.476 41.5915 124.093 39.2604C123.529 39.1622 123.368 39.9934 123.93 40.149C138.411 44.1085 145.099 58.8585 158.655 64.0764C159.18 64.2763 159.555 63.5459 159.039 63.2717Z" fill="#48494E"/>
<path d="M123.757 40.0093C125.281 41.5598 128.299 47.1907 129.454 47.1645C128.828 47.1785 127.267 45.2648 126.825 44.8445C122.486 40.748 116.867 37.4646 111.666 34.6119C100.985 28.7226 88.2533 23.2754 75.8286 23.6494C75.317 23.6682 75.264 24.5211 75.7732 24.5597C87.0289 25.3706 97.5673 28.7801 107.611 33.8449C112.822 36.4684 117.857 39.4518 122.566 42.9325C124.265 44.1803 128.029 46.1175 128.938 48.1129C129.106 48.4873 129.764 48.5436 129.819 48.0408C130.147 44.8863 126.335 41.34 124.252 39.4217C123.906 39.057 123.41 39.6446 123.757 40.0093Z" fill="#48494E"/>
<path d="M75.5448 24.4747C78.6708 26.7123 81.5324 29.6447 84.8318 31.5797C85.1958 31.7958 85.6653 31.276 85.3804 30.9541C82.9368 28.0449 79.3556 25.5759 76.0901 23.6539C75.6203 23.3586 75.088 24.1456 75.5448 24.4747Z" fill="#48494E"/>
<path d="M86.459 32.8188C68.0174 18.8727 43.2422 22.2297 21.9946 16.0636C21.6089 15.9555 21.3807 16.606 21.7705 16.7544C43.125 24.4747 66.2297 20.7147 86.0548 33.4217C86.3954 33.6483 86.7931 33.0624 86.459 32.8188Z" fill="#48494E"/>
<path d="M22.3263 17.4676C33.4119 21.3765 40.0858 30.7079 49.5655 37.0518C58.326 42.8892 69.2864 46.3623 74.5466 56.1452C74.8559 56.7092 75.8346 56.2279 75.5617 55.6196C71.6082 46.8386 61.9469 42.9091 54.1462 38.2714C43.0251 31.6519 35.2088 20.6828 22.615 16.6073C22.1275 16.4606 21.8453 17.304 22.3263 17.4676Z" fill="#48494E"/>
<path d="M74.6805 54.6478C70.2773 53.1659 64.7823 51.8506 60.1287 52.5048C59.655 52.5767 59.5987 53.2344 60.0821 53.3408C62.4653 53.8598 64.991 53.851 67.4153 54.2109C69.7418 54.5726 72.0314 55.1336 74.3015 55.7454C74.948 55.9332 75.314 54.8695 74.6805 54.6478Z" fill="#48494E"/>
<path d="M59.9524 52.7656C67.8278 56.4422 68.9143 65.5678 74.1629 71.6596C79.1541 77.4594 86.4929 81.0675 93.3675 84.111C93.8356 84.3085 94.3397 83.6467 93.8765 83.3345C85.3427 77.5641 76.5475 74.4687 71.3761 64.7585C68.5517 59.4342 66.3366 54.0895 60.3878 51.8253C59.8052 51.6229 59.3382 52.493 59.9524 52.7656Z" fill="#48494E"/>
<path d="M90.9258 82.5186C88.4414 83.1834 85.8761 83.4489 83.3957 84.1541C82.8495 84.3148 82.9538 85.1113 83.4775 85.2136C99.8542 88.3228 111.46 101.161 126.357 107.394C126.791 107.579 127.293 106.974 126.853 106.651C118.016 100.455 108.328 94.5557 98.7248 89.6587C98.657 89.6329 86.0417 83.8806 85.8684 84.5907C85.9031 84.4487 90.6155 83.8945 91.399 83.4166C91.9226 83.1114 91.4826 82.3812 90.9258 82.5186Z" fill="#48494E"/>
<path d="M157.381 64.1024C158.452 64.7041 159.38 65.426 160.5 65.9494C160.962 66.1639 161.248 65.5158 160.839 65.2634C159.811 64.6004 158.915 63.7937 157.837 63.2089C157.249 62.8686 156.826 63.7749 157.381 64.1024Z" fill="#48494E"/>
<path d="M164.187 64.7478C169.962 68.9447 174.865 73.2944 178.656 79.3939C178.898 79.7772 179.543 79.4598 179.377 79.0282C176.784 72.4336 170.287 68.04 164.699 64.1667C164.286 63.8739 163.781 64.4381 164.187 64.7478Z" fill="#48494E"/>
<path d="M180.875 85.1297C181.472 85.8033 181.899 86.5674 182.167 87.4453C182.43 88.2828 182.445 89.1616 182.644 90.0137C182.757 90.4833 183.394 90.3379 183.502 89.9521C183.995 88.0443 182.964 85.8085 181.702 84.4355C181.263 83.9579 180.453 84.6585 180.875 85.1297Z" fill="#48494E"/>
<path d="M181.6 107.7C179.435 111.552 177.244 115.627 174.326 118.96C170.4 123.461 166 124.775 160.247 125.515C159.756 125.58 159.661 126.34 160.198 126.408C171.965 127.763 177.808 116.948 182.286 108.038C182.511 107.6 181.835 107.285 181.6 107.7Z" fill="#48494E"/>
<path d="M111.555 102.656C123.889 109.911 134.744 122.173 149.027 125.533C149.561 125.659 149.873 124.788 149.348 124.588C135.148 119.533 125.592 107.63 111.962 101.84C111.426 101.617 111.068 102.354 111.555 102.656Z" fill="#48494E"/>
<path d="M147.537 129.195C149.503 129.944 151.792 130.252 153.862 130.574C154.341 130.64 154.57 129.99 154.131 129.765C152.262 128.762 149.872 128.823 147.841 128.244C147.32 128.084 147.012 128.995 147.537 129.195Z" fill="#48494E"/>
<path d="M139.896 43.6836C147.21 48.0197 151.726 55.9863 159.41 59.7065C159.804 59.8952 160.242 59.3052 159.857 59.0422C152.815 54.2469 147.763 47.0269 140.316 42.8345C139.779 42.5135 139.375 43.369 139.896 43.6836Z" fill="#48494E"/>
<path d="M186.744 96.0964C185.597 103.596 186.646 110.476 180.766 116.29C180.418 116.643 180.921 117.106 181.308 116.904C188.07 113.055 187.369 102.815 187.712 96.1542C187.746 95.6046 186.836 95.5492 186.744 96.0964Z" fill="#48494E"/>
<path d="M189.556 107.993C189.485 109.149 189.322 110.291 188.926 111.382C188.582 112.337 188.02 113.152 187.614 114.064C187.43 114.499 187.961 114.837 188.295 114.518C189.948 112.877 190.42 110.262 190.49 108.038C190.512 107.522 189.601 107.467 189.556 107.993Z" fill="#48494E"/>
<path d="M181.912 119.421C177.642 124.471 172.946 127.631 166.393 128.843C165.889 128.942 165.941 129.622 166.463 129.626C173.159 129.672 178.698 125.008 182.571 119.982C182.911 119.549 182.285 119 181.912 119.421Z" fill="#48494E"/>
<path d="M45.9721 41.1599C50.5392 42.9758 54.1116 45.5191 58.165 48.2261C58.6113 48.5318 59.0873 47.995 58.72 47.5836C55.5807 44.1573 50.7164 41.4909 46.2737 40.2657C45.7459 40.123 45.4637 40.9664 45.9721 41.1599Z" fill="#48494E"/>
</g>
</svg>
