<svg width="174" height="116" viewBox="0 0 174 116" fill="none" xmlns="http://www.w3.org/2000/svg">
<mask id="mask0_309_6822" style="mask-type:alpha" maskUnits="userSpaceOnUse" x="0" y="0" width="155" height="57">
<path d="M0 0H155V57H0V0Z" fill="#040229"/>
</mask>
<g mask="url(#mask0_309_6822)">
<g opacity="0.65">
<path d="M127.651 59.3664C130.176 57.475 133.546 56.2159 136.363 58.297C139.319 60.4701 138.881 64.0677 138.085 67.1796C137.832 68.1504 139.322 68.6204 139.738 67.731C143.683 59.2011 133.573 51.6081 126.955 58.5968C126.575 59.0343 127.182 59.7313 127.651 59.3664Z" fill="white"/>
<path d="M129.165 56.782C127.505 54.3648 124.455 53.8638 121.775 54.9394C119.457 55.881 116.062 59.2455 117.351 62.0259C117.599 62.5471 118.246 62.58 118.548 62.0933C119.151 61.1199 119.087 59.9119 119.71 58.8877C120.333 57.8635 121.279 57.0595 122.372 56.583C124.348 55.7246 126.688 56.0524 128.289 57.5545C128.762 58.045 129.538 57.3314 129.165 56.782Z" fill="white"/>
<path d="M117.118 40.3617C127.731 45.4101 139.687 49.631 148.287 57.9297C158.078 67.3803 161.918 82.8317 154.302 94.7375C137.071 121.708 106.91 93.2313 92.9355 78.1525C92.5407 77.7112 91.8009 78.3804 92.1489 78.8426C105.412 96.2505 137.935 123.415 155.759 95.8547C161.792 86.5285 161.291 74.5404 155.927 65.0287C147.908 50.8196 131.462 45.802 117.452 39.6353C117.001 39.4442 116.656 40.1472 117.118 40.3617Z" fill="white"/>
<path d="M115.699 40.379C117.47 42.3531 119.056 44.3539 120.531 46.5452C120.79 46.9349 121.395 46.6216 121.252 46.1794C120.404 43.5667 118.334 41.4596 116.422 39.5485C115.916 39.0451 115.232 39.8716 115.699 40.379Z" fill="white"/>
<path d="M119.848 46.6355C112.694 41.7781 104.358 39.9246 97.1491 34.8525C91.0892 30.5863 85.574 26.4692 77.9142 25.9986C77.2904 25.9552 77.0736 26.8817 77.7353 26.9783C86.8189 28.3983 92.7508 33.6636 100.164 38.5032C106.192 42.4466 113.314 43.5662 119.444 47.2385C119.791 47.4482 120.189 46.8622 119.848 46.6355Z" fill="white"/>
<path d="M77.6015 26.926C80.5732 28.1929 89.33 35.2125 89.3417 39.311C89.3508 40.0518 90.491 39.9619 90.4988 39.2276C90.4996 39.0726 90.5173 38.9241 90.5181 38.7692C90.5494 38.4319 90.3831 38.1551 90.0482 38.0665C69.7686 33.1807 58.0361 11.0387 35.8246 11.8401C35.313 11.8589 35.2366 12.7223 35.7628 12.7674C49.1957 13.6696 58.2938 20.3534 68.6188 28.2997C70.2259 29.5323 89.267 40.6797 89.3183 39.3215C89.2854 39.9687 90.4248 40.0337 90.4577 39.3865C90.7363 34.5253 82.132 27.5638 78.0048 26.0705C77.4519 25.8407 77.0148 26.6833 77.6015 26.926Z" fill="white"/>
<path d="M36.3115 13.2668C49.8724 18.37 56.3797 29.2096 62.6107 41.4381C67.7104 51.4897 74.4301 54.5324 84.1603 59.5553C84.7277 59.8488 85.3496 58.9796 84.7976 58.5948C78.9136 54.3761 72.07 52.7804 67.5089 46.7174C64.1328 42.2309 62.4318 36.8102 59.6495 31.987C54.5525 23.1006 46.5936 15.2593 36.5356 12.5759C36.1563 12.451 35.9217 13.1184 36.3115 13.2668Z" fill="white"/>
<path d="M83.5994 57.1115C74.5854 59.23 66.3262 51.158 57.6345 54.2141C57.2093 54.3627 57.3547 55.0002 57.7921 54.9726C66.8953 54.5567 74.9773 60.6986 84.0493 58.4275C84.9417 58.2239 84.4684 56.9183 83.5994 57.1115Z" fill="white"/>
<path d="M58.2929 55.0707C66.2078 55.8907 70.7156 61.5841 76.8691 65.8083C81.6223 69.0727 87.2661 71.6283 92.546 73.9677C92.9971 74.1588 93.3012 73.6148 92.9993 73.2865C88.2665 68.0314 79.4966 65.8382 73.7917 61.4549C68.9537 57.7507 64.6668 54.1788 58.3483 54.1605C57.8327 54.1388 57.7732 55.0088 58.2929 55.0707Z" fill="white"/>
<path d="M139.039 48.2707C126.858 41.4805 118.477 26.5905 104.094 24.2595C103.53 24.1612 103.368 24.9924 103.93 25.148C118.411 29.1075 125.099 43.8576 138.655 49.0754C139.181 49.2754 139.556 48.545 139.039 48.2707Z" fill="white"/>
<path d="M103.757 25.0083C105.282 26.5588 108.3 32.1897 109.455 32.1636C108.828 32.1775 107.267 30.2638 106.826 29.8435C102.486 25.7471 96.8671 22.4636 91.6662 19.6109C80.9851 13.7216 68.2536 8.27438 55.829 8.64846C55.3173 8.66717 55.2644 9.52016 55.7736 9.55874C67.0293 10.3696 77.5676 13.7791 87.6118 18.8439C92.8223 21.4674 97.857 24.4508 102.567 27.9315C104.265 29.1794 108.029 31.1166 108.938 33.1119C109.106 33.4863 109.764 33.5426 109.82 33.0398C110.147 29.8853 106.336 26.339 104.252 24.4207C103.906 24.0561 103.411 24.6437 103.757 25.0083Z" fill="white"/>
<path d="M55.5452 9.47372C58.6712 11.7113 61.5328 14.6438 64.8322 16.5787C65.1962 16.7948 65.6657 16.275 65.3807 15.9531C62.9372 13.0439 59.356 10.5749 56.0904 8.65288C55.6207 8.35767 55.0883 9.14461 55.5452 9.47372Z" fill="white"/>
<path d="M66.4593 17.8178C48.0177 3.87169 23.2425 7.22874 1.99499 1.06259C1.60923 0.954571 1.38106 1.60505 1.77087 1.75342C23.1254 9.47375 46.23 5.71371 66.0552 18.4207C66.3958 18.6474 66.7935 18.0614 66.4593 17.8178Z" fill="white"/>
<path d="M2.32668 2.46667C13.4123 6.37553 20.0862 15.7069 29.5659 22.0508C38.3264 27.8882 49.2867 31.3614 54.547 41.1442C54.8562 41.7082 55.835 41.227 55.562 40.6186C51.6085 31.8376 41.9472 27.9081 34.1466 23.2704C23.0255 16.651 15.2092 5.68183 2.61534 1.60637C2.12789 1.45965 1.84568 2.303 2.32668 2.46667Z" fill="white"/>
<path d="M54.6809 39.6468C50.2776 38.1649 44.7826 36.8496 40.1291 37.5038C39.6554 37.5758 39.5991 38.2334 40.0825 38.3398C42.4656 38.8588 44.9914 38.85 47.4156 39.21C49.7422 39.5716 52.0317 40.1326 54.3019 40.7444C54.9483 40.9322 55.3144 39.8685 54.6809 39.6468Z" fill="white"/>
<path d="M39.9527 37.7646C47.8282 41.4412 48.9146 50.5668 54.1633 56.6586C59.1545 62.4584 66.4933 66.0666 73.3679 69.11C73.836 69.3076 74.3401 68.6457 73.8768 68.3336C65.3431 62.5631 56.5479 59.4678 51.3764 49.7575C48.5521 44.4332 46.337 39.0885 40.3882 36.8243C39.8055 36.622 39.3386 37.492 39.9527 37.7646Z" fill="white"/>
<path d="M137.381 49.1014C138.452 49.7031 139.381 50.425 140.501 50.9484C140.962 51.1629 141.248 50.5149 140.839 50.2624C139.811 49.5994 138.915 48.7927 137.838 48.208C137.249 47.8676 136.827 48.7739 137.381 49.1014Z" fill="white"/>
<path d="M144.187 49.7469C149.963 53.9438 154.866 58.2934 158.656 64.393C158.898 64.7762 159.543 64.4589 159.377 64.0272C156.784 57.4327 150.288 53.0391 144.699 49.1657C144.287 48.8729 143.781 49.4371 144.187 49.7469Z" fill="white"/>
<path d="M119.896 28.6826C127.21 33.0187 131.726 40.9853 139.41 44.7055C139.804 44.8942 140.242 44.3042 139.857 44.0413C132.815 39.246 127.763 32.0259 120.317 27.8336C119.779 27.5125 119.376 28.3681 119.896 28.6826Z" fill="white"/>
<path d="M25.9725 26.1589C30.5396 27.9748 34.112 30.5181 38.1653 33.2251C38.6117 33.5308 39.0876 32.994 38.7204 32.5826C35.5811 29.1563 30.7167 26.49 26.274 25.2647C25.7462 25.122 25.464 25.9654 25.9725 26.1589Z" fill="white"/>
</g>
</g>
<mask id="mask1_309_6822" style="mask-type:alpha" maskUnits="userSpaceOnUse" x="52" y="57" width="122" height="59">
<rect x="52" y="57" width="122" height="59" fill="url(#paint0_linear_309_6822)"/>
</mask>
<g mask="url(#mask1_309_6822)">
<g opacity="0.65">
<path d="M127.651 59.3664C130.176 57.475 133.546 56.2159 136.363 58.297C139.319 60.4701 138.881 64.0677 138.085 67.1796C137.832 68.1504 139.322 68.6204 139.738 67.731C143.683 59.2011 133.573 51.6081 126.955 58.5968C126.575 59.0343 127.182 59.7313 127.651 59.3664Z" fill="#48494E"/>
<path d="M138.018 68.8022C139.057 68.5187 140.265 68.4546 140.918 69.4405C141.616 70.4627 141.255 71.8193 142.059 72.7656C142.316 73.0577 142.732 73.1383 143.009 72.817C144.203 71.4666 143.304 68.9322 142.2 67.7552C140.904 66.3692 139.055 66.3834 137.396 67.0715C136.309 67.531 136.892 69.1108 138.018 68.8022Z" fill="#48494E"/>
<path d="M140.831 65.3357C142.555 65.5458 144.081 65.1564 145.69 66.0791C147.489 67.1131 148.742 68.9679 149.408 70.8899C150.063 72.7885 150.193 74.8946 149.578 76.8146C148.9 78.904 147.1 79.81 146.089 81.5985C145.841 82.0473 146.247 82.6096 146.732 82.561C149.112 82.3223 150.841 79.4102 151.463 77.3184C152.194 74.9384 151.971 72.3118 151.047 70.0002C149.732 66.7251 144.463 61.2466 140.656 64.5708C140.417 64.7903 140.419 65.2955 140.831 65.3357Z" fill="#48494E"/>
<path d="M145.521 79.887C145.474 80.4705 145.471 81.0902 145.349 81.6648C145.266 82.1377 144.963 82.5267 144.92 82.9956C144.886 83.3902 145.197 83.6443 145.58 83.5571C146.855 83.2662 146.751 80.9373 146.718 79.9544C146.683 79.2814 145.567 79.2059 145.521 79.887Z" fill="#48494E"/>
<path d="M148.203 81.0987C150.169 83.2245 151.217 86.2818 150.045 89.0565C148.619 92.3945 145.213 92.3204 142.207 91.4482C141.249 91.1612 140.717 92.7632 141.649 93.118C145.35 94.5073 149.713 93.9556 151.536 90.0316C153.113 86.654 151.966 82.3758 148.95 80.2577C148.354 79.8366 147.726 80.5679 148.203 81.0987Z" fill="#48494E"/>
<path d="M142.022 89.7302C141.785 93.055 140.816 95.9071 137.128 96.5214C133.77 97.0865 131.005 95.2773 129.058 92.6932C128.345 91.7622 127.021 92.6938 127.563 93.7152C129.524 97.3331 134.048 99.2103 138.02 98.2577C141.904 97.3302 144.336 93.5408 143.381 89.6265C143.225 88.9657 142.074 89.0322 142.022 89.7302Z" fill="#48494E"/>
<path d="M132.13 96.0365C129.577 99.8381 126.286 100.836 122.112 98.5492C117.747 96.1505 115.558 91.7081 116.371 86.8176C116.579 85.5579 114.762 85.2348 114.452 86.4559C112.974 92.2769 116.608 98.1231 121.86 100.588C125.941 102.509 132.321 102.008 133.159 96.5446C133.261 96.0209 132.485 95.5119 132.13 96.0365Z" fill="#48494E"/>
<path d="M129.165 56.782C127.505 54.3648 124.455 53.8638 121.775 54.9394C119.457 55.881 116.062 59.2455 117.351 62.0259C117.599 62.5471 118.246 62.58 118.548 62.0933C119.151 61.1199 119.087 59.9119 119.71 58.8877C120.333 57.8635 121.279 57.0595 122.372 56.583C124.348 55.7246 126.688 56.0524 128.289 57.5545C128.762 58.045 129.538 57.3314 129.165 56.782Z" fill="#48494E"/>
<path d="M122.031 61.2021C117.6 58.8753 112.544 61.6076 110.792 66.0052C109.267 69.8097 111.175 77.1331 116.375 76.7257C116.836 76.6876 117.199 76.0887 116.866 75.6902C115.564 74.1662 113.575 73.681 112.653 71.7196C111.906 70.1156 111.995 68.2482 112.625 66.6446C114.13 62.7933 117.768 61.4422 121.534 62.662C122.394 62.9506 122.789 61.6069 122.031 61.2021Z" fill="#48494E"/>
<path d="M113.801 74.8172C110.686 75.0481 108.613 77.9457 108.637 80.9427C108.657 84.5595 111.184 87.8108 114.296 89.4222C115.482 90.0287 116.284 88.2774 115.205 87.595C112.935 86.1681 110.95 84.0932 110.643 81.2794C110.336 78.4657 111.992 77.1748 114.193 75.8782C114.699 75.5666 114.359 74.7774 113.801 74.8172Z" fill="#48494E"/>
<path d="M126.558 63.9363C124.256 64.0693 122.081 65.2981 121.562 67.6812C121.08 69.865 122.153 72.7569 124.217 73.7561C124.825 74.0456 125.336 73.3668 125.037 72.8262C124.204 71.3449 122.923 70.2752 123.029 68.4143C123.147 66.4219 124.886 65.4732 126.652 65.1168C127.37 64.9633 127.328 63.8997 126.558 63.9363Z" fill="#48494E"/>
<path d="M119.301 73.7686C117.895 74.3009 116.944 75.2194 116.657 76.7399C116.384 78.1691 116.705 79.8241 117.746 80.8607C118.082 81.2019 118.602 80.8564 118.585 80.4424C118.547 79.4192 118.087 78.4873 118.113 77.4495C118.134 76.2738 118.837 75.3964 119.799 74.7538C120.319 74.4083 119.89 73.5466 119.301 73.7686Z" fill="#48494E"/>
<path d="M136.841 78.5638C136.806 80.4908 136.606 82.2388 134.858 83.4166C133.139 84.5671 131.612 83.8889 129.744 83.954C129.192 83.9767 129.102 84.6215 129.414 84.9733C131.089 86.7941 134.429 85.97 136.127 84.6178C137.932 83.1898 139.032 80.5039 137.982 78.319C137.685 77.7211 136.853 77.8698 136.841 78.5638Z" fill="#48494E"/>
<path d="M122.508 79.2575C122.405 80.1888 122.503 81.0022 123.015 81.7985C123.451 82.4883 124.175 83.2878 125.047 83.0374C125.348 82.9582 125.437 82.6233 125.368 82.3449C125.221 81.7648 124.644 81.5454 124.303 81.0662C123.951 80.5636 123.731 79.9173 123.647 79.3225C123.586 78.7173 122.587 78.5893 122.508 79.2575Z" fill="#48494E"/>
<path d="M119.159 87.8983C119.054 89.2944 119.285 90.3716 120.309 91.4018C121.234 92.336 122.671 93.0966 124.02 92.9695C124.423 92.929 124.653 92.3762 124.309 92.1092C123.52 91.4792 122.509 91.2301 121.72 90.6001C120.925 89.987 120.423 88.9615 120.339 87.9593C120.274 87.3138 119.211 87.2003 119.159 87.8983Z" fill="#48494E"/>
<path d="M129.627 70.249C131.921 70.0353 133.517 71.2445 135.545 72.0355C135.917 72.1774 136.469 71.7472 136.129 71.3656C134.382 69.381 131.989 68.2761 129.36 68.9636C128.629 69.1511 128.884 70.3154 129.627 70.249Z" fill="#48494E"/>
<path d="M117.118 40.3617C127.731 45.4101 139.687 49.631 148.287 57.9297C158.078 67.3803 161.918 82.8317 154.302 94.7375C137.071 121.708 106.91 93.2313 92.9355 78.1525C92.5407 77.7112 91.8009 78.3804 92.1489 78.8426C105.412 96.2505 137.935 123.415 155.759 95.8547C161.792 86.5285 161.291 74.5404 155.927 65.0287C147.908 50.8196 131.462 45.802 117.452 39.6353C117.001 39.4442 116.656 40.1472 117.118 40.3617Z" fill="#48494E"/>
<path d="M36.3115 13.2668C49.8724 18.37 56.3797 29.2096 62.6107 41.4381C67.7104 51.4897 74.4301 54.5324 84.1603 59.5553C84.7277 59.8488 85.3496 58.9796 84.7976 58.5948C78.9136 54.3761 72.07 52.7804 67.5089 46.7174C64.1328 42.2309 62.4318 36.8102 59.6495 31.987C54.5525 23.1006 46.5936 15.2593 36.5356 12.5759C36.1563 12.451 35.9217 13.1184 36.3115 13.2668Z" fill="#48494E"/>
<path d="M83.5994 57.1115C74.5854 59.23 66.3262 51.158 57.6345 54.2141C57.2093 54.3627 57.3547 55.0002 57.7921 54.9726C66.8953 54.5567 74.9773 60.6986 84.0493 58.4275C84.9417 58.2239 84.4684 56.9183 83.5994 57.1115Z" fill="#48494E"/>
<path d="M58.2929 55.0707C66.2078 55.8907 70.7156 61.5841 76.8691 65.8083C81.6223 69.0727 87.2661 71.6283 92.546 73.9677C92.9971 74.1588 93.3012 73.6148 92.9993 73.2865C88.2665 68.0314 79.4966 65.8382 73.7917 61.4549C68.9537 57.7507 64.6668 54.1788 58.3483 54.1605C57.8327 54.1388 57.7732 55.0088 58.2929 55.0707Z" fill="#48494E"/>
<path d="M91.4804 72.3945C87.4376 72.7185 83.6688 71.7109 79.6856 71.5725C79.3014 71.5621 79.1709 72.211 79.5333 72.3295C83.1456 73.6462 87.7559 74.0233 91.5517 73.4306C92.2206 73.3554 92.1598 72.3427 91.4804 72.3945Z" fill="#48494E"/>
<path d="M78.9878 72.9948C81.8237 73.8025 84.5813 74.5611 87.2471 75.8667C89.7498 77.091 91.9001 78.7825 94.2488 80.2586C94.6233 80.4981 95.1057 79.9444 94.8102 79.5991C91.2584 75.4726 84.5403 72.5275 79.1425 72.1805C78.6268 72.1589 78.4834 72.8416 78.9878 72.9948Z" fill="#48494E"/>
<path d="M39.9527 37.7646C47.8282 41.4412 48.9146 50.5668 54.1633 56.6586C59.1545 62.4584 66.4933 66.0666 73.3679 69.11C73.836 69.3076 74.3401 68.6457 73.8768 68.3336C65.3431 62.5631 56.5479 59.4678 51.3764 49.7575C48.5521 44.4332 46.337 39.0885 40.3882 36.8243C39.8055 36.622 39.3386 37.492 39.9527 37.7646Z" fill="#48494E"/>
<path d="M70.9262 67.5176C68.4417 68.1825 65.8765 68.4479 63.3961 69.1531C62.8498 69.3139 62.9542 70.1103 63.4779 70.2126C79.8545 73.3218 91.4608 86.1604 106.358 92.393C106.792 92.5777 107.294 91.9731 106.854 91.6504C98.0164 85.454 88.3287 79.5547 78.7252 74.6577C78.6574 74.6319 66.042 68.8796 65.8688 69.5898C65.9034 69.4477 70.6159 68.8936 71.3993 68.4156C71.923 68.1104 71.4829 67.3802 70.9262 67.5176Z" fill="#48494E"/>
<path d="M144.187 49.7469C149.963 53.9438 154.866 58.2934 158.656 64.393C158.898 64.7762 159.543 64.4589 159.377 64.0272C156.784 57.4327 150.288 53.0391 144.699 49.1657C144.287 48.8729 143.781 49.4371 144.187 49.7469Z" fill="#48494E"/>
<path d="M160.875 70.1287C161.473 70.8023 161.9 71.5664 162.167 72.4443C162.43 73.2818 162.445 74.1606 162.645 75.0127C162.757 75.4823 163.394 75.3369 163.502 74.9511C163.996 73.0433 162.965 70.8076 161.702 69.4345C161.263 68.9569 160.453 69.6576 160.875 70.1287Z" fill="#48494E"/>
<path d="M161.6 92.6986C159.435 96.5508 157.244 100.626 154.326 103.959C150.401 108.46 146.001 109.774 140.247 110.514C139.757 110.579 139.662 111.339 140.198 111.407C151.965 112.762 157.808 101.947 162.286 93.0373C162.511 92.599 161.835 92.2837 161.6 92.6986Z" fill="#48494E"/>
<path d="M91.555 87.6547C103.889 94.9104 114.745 107.172 129.027 110.532C129.562 110.658 129.874 109.787 129.348 109.587C115.148 104.532 105.592 92.6286 91.9623 86.8395C91.4264 86.6161 91.0683 87.353 91.555 87.6547Z" fill="#48494E"/>
<path d="M127.538 114.194C129.504 114.943 131.792 115.251 133.862 115.573C134.342 115.639 134.57 114.989 134.132 114.764C132.262 113.761 129.872 113.822 127.842 113.243C127.32 113.083 127.012 113.994 127.538 114.194Z" fill="#48494E"/>
<path d="M166.744 81.0954C165.598 88.5948 166.646 95.4747 160.766 101.289C160.418 101.642 160.921 102.105 161.308 101.903C168.07 98.0541 167.369 87.814 167.712 81.1532C167.747 80.6037 166.836 80.5483 166.744 81.0954Z" fill="#48494E"/>
<path d="M169.557 92.992C169.485 94.1484 169.323 95.2895 168.927 96.3807C168.582 97.3362 168.02 98.1506 167.615 99.0634C167.43 99.4976 167.961 99.8356 168.296 99.5167C169.949 97.8757 170.42 95.261 170.49 93.037C170.512 92.5213 169.602 92.4659 169.557 92.992Z" fill="#48494E"/>
<path d="M161.912 104.42C157.642 109.47 152.947 112.63 146.393 113.842C145.889 113.941 145.941 114.621 146.463 114.625C153.159 114.671 158.699 110.007 162.571 104.981C162.911 104.548 162.286 103.999 161.912 104.42Z" fill="#48494E"/>
</g>
</g>
<defs>
<linearGradient id="paint0_linear_309_6822" x1="53.9062" y1="58.7228" x2="125.718" y2="161.574" gradientUnits="userSpaceOnUse">
<stop stop-color="#EAD5C1"/>
<stop offset="0.527457" stop-color="#CFCFCF"/>
<stop offset="1" stop-color="#C7CFE2"/>
</linearGradient>
</defs>
</svg>
