<svg width="100" height="99" viewBox="0 0 100 99" fill="none" xmlns="http://www.w3.org/2000/svg">
<g filter="url(#filter0_dii_116_7437)">
<path d="M40.7166 20.7197C39.5067 21.9326 38.5574 23.3447 37.8953 24.918C37.2127 26.5469 36.867 28.2783 36.867 30.0596C36.8758 31.835 37.2274 33.5547 37.9188 35.1719C38.5838 36.7334 39.536 38.1338 40.7459 39.332C41.953 40.5303 43.3621 41.4678 44.9295 42.1211C46.5321 42.7861 48.2342 43.126 49.9891 43.126H50.0506C50.5919 43.1236 51.1319 43.0876 51.6669 43.0187C54.5726 42.6449 57.4335 41.7197 60.3631 41.7197C61.1073 41.7197 61.7108 41.1162 61.7108 40.3721C61.7108 37.4443 62.6344 34.5852 63.0092 31.6815C63.0784 31.1454 63.1147 30.6045 63.117 30.0625C63.1258 28.29 62.786 26.5645 62.1121 24.9414C61.4647 23.374 60.5213 21.9678 59.326 20.7578C58.1278 19.5479 56.7274 18.5986 55.1658 17.9307C53.5487 17.2393 51.8289 16.8877 50.0535 16.8789H49.9949C48.2342 16.8789 46.5233 17.2217 44.9119 17.8984C43.3387 18.5576 41.9266 19.5098 40.7166 20.7197Z" fill="white"/>
</g>
<g filter="url(#filter1_dii_116_7437)">
<path d="M44.5511 31.6406C45.4329 31.6406 46.1448 30.9082 46.1448 30C46.1448 29.0918 45.4329 28.3594 44.5511 28.3594C43.6692 28.3594 42.9573 29.0918 42.9573 30C42.9544 30.9082 43.6692 31.6406 44.5511 31.6406ZM50 31.6406C50.8818 31.6406 51.5938 30.9082 51.5938 30C51.5938 29.0918 50.8818 28.3594 50 28.3594C49.1182 28.3594 48.4062 29.0918 48.4062 30C48.4092 30.9082 49.1211 31.6406 50 31.6406Z" fill="#6A6A6A"/>
</g>
<g filter="url(#filter2_dii_116_7437)">
<path d="M57.043 30C57.043 30.2155 57.0017 30.4288 56.9217 30.6278C56.8416 30.8269 56.7242 31.0078 56.5762 31.1601C56.4282 31.3124 56.2525 31.4333 56.0591 31.5157C55.8658 31.5982 55.6585 31.6406 55.4492 31.6406C55.2399 31.6406 55.0327 31.5982 54.8393 31.5157C54.646 31.4333 54.4703 31.3124 54.3223 31.1601C54.1743 31.0078 54.0569 30.8269 53.9768 30.6278C53.8967 30.4288 53.8555 30.2155 53.8555 30C53.8555 29.5649 54.0234 29.1476 54.3223 28.8399C54.6212 28.5322 55.0265 28.3594 55.4492 28.3594C55.8719 28.3594 56.2773 28.5322 56.5762 28.8399C56.8751 29.1476 57.043 29.5649 57.043 30Z" fill="#6A6A6A"/>
</g>
<defs>
<filter id="filter0_dii_116_7437" x="0.850269" y="0.507689" width="98.2836" height="98.2804" filterUnits="userSpaceOnUse" color-interpolation-filters="sRGB">
<feFlood flood-opacity="0" result="BackgroundImageFix"/>
<feColorMatrix in="SourceAlpha" type="matrix" values="0 0 0 0 0 0 0 0 0 0 0 0 0 0 0 0 0 0 127 0" result="hardAlpha"/>
<feOffset dy="19.6455"/>
<feGaussianBlur stdDeviation="18.0083"/>
<feColorMatrix type="matrix" values="0 0 0 0 0.816667 0 0 0 0 0.172112 0 0 0 0 0.030625 0 0 0 0.25 0"/>
<feBlend mode="normal" in2="BackgroundImageFix" result="effect1_dropShadow_116_7437"/>
<feBlend mode="normal" in="SourceGraphic" in2="effect1_dropShadow_116_7437" result="shape"/>
<feColorMatrix in="SourceAlpha" type="matrix" values="0 0 0 0 0 0 0 0 0 0 0 0 0 0 0 0 0 0 127 0" result="hardAlpha"/>
<feOffset dy="-13.097"/>
<feGaussianBlur stdDeviation="8.18561"/>
<feComposite in2="hardAlpha" operator="arithmetic" k2="-1" k3="1"/>
<feColorMatrix type="matrix" values="0 0 0 0 0.904167 0 0 0 0 0.904167 0 0 0 0 0.904167 0 0 0 1 0"/>
<feBlend mode="normal" in2="shape" result="effect2_innerShadow_116_7437"/>
<feColorMatrix in="SourceAlpha" type="matrix" values="0 0 0 0 0 0 0 0 0 0 0 0 0 0 0 0 0 0 127 0" result="hardAlpha"/>
<feOffset dy="-4.91136"/>
<feGaussianBlur stdDeviation="3.27424"/>
<feComposite in2="hardAlpha" operator="arithmetic" k2="-1" k3="1"/>
<feColorMatrix type="matrix" values="0 0 0 0 1 0 0 0 0 1 0 0 0 0 1 0 0 0 0.75 0"/>
<feBlend mode="normal" in2="effect2_innerShadow_116_7437" result="effect3_innerShadow_116_7437"/>
</filter>
<filter id="filter1_dii_116_7437" x="26.5861" y="20.9179" width="41.3789" height="36.0237" filterUnits="userSpaceOnUse" color-interpolation-filters="sRGB">
<feFlood flood-opacity="0" result="BackgroundImageFix"/>
<feColorMatrix in="SourceAlpha" type="matrix" values="0 0 0 0 0 0 0 0 0 0 0 0 0 0 0 0 0 0 127 0" result="hardAlpha"/>
<feOffset dy="8.92975"/>
<feGaussianBlur stdDeviation="8.18561"/>
<feColorMatrix type="matrix" values="0 0 0 0 0 0 0 0 0 0 0 0 0 0 0 0 0 0 0.25 0"/>
<feBlend mode="normal" in2="BackgroundImageFix" result="effect1_dropShadow_116_7437"/>
<feBlend mode="normal" in="SourceGraphic" in2="effect1_dropShadow_116_7437" result="shape"/>
<feColorMatrix in="SourceAlpha" type="matrix" values="0 0 0 0 0 0 0 0 0 0 0 0 0 0 0 0 0 0 127 0" result="hardAlpha"/>
<feOffset dy="-5.95317"/>
<feGaussianBlur stdDeviation="3.72073"/>
<feComposite in2="hardAlpha" operator="arithmetic" k2="-1" k3="1"/>
<feColorMatrix type="matrix" values="0 0 0 0 0 0 0 0 0 0 0 0 0 0 0 0 0 0 0.29 0"/>
<feBlend mode="normal" in2="shape" result="effect2_innerShadow_116_7437"/>
<feColorMatrix in="SourceAlpha" type="matrix" values="0 0 0 0 0 0 0 0 0 0 0 0 0 0 0 0 0 0 127 0" result="hardAlpha"/>
<feOffset dy="-2.23244"/>
<feGaussianBlur stdDeviation="1.48829"/>
<feComposite in2="hardAlpha" operator="arithmetic" k2="-1" k3="1"/>
<feColorMatrix type="matrix" values="0 0 0 0 0 0 0 0 0 0 0 0 0 0 0 0 0 0 0.45 0"/>
<feBlend mode="normal" in2="effect2_innerShadow_116_7437" result="effect3_innerShadow_116_7437"/>
</filter>
<filter id="filter2_dii_116_7437" x="37.4843" y="20.9179" width="35.9299" height="36.0237" filterUnits="userSpaceOnUse" color-interpolation-filters="sRGB">
<feFlood flood-opacity="0" result="BackgroundImageFix"/>
<feColorMatrix in="SourceAlpha" type="matrix" values="0 0 0 0 0 0 0 0 0 0 0 0 0 0 0 0 0 0 127 0" result="hardAlpha"/>
<feOffset dy="8.92975"/>
<feGaussianBlur stdDeviation="8.18561"/>
<feColorMatrix type="matrix" values="0 0 0 0 0 0 0 0 0 0 0 0 0 0 0 0 0 0 0.25 0"/>
<feBlend mode="normal" in2="BackgroundImageFix" result="effect1_dropShadow_116_7437"/>
<feBlend mode="normal" in="SourceGraphic" in2="effect1_dropShadow_116_7437" result="shape"/>
<feColorMatrix in="SourceAlpha" type="matrix" values="0 0 0 0 0 0 0 0 0 0 0 0 0 0 0 0 0 0 127 0" result="hardAlpha"/>
<feOffset dy="-5.95317"/>
<feGaussianBlur stdDeviation="3.72073"/>
<feComposite in2="hardAlpha" operator="arithmetic" k2="-1" k3="1"/>
<feColorMatrix type="matrix" values="0 0 0 0 0 0 0 0 0 0 0 0 0 0 0 0 0 0 0.29 0"/>
<feBlend mode="normal" in2="shape" result="effect2_innerShadow_116_7437"/>
<feColorMatrix in="SourceAlpha" type="matrix" values="0 0 0 0 0 0 0 0 0 0 0 0 0 0 0 0 0 0 127 0" result="hardAlpha"/>
<feOffset dy="-2.23244"/>
<feGaussianBlur stdDeviation="1.48829"/>
<feComposite in2="hardAlpha" operator="arithmetic" k2="-1" k3="1"/>
<feColorMatrix type="matrix" values="0 0 0 0 0 0 0 0 0 0 0 0 0 0 0 0 0 0 0.45 0"/>
<feBlend mode="normal" in2="effect2_innerShadow_116_7437" result="effect3_innerShadow_116_7437"/>
</filter>
</defs>
</svg>
