<svg width="80" height="214" viewBox="0 0 80 214" fill="none" xmlns="http://www.w3.org/2000/svg">
<path fill-rule="evenodd" clip-rule="evenodd" d="M-98.7803 156.024C-99.5212 155.943 -99.7038 155.051 -99.1292 154.39C-98.3514 153.495 -96.3849 152.167 -92.2789 149.746C-88.0472 147.263 -87.3666 146.848 -84.0153 144.811C-82.3272 143.785 -80.8162 142.881 -80.6557 142.78C-80.4884 142.687 -79.7062 142.223 -78.9083 141.738C-76.8586 140.482 -74.9609 139.332 -73.8777 138.687C-72.5175 137.873 -68.771 135.581 -67.2084 134.585C-66.4517 134.116 -64.3189 132.779 -62.47 131.62C-53.1874 125.812 -43.0209 119.272 -42.9102 119.026C-42.8838 118.964 -43.8828 119.512 -45.1427 120.243C-48.2834 122.071 -53.9657 125.255 -55.7782 126.223C-56.0634 126.368 -57.7165 127.252 -59.4617 128.175C-64.1779 130.698 -68.2886 132.859 -71.0753 134.295C-73.8603 135.731 -79.7489 138.669 -83.1626 140.326C-85.3935 141.407 -87.7084 142.552 -88.3202 142.874C-89.8559 143.673 -90.5736 143.664 -90.5635 142.852C-90.5601 142.549 -90.4755 142.417 -90.1132 142.05C-89.8604 141.809 -89.6747 141.612 -89.691 141.614C-89.7254 141.619 -90.3961 141.992 -91.2108 142.444C-92.9142 143.386 -95.9924 144.842 -96.896 145.131C-98.1349 145.521 -98.8039 144.924 -98.275 143.915C-98.1129 143.595 -97.8858 143.434 -96.7535 142.848C-93.1702 140.962 -90.0233 139.192 -87.5786 137.699C-87.0161 137.351 -86.1251 136.811 -85.6136 136.505C-84.6148 135.906 -84.1612 135.635 -80.7003 133.522C-76.7104 131.067 -68.1223 125.392 -62.5907 121.53C-61.8179 120.99 -60.5392 120.103 -59.7492 119.561C-56.8657 117.596 -52.0495 114.272 -51.2007 113.68C-50.73 113.339 -49.7292 112.638 -48.9813 112.11C-48.2326 111.583 -47.2326 110.883 -46.7534 110.547C-46.2665 110.22 -45.0634 109.354 -44.0546 108.627C-43.0544 107.909 -41.6491 106.894 -40.9434 106.382C-39.2947 105.203 -35.7124 102.583 -33.7945 101.161C-31.2461 99.28 -30.8841 99.0143 -28.4196 97.214C-27.0997 96.2455 -25.7287 95.2355 -25.3917 94.9815C-25.0469 94.7185 -24.2064 94.101 -23.5326 93.6104C-22.8597 93.1207 -21.4966 92.1196 -20.4962 91.3851C-18.6035 89.9924 -17.3257 89.0381 -14.8784 87.2404C-14.0707 86.6453 -13.406 86.1309 -13.4057 86.0962C-13.4053 86.0615 -13.7743 86.2701 -14.2205 86.5659C-15.4055 87.3449 -24.1173 92.897 -26.302 94.2761C-28.2426 95.508 -29.6961 96.3954 -35.029 99.6624C-36.7757 100.721 -38.7409 101.931 -39.3967 102.352C-40.5399 103.066 -46.5111 106.716 -47.754 107.462C-48.0817 107.655 -48.8209 108.105 -49.416 108.457C-50.8772 109.338 -52.4978 110.301 -53.3379 110.8C-55.092 111.834 -63.0773 116.482 -64.2612 117.161C-64.9829 117.575 -66.3937 118.396 -67.4016 118.971C-74.6467 123.153 -83.2573 127.871 -89.4576 131.032C-90.2374 131.429 -91.1861 131.919 -91.5549 132.11C-91.9238 132.302 -92.7545 132.74 -93.3931 133.074C-94.0317 133.407 -95.3486 134.105 -96.3129 134.615C-98.0833 135.567 -98.61 135.707 -99.0155 135.354C-99.2386 135.16 -99.1884 134.436 -98.9262 134.135C-98.6979 133.872 -95.7993 132.006 -92.1538 129.781C-91.0204 129.093 -89.7764 128.331 -89.3986 128.096C-89.0207 127.862 -88.4497 127.522 -88.122 127.328C-86.0735 126.173 -81.5894 123.5 -78.2641 121.476C-76.8364 120.601 -75.4762 119.786 -75.2579 119.652C-75.0312 119.525 -74.141 118.984 -73.2929 118.459C-72.4364 117.941 -70.9664 117.033 -70.0173 116.441C-66.1795 114.094 -62.6594 111.897 -60.9121 110.788C-57.199 108.418 -50.6016 104.082 -47.2735 101.821C-46.7521 101.471 -45.0963 100.351 -43.5752 99.3174C-42.0619 98.2943 -40.3809 97.1435 -39.8352 96.7658C-39.2974 96.3972 -38.5573 95.88 -38.1964 95.631C-37.827 95.3894 -36.9437 94.7741 -36.2286 94.2685C-35.5136 93.7629 -34.27 92.8822 -33.4619 92.3208C-32.0491 91.3295 -28.4835 88.7456 -25.1696 86.3006C-22.0909 84.0438 -17.4816 80.5248 -14.1823 77.9303C-11.5986 75.8918 -7.39049 72.5517 -6.22852 71.6159C-0.546548 67.0309 1.3396 65.4624 0.381518 66.0968C0.08707 66.3019 -3.75601 69.1056 -8.1547 72.3309C-11.7967 75.0027 -12.3347 75.3887 -15.5211 77.6185C-17.3121 78.8788 -18.9934 80.0625 -19.2629 80.2543C-20.1714 80.8985 -25.1981 84.3632 -27.7026 86.0604C-28.5175 86.6142 -29.678 87.4163 -30.2831 87.8281C-31.8718 88.9224 -33.6457 90.1116 -34.9819 90.9977C-37.5784 92.734 -40.6707 94.7564 -41.5283 95.2924C-42.0321 95.6047 -43.3851 96.4603 -44.5439 97.1938C-53.4996 102.876 -62.1731 108 -70.1461 112.317C-80.8798 118.125 -96.5747 126.073 -97.6448 126.236C-97.8628 126.269 -98.1202 126.233 -98.211 126.154C-98.4502 125.946 -98.385 125.337 -98.089 124.996C-97.5734 124.403 -94.7155 122.433 -91.6076 120.544C-90.725 119.996 -89.1214 119.018 -88.0379 118.356C-86.9622 117.703 -85.4929 116.78 -84.7784 116.325C-83.5013 115.506 -76.3441 110.992 -74.8902 110.07C-74.4778 109.813 -73.3451 109.11 -72.3702 108.506C-69.2703 106.574 -63.5915 102.944 -59.3065 100.149C-57.0205 98.6703 -55.0043 97.3515 -54.8111 97.2285C-54.1976 96.8397 -49.206 93.532 -45.4495 91.03C-43.4332 89.6938 -41.3987 88.3385 -40.9455 88.033C-39.3313 86.9608 -36.8435 85.2159 -29.6466 80.1387C-28.0827 79.0403 -28.897 79.4597 -31.1229 80.9204C-35.6185 83.8563 -44.3057 89.4298 -47.07 91.1587C-48.7075 92.1755 -52.1935 94.3167 -52.9914 94.8011C-56.1153 96.6593 -59.6842 98.781 -61.8082 100.023C-65.8382 102.391 -68.4425 103.986 -72.7272 106.679C-76.4486 109.026 -80.9754 111.765 -82.2088 112.433C-82.5027 112.588 -83.6354 113.207 -84.7183 113.819C-94.8237 119.439 -96.9955 120.437 -97.4796 119.692C-97.7828 119.241 -97.7454 118.881 -97.3585 118.535C-97.1731 118.354 -96.1825 117.799 -95.1591 117.29C-93.2385 116.314 -92.9283 116.158 -89.0751 114.045C-85.3235 111.98 -84.5925 111.574 -82.6281 110.431C-78.7579 108.181 -76.7247 106.943 -72.407 104.21C-70.878 103.236 -69.2145 102.189 -68.7107 101.877C-64.1741 99.0274 -57.8381 94.79 -52.7922 91.221C-49.4043 88.8245 -49.4699 88.7833 -53.0739 91.062C-54.5107 91.9815 -55.9472 92.882 -56.2663 93.0657C-56.5855 93.2668 -57.5854 93.8825 -58.5007 94.4524C-59.4085 95.0289 -60.6422 95.7989 -61.2392 96.1687C-61.8353 96.5376 -62.6584 97.051 -63.0708 97.3078C-63.9527 97.8718 -69.5124 101.266 -70.5042 101.855C-75.7695 104.976 -80.1252 107.436 -85.8068 110.485C-87.9047 111.614 -90.1458 112.825 -90.775 113.165C-93.3101 114.546 -95.5666 115.691 -95.9095 115.785C-96.3279 115.9 -96.9843 115.687 -97.1889 115.373C-97.3691 115.097 -97.1851 114.284 -96.8639 113.914C-96.4586 113.448 -95.8701 113.071 -93.3691 111.679C-90.6501 110.169 -88.4248 108.911 -87.4922 108.338C-87.148 108.126 -86.6359 107.836 -86.3755 107.687C-85.9135 107.44 -84.6209 106.687 -79.3649 103.626C-74.8642 101.001 -72.5552 99.613 -70.5888 98.3685C-70.2858 98.1708 -69.0686 97.4198 -67.9013 96.6937C-66.734 95.9676 -64.9196 94.8312 -63.8522 94.155C-55.3005 88.7373 -51.7796 86.4722 -51.7793 86.3708C-51.7865 86.3294 -52.1988 86.5689 -52.7191 86.9019C-53.9454 87.6959 -56.8024 89.5143 -58.6333 90.6697C-63.8166 93.9633 -70.693 97.9711 -75.1072 100.296C-75.4597 100.484 -75.77 100.658 -75.7874 100.678C-75.8048 100.698 -76.2237 100.929 -76.7192 101.182C-77.2146 101.435 -78.1119 101.918 -78.7074 102.236C-79.3117 102.565 -80.419 103.138 -81.1574 103.519C-82.7841 104.341 -84.1353 105.044 -85.4787 105.737C-90.026 108.099 -91.2659 108.574 -91.904 108.192C-92.3848 107.91 -92.4267 107.225 -92.0022 106.586C-91.3574 105.627 -88.9268 103.866 -81.3135 98.861C-80.3054 98.2016 -78.1871 96.7824 -75.8251 95.1822C-74.3031 94.1492 -68.1357 90.0387 -66.2697 88.8104C-65.656 88.4042 -64.7574 87.804 -64.2688 87.4766C-63.782 87.1495 -62.3611 86.1986 -61.1171 85.3517C-57.9827 83.2467 -56.6038 82.2944 -54.5857 80.8739C-53.6272 80.2047 -51.9294 79.002 -50.7852 78.2032C-49.6583 77.407 -48.5823 76.6524 -48.406 76.5164C-48.2375 76.3894 -46.354 75.057 -44.2434 73.5627C-42.1337 72.0694 -39.997 70.5468 -39.4926 70.1824C-38.9882 69.818 -36.9109 68.314 -34.85 66.8273C-30.8043 63.9087 -26.6497 60.8306 -26.5393 60.6865C-26.4968 60.6375 -28.7913 62.1087 -31.6222 63.9656C-38.9494 68.7421 -43.335 71.5685 -45.9473 73.1894C-54.5149 78.4917 -68.0317 86.318 -74.1149 89.4972C-74.6603 89.7734 -75.7599 90.3549 -76.5649 90.7806C-78.8305 91.9684 -86.7307 95.8365 -87.4594 96.1077C-88.5897 96.524 -89.3048 96.2793 -89.3199 95.4966C-89.3361 94.6638 -88.7033 94.0867 -85.0216 91.5354C-83.0373 90.1539 -77.7762 86.6371 -76.7012 85.9675C-75.8531 85.4425 -71.7704 82.8805 -70.6615 82.172C-70.25 81.9161 -69.595 81.495 -69.1826 81.2382C-62.4866 76.9719 -43.6965 64.5629 -39.7277 61.7825C-39.0387 61.3069 -37.7943 60.4252 -36.9533 59.8415C-34.0025 57.7645 -28.0485 53.4335 -27.988 53.3143C-27.9624 53.2506 -28.8698 53.7941 -30.0125 54.5416C-31.155 55.2717 -32.5581 56.1697 -33.1214 56.5162C-33.6926 56.8734 -34.827 57.5772 -35.6414 58.0806C-36.4645 58.594 -38.2201 59.6799 -39.5468 60.4883C-40.8822 61.3066 -42.8982 62.5413 -44.0403 63.2385C-45.1748 63.9422 -46.5015 64.7523 -46.9802 65.0357C-47.8031 65.5317 -49.2471 66.4099 -53.9011 69.2608C-56.1095 70.6175 -59.3432 72.5695 -59.8215 72.8181C-59.9811 72.9178 -60.7202 73.3517 -61.4584 73.7846C-62.1889 74.2242 -64.7158 75.7142 -67.0753 77.0939C-69.4263 78.481 -71.9368 79.9677 -72.6596 80.3982C-73.5161 80.9159 -74.1026 81.1914 -74.3452 81.2032C-74.8456 81.2117 -75.2661 80.8286 -75.2446 80.3705C-75.2123 79.7833 -74.69 79.2818 -72.6983 77.9243C-72.5137 77.8113 -71.8996 77.3722 -71.345 76.9673C-69.722 75.7837 -69.7393 75.8036 -65.3669 72.7764C-63.3326 71.37 -61.8195 70.3643 -57.8199 67.73C-56.4915 66.8529 -52.2306 63.9864 -50.7939 63.0002C-50.0704 62.5019 -49.037 61.7962 -48.482 61.425C-47.9441 61.0563 -46.7335 60.2136 -45.8087 59.5678C-43.421 57.8884 -41.1257 56.2828 -38.3089 54.3102C-34.3654 51.5588 -33.273 50.7852 -33.2722 50.7175C-33.2718 50.6845 -35.0349 51.678 -37.1839 52.9321C-39.3338 54.1872 -41.5828 55.4911 -42.1622 55.8236C-46.5351 58.286 -48.0291 59.1207 -49.0443 59.6547C-49.6735 59.9947 -51.0249 60.715 -52.023 61.2464C-53.0297 61.7877 -54.7835 62.7209 -55.9254 63.3166C-57.0665 63.9286 -58.9047 64.8919 -60.0206 65.475C-61.1281 66.0655 -62.563 66.8149 -63.2083 67.141C-65.6745 68.4104 -66.2958 68.7415 -66.3297 68.7805C-66.3635 68.8194 -66.9254 69.1163 -69.8707 70.6354C-70.71 71.0663 -71.1039 71.2025 -71.5373 71.2009C-72.4127 71.1903 -72.7161 70.7564 -72.4883 69.7764C-72.4179 69.4625 -72.2908 69.282 -71.869 68.8808C-70.9078 67.9755 -69.0832 66.6937 -65.9167 64.7025C-63.3802 63.1191 -61.9521 62.2096 -57.8677 59.5806C-52.6417 56.2207 -51.6501 55.5803 -50.2811 54.7404C-49.6513 54.3499 -48.9284 53.902 -48.6849 53.7385C-48.4415 53.5749 -47.383 52.9243 -46.3332 52.2837C-43.6031 50.6284 -41.6047 49.3626 -41.6039 49.2949C-41.6027 49.261 -42.3578 49.5951 -43.2803 50.0396C-51.5317 53.9776 -53.3524 54.8368 -54.9614 55.5366C-55.5735 55.8073 -56.6799 56.2954 -57.4341 56.6302C-59.6468 57.608 -62.5712 58.8034 -63.87 59.2626C-65.2598 59.7444 -65.9535 59.8075 -66.491 59.4595C-66.8312 59.2497 -66.8629 59.1696 -66.8564 58.5283L-66.857 57.8283L-66.0631 57.0161C-65.6332 56.5712 -64.7904 55.8347 -64.1846 55.3726C-63.0319 54.4971 -59.8635 52.3358 -58.5705 51.549C-56.0845 50.0409 -53.9016 48.7462 -53.0532 48.2722C-51.4834 47.4 -50.5856 46.8674 -50.5848 46.7997C-50.5836 46.7657 -51.3462 47.0074 -52.2845 47.3365C-55.3911 48.4243 -56.4591 48.4864 -56.758 47.5779C-56.9356 46.9975 -56.6793 46.4525 -55.8694 45.7383C-54.6148 44.6446 -52.6803 43.2707 -48.3106 40.4129C-42.2597 36.4553 -37.8269 33.84 -33.9101 31.9365C-31.9056 30.9652 -31.0098 30.601 -30.7845 30.6759C-30.4689 30.796 -31.2254 31.3339 -33.9289 32.9089C-38.815 35.7613 -41.0075 37.1494 -45.8505 40.5021C-48.3223 42.1943 -51.947 44.846 -51.9559 44.9574C-51.9493 45.0491 -49.6701 44.1799 -47.2977 43.1691C-44.0129 41.7751 -43.099 41.4091 -40.9461 40.6335C-39.0364 39.9375 -38.7857 39.8837 -38.3529 40.0197C-37.9123 40.1468 -37.8461 40.2043 -37.6917 40.5595C-37.3989 41.2574 -37.7748 41.9896 -38.7495 42.6604C-39.3962 43.1045 -42.6973 45.0996 -43.8388 45.7464C-44.3251 46.0231 -45.1228 46.4902 -45.6015 46.7736C-46.0801 47.057 -47.5995 47.938 -48.9602 48.7186C-52.7885 50.904 -54.8203 52.09 -56.7018 53.254C-58.9105 54.6281 -61.0794 56.0541 -61.0804 56.1392C-61.0813 56.2243 -58.5166 55.1755 -55.7263 53.9495C-53.3372 52.9024 -42.1744 47.4842 -39.5906 46.112C-38.6504 45.6146 -37.5431 45.0414 -37.133 44.8352C-36.722 44.6297 -35.3042 43.8655 -33.9861 43.1338C-32.6679 42.4021 -29.8653 40.845 -27.7583 39.6718C-22.21 36.5922 -20.4128 35.5424 -17.9849 33.9505C-16.7914 33.1788 -15.675 32.4769 -15.4901 32.415C-14.7443 32.1412 -13.9022 32.8908 -14.1526 33.5952C-14.3765 34.2193 -14.9238 34.6656 -17.2337 36.1391C-19.6119 37.6568 -21.0065 38.5604 -23.6617 40.3317C-26.9229 42.5157 -32.6877 46.3275 -35.6956 48.3041C-39.2333 50.6229 -41.5941 52.1206 -49.0117 56.7835C-52.5569 59.0099 -54.666 60.3688 -54.7502 60.4656C-55.1481 60.9559 -43.957 54.5544 -37.1285 50.3858C-36.2719 49.8682 -34.7597 48.9458 -33.7687 48.3558C-27.6139 44.6778 -25.4123 43.3135 -20.9596 40.4595C-12.7925 35.2017 -10.6687 33.9748 -9.92695 34.0569C-9.43582 34.1087 -9.20402 34.2927 -9.05942 34.7602C-8.9074 35.2517 -9.01194 35.7061 -9.37563 36.1244C-9.54489 36.3192 -11.3781 37.6777 -13.4466 39.156C-15.515 40.6344 -18.2061 42.5463 -19.4171 43.4219C-20.628 44.2976 -22.1083 45.3494 -22.7135 45.763C-23.311 46.1831 -24.0667 46.7201 -24.3948 46.9468C-24.7144 47.1808 -25.2023 47.5245 -25.4794 47.7114C-25.748 47.9039 -26.2368 48.2486 -26.5564 48.4826C-26.876 48.7167 -28.003 49.5129 -29.0453 50.2442C-30.0884 50.9765 -31.8026 52.1826 -32.8373 52.9222C-33.8719 53.6619 -35.1413 54.5552 -35.6457 54.9179C-36.8235 55.7382 -44.5077 61.1755 -44.7937 61.388C-44.9112 61.4735 -44.9617 61.5487 -44.9119 61.5411C-44.6203 61.5054 -32.5787 53.6922 -26.5358 49.6085C-25.4429 48.8686 -21.8299 46.4802 -18.5104 44.296C-15.1909 42.1117 -11.4506 39.6114 -10.1899 38.7281C-6.7601 36.333 -4.15512 34.604 -3.8112 34.4928C-2.9995 34.2254 -2.23795 34.7507 -2.28065 35.5673C-2.31313 36.2386 -2.82733 36.7137 -6.10028 39.1768C-9.25492 41.5551 -12.014 43.6446 -14.9849 45.9109C-19.2164 49.1273 -27.4607 55.3083 -30.3788 57.4488C-37.9062 62.9558 -42.7324 66.3389 -49.0018 70.5324C-49.733 71.0241 -51.3886 72.1268 -52.6576 72.987C-57.7516 76.4108 -64.903 81.1683 -66.7766 82.3901C-67.7931 83.0421 -68.8433 83.7174 -72.7831 86.2144C-77.371 89.1228 -79.9246 90.7772 -80.0511 90.9056C-80.3044 91.1798 -75.1794 88.5701 -71.9389 86.7782C-71.0156 86.266 -70.0424 85.7306 -69.7735 85.5875C-69.3202 85.3504 -68.3881 84.8109 -65.6177 83.2257C-65.0382 82.8932 -63.6109 82.0514 -62.4518 81.369C-61.3012 80.6793 -59.5125 79.6221 -58.4803 79.0188C-51.7206 75.0288 -44.5802 70.4843 -36.9734 65.3707C-35.9727 64.6873 -34.0822 63.412 -32.771 62.5375C-31.4683 61.6556 -29.7954 60.5329 -29.0727 60.0339C-28.3492 59.5357 -27.3831 58.8748 -26.929 58.5683C-26.475 58.2636 -25.0795 57.2923 -23.8264 56.4007C-22.5735 55.5264 -21.2281 54.58 -20.8335 54.3095C-20.4466 54.0305 -19.6727 53.4743 -19.1182 53.0694C-18.5636 52.6644 -17.4779 51.8831 -16.7125 51.3196C-15.9473 50.7734 -14.5264 49.7384 -13.5589 49.0263C-12.5837 48.3208 -11.2379 47.3397 -10.565 46.85C-9.89297 46.3596 -9.21072 45.8763 -9.0596 45.7692C-8.90847 45.6622 -8.49654 45.3716 -8.1424 45.115C-7.78913 44.8594 -6.63679 44.0169 -5.57696 43.2482C-3.54195 41.7741 -0.487839 39.4959 0.227109 38.9236C2.82852 36.8321 3.27232 36.6043 3.9437 37.0004C4.22544 37.1594 4.28233 37.2772 4.29363 37.7148C4.31217 38.3445 4.09935 38.6047 2.60116 39.8794C1.43098 40.8589 1.03518 41.1634 -2.20431 43.6223C-3.46602 44.5906 -5.64606 46.3138 -7.03554 47.4446C-9.40133 49.3815 -10.6645 50.4011 -14.3161 53.3186C-15.1331 53.9741 -16.3113 54.9132 -16.9251 55.4035C-21.8744 59.3615 -31.3571 66.6346 -35.1826 69.401C-36.0739 70.0426 -38.1764 71.5773 -40.6823 73.4099C-46.275 77.5256 -52.6417 82.1308 -54.8781 83.6858C-55.5931 84.1915 -56.4506 84.7941 -56.7617 85.0356C-57.0813 85.2696 -58.0985 85.9737 -58.9981 86.5906C-59.9056 87.2182 -61.0324 87.997 -61.5116 88.3307C-61.9824 88.6718 -63.5708 89.7488 -65.034 90.7313C-66.4963 91.7128 -68.6474 93.1543 -69.7998 93.9284C-72.1703 95.5212 -73.2545 96.2511 -75.3137 97.6691C-76.885 98.7434 -79.8357 100.736 -81.3901 101.757C-81.9278 102.108 -82.3735 102.438 -82.3739 102.473C-82.3753 102.591 -76.544 99.5693 -72.9691 97.5913C-67.1692 94.3885 -62.1884 91.3449 -53.9368 85.9556C-44.0048 79.4675 -38.6749 75.7878 -29.8944 69.3909C-28.6072 68.4447 -27.4549 67.6022 -27.3374 67.5167C-27.2284 67.4239 -26.7405 67.0802 -26.2689 66.7381C-25.7982 66.397 -24.3434 65.3231 -23.0226 64.3553C-21.7111 63.3794 -20.272 62.3252 -19.8349 62.0057C-16.017 59.2309 -14.2252 57.9047 -10.7171 55.2534C-5.32436 51.1689 -2.07706 48.6993 -0.822988 47.7244C-0.250885 47.2838 0.481054 46.7245 0.809151 46.4978C1.12877 46.2638 2.23112 45.4462 3.24796 44.6928C5.72063 42.8488 7.29377 41.6902 8.76573 40.6136C10.3801 39.44 14.233 36.5256 15.5468 35.4991C17.5505 33.9119 19.4163 32.5484 19.7268 32.4414C20.2628 32.2411 20.6953 32.3279 21.0165 32.7087C21.3623 33.111 21.3902 33.5122 21.1339 34.0572C20.9206 34.503 21.0045 34.4391 17.8981 36.9453C16.8121 37.8279 14.455 39.7549 12.6539 41.2272L9.3871 43.9008L9.39773 44.4728C9.40064 44.9696 9.34933 45.1126 9.01081 45.502C8.57161 46.0073 5.36926 48.8911 3.69324 50.2847C1.94209 51.7321 -0.39876 53.6573 -0.85254 54.0132C-1.07985 54.1907 -2.44311 55.2759 -3.88236 56.4142C-7.17355 59.049 -10.3805 61.587 -11.802 62.6723C-15.3694 65.4089 -19.163 68.238 -21.8957 70.1978C-25.0077 72.4432 -26.6312 73.6598 -32.1085 77.8758C-39.883 83.8675 -42.2309 85.6674 -45.0907 87.8059C-46.798 89.0864 -48.2202 90.1554 -48.2453 90.1843C-48.4139 90.3954 -47.4571 89.7949 -43.3645 87.1222C-32.7602 80.1948 -26.2207 75.7574 -19.4772 70.9346C-17.3415 69.4113 -14.0699 67.0662 -12.2035 65.7365C-5.31694 60.833 -2.07888 58.4254 4.28255 53.5264C9.27243 49.6878 11.9796 47.7917 12.681 47.6512C12.8734 47.6133 13.1816 47.6253 13.3643 47.6824C13.647 47.7581 13.7129 47.8312 13.8091 48.1883C13.8734 48.4142 13.878 48.7601 13.8176 48.946C13.6708 49.4319 14.2172 48.9866 5.67777 55.5071C4.49988 56.4116 1.75699 58.5168 -0.422477 60.1896C-6.00946 64.4821 -5.86595 64.3667 -12.2004 69.1524C-18.3086 73.7772 -19.9985 75.0376 -24.1872 78.1054C-25.6515 79.1885 -27.1899 80.309 -27.5942 80.6062C-33.4652 84.941 -44.705 92.7501 -50.8395 96.7541C-51.4523 97.1593 -53.6886 98.6303 -55.7982 100.04C-63.7567 105.342 -68.2018 108.202 -76.4585 113.365C-76.8787 113.631 -77.6017 114.078 -78.0547 114.367C-78.4999 114.646 -79.1384 115.046 -79.449 115.237C-79.7767 115.431 -80.3893 115.819 -80.8258 116.088C-82.0693 116.884 -83.9508 118.048 -86.3195 119.488C-87.5203 120.219 -88.5041 120.85 -88.5121 120.877C-88.5128 120.944 -84.3189 118.856 -81.8018 117.545C-71.3054 112.042 -64.9513 108.469 -57.2152 103.739C-55.3002 102.571 -54.6539 102.16 -52.5952 100.86C-52.0913 100.548 -50.7892 99.7166 -49.6969 99.0271C-46.8572 97.2287 -42.4378 94.3632 -40.3529 92.9482C-39.3533 92.2815 -38.2691 91.5516 -37.924 91.338C-37.0419 90.7566 -32.7038 87.7346 -28.9453 85.0625C-18.1072 77.3812 -16.4417 76.166 -10.6966 71.8252C3.20119 61.3078 6.07854 59.132 7.31573 58.2107C8.07244 57.6571 10.0581 56.1576 11.7319 54.8814C17.9664 50.1456 19.3432 49.2949 20.3751 49.559C21.1403 49.7631 21.298 50.5822 20.7703 51.4891C20.4635 52.0253 18.5869 53.5845 14.5056 56.6947C12.2338 58.4241 7.36058 62.329 3.31114 65.6528C2.64529 66.2012 1.40885 67.2073 0.574508 67.8827C-0.881429 69.0573 -2.57336 70.4194 -5.73859 72.9762C-6.52191 73.61 -7.70037 74.5648 -8.36517 75.0966C-9.02129 75.6184 -10.0906 76.4647 -10.7217 76.9732C-16.0581 81.2275 -22.4026 86.1395 -26.431 89.1239C-31.192 92.6495 -32.3943 93.5152 -38.7175 97.9864C-40.9957 99.6067 -51.6466 106.939 -52.2938 107.349C-52.4534 107.449 -53.6972 108.28 -55.0757 109.198C-59.3539 112.067 -61.7315 113.618 -65.2344 115.813C-67.0999 116.991 -68.6205 117.973 -68.6209 118.008C-68.6218 118.093 -67.1445 117.226 -61.61 113.929C-55.1939 110.101 -53.6568 109.167 -48.8434 106.166C-46.5078 104.697 -45.7106 104.196 -41.6436 101.585C-40.5597 100.889 -38.7036 99.7042 -37.5179 98.9416C-36.3332 98.1955 -35.2331 97.497 -35.082 97.3899C-34.9224 97.2903 -33.4604 96.3418 -31.8046 95.2883C-28.4442 93.1239 -24.8728 90.7835 -20.46 87.8264C-18.8131 86.7319 -17.0481 85.57 -16.5519 85.2493C-15.048 84.3039 -4.94713 77.6541 -2.64382 76.0889C0.00390984 74.2937 0.852501 73.7183 2.26486 72.76C2.86156 72.3408 4.2489 71.3958 5.34097 70.6552C9.98993 67.4932 12.5203 65.6994 15.6085 63.3649C17.1145 62.2338 18.535 61.2318 18.7699 61.1467C19.4737 60.8715 20.1548 61.1725 20.2888 61.8184C20.3587 62.221 20.2029 62.8183 19.9234 63.1399C19.6274 63.4803 16.2791 66.0147 12.2415 68.9736C10.3411 70.3597 6.73166 73.1105 1.04332 77.5025C-0.799168 78.9213 -17.0357 91.1783 -19.6102 93.088C-20.7377 93.9345 -23.168 95.747 -24.9936 97.1121C-32.2451 102.535 -33.7415 103.657 -34.9199 104.527C-35.5928 105.017 -36.7703 105.888 -37.5185 106.449C-38.2839 107.013 -39.3604 107.818 -39.9237 108.233C-40.4869 108.648 -41.5133 109.41 -42.2027 109.921C-42.8929 110.431 -43.6998 111.026 -43.9943 111.231C-44.2974 111.446 -46.1387 112.765 -48.0812 114.165C-50.0324 115.575 -52.278 117.191 -53.093 117.744C-54.8252 118.952 -55.7154 119.577 -59.2896 122.087C-60.761 123.112 -62.0726 124.021 -62.2311 124.104C-62.6675 124.356 -62.7361 124.519 -62.3 124.282C-60.9234 123.533 -49.0648 116.364 -45.8905 114.362C-36.8431 108.674 -18.4034 96.2688 -12.2464 91.7215C-11.9604 91.509 -9.46265 89.7202 -6.6965 87.7561C-3.92949 85.7911 -1.48276 84.0438 -1.25544 83.8662C-1.02813 83.6887 -0.447732 83.2711 0.0306504 82.9367C2.33453 81.3211 6.72456 78.1058 10.9981 74.8909C12.6215 73.6743 14.4973 72.2669 15.1702 71.7754C16.6675 70.6543 19.0233 68.8437 20.5887 67.61C22.6002 66.0138 27.5581 61.9773 29.5203 60.354C33.3428 57.1747 35.3805 55.5312 35.6147 55.428C35.9255 55.288 36.5415 55.3624 36.7977 55.5851C36.8885 55.664 36.9687 55.9896 36.965 56.3108C36.9585 56.8854 36.9585 56.8854 36.1643 57.799C34.7104 59.4716 31.6695 62.1697 27.8741 65.1515C25.6104 66.9213 15.8093 74.326 12.5803 76.6906C12.2607 76.9246 11.5203 77.4766 10.9321 77.9031C8.79573 79.4768 7.0795 80.7161 6.43283 81.1602C6.07192 81.4092 5.38967 81.8925 4.91892 82.2336C4.44817 82.5747 3.7668 83.0588 3.40589 83.3077C3.04499 83.5567 2.49839 83.9353 2.20394 84.1404C1.90082 84.3555 1.24547 84.8096 0.724959 85.1583C-4.47009 88.7326 -5.64742 89.5867 -11.3175 93.8069C-12.0994 94.3894 -13.3952 95.3456 -14.1856 95.9225C-14.9675 96.505 -15.7839 97.1101 -15.9852 97.2594C-16.3137 97.5208 -20.2241 100.368 -22.4447 101.971C-25.5567 104.217 -32.0225 108.802 -33.1992 109.606C-33.9641 110.119 -35.4939 111.161 -36.6196 111.924C-39.0491 113.584 -46.0411 118.191 -48.7461 119.901C-54.6862 123.682 -57.7267 125.595 -61.1118 127.671C-61.582 127.962 -62.078 128.265 -62.2039 128.344C-63.3464 129.074 -57.6147 125.983 -53.4762 123.642C-42.8065 117.59 -29.745 109.503 -19.1222 102.386C-15.1972 99.7553 -14.7267 99.4316 -13.1545 98.3562C-12.3395 97.8025 -11.5496 97.2603 -11.3891 97.1596C-9.7931 96.1751 -0.817556 89.5025 6.56091 83.8328C7.30065 83.2644 8.97532 81.989 10.263 80.9924C11.5584 80.0025 13.9402 78.1637 15.5719 76.9034C17.2044 75.6422 19.1144 74.1628 19.83 73.6068C20.5456 73.0508 21.6389 72.2095 22.2707 71.7174C25.0137 69.5966 27.562 67.7325 28.0316 67.4921C28.8957 67.0651 29.6581 67.4387 29.6494 68.2831C29.6402 69.0937 29.1584 69.6479 25.9653 72.4714C23.674 74.4906 17.0833 79.7372 15.1077 81.1087C14.8391 81.3012 13.9642 81.9239 13.173 82.5C10.7676 84.2324 3.97384 89.0291 2.11678 90.2985C1.54525 90.6887 0.309696 91.543 -0.615126 92.1906C-2.64936 93.5971 -6.35597 96.0759 -10.8344 99.0092C-15.0868 101.799 -15.8681 102.331 -18.0126 103.864C-18.9878 104.57 -20.2995 105.495 -20.9223 105.944C-21.5535 106.386 -22.3265 106.942 -22.6461 107.176C-22.9657 107.411 -24.0417 108.165 -25.0338 108.856C-26.0259 109.547 -27.7833 110.784 -28.9431 111.602C-30.1037 112.42 -31.5242 113.42 -32.0958 113.81C-32.6673 114.201 -33.9117 115.082 -34.8702 115.751C-36.5687 116.938 -37.3752 117.499 -40.8389 119.865C-41.7714 120.504 -43.0586 121.383 -43.6966 121.817C-47.0092 124.076 -54.6135 129.038 -63.3171 134.63C-67.4927 137.299 -72.2813 140.305 -74.6153 141.706C-75.0939 141.99 -76.0842 142.596 -76.8242 143.029C-79.0832 144.393 -80.8385 145.446 -83.6013 147.123C-86.961 149.153 -89.782 150.814 -91.0241 151.492C-91.5447 151.774 -92.0061 152.038 -92.0399 152.077C-92.1666 152.222 -91.3795 151.934 -89.7459 151.255C-88.8241 150.879 -87.7517 150.43 -87.3489 150.266C-86.947 150.103 -85.908 149.659 -85.0437 149.283C-84.1802 148.906 -83.0241 148.411 -82.4877 148.177C-80.2831 147.226 -76.7212 145.647 -75.2786 144.971C-74.4397 144.573 -73.5684 144.187 -73.3506 144.087C-72.4701 143.725 -65.0903 140.122 -62.7921 138.929C-57.4815 136.19 -49.9105 132.051 -46.0986 129.801C-43.8313 128.46 -41.562 126.951 -37.3753 123.985C-37.0808 123.78 -36.6863 123.509 -36.5091 123.372C-36.3321 123.253 -35.3995 122.596 -34.441 121.927C-33.491 121.251 -31.8347 120.08 -30.7749 119.311C-29.7065 118.55 -28.6226 117.769 -28.3531 117.576C-27.4956 116.973 -23.0884 113.755 -22.0458 112.989C-21.4988 112.577 -20.3215 111.723 -19.4386 111.074C-17.6306 109.745 -14.51 107.423 -8.87401 103.19C-6.72876 101.589 -4.878 100.195 -4.76053 100.11C-4.64305 100.024 -3.77631 99.3614 -2.82575 98.6345C-1.87518 97.9076 -0.125333 96.5783 1.05255 95.6738C2.2476 94.7668 4.04774 93.3795 5.05733 92.5847C6.08409 91.7873 7.48949 90.688 8.20511 90.132C11.9585 87.2328 17.7742 82.5607 28.5751 73.7881C30.3009 72.387 32.0353 70.9759 32.439 70.6607C32.8263 70.3487 34.4424 69.0224 36.0249 67.7193C39.0144 65.2482 41.1939 63.5754 41.7632 63.3025C42.7615 62.8222 43.6831 63.2131 43.7147 64.1276C43.755 64.948 43.3315 65.502 41.0719 67.6679C36.2154 72.2868 31.2951 76.6294 26.0336 80.9313C24.6354 82.072 23.2889 83.1875 23.0364 83.3958C22.4301 83.91 20.5955 85.3866 17.9943 87.4607C16.8082 88.4088 15.6117 89.3672 15.3436 89.5934C15.0736 89.8373 14.5688 90.2347 14.224 90.4977C13.8792 90.7607 13.4167 91.1265 13.197 91.3124C12.9866 91.5047 12.4393 91.951 11.9847 92.3061C11.5309 92.662 10.7901 93.2469 10.3346 93.603C9.88085 93.9588 8.8367 94.7762 8.00361 95.4176C7.17051 96.059 6.00981 96.9609 5.40403 97.4247C4.07482 98.4536 4.17493 98.3881 2.66084 99.4788C1.98795 99.9685 1.18003 100.581 0.868888 100.822C0.364094 101.22 -2.36962 103.196 -3.7978 104.19C-4.10093 104.405 -5.69867 105.542 -7.36284 106.723C-13.6189 111.167 -15.5261 112.479 -21.0393 116.085C-23.7364 117.853 -25.8205 119.2 -28.7186 121.016C-30.6927 122.253 -31.7011 122.947 -36.3588 126.203C-38.2836 127.55 -40.6047 129.168 -42.7147 130.612C-43.3872 131.069 -44.514 131.848 -45.2366 132.345C-45.9602 132.843 -47.1958 133.698 -47.9771 134.23C-49.5829 135.327 -50.1036 135.693 -51.0371 136.349C-51.398 136.598 -52.5584 137.398 -53.6177 138.116C-54.677 138.835 -55.845 139.628 -56.2068 139.877C-57.5598 140.816 -59.1066 141.845 -60.1991 142.55C-62.9977 144.351 -72.9473 150.961 -73.0402 151.068C-73.2942 151.41 -61.3523 144.979 -56.0218 141.915C-52.5038 139.903 -44.5446 135.217 -41.9153 133.611C-41.4366 133.327 -40.0013 132.459 -38.7248 131.691C-37.4482 130.923 -35.6342 129.82 -34.6843 129.229C-33.7354 128.655 -32.7519 128.041 -32.4924 127.891C-29.4019 126.038 -16.5531 117.595 -10.7952 113.641C-9.29888 112.603 -6.29731 110.502 -5.91018 110.207C-5.74169 110.08 -4.43823 109.131 -3.02512 108.106C-1.62049 107.075 -0.368036 106.167 -0.249709 106.082C-0.140719 105.989 0.34719 105.646 0.818808 105.304C3.89733 103.064 14.4972 95.0231 16.4841 93.4038C17.4689 92.605 17.8562 92.293 19.0345 91.3539C19.5645 90.9275 20.4403 90.2198 20.9703 89.7934C22.6365 88.4265 26.9047 85.0019 29.2361 83.1543C30.2285 82.3621 30.4222 82.2062 31.8206 81.0481C32.2582 80.6782 33.3778 79.774 34.3114 79.0324C35.2459 78.2915 36.3067 77.4378 36.6853 77.1358C37.6536 76.356 38.0727 76.1909 38.6879 76.3329C39.1782 76.4524 39.237 76.4859 39.341 76.8323C39.4056 77.0252 39.3929 77.3893 39.3234 77.6199C39.1677 78.1332 38.8558 78.4423 36.5397 80.3716C34.8635 81.7825 31.5953 84.6582 29.2185 86.8081C24.7012 90.9032 16.15 98.4548 13.3798 100.775C12.9757 101.123 12.2094 101.772 11.6955 102.212C11.1817 102.652 10.1965 103.486 9.50635 104.064C8.81533 104.641 7.73852 105.548 7.10632 106.074C3.83096 108.825 -3.15641 114.528 -6.31239 117.024C-9.77951 119.762 -14.7025 123.59 -17.8577 126.019C-21.9383 129.146 -30.6115 135.603 -32.5612 136.961C-32.8383 137.147 -33.5957 137.684 -34.2426 138.145C-34.899 138.616 -36.2859 139.595 -37.3282 140.328C-42.5743 144.028 -45.6684 146.203 -46.114 146.515C-46.3911 146.7 -47.1148 147.216 -47.7452 147.658C-48.3679 148.107 -49.2002 148.681 -49.5948 148.952C-49.9817 149.23 -50.7131 149.738 -51.226 150.095C-54.8081 152.631 -60.717 156.677 -63.5824 158.555C-65.4319 159.764 -68.2806 161.758 -68.3411 161.877C-68.4947 162.205 -58.775 156.828 -54.1483 154.041C-53.6781 153.75 -52.4515 153.007 -51.4269 152.395C-42.1055 146.793 -34.0817 141.7 -30.945 139.392C-29.8765 138.613 -24.4941 134.69 -22.3918 133.173C-21.7189 132.683 -20.9285 132.106 -20.6263 131.892C-20.3403 131.68 -18.5066 130.355 -16.5639 128.937C-10.5755 124.601 -4.13268 119.774 0.781783 115.939C1.43771 115.434 2.37199 114.709 2.86027 114.332C3.34858 113.954 4.02098 113.43 4.35816 113.159C4.69446 112.889 6.57951 111.421 8.54835 109.889C10.5172 108.358 13.0581 106.385 14.1947 105.496C15.3305 104.606 16.753 103.504 17.3588 103.04C17.9646 102.576 18.9653 101.809 19.5963 101.316C20.2185 100.833 21.3212 99.9822 22.0369 99.4263C22.761 98.8777 23.7202 98.1408 24.174 97.785C24.6363 97.4365 25.6129 96.6797 26.3622 96.1021C29.9045 93.3788 32.6895 91.2594 39.8317 85.8786C50.2794 78.0297 49.8341 78.3245 50.6847 78.3978C51.193 78.447 51.4078 78.6162 51.627 79.1486C51.8947 79.7915 51.612 80.3995 50.3109 81.8962C49.153 83.2283 48.1584 84.2061 46.1523 85.9965C44.6951 87.2891 41.1831 90.279 40.644 90.6816C40.4418 90.8302 39.2207 91.8513 37.9489 92.9476C30.8485 99.0308 19.7698 108.123 13.8625 112.717C10.8417 115.075 4.35505 119.984 0.114933 123.127C-1.81165 124.558 -3.93161 126.197 -6.33936 128.133C-13.0984 133.573 -20.6126 139.347 -26.9955 144.023C-28.4338 145.076 -29.7546 146.045 -29.9231 146.172C-30.0994 146.308 -30.6046 146.672 -31.0417 146.992C-31.4873 147.304 -32.7658 148.242 -33.8758 149.051C-34.9944 149.87 -36.2469 150.778 -36.6511 151.075C-37.9544 152.007 -40.4776 153.843 -41.3018 154.457C-42.2693 155.169 -46.3478 158.11 -48.4421 159.601C-50.0398 160.738 -51.0069 161.417 -52.7806 162.657C-53.3773 163.077 -54.2183 163.66 -54.6302 163.951C-55.0593 164.244 -56.497 165.247 -57.85 166.187C-61.7426 168.896 -62.1551 169.237 -60.553 168.395C-60.0747 168.144 -59.2268 167.703 -58.6899 167.42C-56.5253 166.297 -56.0806 166.07 -55.4342 165.727C-55.073 165.529 -54.4601 165.191 -54.0911 164.982C-53.5538 164.664 -53.4206 164.627 -53.3958 164.784C-53.39 164.943 -53.3567 164.954 -53.2551 164.838C-53.1874 164.76 -53.1524 164.62 -53.1927 164.55C-53.2658 164.35 -52.8652 164.374 -52.7758 164.571C-52.694 164.761 -52.8214 164.89 -53.2908 165.113C-53.5087 165.213 -54.0121 165.493 -54.4322 165.743C-54.8513 165.992 -55.2557 166.222 -55.3304 166.242C-55.4139 166.271 -55.6751 166.421 -55.9186 166.584C-57.0276 167.31 -65.286 171.789 -65.9888 172.047C-66.3492 172.178 -66.7213 171.905 -66.7414 171.479C-66.7617 171.086 -66.2639 170.546 -64.8157 169.38C-61.8693 167.009 -59.9514 165.587 -55.6976 162.593C-54.3522 161.647 -52.9568 160.674 -52.6035 160.418C-51.4429 159.601 -45.1287 155.088 -42.6394 153.292C-41.311 152.331 -39.7382 151.205 -39.15 150.779C-36.6436 148.98 -36.9621 149.113 -40.2649 151.261C-45.0459 154.359 -49.9003 157.358 -54.8972 160.304C-55.9967 160.952 -57.4913 161.837 -58.2304 162.271C-61.1688 164.017 -63.6283 165.378 -64.0889 165.507C-64.976 165.777 -65.3093 165.026 -64.6418 164.258C-64.1766 163.723 -51.7844 154.304 -48.8002 152.223C-48.4135 151.961 -48.0435 151.669 -47.9756 151.574C-47.8324 151.409 -47.9996 151.502 -50.7043 153.111C-57.6232 157.235 -62.0471 159.739 -68.4844 163.173C-70.1548 164.077 -71.7655 164.929 -72.0672 165.093C-73.9305 166.085 -76.2359 167.152 -76.5615 167.16C-77.404 167.196 -77.6283 166.352 -76.9773 165.603C-76.5719 165.137 -73.8712 163.132 -68.7758 159.504C-67.0433 158.262 -64.7908 156.722 -60.6719 153.918C-56.5704 151.134 -53.6955 149.179 -53.3084 148.884C-52.8032 148.52 -43.9768 142.386 -41.0759 140.401C-35.267 136.404 -29.4242 132.284 -25.4797 129.38C-24.5459 128.69 -23.4695 127.902 -23.0825 127.623C-21.7879 126.701 -12.3237 119.533 -9.12593 117.055C-5.57472 114.305 -1.40814 110.997 2.07605 108.188C7.19353 104.052 14.1496 98.2359 14.1514 98.0831C14.1518 98.0501 13.3694 98.5989 12.4277 99.2985C10.0805 101.031 4.96785 104.745 4.16052 105.305C3.79113 105.547 2.7478 106.297 1.83996 106.957C-1.25489 109.2 -6.03859 112.534 -9.71934 115C-15.4348 118.839 -26.9693 126.205 -32.0253 129.235C-32.8819 129.753 -34.0739 130.475 -34.6709 130.845C-35.2671 131.214 -35.9985 131.654 -36.3002 131.818C-36.5934 131.989 -38.5337 133.12 -40.5991 134.327C-53.1521 141.696 -63.2076 147.291 -74.9621 153.441C-78.5954 155.353 -80.2233 156.208 -81.0043 156.639C-84.7637 158.712 -85.6503 158.863 -85.5749 157.427C-85.5224 156.499 -85.0599 156.134 -77.1854 150.911C-75.9917 150.122 -73.9667 148.776 -72.6805 147.915C-71.403 147.062 -68.1678 144.908 -65.4949 143.152C-62.8227 141.395 -60.0572 139.566 -59.3598 139.097C-58.6623 138.629 -57.7204 137.996 -57.2674 137.708C-56.8134 137.403 -56.4186 137.115 -56.3931 137.052C-56.3666 136.989 -57.5752 137.577 -59.0856 138.347C-65.7811 141.813 -73.7053 145.523 -83.2353 149.664C-86.4206 151.043 -87.7446 151.615 -89.1519 152.201C-90.0238 152.571 -91.7169 153.283 -92.9237 153.787C-96.0931 155.134 -98.522 156.061 -98.7803 156.024ZM-82.3562 137.514C-81.9363 137.281 -81.24 136.913 -80.8039 136.679C-79.7292 136.111 -79.5361 136.005 -77.6067 134.935C-74.2575 133.068 -66.1814 128.431 -62.4944 126.242C-59.1939 124.297 -50.988 119.227 -50.987 119.142C-50.9778 119.082 -51.8339 119.566 -53.8495 120.766C-56.4611 122.32 -66.6628 128.266 -68.0137 129.02C-74.553 132.69 -76.6845 133.909 -78.591 135.084C-79.8005 135.825 -81.3211 136.74 -81.9507 137.114C-83.2616 137.887 -83.506 138.136 -82.3562 137.514ZM-56.5515 160.321C-56.4768 160.386 -49.0951 155.93 -45.7764 153.814C-40.9113 150.703 -31.4147 144.315 -25.579 140.221C-24.8555 139.723 -23.4859 138.764 -22.5275 138.095C-21.5775 137.418 -20.6527 136.772 -20.4755 136.635C-20.2985 136.516 -19.357 135.832 -18.3725 135.134C-15.8748 133.346 -11.4681 130.094 -8.86803 128.12C-3.18046 123.796 3.91359 118.204 3.90769 118.044C3.90894 118.01 3.34524 118.391 2.64735 118.894C1.94967 119.38 1.0248 120.028 0.604401 120.311C0.167685 120.597 -0.623152 121.139 -1.16103 121.507C-2.48126 122.425 -4.92722 124.104 -5.28012 124.327C-5.43973 124.427 -6.64124 125.227 -7.95242 126.101C-9.27208 126.968 -13.2467 129.589 -16.7923 131.917C-23.0523 136.033 -24.5486 137.071 -29.3603 140.603C-32.8926 143.198 -33.5067 143.637 -34.4156 144.316C-35.7779 145.316 -36.753 146.022 -43.0689 150.535C-49.8797 155.401 -50.5689 155.894 -52.8571 157.558C-53.7658 158.219 -54.8333 158.981 -55.2202 159.259C-55.6063 159.537 -56.0702 159.885 -56.2544 160.032C-56.4332 160.168 -56.5684 160.306 -56.5515 160.321ZM-69.8073 118.757C-69.7496 118.808 -69.1619 118.431 -69.1601 118.347C-69.1597 118.314 -69.3105 118.386 -69.4951 118.499C-69.6892 118.622 -69.8319 118.736 -69.8073 118.757ZM-51.4959 86.1509C-51.4968 86.2359 -50.5732 85.6907 -50.4377 85.535C-50.3959 85.4697 -50.6042 85.5603 -50.9156 85.7507C-51.2442 85.9436 -51.4963 86.1171 -51.4959 86.1509ZM-50.236 85.3509C-50.2451 85.3939 -50.161 85.3811 -50.0524 85.323C-49.7582 85.1353 -49.7239 85.0616 -49.9924 85.17C-50.1267 85.2251 -50.2441 85.3106 -50.236 85.3509ZM-49.4888 84.8751C-49.4311 84.9252 -48.8434 84.549 -48.8416 84.4647C-48.8404 84.4307 -48.992 84.504 -49.1766 84.617C-49.3698 84.7383 -49.5134 84.8537 -49.4888 84.8751ZM-48.6401 84.3664C-48.6493 84.4268 -48.5735 84.3892 -48.4882 84.2758C-48.3954 84.1689 -48.3948 84.1186 -48.4871 84.1751C-48.5716 84.2208 -48.6395 84.3161 -48.6401 84.3664ZM3.54588 115.889C3.53644 115.967 4.2263 115.49 4.91627 114.929C5.10993 114.773 6.08615 114.051 7.09497 113.324C10.5264 110.862 15.7907 106.99 17.7852 105.463C18.5093 104.915 20.1571 103.668 21.4534 102.678C24.0958 100.673 24.3811 100.444 26.7044 98.6225C27.6052 97.9032 28.8419 96.9482 29.4392 96.477C31.1642 95.1436 33.7223 93.1003 34.8596 92.1431C36.7206 90.6036 39.525 88.1434 39.5855 88.0242C39.6539 87.8786 38.543 88.6887 33.1255 92.7691C27.792 96.77 27.8007 96.7601 22.2631 101.078C20.3781 102.546 18.3582 104.119 17.7533 104.582C17.1551 105.052 15.4894 106.369 14.0502 107.507C12.6194 108.653 11.2477 109.731 11.0204 109.908C10.7854 110.079 9.88462 110.798 9.009 111.489C8.13424 112.178 6.54281 113.442 5.48221 114.278C4.41463 115.124 3.54713 115.855 3.54588 115.889ZM-29.5256 71.3856C-29.5774 71.4949 -29.5604 71.5096 -29.484 71.4218C-29.4252 71.3712 -29.2817 71.2558 -29.1729 71.1804C-28.9872 71.0507 -28.9872 71.0507 -29.2221 71.1376C-29.3572 71.1919 -29.492 71.2956 -29.5256 71.3856ZM-28.77 70.8487C-28.8217 70.9579 -28.8048 70.9727 -28.7284 70.8848C-28.6696 70.8343 -28.5261 70.7189 -28.4173 70.6434C-28.2325 70.5148 -28.2324 70.5148 -28.4673 70.5999C-28.6007 70.654 -28.7355 70.7594 -28.77 70.8487ZM-28.0464 70.3504C-28.0468 70.3851 -27.9625 70.355 -27.8537 70.2795C-27.7534 70.1967 -26.7103 69.4644 -25.5412 68.654C-22.3209 66.3835 -20.3446 64.9442 -20.3438 64.8765C-20.3348 64.8336 -22.0754 66.0342 -24.1938 67.5375C-26.3133 69.0574 -28.0461 70.3175 -28.0464 70.3504ZM-41.4001 49.1496C-41.4007 49.1999 -41.3081 49.1945 -41.1993 49.119C-41.0321 49.026 -41.031 49.0093 -41.1905 49.025C-41.3073 49.0427 -41.3996 49.0992 -41.4001 49.1496ZM-20.1514 64.7546C-20.1441 64.7959 -20.0175 64.7342 -19.8662 64.6098C-19.7151 64.5028 -19.5877 64.3733 -19.5795 64.3296C-19.5867 64.2883 -19.7133 64.35 -19.8646 64.4744C-20.0158 64.5814 -20.1423 64.7099 -20.1514 64.7546ZM-19.3864 64.224C-19.3956 64.2843 -19.3198 64.2468 -19.2346 64.1333C-19.1417 64.0265 -19.1411 63.9762 -19.2334 64.0327C-19.3179 64.0784 -19.3858 64.1737 -19.3864 64.224ZM-27.7681 53.1829C-27.7773 53.2432 -27.7015 53.2057 -27.6163 53.0922C-27.5234 52.9854 -27.5228 52.935 -27.6151 52.9915C-27.6996 53.0373 -27.7675 53.1325 -27.7681 53.1829ZM0.778912 65.8796C0.769659 65.9399 0.844612 65.9034 0.93072 65.7889C1.0236 65.682 1.02413 65.6317 0.93183 65.6882C0.847337 65.7357 0.779486 65.8292 0.778912 65.8796ZM1.19966 65.5634C1.1904 65.6237 1.26623 65.5862 1.35147 65.4727C1.44434 65.3659 1.44493 65.3155 1.35262 65.372C1.26815 65.4178 1.20023 65.513 1.19966 65.5634Z" fill="#3F33C0"/>
<path fill-rule="evenodd" clip-rule="evenodd" d="M-63.4948 178.823C-63.9931 178.646 -64.0285 178.07 -63.5719 177.545C-62.9548 176.835 -47.4616 165.383 -40.8954 160.783C-40.29 160.354 -37.9095 158.633 -35.9668 157.216C-35.6472 156.982 -34.4784 156.12 -33.3682 155.294C-32.2582 154.484 -30.6849 153.308 -29.8693 152.703C-29.0529 152.097 -27.7667 151.151 -27.0089 150.58C-26.2607 150.019 -24.8982 149.002 -23.9971 148.334C-17.9151 143.823 -17.0987 143.151 -20.0986 145.1C-24.0565 147.684 -28.0463 150.206 -31.5061 152.302C-34.5891 154.18 -38.6856 156.591 -39.3404 156.927C-39.6766 157.113 -40.1553 157.396 -40.4067 157.586C-40.6588 157.76 -40.8856 157.887 -40.9187 157.858C-40.9518 157.829 -41.0612 157.889 -41.1539 157.978C-41.2553 158.078 -41.6752 158.328 -42.1034 158.536C-42.5306 158.745 -42.8919 158.943 -42.9172 158.989C-43.053 159.178 -43.7573 159.488 -43.8726 159.387C-43.9719 159.301 -43.9969 159.314 -43.9575 159.468C-43.9094 159.68 -44.1704 159.812 -44.335 159.669C-44.4173 159.598 -44.3752 159.515 -44.1231 159.341C-43.9461 159.222 -43.812 159.1 -43.8366 159.079C-43.8527 159.065 -43.7363 158.996 -43.5514 158.934C-43.375 158.864 -43.2238 158.757 -43.2317 158.7C-43.2225 158.639 -43.1812 158.624 -43.1311 158.668C-43.0811 158.711 -42.9975 158.665 -42.9544 158.566C-42.9197 158.459 -42.8446 158.405 -42.7945 158.449C-42.7445 158.492 -42.5766 158.416 -42.4003 158.28C-42.2318 158.153 -42.0391 158.082 -41.9815 158.132C-41.9153 158.189 -41.8317 158.143 -41.746 157.995C-41.5921 157.718 -41.0873 157.321 -41.0641 157.46C-41.0475 157.508 -40.9215 157.43 -40.7698 157.272C-40.6266 157.108 -40.4248 156.992 -40.3246 156.993C-40.2159 157.002 -40.1574 156.984 -40.1905 156.956C-40.2482 156.905 -39.4336 156.385 -38.6442 155.961C-38.4339 155.853 -38.1827 155.68 -38.0889 155.573C-37.996 155.466 -37.8785 155.38 -37.8281 155.389C-37.7778 155.415 -37.4588 155.232 -37.1146 155.019C-36.7788 154.799 -36.3665 154.542 -36.1992 154.449C-36.032 154.356 -35.8802 154.265 -35.8465 154.244C-35.6357 154.085 -34.8556 153.587 -32.0915 151.875C-27.4793 149.006 -21.111 144.865 -17.445 142.333C-16.4193 141.636 -14.9404 140.619 -14.158 140.07C-11.2165 138.053 -4.78331 133.472 -2.99221 132.128C0.718035 129.328 7.71542 123.497 17.2164 115.286C24.8228 108.705 28.0073 105.892 37.9091 97.0036C40.1084 95.0236 42.6189 92.7866 43.4697 92.0237C44.3289 91.2683 46.3931 89.4111 48.0626 87.9085C51.4 84.9036 51.8028 84.5893 52.2293 84.6007C53.0462 84.6289 53.2114 85.472 52.5669 86.3966C51.5672 87.831 44.1636 94.8796 35.1207 103.029C34 104.034 32.8375 105.089 32.5165 105.374C31.7669 106.053 27.5467 109.707 26.0728 110.952C23.4624 113.155 16.155 119.058 12.7809 121.672C12.4362 121.935 11.3169 122.806 10.2901 123.604C9.26335 124.401 6.55431 126.467 4.27492 128.188C1.99467 129.91 -0.596431 131.925 -1.4896 132.651C-4.09053 134.776 -9.89047 139.413 -11.9181 140.995C-12.3804 141.343 -13.4072 142.141 -14.199 142.767C-17.2534 145.147 -22.8061 149.366 -29.5948 154.473C-36.9218 159.983 -37.3426 160.301 -39.9163 162.143C-40.774 162.763 -41.9098 163.585 -42.4392 163.961C-42.9773 164.347 -43.5907 164.802 -43.8273 164.973C-44.0547 165.151 -44.8035 165.695 -45.4841 166.178C-46.1731 166.654 -47.6536 167.723 -48.7712 168.526C-58.0894 175.276 -57.3663 174.744 -57.5349 174.955C-57.7293 175.179 -56.9323 174.779 -54.6399 173.494C-53.5822 172.911 -52.5916 172.355 -52.4244 172.262C-52.2571 172.169 -52.0217 172.032 -51.8873 171.961C-51.5174 171.754 -49.9218 170.802 -48.5616 169.988C-47.8982 169.574 -46.958 169.01 -46.4794 168.726C-43.5572 166.982 -33.7077 160.44 -28.663 156.905C-28.2174 156.593 -27.5534 156.129 -27.1925 155.88C-24.5863 154.117 -18.7334 149.868 -14.2923 146.527C-11.3899 144.34 -4.42251 138.959 -3.24385 137.987C-3.00786 137.8 -1.66197 136.734 -0.247697 135.608C9.70834 127.757 17.1508 121.581 24.2625 115.269C24.8024 114.798 26.0649 113.678 27.0937 112.779C33.1589 107.486 41.5085 100.117 43.6067 98.2032C44.1633 97.6965 45.9409 96.1021 47.5671 94.6477C54.0554 88.8353 54.8202 88.322 55.6956 89.083C56.1825 89.5063 56.1419 90.1372 55.5826 90.9639C55.1078 91.6609 50.3835 97.0785 47.166 100.614C43.441 104.715 39.3394 109 34.2092 114.184C33.2134 115.196 31.8632 116.566 31.2142 117.213C28.1515 120.32 21.6823 126.559 18.5139 129.471C13.7188 133.887 10.542 136.707 5.4544 141.075C3.2138 143.001 -0.726558 146.301 -1.46802 146.869C-1.62783 146.986 -1.72071 147.093 -1.67094 147.085C-1.58685 147.073 2.48465 143.922 5.96129 141.175C6.30608 140.912 7.62003 139.868 8.89842 138.864C10.1692 137.852 11.9879 136.411 12.9391 135.634C13.89 134.874 14.8583 134.094 15.0941 133.922C16.6257 132.728 20.0271 129.966 25.9029 125.141C30.5161 121.352 31.3923 120.611 33.6591 118.571C34.4345 117.879 37.1477 115.441 39.6923 113.148C44.1003 109.179 45.9785 107.484 49.0547 104.696C49.7965 104.026 50.5289 103.349 50.6897 103.216C50.8411 103.091 51.3128 102.665 51.7343 102.281C54.4053 99.8751 55.558 98.9996 55.983 99.0623C56.2661 99.1032 56.754 99.5099 56.7926 99.7327C56.8485 100.02 56.642 100.473 56.2541 100.919C55.8739 101.357 55.8739 101.357 56.1906 101.376C56.4491 101.396 56.5476 101.466 56.7037 101.754C57.1687 102.67 56.9894 102.993 54.5756 105.536C50.2285 110.104 46.5527 113.565 40.4958 118.797C36.6625 122.105 35.7952 122.887 33.6285 124.946C32.701 125.83 31.3268 127.126 30.5598 127.825C29.7929 128.524 28.9333 129.313 28.6552 129.583C23.9848 133.955 15.9976 141.024 10.0778 146.033C9.77519 146.282 8.89897 147.023 8.13177 147.671C5.32667 150.046 -1.90438 156.014 -3.90812 157.601C-4.1606 157.808 -5.57507 158.952 -7.06466 160.148C-8.54664 161.353 -10.0362 162.549 -10.381 162.812C-10.7258 163.075 -11.4666 163.66 -12.0226 164.116C-12.5786 164.572 -13.2261 165.084 -13.4534 165.262C-13.6807 165.439 -14.5051 166.071 -15.2624 166.676C-16.0282 167.273 -18.2828 169 -20.2684 170.501C-22.254 172.001 -23.8694 173.259 -23.8698 173.292C-23.8705 173.36 -16.0791 168.133 -13.3307 166.222C-6.88216 161.723 -3.46817 159.213 1.46451 155.358C4.6531 152.856 4.90646 152.649 5.39494 152.255C5.65611 152.038 6.64873 151.229 7.60835 150.459C10.4701 148.15 14.6632 144.695 16.7773 142.897C17.8723 141.972 18.9665 141.045 19.2275 140.846C19.48 140.64 20.3727 139.878 21.2067 139.154C22.0408 138.427 23.1023 137.507 23.566 137.108C25.1577 135.744 29.2366 132.018 31.6145 129.768C38.9927 122.765 45.0831 116.693 51.3138 110.109C53.3652 107.95 53.8115 107.57 54.3967 107.481C55.2154 107.357 55.754 108.354 55.2871 109.109C54.6676 110.106 46.2595 118.927 43.014 121.994C42.5499 122.427 42.1703 122.814 42.1784 122.854C42.1779 122.904 42.4029 122.93 42.6778 122.931C43.2784 122.923 43.6172 123.185 43.7605 123.77C43.9434 124.56 43.7224 124.931 41.8471 127.056C40.3354 128.762 38.791 130.338 34.7337 134.271C33.9662 135.02 32.7176 136.273 31.9506 137.056C28.6672 140.432 27.7389 141.384 26.5587 142.491C25.1246 143.857 22.3525 146.345 19.3535 148.978C18.1992 149.989 16.202 151.751 14.9221 152.892C13.6413 154.031 12.217 155.286 11.7626 155.692C11.2989 156.092 10.4734 156.824 9.90916 157.324C5.91586 160.833 -0.64002 165.956 -1.8975 166.552C-2.29196 166.739 -2.89175 166.679 -3.19713 166.413C-3.44481 166.198 -3.38562 165.362 -3.10699 165.042C-2.99676 164.915 -2.27314 164.333 -1.49906 163.759C1.52989 161.51 4.50121 159.058 8.80621 155.257C10.458 153.807 11.3839 152.992 11.8899 152.561C12.5802 151.967 12.0178 152.314 10.4535 153.446C9.57067 154.095 8.51084 154.863 8.09892 155.154C7.67831 155.455 6.88797 156.03 6.34189 156.442C5.78732 156.847 4.08805 158.101 2.54899 159.203C-2.21128 162.661 -3.22879 163.398 -8.3078 167.089C-9.9819 168.315 -11.6636 169.531 -12.0505 169.81C-12.7992 170.338 -16.4154 172.997 -19.1825 175.046C-21.5964 176.839 -23.2014 177.867 -23.7362 177.966C-24.3045 178.07 -24.6524 177.785 -24.6374 177.218C-24.6397 176.737 -24.3362 176.337 -23.6886 175.96C-23.1263 175.63 -20.4933 173.703 -18.5325 172.198C-17.6994 171.556 -15.8484 170.145 -14.4182 169.049C-12.988 167.954 -11.8176 167.026 -11.818 166.992C-11.809 166.949 -12.103 167.119 -12.4476 167.367C-12.7922 167.612 -13.6745 168.211 -14.4065 168.702C-15.1462 169.186 -16.7008 170.224 -17.86 170.991C-19.0194 171.774 -22.2127 173.863 -24.953 175.664C-29.2638 178.471 -31.0702 179.648 -35.0786 182.224C-36.3134 183.01 -37.3459 183.564 -37.7305 183.64C-38.1152 183.716 -38.5956 183.4 -38.716 182.989C-38.8284 182.635 -38.4456 181.96 -37.7968 181.33C-36.0594 179.665 -31.6921 176.259 -25.5856 171.787C-18.6812 166.746 -14.8355 163.79 -2.17653 153.732C2.71267 149.858 11.0564 142.996 11.058 142.86C11.0662 142.817 10.8227 142.98 10.5288 143.219C9.88133 143.731 5.21278 147.183 2.74849 148.967C2.27775 149.308 1.47889 149.878 0.982976 150.248C-0.279002 151.165 -6.70251 155.719 -7.50966 156.264C-7.87057 156.513 -8.77885 157.14 -9.52671 157.668C-12.6293 159.835 -21.0408 165.426 -23.0575 166.644C-23.3767 166.845 -24.5861 167.586 -25.7458 168.318C-33.8436 173.363 -37.1019 175.293 -37.6188 175.321C-37.8691 175.342 -38.4982 175.666 -39.6155 176.367C-42.6984 178.312 -43.6475 178.837 -44.1388 178.869C-44.7147 178.898 -44.9295 178.729 -44.9149 178.194C-44.911 177.856 -44.8337 177.685 -44.4622 177.257C-43.7695 176.46 -41.5886 174.736 -38.3852 172.435C-36.9221 171.386 -32.6165 168.285 -30.6566 166.865C-27.5116 164.581 -10.2574 151.638 -7.94358 149.826C-4.62732 147.247 -3.761 146.55 -1.15958 144.459C1.11333 142.629 3.94997 140.265 6.1654 138.367C7.06677 137.598 8.19565 136.633 8.69215 136.211C12.2545 133.163 17.3794 128.52 22.5971 123.635C30.0325 116.649 40.3868 106.089 46.1822 99.5883C49.1307 96.2804 49.1903 96.1605 46.8311 98.2749C45.2475 99.6803 41.7934 102.703 40.1255 104.137C33.084 110.152 28.8904 113.726 25.9342 116.208C25.4965 116.578 23.7702 118.031 22.1016 119.449C20.4254 120.86 18.8262 122.199 18.5487 122.419C18.2626 122.649 17.8588 122.98 17.6399 123.165C11.174 128.518 -4.77202 140.84 -14.0067 147.627C-20.4492 152.352 -28.1827 157.68 -36.57 163.174C-40.9811 166.064 -45.7701 169.105 -46.6095 169.553C-46.7355 169.631 -47.3651 170.006 -48.0034 170.389C-48.634 170.78 -50.8419 172.087 -52.9072 173.294C-60.0682 177.467 -62.9965 179 -63.4948 178.823ZM-0.012322 149.179C-0.0959444 149.226 -0.164683 149.32 -0.164408 149.371C-0.173664 149.432 -0.0978417 149.394 -0.0126014 149.281C0.0794247 149.173 0.0799783 149.123 -0.012322 149.179ZM0.281788 149.007C0.239729 149.09 0.322317 149.06 0.466682 148.945C0.73548 148.736 7.0966 143.938 8.14709 143.163C10.7544 141.231 18.4581 134.904 23.596 130.479C33.5768 121.882 34.2507 121.308 37.411 118.507C38.2617 117.744 39.3823 116.756 39.8886 116.307C43.1577 113.431 47.4568 109.386 49.3301 107.447L50.0904 106.656L48.9196 107.686C48.2707 108.249 46.8723 109.492 45.7934 110.431C44.7238 111.379 43.308 112.639 42.6339 113.231C41.9599 113.824 40.9828 114.697 40.4429 115.168C39.903 115.638 38.6743 116.719 37.7137 117.574C36.7446 118.422 35.2287 119.749 34.3434 120.533C33.459 121.317 32.1863 122.43 31.5131 123.021C30.839 123.613 30.03 124.327 29.7106 124.612C29.3913 124.897 28.7077 125.498 28.1947 125.939C27.6893 126.387 26.5514 127.396 25.6661 128.18C24.7732 128.957 23.8041 129.804 23.51 130.061C23.2073 130.309 22.466 130.945 21.8768 131.456C20.8827 132.315 20.1839 132.904 17.7576 134.96C16.5623 135.968 11.553 140.079 10.3826 141.008C9.8526 141.434 9.1878 141.966 8.91796 142.192C8.64047 142.412 8.25314 142.724 8.03384 142.875C7.82301 143.034 7.11692 143.58 6.46863 144.092C4.56672 145.613 1.6298 147.907 0.965388 148.404C0.618859 148.669 0.316015 148.935 0.281788 149.007ZM21.7611 141.48C21.6774 141.526 21.6095 141.621 21.609 141.672C21.5997 141.732 21.6747 141.696 21.7608 141.581C21.8528 141.473 21.8534 141.423 21.7611 141.48Z" fill="#3F33C0"/>
</svg>
