<svg width="110" height="333" viewBox="0 0 110 333" fill="none" xmlns="http://www.w3.org/2000/svg">
<path fill-rule="evenodd" clip-rule="evenodd" d="M47.6299 222.58C46.4534 222.232 46.1958 220.766 47.135 219.89C48.4062 218.705 51.5859 217.185 58.2119 214.572C65.0405 211.896 66.1394 211.442 71.5497 209.211C74.2749 208.089 76.7139 207.106 76.9731 206.994C77.2428 206.896 78.5053 206.393 79.7935 205.863C83.1029 204.482 86.1664 203.225 87.9147 202.526C90.1102 201.64 96.159 199.124 98.6836 198.011C99.9054 197.492 103.35 196.01 106.336 194.724C121.329 188.284 137.755 180.948 137.94 180.592C137.985 180.5 136.374 181.071 134.341 181.855C129.274 183.817 120.11 187.171 117.189 188.166C116.73 188.31 114.065 189.219 111.253 190.163C103.652 192.758 97.0278 194.958 92.5385 196.405C88.0519 197.851 78.569 200.755 73.0734 202.366C69.4818 203.415 65.7544 204.541 64.7684 204.869C62.2943 205.677 61.152 205.451 61.1982 204.169C61.2149 203.689 61.3544 203.506 61.9447 203.032C62.3562 202.726 62.6589 202.47 62.6329 202.468C62.5781 202.466 61.4966 202.856 60.183 203.331C57.4364 204.316 52.4822 205.708 51.033 205.897C49.0464 206.148 48.0035 205.004 48.8828 203.563C49.1527 203.105 49.5202 202.918 51.3444 202.326C57.1187 200.403 62.1938 198.535 66.1408 196.897C67.0491 196.514 68.4875 195.923 69.3131 195.591C70.9253 194.939 71.6575 194.644 77.2451 192.327C83.6876 189.624 97.5693 183.189 106.518 178.716C107.768 178.092 109.837 177.067 111.114 176.443C115.778 174.188 123.568 170.356 124.941 169.669C125.703 169.269 127.322 168.457 128.532 167.843C129.743 167.231 131.361 166.42 132.136 166.031C132.924 165.658 134.871 164.643 136.504 163.791C138.123 162.953 140.397 161.762 141.54 161.161C144.208 159.784 150.008 156.7 153.113 155.018C157.24 152.796 157.826 152.483 161.816 150.365C163.953 149.223 166.173 148.031 166.719 147.729C167.278 147.415 168.638 146.687 169.729 146.11C170.818 145.535 173.026 144.354 174.645 143.489C177.71 141.846 179.779 140.714 183.742 138.595C185.05 137.892 186.127 137.275 186.129 137.22C186.131 137.166 185.535 137.386 184.814 137.722C182.899 138.604 168.825 144.808 165.296 146.342C162.161 147.717 159.814 148.69 151.204 152.279C148.384 153.437 145.211 154.77 144.151 155.241C142.305 156.031 132.664 160.037 130.658 160.85C130.129 161.059 128.936 161.552 127.975 161.933C125.617 162.893 123.001 163.937 121.645 164.477C118.815 165.594 105.931 170.583 104.021 171.305C102.857 171.746 100.58 172.628 98.9544 173.239C87.2661 177.709 73.384 182.623 63.3966 185.788C62.1405 186.184 60.6121 186.679 60.0179 186.872C59.4237 187.065 58.0849 187.513 57.056 187.851C56.0271 188.19 53.9049 188.904 52.3508 189.425C49.4973 190.407 48.6536 190.472 48.0212 189.794C47.6733 189.421 47.7801 188.289 48.2086 187.89C48.5817 187.542 53.2652 185.447 59.1509 183.007C60.9807 182.255 62.9892 181.417 63.5994 181.158C64.2096 180.899 65.1311 180.531 65.66 180.321C68.9638 179.1 76.201 176.2 81.5697 173.981C83.8748 173.02 86.0703 172.135 86.4227 171.986C86.7884 171.852 88.2256 171.26 89.595 170.681C90.9777 170.115 93.3515 169.114 94.8842 168.459C101.081 165.882 106.766 163.448 109.588 162.211C115.587 159.562 126.25 154.655 131.632 152.064C132.475 151.665 135.152 150.383 137.612 149.198C140.059 148.028 142.777 146.705 143.66 146.269C144.53 145.845 145.727 145.246 146.311 144.959C146.908 144.686 148.337 143.974 149.494 143.386C150.651 142.798 152.663 141.773 153.971 141.124C156.256 139.974 162.028 136.942 167.394 134.054C172.379 131.396 179.847 127.193 185.195 124.065C189.383 121.605 196.206 117.566 198.091 116.429C207.306 110.857 210.366 108.934 208.818 109.654C208.341 109.892 202.119 113.189 194.998 116.99C189.101 120.138 188.23 120.59 183.075 123.174C180.177 124.638 177.457 126.013 177.021 126.236C175.551 126.986 167.42 130.979 163.371 132.923C162.053 133.558 160.176 134.483 159.197 134.955C156.628 136.216 153.76 137.572 151.6 138.579C147.402 140.557 142.405 142.84 141.02 143.434C140.206 143.779 138.02 144.732 136.149 145.55C121.681 151.887 107.684 157.425 94.8321 161.892C77.5298 167.903 52.2506 175.826 50.5411 175.768C50.1929 175.756 49.7844 175.622 49.6428 175.47C49.2697 175.07 49.3961 174.125 49.8799 173.673C50.7226 172.888 55.3451 170.617 60.3627 168.548C61.7879 167.943 64.377 166.871 66.1263 166.144C67.8628 165.429 70.236 164.405 71.3903 163.896C73.4537 162.98 85.0144 157.958 87.3631 156.929C88.0291 156.645 89.8584 155.868 91.4327 155.201C96.4389 153.063 105.614 149 112.538 145.848C116.232 144.186 119.491 142.696 119.803 142.559C120.794 142.126 128.863 138.371 134.935 135.525C138.195 134.008 141.484 132.466 142.216 132.117C144.826 130.899 148.851 128.875 160.496 122.973C163.026 121.699 161.714 122.121 158.116 123.773C150.851 127.086 136.815 133.331 132.351 135.248C129.706 136.371 124.078 138.727 122.79 139.257C117.748 141.271 111.988 143.571 108.561 144.907C102.058 147.46 97.8526 149.211 90.932 152.203C84.921 154.814 77.6133 157.806 75.625 158.499C75.1515 158.656 73.3255 159.301 71.5789 159.948C55.2839 165.847 51.7896 166.781 51.0466 165.458C50.5806 164.654 50.6535 164.095 51.2822 163.663C51.584 163.432 53.1815 162.847 54.8296 162.344C57.9231 161.369 58.4227 161.214 64.6349 159.012C70.6835 156.857 71.8623 156.432 75.0318 155.206C81.2761 152.791 84.5586 151.436 91.5332 148.391C94.0034 147.302 96.6903 146.139 97.5039 145.794C104.831 142.629 115.075 137.801 123.239 133.649C128.721 130.861 128.618 130.776 122.797 133.314C120.475 134.343 118.155 135.342 117.641 135.538C117.125 135.762 115.51 136.44 114.032 137.07C112.566 137.714 110.573 138.567 109.609 138.975C108.647 139.382 107.317 139.95 106.651 140.234C105.226 140.866 96.2503 144.589 94.6496 145.227C86.1521 148.605 79.1272 151.206 69.9696 154.348C66.5881 155.512 62.9757 156.764 61.9615 157.115C57.8747 158.55 54.2401 159.693 53.6908 159.741C53.0203 159.798 51.9834 159.266 51.6693 158.708C51.3927 158.218 51.7158 156.986 52.2407 156.496C52.9033 155.878 53.8541 155.456 57.8869 153.995C62.2713 152.41 65.8604 151.079 67.3661 150.45C67.9219 150.215 68.7479 149.909 69.1679 149.751C69.9125 149.497 71.9982 148.687 80.4786 145.402C87.7405 142.583 91.4677 141.07 94.6442 139.683C95.1337 139.46 97.0992 138.633 98.9844 137.83C100.869 137.027 103.8 135.766 105.524 135.012C119.338 128.974 125.027 126.433 125.031 126.272C125.021 126.205 124.356 126.461 123.516 126.834C121.534 127.727 116.919 129.758 113.961 131.044C105.588 134.719 94.4929 139.023 87.3799 141.394C86.8118 141.587 86.3113 141.77 86.2829 141.796C86.2545 141.823 85.579 142.065 84.7809 142.319C83.9828 142.572 82.5366 143.069 81.5767 143.397C80.6027 143.738 78.8187 144.316 77.629 144.702C75.0091 145.519 72.8321 146.231 70.6678 146.93C63.3414 149.32 61.3501 149.704 60.3484 148.909C59.5935 148.321 59.5522 147.224 60.2515 146.339C61.3136 145.012 65.2482 142.945 77.5532 137.282C79.1824 136.537 82.6071 134.919 86.4264 133.087C88.8875 131.903 98.8578 127.226 101.874 125.836C102.866 125.375 104.319 124.691 105.108 124.318C105.896 123.945 108.193 122.861 110.204 121.889C115.272 119.487 117.502 118.389 120.768 116.739C122.318 115.964 125.066 114.564 126.917 113.639C128.74 112.713 130.481 111.838 130.767 111.675C131.039 111.524 134.087 109.974 137.502 108.235C140.916 106.497 144.374 104.721 145.19 104.293C146.007 103.866 149.37 102.102 152.705 100.36C159.254 96.9403 165.982 93.3006 166.163 93.1051C166.232 93.0403 162.525 94.6883 157.95 96.7877C146.109 102.175 139.022 105.348 134.804 107.138C120.969 112.99 99.1612 121.368 89.3596 124.596C88.4812 124.871 86.709 125.465 85.4119 125.9C81.7612 127.108 69.0416 130.888 67.8716 131.101C66.0567 131.424 64.9274 130.825 64.9324 129.581C64.9374 128.258 65.9662 127.533 71.9216 124.587C75.1316 122.988 83.6372 118.982 85.3733 118.241C86.7427 117.662 93.337 114.818 95.1284 114.025C95.793 113.742 96.8513 113.27 97.5173 112.986C108.335 108.219 138.707 94.1517 145.127 90.928C146.242 90.3795 148.256 89.3531 149.616 88.6786C154.39 86.2663 164.029 81.1772 164.13 81.0064C164.173 80.9132 162.708 81.5044 160.861 82.3486C159.016 83.1653 156.749 84.1705 155.839 84.5518C154.917 84.9479 153.085 85.7253 151.77 86.2805C150.44 86.849 147.605 88.047 145.463 88.933C143.307 89.8322 140.052 91.1886 138.208 91.9532C136.376 92.7306 134.234 93.6194 133.462 93.9259C132.133 94.467 129.802 95.4287 122.288 98.5606C118.722 100.053 113.502 102.183 112.731 102.435C112.473 102.546 111.281 103.013 110.09 103.479C108.91 103.958 104.833 105.567 101.025 107.051C97.2316 108.549 93.1799 110.158 92.0134 110.625C90.6307 111.19 89.6869 111.452 89.3003 111.399C88.5034 111.264 87.8481 110.533 87.8993 109.814C87.9726 108.895 88.8225 108.256 92.0434 106.698C92.3415 106.574 93.3353 106.061 94.2331 105.584C96.8608 104.192 96.8324 104.219 103.905 100.724C107.195 99.1015 109.642 97.9585 116.106 94.9752C118.253 93.9809 125.142 90.7077 127.466 89.5728C128.636 88.9987 130.307 88.1883 131.205 87.7653C132.075 87.3413 134.033 86.3666 135.529 85.6186C139.392 83.6686 143.106 81.8082 147.663 79.5214C154.042 76.3361 155.81 75.4356 155.814 75.3287C155.816 75.2766 152.972 76.3262 149.505 77.6737C146.036 79.0226 142.407 80.4194 141.473 80.7738C134.42 83.3742 132.011 84.2523 130.375 84.7964C129.361 85.148 127.183 85.8872 125.574 86.4322C123.952 86.9904 121.125 87.9472 119.286 88.5514C117.446 89.1817 114.484 90.1613 112.686 90.7532C110.901 91.3593 108.589 92.1199 107.55 92.4446C103.577 93.7223 102.576 94.0621 102.52 94.1137C102.465 94.1653 101.56 94.4686 96.8148 95.9994C95.4628 96.4325 94.8307 96.5313 94.1407 96.4001C92.7476 96.1236 92.2806 95.3469 92.6797 93.8633C92.8034 93.3873 93.0124 93.1393 93.6987 92.6293C95.2623 91.4816 98.2144 89.9938 103.329 87.7814C107.426 86.0276 109.733 85.0116 116.332 82.0618C124.776 78.2939 126.378 77.5743 128.588 76.6509C129.605 76.2198 130.773 75.7253 131.166 75.5386C131.56 75.352 133.269 74.6361 134.964 73.9335C139.371 72.1233 142.6 70.7126 142.603 70.6056C142.607 70.5522 141.392 70.8571 139.907 71.287C126.626 75.0726 123.696 75.8926 121.108 76.5229C120.124 76.7699 118.345 77.2142 117.131 77.5205C113.573 78.4119 108.873 79.4364 106.789 79.7782C104.558 80.1285 103.452 80.0226 102.609 79.3124C102.075 78.8792 102.028 78.743 102.062 77.7299L102.087 76.6218L103.381 75.5717C104.082 74.995 105.45 74.0792 106.432 73.5274C108.299 72.4836 113.423 70.0025 115.511 69.1407C119.524 67.491 123.047 66.0892 124.415 65.5907C126.946 64.6757 128.395 64.0991 128.399 63.9921C128.402 63.9387 127.179 64.095 125.673 64.3375C120.688 65.1379 118.985 64.9193 118.543 63.3927C118.282 62.4214 118.71 61.6347 120.026 60.7446C122.064 59.3855 125.194 57.7847 132.256 54.5574C142.035 50.088 149.189 47.2633 155.494 45.4123C158.721 44.4695 160.161 44.1588 160.517 44.3441C161.015 44.6278 159.79 45.2549 155.428 46.9459C147.544 50.0114 144.003 51.5581 136.169 55.4283C132.171 57.3736 126.303 60.4957 126.285 60.6694C126.292 60.8165 129.952 60.1167 133.766 59.2205C139.047 57.9885 140.515 57.6801 143.972 57.0912C147.037 56.5559 147.438 56.5451 148.122 56.8888C148.819 57.2206 148.922 57.3313 149.155 57.9393C149.595 59.1309 148.97 60.1783 147.393 60.9509C146.347 61.462 141.018 63.6408 139.177 64.3259C138.393 64.6197 137.106 65.1224 136.333 65.429C135.561 65.7355 133.109 66.6794 130.914 67.5113C124.739 69.8349 121.461 71.1094 118.422 72.3937C114.855 73.9135 111.35 75.5274 111.345 75.6617C111.341 75.7961 115.462 74.8969 119.949 73.784C123.791 72.8352 141.762 67.5704 145.926 66.1648C147.441 65.6563 149.225 65.0776 149.886 64.8728C150.548 64.6695 152.833 63.8804 154.959 63.1133C157.084 62.3461 161.603 60.7128 165.001 59.4808C173.947 56.2521 176.847 55.1235 180.771 53.3239C182.699 52.4565 184.503 51.6767 184.799 51.6336C185.997 51.4214 187.31 52.8577 186.885 53.8983C186.505 54.8198 185.618 55.3639 181.886 57.011C178.044 58.7079 175.79 59.7244 171.498 61.7404C166.225 64.2301 156.907 68.5535 152.046 70.7898C146.328 73.4108 142.514 75.0811 130.533 80.2614C124.807 82.7338 121.4 84.2592 121.262 84.3875C120.61 85.0455 138.663 78.2325 149.687 73.6598C151.07 73.0946 153.512 72.0832 155.111 71.4432C165.045 67.4473 168.6 65.9409 175.795 62.7443C188.99 56.8447 192.417 55.5327 193.595 55.8826C194.374 56.1103 194.737 56.4702 194.95 57.2531C195.173 58.0763 194.99 58.7644 194.396 59.3187C194.119 59.5767 191.15 61.1832 187.803 62.9097C184.455 64.6361 180.1 66.864 178.14 67.8909C176.18 68.9177 173.785 70.1435 172.806 70.6185C171.839 71.1063 170.616 71.7321 170.086 71.9936C169.568 72.2692 168.779 72.6685 168.331 72.8821C167.896 73.1071 167.105 73.5077 166.588 73.7834C166.07 74.059 164.247 74.985 162.56 75.8333C160.873 76.683 158.099 78.0836 156.425 78.9475C154.75 79.8114 152.696 80.8487 151.88 81.2732C149.975 82.2223 137.541 88.5493 137.077 88.8008C136.887 88.9012 136.804 89.0054 136.884 89.0081C137.349 89.0381 156.808 80.2429 166.579 75.5715C168.346 74.7246 174.186 72.016 179.551 69.5433C184.916 67.0706 190.963 64.2224 193.003 63.1983C198.552 60.4246 202.762 58.4607 203.314 58.3866C204.616 58.2042 205.809 59.2615 205.711 60.5414C205.634 61.5943 204.798 62.1938 199.497 65.1216C194.387 67.9504 189.917 70.4392 185.104 73.1452C178.248 76.981 164.895 84.319 160.171 86.8415C147.984 93.3254 140.175 97.2487 130.04 102.027C128.858 102.588 126.181 103.842 124.129 104.828C115.893 108.736 104.333 114.145 101.305 115.523C99.6623 116.253 97.9655 117.011 91.6012 119.794C84.1901 123.037 80.0637 124.898 79.8575 125.064C79.4442 125.423 87.6994 122.812 92.9243 120.937C94.413 120.401 95.9821 119.842 96.4155 119.695C97.1458 119.454 98.6497 118.877 103.119 117.189C104.053 116.835 106.357 115.926 108.227 115.19C110.084 114.439 112.971 113.296 114.637 112.648C125.545 108.337 137.08 103.262 149.379 97.4245C150.997 96.6396 154.054 95.1817 156.174 94.1865C158.28 93.1771 160.985 91.8962 162.154 91.3208C163.324 90.7468 164.887 89.9874 165.621 89.6369C166.355 89.2892 168.612 88.1658 170.64 87.1262C172.667 86.114 174.844 85.0151 175.482 84.7039C176.108 84.3771 177.361 83.7263 178.259 83.2498C179.156 82.7733 180.914 81.8588 182.153 81.1938C183.391 80.5563 185.692 79.3395 187.258 78.4993C188.837 77.6719 191.016 76.5182 192.105 75.9427C193.193 75.3658 194.297 74.8031 194.541 74.6785C194.786 74.5539 195.452 74.2163 196.026 73.9151C196.598 73.6153 198.463 72.6235 200.179 71.7213C203.473 69.9916 208.419 67.2916 209.578 66.5977C213.797 64.0589 214.512 63.8301 215.566 64.6561C216.009 64.9913 216.095 65.1947 216.097 65.8907C216.103 66.8928 215.755 67.2417 213.322 68.8148C211.423 70.0181 210.782 70.3828 205.534 73.3138C203.489 74.4722 199.955 76.5532 197.701 77.9307C193.863 80.2948 191.815 81.534 185.894 85.0688C184.569 85.8639 182.658 87.001 181.663 87.5948C173.638 92.3917 158.273 101.091 152.081 104.335C150.638 105.086 147.234 106.892 143.177 109.049C134.121 113.905 123.816 119.305 120.198 121.103C119.041 121.692 117.654 122.391 117.149 122.681C116.632 122.957 114.987 123.769 113.532 124.479C112.064 125.203 110.241 126.102 109.466 126.488C108.704 126.888 106.135 128.121 103.77 129.243C101.406 130.362 97.9278 132.006 96.0645 132.889C92.232 134.707 90.479 135.541 87.1484 137.175C84.6072 138.409 79.8362 140.688 77.3239 141.843C76.455 142.239 75.7332 142.629 75.7312 142.684C75.7247 142.87 85.1194 139.817 90.8837 137.747C100.235 134.398 108.277 131.058 121.612 124.975C137.664 117.652 146.285 113.408 160.499 105.888C162.583 104.772 164.449 103.78 164.639 103.68C164.816 103.565 165.605 103.166 166.369 102.764C167.131 102.364 169.487 101.096 171.625 99.9555C173.749 98.7999 176.079 97.5581 176.787 97.182C182.967 93.9225 185.869 92.3549 191.551 89.1988C200.287 84.3334 205.548 81.3877 207.581 80.2165C208.508 79.6888 209.694 79.0206 210.224 78.7592C210.742 78.4835 212.527 77.5164 214.174 76.6255C218.178 74.4402 220.725 73.0729 223.109 71.8056C225.722 70.4268 231.963 66.9567 234.093 65.7216C237.341 63.8037 240.362 62.1989 240.86 62.1216C241.721 61.9636 242.406 62.2292 242.903 62.9273C243.439 63.6666 243.469 64.31 243.04 65.0966C242.684 65.7389 242.82 65.6626 237.782 68.7081C236.021 69.7831 232.197 72.1339 229.275 73.9301L223.976 77.1929L223.972 78.1014C223.958 78.8888 223.871 79.0999 223.318 79.6159C222.6 80.2853 217.395 83.9 214.675 85.6086C211.834 87.3802 208.036 89.7332 207.301 90.1618C206.932 90.3754 204.722 91.6887 202.389 93.0635C197.052 96.2577 191.853 99.3236 189.549 100.62C183.769 103.893 177.625 107.246 173.202 109.538C168.165 112.168 165.536 113.613 156.66 118.661C144.062 125.839 140.258 127.991 135.626 130.528C132.861 132.048 130.557 133.318 130.516 133.357C130.24 133.641 131.785 132.974 138.399 129.958C155.537 122.138 166.111 117.054 177.025 111.421C180.481 109.643 185.776 106.902 188.797 105.351C199.941 99.6322 205.185 96.7819 215.493 90.9146C223.579 86.3189 227.959 84.1207 229.081 84.1063C229.388 84.1033 229.878 84.2138 230.167 84.3584C230.614 84.562 230.717 84.6974 230.856 85.2911C230.95 85.6677 230.945 86.2165 230.842 86.4929C230.59 87.2184 231.477 86.6757 217.641 94.4636C215.732 95.5457 211.288 98.0643 207.756 100.066C198.704 105.203 198.936 105.063 188.675 110.759C178.78 116.267 176.043 117.761 169.262 121.374C166.89 122.654 164.4 123.971 163.745 124.322C154.239 129.442 136.057 138.468 126.143 142.986C125.152 143.446 121.538 145.111 118.127 146.716C105.262 152.748 98.0796 155.957 84.7445 161.679C84.0657 161.975 82.8982 162.469 82.1664 162.791C81.4473 163.101 80.4161 163.545 79.9146 163.756C79.3857 163.965 78.3961 164.397 77.6913 164.694C75.6823 165.586 72.6439 166.87 68.8198 168.447C66.8813 169.246 65.2918 169.954 65.2781 169.993C65.2743 170.1 72.028 168.038 76.0836 166.71C92.9968 161.113 103.244 157.342 115.735 152.151C118.826 150.87 119.87 150.411 123.196 148.965C124.009 148.62 126.113 147.69 127.878 146.923C132.465 144.919 139.606 141.694 142.977 140.073C144.593 139.314 146.346 138.48 146.904 138.244C148.329 137.586 155.347 134.089 161.429 130.975C178.967 122.031 181.663 120.602 190.97 115.435C213.484 102.911 218.145 100.32 220.148 99.2288C221.373 98.577 224.59 96.7925 227.302 95.269C237.402 89.6223 239.625 88.6841 241.258 89.4082C242.469 89.9583 242.689 91.3016 241.816 92.5805C241.307 93.3383 238.262 95.2495 231.65 98.962C227.969 101.025 220.067 105.761 213.498 109.821C212.417 110.491 210.412 111.717 209.059 112.538C206.697 113.966 203.953 115.62 198.82 118.728C197.55 119.499 195.638 120.66 194.56 121.305C193.496 121.936 191.763 122.959 190.739 123.576C182.087 128.727 171.805 134.62 165.281 138.149C157.572 142.317 155.626 143.331 145.394 148.532C141.707 150.421 124.481 158.868 123.435 159.325C123.177 159.436 121.167 160.383 118.938 161.426C112.021 164.698 108.179 166.449 102.521 168.884C99.5081 170.195 97.0511 171.298 97.0492 171.353C97.0445 171.487 99.4284 170.553 108.361 166.977C118.717 162.821 121.198 161.799 128.972 158.476C132.744 156.844 134.032 156.287 140.603 153.361C142.354 152.58 145.353 151.256 147.268 150.4C149.182 149.571 150.959 148.791 151.204 148.667C151.461 148.556 153.824 147.489 156.499 146.312C161.928 143.883 167.7 141.238 174.835 137.866C177.497 136.623 180.35 135.307 181.152 134.947C183.581 133.896 199.907 126.367 203.631 124.573C207.913 122.517 209.285 121.858 211.569 120.76C212.534 120.273 214.778 119.189 216.544 118.341C224.061 114.715 228.156 112.626 233.159 109.847C235.598 108.503 237.896 107.339 238.273 107.274C239.404 107.047 240.477 107.725 240.666 108.787C240.763 109.445 240.493 110.345 240.036 110.771C239.552 111.222 234.128 114.24 227.591 117.726C224.514 119.356 218.666 122.64 209.448 127.904C206.463 129.603 180.162 144.188 175.993 146.447C174.166 147.452 170.23 149.6 167.274 151.22C155.529 157.652 153.105 158.983 151.197 160.012C150.108 160.588 148.201 161.618 146.989 162.284C145.75 162.949 144.006 163.903 143.094 164.393C142.182 164.883 140.52 165.786 139.404 166.389C138.286 166.991 136.98 167.695 136.503 167.932C136.013 168.182 133.033 169.723 129.889 171.363C126.73 173.016 123.096 174.907 121.778 175.542C118.976 176.94 117.535 177.665 111.752 180.578C109.372 181.763 107.251 182.813 106.995 182.897C106.291 183.166 106.176 183.404 106.879 183.16C109.098 182.382 128.241 174.552 133.369 172.324C147.982 166.005 177.796 151.839 187.766 146.468C188.229 146.217 192.271 144.126 196.748 141.838C201.225 139.548 205.185 137.508 205.553 137.295C205.922 137.081 206.861 136.592 207.635 136.205C211.362 134.331 218.47 130.544 225.392 126.723C228.022 125.279 231.06 123.608 232.149 123.029C234.574 121.699 238.392 119.532 240.929 118.043C244.191 116.114 252.233 111.195 255.416 109.208C261.619 105.309 264.924 103.312 265.301 103.218C265.801 103.089 266.778 103.39 267.178 103.818C267.319 103.97 267.435 104.509 267.417 105.016C267.386 105.924 267.386 105.924 266.088 107.134C263.711 109.351 258.77 112.719 252.618 116.313C248.949 118.443 233.072 127.256 227.844 130.041C227.327 130.317 226.128 130.971 225.176 131.471C221.716 133.328 218.938 134.781 217.892 135.292C217.309 135.579 216.205 136.142 215.443 136.542C214.681 136.942 213.578 137.506 212.994 137.794C212.411 138.081 211.526 138.518 211.05 138.755C210.56 139.006 209.5 139.53 208.658 139.927C200.256 144.044 198.35 145.047 189.167 150.045C187.901 150.735 185.803 151.864 184.523 152.542C183.257 153.233 181.935 153.948 181.609 154.125C181.076 154.441 174.746 157.787 171.151 159.667C166.114 162.298 155.651 167.638 153.748 168.562C152.512 169.147 150.038 170.343 148.217 171.215C144.288 173.123 132.987 178.341 128.618 180.246C119.022 184.467 114.11 186.594 108.645 188.876C107.886 189.197 107.085 189.53 106.881 189.616C105.036 190.433 114.274 187.242 120.949 184.763C138.159 178.348 159.251 169.422 176.425 161.309C182.771 158.309 183.532 157.936 186.074 156.701C187.392 156.066 188.67 155.442 188.929 155.33C191.506 154.245 206.042 146.346 217.997 139.56C219.196 138.88 221.909 137.358 223.996 136.163C226.095 134.98 229.955 132.776 232.599 131.265C235.244 129.753 238.34 127.978 239.499 127.31C240.659 126.643 242.431 125.635 243.455 125.044C247.9 122.501 252.026 120.306 252.782 120.065C254.173 119.645 255.373 120.463 255.328 121.796C255.283 123.077 254.496 123.811 249.308 127.333C245.586 129.849 234.9 136.199 231.704 137.784C231.269 138.009 229.853 138.735 228.573 139.412C224.679 141.441 213.686 147.018 210.683 148.476C209.759 148.924 207.76 149.91 206.264 150.661C202.974 152.284 196.981 155.108 189.743 158.422C182.871 161.577 181.607 162.187 178.137 163.978C176.558 164.805 174.436 165.88 173.428 166.406C172.406 166.918 171.155 167.57 170.638 167.846C170.12 168.122 168.38 168.997 166.775 169.796C165.17 170.595 162.326 172.032 160.45 172.983C158.572 173.933 156.273 175.095 155.349 175.543C154.425 175.992 152.411 177.018 150.861 177.793C148.113 179.167 146.808 179.816 141.206 182.533C139.698 183.268 137.617 184.278 136.585 184.776C131.228 187.368 118.939 192.966 104.876 199.236C98.1303 202.222 90.3961 205.559 86.6286 207.086C85.8562 207.392 84.2572 208.058 83.0633 208.524C79.4166 210.013 76.5834 211.159 72.123 212.994C66.6995 215.211 62.1473 217.003 60.1448 217.708C59.3056 218 58.5615 218.28 58.5061 218.332C58.299 218.525 59.5627 218.301 62.1884 217.712C63.6697 217.389 65.3936 216.996 66.0408 216.857C66.6866 216.719 68.3571 216.323 69.747 215.985C71.1355 215.645 72.9943 215.203 73.8567 214.993C77.4016 214.141 83.1302 212.698 85.4517 212.056C86.8019 211.675 88.2032 211.323 88.5537 211.229C89.9687 210.918 101.85 207.403 105.553 206.197C114.108 203.436 126.314 199.131 132.465 196.7C136.125 195.25 139.793 193.535 146.568 190.082C147.044 189.845 147.682 189.534 147.969 189.37C148.255 189.233 149.764 188.47 151.315 187.695C152.852 186.906 155.532 185.545 157.248 184.643C158.977 183.754 160.731 182.84 161.167 182.613C162.555 181.914 169.69 178.128 171.378 177.225C172.264 176.735 174.17 175.733 175.599 174.967C178.527 173.399 183.581 170.649 192.709 165.622C196.184 163.724 199.182 162.067 199.372 161.966C199.562 161.866 200.966 161.073 202.506 160.205C204.046 159.336 206.881 157.751 208.79 156.669C210.726 155.588 213.643 153.926 215.28 152.967C216.944 152.01 219.222 150.687 220.381 150.019C226.464 146.543 235.895 140.873 253.414 130.191C256.213 128.486 259.026 126.767 259.681 126.387C260.309 126.008 262.931 124.388 265.498 122.795C270.349 119.771 273.88 117.769 274.797 117.506C276.404 117.042 277.856 117.934 277.873 119.391C277.906 120.702 277.212 121.453 273.534 124.211C265.632 130.081 257.639 135.496 249.103 140.744C246.835 142.135 244.651 143.501 244.241 143.756C243.257 144.39 240.281 146.183 236.064 148.694C234.141 149.843 232.2 151.005 231.765 151.284C231.326 151.59 230.508 152.069 229.949 152.383C229.391 152.697 228.641 153.139 228.284 153.368C227.942 153.61 227.054 154.154 226.318 154.581C225.582 155.01 224.381 155.716 223.643 156.144C222.907 156.573 221.215 157.557 219.865 158.325C218.515 159.093 216.634 160.177 215.652 160.731C213.498 161.965 213.66 161.891 211.209 163.169C210.12 163.744 208.811 164.474 208.307 164.764C207.488 165.243 203.063 167.561 200.753 168.71C200.263 168.96 197.677 170.286 194.984 171.662C184.86 176.84 181.776 178.351 172.866 182.424C168.507 184.422 165.139 185.936 160.458 187.951C157.27 189.322 155.639 190.122 148.104 193.894C144.99 195.456 141.235 197.328 137.822 198.988C136.735 199.512 134.912 200.41 133.743 200.983C132.573 201.557 130.575 202.543 129.311 203.153C126.714 204.413 125.872 204.838 124.361 205.599C123.778 205.886 121.901 206.809 120.188 207.632C118.475 208.454 116.586 209.364 116.001 209.65C113.812 210.736 111.312 211.906 109.546 212.698C105.025 214.718 88.941 222.229 88.7892 222.37C88.3721 222.836 107.621 216.2 116.22 212.931C121.895 210.791 134.739 205.734 138.984 203.971C139.756 203.665 142.073 202.716 144.134 201.88C146.194 201.043 149.123 199.834 150.657 199.181C152.189 198.554 153.777 197.874 154.196 197.714C159.184 195.696 179.951 186.145 189.264 181.593C191.684 180.395 196.54 177.959 197.167 177.608C197.44 177.457 199.551 176.34 201.838 175.138C204.112 173.922 206.14 172.856 206.331 172.757C206.508 172.643 207.298 172.243 208.061 171.842C213.045 169.21 230.216 159.627 233.44 157.653C235.037 156.681 235.665 156.302 237.575 155.165C238.435 154.647 239.855 153.787 240.715 153.269C243.418 151.6 250.339 147.445 254.119 145.213C255.728 144.253 256.042 144.064 258.311 142.645C259.022 142.19 260.838 141.091 262.351 140.194C263.866 139.298 265.587 138.262 266.201 137.896C267.771 136.949 268.444 136.812 269.418 137.219C270.194 137.554 270.287 137.624 270.439 138.203C270.535 138.528 270.501 139.1 270.382 139.445C270.115 140.211 269.607 140.608 265.849 142.975C263.128 144.711 257.819 148.293 253.956 150.991C246.613 156.133 232.72 165.549 228.225 168.399C227.569 168.831 226.325 169.63 225.49 170.175C224.656 170.719 223.057 171.746 221.937 172.457C220.815 173.166 219.067 174.281 218.042 174.927C212.726 178.309 201.391 185.263 196.275 188.278C190.654 191.583 182.675 196.183 177.562 199.091C170.951 202.83 156.905 210.477 153.75 212.05C153.302 212.261 152.077 212.886 151.03 213.425C149.968 213.975 147.724 215.113 146.037 215.964C137.549 220.264 132.543 222.789 131.822 223.151C131.374 223.362 130.203 223.963 129.183 224.477C128.175 225.003 126.828 225.664 126.19 225.975C125.564 226.302 124.381 226.888 123.551 227.301C117.755 230.253 108.199 234.904 103.568 237.027C100.579 238.392 95.9699 240.703 95.8692 240.874C95.6125 241.347 111.285 235.719 118.753 232.68C119.512 232.359 121.492 231.547 123.146 230.883C138.193 224.78 151.154 219.099 156.233 216.376C157.963 215.461 166.677 210.847 170.079 209.069C171.169 208.494 172.448 207.815 172.937 207.566C173.401 207.314 176.369 205.761 179.514 204.094C189.207 199.007 199.643 193.278 207.608 188.664C208.671 188.061 210.185 187.19 210.976 186.738C211.768 186.284 212.857 185.655 213.404 185.326C213.95 184.997 217.005 183.233 220.196 181.393C223.387 179.553 227.505 177.185 229.347 176.114C231.188 175.042 233.493 173.72 234.475 173.165C235.456 172.61 237.078 171.693 238.101 171.1C239.109 170.52 240.896 169.501 242.056 168.833C243.229 168.179 244.783 167.298 245.519 166.869C246.268 166.455 247.85 165.546 249.064 164.854C254.804 161.595 259.316 159.066 270.885 152.668C287.808 143.343 287.088 143.678 288.44 144.046C289.247 144.275 289.582 144.606 289.912 145.514C290.314 146.611 289.841 147.489 287.715 149.473C285.822 151.238 284.203 152.49 280.943 154.729C278.575 156.343 272.874 160.034 272.001 160.511C271.673 160.686 269.691 161.94 267.626 163.298C256.098 170.821 238.125 181.926 228.551 187.445C223.654 190.282 213.146 196.128 206.28 199.844C203.16 201.539 199.725 203.504 195.82 205.853C184.859 212.459 172.683 219.371 162.349 224.877C160.02 226.118 157.882 227.261 157.609 227.412C157.323 227.575 156.505 228 155.798 228.376C155.077 228.738 153.007 229.844 151.21 230.795C149.399 231.76 147.371 232.826 146.717 233.176C144.607 234.265 140.523 236.421 139.188 237.149C137.621 237.989 131.02 241.434 127.631 243.173C125.045 244.499 123.48 245.287 120.611 246.724C119.646 247.211 118.285 247.885 117.619 248.223C116.925 248.56 114.599 249.721 112.41 250.807C106.113 253.942 105.444 254.359 108.026 253.501C108.796 253.246 110.162 252.8 111.028 252.51C114.515 251.375 115.231 251.147 116.273 250.796C116.855 250.59 117.844 250.236 118.439 250.015C119.306 249.671 119.519 249.652 119.553 249.908C119.556 250.162 119.609 250.189 119.775 250.035C119.886 249.931 119.946 249.721 119.885 249.598C119.776 249.259 120.413 249.416 120.548 249.754C120.671 250.08 120.463 250.247 119.708 250.461C119.357 250.554 118.546 250.847 117.868 251.118C117.191 251.388 116.539 251.633 116.419 251.641C116.285 251.663 115.864 251.822 115.47 252.009C113.678 252.829 100.365 257.469 99.237 257.67C98.6584 257.769 98.0761 257.227 98.0601 256.547C98.0422 255.919 98.8547 255.212 101.203 253.796C105.981 250.916 109.087 249.235 115.97 245.758C118.147 244.659 120.404 243.533 120.976 243.233C122.854 242.283 133.073 237.014 137.102 234.909C139.252 233.782 141.798 232.466 142.75 231.966C146.806 229.862 146.294 229.978 140.957 232.399C133.231 235.884 125.393 239.191 117.329 242.371C115.554 243.071 113.142 244.029 111.95 244.496C107.207 246.388 103.242 247.813 102.504 247.881C101.082 248.045 100.579 246.758 101.67 245.74C102.43 245.031 122.506 233.798 127.334 231.389C127.959 231.09 128.559 230.737 128.671 230.607C128.905 230.388 128.635 230.486 124.27 232.23C113.103 236.705 105.968 239.356 95.5931 242.882C92.9005 243.817 90.3048 244.689 89.8184 244.859C86.8154 245.876 83.1059 246.882 82.5873 246.798C81.2448 246.604 80.9191 245.203 81.9832 244.21C82.6457 243.592 87.0192 241.22 95.265 236.989C98.0691 235.536 101.712 233.768 108.373 230.551C115.005 227.361 119.654 225.119 120.281 224.767C121.099 224.341 135.377 217.25 140.068 214.968C149.464 210.366 158.918 205.576 165.304 202.151C166.817 201.335 168.559 200.407 169.185 200.081C171.28 199.005 186.612 190.466 191.795 187.493C197.55 184.193 204.305 180.193 209.956 176.78C218.255 171.752 229.544 164.609 229.553 164.368C229.554 164.316 228.289 164.952 226.764 165.78C222.963 167.826 214.687 172.188 213.381 172.836C212.784 173.109 211.095 173.986 209.625 174.762C204.616 177.394 196.877 181.253 190.926 184.064C181.685 188.446 163.051 196.682 154.89 199.979C153.507 200.545 151.583 201.334 150.619 201.742C149.656 202.149 148.475 202.63 147.989 202.799C147.516 202.983 144.385 204.197 141.052 205.496C120.796 213.435 104.582 219.309 85.6418 225.557C79.787 227.505 77.1639 228.376 75.9047 228.826C69.8433 230.993 68.4262 230.969 68.5996 228.717C68.7175 227.265 69.4673 226.823 82.1963 220.892C84.1257 219.998 87.3992 218.468 89.4786 217.486C91.5439 216.515 96.7737 214.065 101.094 212.079C105.413 210.091 109.883 208.016 111.011 207.481C112.138 206.947 113.661 206.225 114.393 205.903C115.127 205.555 115.766 205.217 115.809 205.123C115.853 205.032 113.908 205.605 111.475 206.375C100.688 209.874 87.9359 213.397 72.6115 217.125C67.4898 218.363 65.3609 218.876 63.099 219.386C61.6972 219.711 58.9755 220.337 57.0359 220.777C51.9405 221.969 48.0397 222.715 47.6299 222.58ZM74.4613 198.154C75.1382 197.91 76.2603 197.534 76.9633 197.293C78.6951 196.712 79.0065 196.602 82.1174 195.481C87.5183 193.519 100.546 188.574 106.497 186.203C111.823 184.104 125.074 178.513 125.078 178.379C125.095 178.286 123.715 178.799 120.461 180.101C116.247 181.785 99.7862 188.171 97.6077 188.964C87.0618 192.833 83.6236 194.129 80.545 195.425C78.5923 196.238 76.1377 197.235 75.1215 197.641C73.0061 198.476 72.6078 198.797 74.4613 198.154ZM114.695 241.907C114.811 242.032 126.727 237.17 132.089 234.804C139.949 231.323 155.303 224.029 164.745 219.28C165.915 218.706 168.131 217.595 169.681 216.82C171.218 216.031 172.715 215.283 173.002 215.119C173.288 214.982 174.812 214.178 176.405 213.367C180.448 211.276 187.583 207.436 191.795 205.084C201.009 199.926 212.51 193.178 212.506 192.924C212.509 192.871 211.598 193.307 210.468 193.896C209.34 194.458 207.843 195.209 207.164 195.532C206.458 195.856 205.179 196.479 204.309 196.903C202.173 197.963 198.217 199.896 197.647 200.144C197.39 200.254 195.447 201.164 193.328 202.159C191.195 203.14 184.77 206.11 179.04 208.742C168.922 213.4 166.502 214.599 158.711 218.763C152.992 221.823 151.998 222.336 150.526 223.141C148.32 224.32 146.742 225.148 136.52 230.417C125.498 236.099 124.382 236.675 120.678 238.63C119.207 239.408 117.48 240.297 116.853 240.621C116.229 240.947 115.477 241.361 115.178 241.539C114.889 241.7 114.668 241.879 114.695 241.907ZM95.1328 172.187C95.2227 172.284 96.1722 171.863 96.1782 171.73C96.18 171.678 95.9374 171.748 95.6393 171.872C95.3258 172.008 95.0944 172.146 95.1328 172.187ZM125.491 126.008C125.486 126.143 126.977 125.554 127.198 125.347C127.267 125.256 126.932 125.338 126.429 125.547C125.899 125.755 125.491 125.955 125.491 126.008ZM127.526 125.116C127.51 125.181 127.644 125.186 127.819 125.126C128.295 124.916 128.352 124.81 127.92 124.902C127.705 124.949 127.515 125.05 127.526 125.116ZM128.733 124.584C128.823 124.681 129.773 124.26 129.779 124.127C129.782 124.073 129.538 124.144 129.24 124.268C128.928 124.403 128.695 124.543 128.733 124.584ZM130.103 124.031C130.086 124.124 130.208 124.087 130.348 123.932C130.5 123.791 130.503 123.711 130.354 123.773C130.217 123.821 130.106 123.951 130.103 124.031ZM212.01 189.406C211.992 189.526 213.108 188.976 214.227 188.293C214.541 188.104 216.122 187.25 217.755 186.399C223.309 183.519 231.832 178.953 235.064 177.128C236.237 176.474 238.906 174.99 241.007 173.806C245.287 171.416 245.75 171.139 249.516 168.945C250.977 168.074 252.981 166.929 253.949 166.36C256.744 164.762 260.892 162.286 262.738 161.109C265.758 159.224 270.313 156.162 270.414 155.991C270.528 155.781 268.73 156.733 259.954 161.585C251.316 166.336 251.33 166.323 242.355 171.514C239.3 173.279 236.026 175.169 235.046 175.723C234.076 176.29 231.376 177.88 229.042 179.255C226.722 180.644 224.499 181.943 224.13 182.156C223.75 182.357 222.289 183.229 220.87 184.062C219.452 184.893 216.872 186.421 215.152 187.431C213.421 188.453 212.013 189.352 212.01 189.406ZM161.012 109.154C160.926 109.312 160.952 109.34 161.077 109.224C161.173 109.161 161.405 109.021 161.581 108.934C161.882 108.784 161.882 108.784 161.505 108.852C161.288 108.898 161.069 109.022 161.012 109.154ZM162.235 108.529C162.149 108.686 162.175 108.715 162.3 108.598C162.396 108.536 162.628 108.395 162.804 108.308C163.103 108.16 163.103 108.16 162.726 108.225C162.512 108.271 162.293 108.397 162.235 108.529ZM163.405 107.955C163.404 108.009 163.539 107.987 163.715 107.9C163.878 107.798 165.565 106.948 167.456 106.013C172.667 103.374 175.866 101.682 175.87 101.575C175.886 101.51 173.071 102.894 169.643 104.645C166.212 106.422 163.407 107.902 163.405 107.955ZM142.933 70.436C142.93 70.5155 143.078 70.5344 143.254 70.4472C143.524 70.3495 143.526 70.3235 143.271 70.3009C143.085 70.2944 142.936 70.3565 142.933 70.436ZM176.181 101.439C176.191 101.507 176.395 101.447 176.64 101.295C176.885 101.17 177.092 101.003 177.107 100.936C177.097 100.869 176.893 100.929 176.648 101.081C176.403 101.205 176.197 101.371 176.181 101.439ZM177.418 100.826C177.401 100.919 177.523 100.882 177.663 100.728C177.815 100.586 177.818 100.507 177.669 100.569C177.533 100.616 177.421 100.747 177.418 100.826ZM164.485 80.8637C164.468 80.9565 164.59 80.9196 164.73 80.7652C164.881 80.6237 164.884 80.5442 164.735 80.6062C164.599 80.6536 164.487 80.7842 164.485 80.8637ZM209.458 109.428C209.441 109.521 209.562 109.485 209.703 109.33C209.855 109.188 209.858 109.109 209.709 109.171C209.572 109.221 209.461 109.349 209.458 109.428ZM210.14 109.053C210.123 109.145 210.245 109.108 210.385 108.954C210.537 108.813 210.539 108.733 210.39 108.795C210.254 108.843 210.142 108.973 210.14 109.053Z" fill="#FF5E3A"/>
<path fill-rule="evenodd" clip-rule="evenodd" d="M102.962 269.138C102.176 268.71 102.141 267.788 102.887 267.092C103.896 266.151 128.983 252.621 139.607 247.288C140.586 246.788 144.439 244.77 147.585 243.103C148.102 242.827 149.995 241.81 151.793 240.831C153.589 239.88 156.138 238.485 157.458 237.768C158.78 237.052 160.863 235.935 162.091 235.257C163.302 234.591 165.509 233.385 166.968 232.595C176.817 227.259 178.142 226.438 173.294 228.632C166.898 231.549 160.453 234.357 154.868 236.648C149.89 238.706 143.28 241.308 142.225 241.644C141.683 241.84 140.91 242.146 140.503 242.372C140.095 242.572 139.73 242.706 139.678 242.651C139.626 242.596 139.45 242.657 139.299 242.771C139.134 242.898 138.456 243.17 137.767 243.372C137.079 243.576 136.497 243.782 136.455 243.848C136.231 244.106 135.099 244.388 134.919 244.195C134.764 244.029 134.724 244.043 134.781 244.297C134.85 244.647 134.429 244.779 134.172 244.504C134.044 244.366 134.114 244.248 134.522 244.048C134.808 243.911 135.026 243.758 134.988 243.717C134.963 243.69 135.15 243.615 135.447 243.572C135.73 243.515 135.975 243.39 135.965 243.297C135.982 243.204 136.048 243.193 136.126 243.276C136.204 243.36 136.339 243.311 136.411 243.167C136.47 243.008 136.592 242.945 136.67 243.029C136.748 243.113 137.018 243.041 137.304 242.878C137.577 242.727 137.886 242.672 137.976 242.768C138.079 242.879 138.214 242.83 138.356 242.621C138.611 242.229 139.429 241.75 139.461 241.978C139.486 242.058 139.689 241.972 139.937 241.768C140.171 241.549 140.496 241.426 140.656 241.458C140.828 241.504 140.922 241.493 140.871 241.438C140.781 241.342 142.097 240.759 143.369 240.323C143.708 240.214 144.114 240.015 144.267 239.872C144.419 239.731 144.609 239.631 144.689 239.659C144.768 239.716 145.283 239.52 145.839 239.285C146.381 239.036 147.047 238.752 147.317 238.654C147.587 238.557 147.832 238.458 147.886 238.434C148.228 238.246 149.488 237.688 153.952 235.799C161.4 232.625 171.691 227.96 177.621 225.04C179.279 224.242 181.672 223.069 182.937 222.433C187.695 220.113 198.105 214.771 201.006 213.174C207.017 209.843 218.372 202.689 233.801 192.511C246.153 184.35 251.327 180.841 267.419 169.711C270.993 167.229 275.072 164.433 276.455 163.478C277.851 162.537 281.206 160.209 283.919 158.326C289.343 154.56 289.996 154.182 290.674 154.326C291.974 154.613 292.206 155.997 291.145 157.269C289.501 159.243 277.454 168.204 262.757 178.421C260.935 179.679 259.046 181.004 258.524 181.36C257.306 182.213 250.452 186.744 248.06 188.278C243.823 190.99 231.971 198.167 226.503 201.303C225.945 201.617 224.13 202.664 222.466 203.621C220.802 204.579 216.413 207.046 212.721 209.094C209.027 211.143 204.828 213.563 203.379 214.447C199.16 217.039 189.755 222.658 186.469 224.561C185.72 224.976 184.056 225.933 182.772 226.69C177.822 229.55 168.826 234.581 157.83 240.652C145.962 247.199 145.28 247.578 141.115 249.73C139.727 250.457 137.888 251.421 137.031 251.859C136.16 252.31 135.167 252.849 134.784 253.05C134.416 253.264 133.203 253.903 132.102 254.466C130.988 255.015 128.591 256.268 126.782 257.207C111.699 265.127 112.869 264.499 112.593 264.783C112.275 265.08 113.559 264.684 117.256 263.329C118.961 262.72 120.559 262.135 120.828 262.037C121.098 261.94 121.478 261.792 121.694 261.72C122.291 261.501 124.866 260.468 127.062 259.583C128.133 259.125 129.651 258.511 130.423 258.204C135.14 256.31 151.061 248.876 159.223 244.777C159.944 244.415 161.018 243.878 161.602 243.591C165.816 241.573 175.291 236.584 182.484 232.613C187.186 230.012 198.476 223.563 200.389 222.374C200.771 222.147 202.953 220.86 205.246 219.496C221.386 210.024 233.463 202.454 245.018 194.573C245.895 193.989 247.946 192.59 249.617 191.472C259.468 184.893 273.033 175.706 276.444 173.299C277.349 172.662 280.238 170.666 282.881 168.846C293.425 161.571 294.661 160.985 296.026 162.449C296.786 163.264 296.698 164.25 295.777 165.393C294.995 166.355 287.274 173.529 282.021 178.17C275.939 183.558 269.251 189.123 260.892 195.807C259.27 197.113 257.069 198.881 256.012 199.713C251.022 203.722 240.492 211.679 235.341 215.348C227.543 220.916 222.382 224.437 214.121 229.841C210.483 232.225 204.088 236.279 202.887 236.959C202.628 237.097 202.476 237.238 202.556 237.241C202.69 237.246 209.288 233.467 214.924 230.15C215.483 229.836 217.613 228.574 219.686 227.363C221.746 226.139 224.695 224.397 226.238 223.449C227.78 222.528 229.35 221.581 229.732 221.379C232.214 219.942 237.731 216.58 247.263 210.686C254.748 206.057 256.17 205.144 259.854 202.587C261.114 201.722 265.524 198.668 269.659 195.793C276.823 190.818 279.876 188.693 284.876 185.192C286.082 184.351 287.273 183.498 287.534 183.334C287.779 183.182 288.546 182.648 289.232 182.165C293.573 179.149 295.44 178.105 296.114 178.33C296.563 178.479 297.325 179.267 297.378 179.632C297.457 180.102 297.111 180.759 296.477 181.35C295.856 181.93 295.856 181.93 296.359 182.054C296.77 182.162 296.924 182.302 297.162 182.804C297.868 184.392 297.571 184.85 293.634 188.16C286.545 194.1 280.565 198.488 270.729 204.973C264.504 209.072 263.095 210.053 259.569 212.669C258.06 213.793 255.824 215.437 254.577 216.316C253.331 217.195 251.933 218.188 251.48 218.533C243.883 224.068 230.907 232.888 221.297 239.061C220.806 239.365 219.384 240.278 218.139 241.075C213.585 244.003 201.853 251.305 198.605 253.223C198.195 253.475 195.901 254.866 193.485 256.317C191.082 257.784 188.666 259.236 188.107 259.55C187.549 259.864 186.348 260.57 185.446 261.127C184.544 261.685 183.494 262.303 183.126 262.516C182.757 262.73 181.421 263.485 180.193 264.219C178.952 264.936 175.299 267 172.083 268.788C168.866 270.572 166.248 272.085 166.246 272.137C166.243 272.244 178.839 266.283 183.285 264.073C193.717 258.865 199.245 255.904 207.24 251.265C212.409 248.251 212.82 247.998 213.612 247.519C214.036 247.254 215.646 246.267 217.202 245.333C221.843 242.528 228.647 238.303 232.079 236.084C233.856 234.944 235.632 233.802 236.055 233.565C236.465 233.313 237.914 232.372 239.268 231.473C240.623 230.57 242.347 229.429 243.1 228.934C245.684 227.248 252.316 222.56 256.184 219.703C268.189 210.808 278.11 203.003 288.272 194.431C291.618 191.622 292.342 191.153 293.277 191.185C294.585 191.231 295.405 192.97 294.634 194.026C293.611 195.42 279.899 206.888 274.619 210.78C273.864 211.328 273.246 211.828 273.257 211.894C273.254 211.974 273.612 212.081 274.049 212.163C275.006 212.33 275.535 212.844 275.742 213.813C276.004 215.118 275.638 215.639 272.574 218.446C270.104 220.699 267.587 222.735 260.983 227.756C259.733 228.715 257.699 230.328 256.449 231.34C251.097 235.71 249.584 236.94 247.665 238.343C245.331 240.079 240.826 243.195 235.954 246.473C234.079 247.73 230.835 249.928 228.755 251.353C226.674 252.777 224.36 254.34 223.622 254.848C222.869 255.344 221.527 256.258 220.611 256.882C214.124 261.252 203.498 267.415 201.474 267.987C200.839 268.165 199.886 267.892 199.41 267.381C199.024 266.967 199.149 265.662 199.604 265.237C199.784 265.069 200.958 264.362 202.211 263.684C207.117 261.022 211.937 258.023 218.931 253.283C221.615 251.479 223.119 250.463 223.94 249.931C225.061 249.196 224.153 249.578 221.621 250.905C220.191 251.67 218.476 252.573 217.809 252.91C217.129 253.261 215.849 253.937 214.965 254.428C214.067 254.905 211.315 256.386 208.824 257.674C201.118 261.735 199.471 262.6 191.249 266.936C188.539 268.378 185.817 269.805 185.19 270.132C183.979 270.745 178.124 273.881 173.643 276.303C169.734 278.426 167.141 279.576 166.286 279.575C165.377 279.571 164.834 279.017 164.879 278.123C164.893 277.362 165.391 276.818 166.436 276.414C167.343 276.059 171.606 273.789 174.783 271.988C176.133 271.22 179.132 269.535 181.449 268.225C183.767 266.916 185.664 265.794 185.665 265.74C185.681 265.675 185.206 265.857 184.649 266.147C184.091 266.433 182.664 267.119 181.481 267.679C180.285 268.226 177.772 269.408 175.898 270.277C174.024 271.174 168.863 273.533 164.434 275.57C157.468 278.735 154.548 280.062 148.072 282.95C146.077 283.829 144.413 284.399 143.798 284.405C143.183 284.411 142.43 283.769 142.253 283.082C142.087 282.488 142.722 281.533 143.778 280.729C146.605 278.609 153.684 274.513 163.571 269.245C174.749 263.315 180.98 259.777 201.504 247.611C209.431 242.93 222.968 234.543 222.975 234.329C222.99 234.263 222.596 234.449 222.12 234.74C221.07 235.358 213.51 239.437 209.521 241.531C208.759 241.931 207.466 242.596 206.663 243.034C204.62 244.112 194.226 249.415 192.921 250.037C192.337 250.324 190.868 251.047 189.658 251.661C184.639 254.172 171.041 260.526 167.786 261.856C167.27 262.079 165.317 262.892 163.444 263.708C150.366 269.291 145.108 271.38 144.284 271.27C143.885 271.229 142.871 271.556 141.067 272.334C136.087 274.498 134.557 275.047 133.773 274.952C132.855 274.827 132.52 274.495 132.563 273.654C132.582 273.12 132.711 272.871 133.318 272.305C134.45 271.249 137.986 269.167 143.171 266.476C145.539 265.249 152.508 261.617 155.68 259.951C160.771 257.27 188.718 241.901 192.469 239.719C197.843 236.62 199.248 235.774 203.467 233.235C207.153 231.013 211.756 228.113 215.353 225.766C216.817 224.815 218.649 223.623 219.456 223.103C225.239 219.335 233.57 213.506 242.057 207.321C254.152 198.469 271.026 184.826 280.493 176.256C285.309 171.894 285.409 171.722 281.575 174.369C279.001 176.124 273.391 179.884 270.683 181.659C259.25 189.091 252.442 193.504 247.644 196.556C246.934 197.012 244.132 198.8 241.423 200.549C238.702 202.285 236.107 203.93 235.657 204.196C235.193 204.475 234.538 204.879 234.183 205.107C223.691 211.662 197.85 226.436 182.898 234.44C172.467 240.008 159.959 246.147 146.404 252.355C139.274 255.621 131.538 259.013 130.185 259.474C129.982 259.56 128.966 259.966 127.935 260.383C126.917 260.816 123.354 262.229 120.021 263.527C108.467 268.007 103.749 269.567 102.962 269.138ZM205.118 241.048C204.984 241.096 204.871 241.226 204.869 241.307C204.852 241.399 204.974 241.362 205.114 241.208C205.265 241.065 205.267 240.986 205.118 241.048ZM205.593 240.862C205.523 240.981 205.655 240.958 205.89 240.819C206.325 240.567 216.629 234.86 218.33 233.945C222.552 231.66 235.05 223.931 243.393 218.451C259.6 207.804 260.694 207.095 265.829 203.598C267.212 202.643 269.032 201.412 269.855 200.852C275.165 197.269 282.159 192.142 285.213 189.629L286.452 188.603L284.551 189.885C283.497 190.584 281.224 192.136 279.472 193.303C277.734 194.486 275.434 196.061 274.339 196.798C273.244 197.535 271.656 198.629 270.779 199.213C269.902 199.797 267.906 201.144 266.345 202.212C264.771 203.266 262.309 204.918 260.871 205.896C259.434 206.875 257.366 208.259 256.273 208.995C255.178 209.732 253.864 210.621 253.345 210.978C252.826 211.334 251.715 212.083 250.882 212.629C250.061 213.188 248.212 214.448 246.774 215.426C245.324 216.391 243.75 217.445 243.272 217.763C242.781 218.067 241.577 218.853 240.62 219.488C239.006 220.553 237.872 221.276 233.933 223.811C231.993 225.053 223.866 230.074 221.969 231.196C221.109 231.714 220.031 232.359 219.593 232.637C219.143 232.903 218.515 233.281 218.161 233.456C217.819 233.644 216.675 234.3 215.624 234.917C212.54 236.761 207.78 239.521 206.703 240.111C206.142 240.427 205.65 240.759 205.593 240.862ZM240.065 235.319C239.93 235.368 239.818 235.498 239.815 235.578C239.799 235.67 239.919 235.635 240.061 235.479C240.211 235.336 240.214 235.257 240.065 235.319Z" fill="#FF5E3A"/>
</svg>
