<svg width="300" height="188" viewBox="0 0 300 188" fill="none" xmlns="http://www.w3.org/2000/svg">
<rect x="63.9023" y="63.9688" width="168" height="36" fill="#1AACFF"/>
<g opacity="0.7" filter="url(#filter0_f_116_4872)">
<rect x="75.9609" y="76.0234" width="147.95" height="36.1632" fill="#1AACFF"/>
</g>
<path d="M76.0433 75.568H78.6353V85.882H85.8893V88.168H76.0433V75.568ZM91.8763 77.62H93.7483C95.5723 77.62 96.8683 77.992 97.6363 78.736C98.4163 79.48 98.8063 80.794 98.8063 82.678V88.168H96.4123V86.242C95.7643 87.706 94.3603 88.438 92.2003 88.438H91.6243C88.3123 88.438 86.6563 87.268 86.6563 84.928C86.6563 83.872 87.0343 83.164 87.7903 82.804C88.5463 82.444 89.7463 82.264 91.3903 82.264H96.3943C96.3463 81.256 96.1123 80.554 95.6923 80.158C95.2843 79.762 94.5523 79.564 93.4963 79.564H91.8403C90.1123 79.564 89.2483 80.146 89.2483 81.31H86.9083C86.9083 80.05 87.3103 79.12 88.1143 78.52C88.9303 77.92 90.1843 77.62 91.8763 77.62ZM91.6063 86.62H92.9743C94.1023 86.62 94.9423 86.386 95.4943 85.918C96.0463 85.438 96.3463 84.64 96.3943 83.524H91.6243C90.6763 83.524 90.0043 83.626 89.6083 83.83C89.2123 84.022 89.0143 84.388 89.0143 84.928C89.0143 86.056 89.8783 86.62 91.6063 86.62ZM107.383 77.638H107.707C109.411 77.638 110.635 78.016 111.379 78.772C112.123 79.528 112.495 80.854 112.495 82.75V88.186H110.101V82.75C110.101 81.61 109.897 80.812 109.489 80.356C109.093 79.9 108.331 79.672 107.203 79.672H106.303C105.163 79.672 104.317 79.936 103.765 80.464C103.225 80.98 102.955 81.844 102.955 83.056V88.168H100.543V77.89H102.703V80.14C103.435 78.472 104.995 77.638 107.383 77.638ZM123.574 79.6V74.668H125.986V88.168H123.574V86.476C122.782 87.796 121.36 88.456 119.308 88.456H118.984C117.304 88.456 116.062 88.054 115.258 87.25C114.466 86.446 114.07 85.042 114.07 83.038C114.07 81.034 114.466 79.63 115.258 78.826C116.062 78.022 117.304 77.62 118.984 77.62H119.308C121.36 77.62 122.782 78.28 123.574 79.6ZM119.47 86.404H120.334C121.45 86.404 122.266 86.146 122.782 85.63C123.31 85.102 123.574 84.238 123.574 83.038C123.574 81.838 123.31 80.98 122.782 80.464C122.266 79.936 121.45 79.672 120.334 79.672H119.47C118.354 79.672 117.562 79.93 117.094 80.446C116.638 80.95 116.41 81.814 116.41 83.038C116.41 84.262 116.638 85.132 117.094 85.648C117.562 86.152 118.354 86.404 119.47 86.404ZM129.114 76.612H128.7C128.22 76.612 127.872 76.516 127.656 76.324C127.452 76.12 127.35 75.784 127.35 75.316C127.35 74.86 127.452 74.536 127.656 74.344C127.872 74.152 128.22 74.056 128.7 74.056H129.114C129.594 74.056 129.942 74.152 130.158 74.344C130.374 74.536 130.482 74.86 130.482 75.316C130.482 75.784 130.374 76.12 130.158 76.324C129.942 76.516 129.594 76.612 129.114 76.612ZM130.122 88.168H127.71V77.89H130.122V88.168ZM138.695 77.638H139.019C140.723 77.638 141.947 78.016 142.691 78.772C143.435 79.528 143.807 80.854 143.807 82.75V88.186H141.413V82.75C141.413 81.61 141.209 80.812 140.801 80.356C140.405 79.9 139.643 79.672 138.515 79.672H137.615C136.475 79.672 135.629 79.936 135.077 80.464C134.537 80.98 134.267 81.844 134.267 83.056V88.168H131.855V77.89H134.015V80.14C134.747 78.472 136.307 77.638 138.695 77.638ZM154.885 79.528V77.89H157.297V87.16C157.297 88.912 156.931 90.112 156.199 90.76C155.467 91.42 154.231 91.75 152.491 91.75H146.101V89.698H152.491C153.427 89.698 154.057 89.518 154.381 89.158C154.717 88.81 154.885 88.144 154.885 87.16V86.116C154.081 87.388 152.653 88.024 150.601 88.024H150.277C148.621 88.024 147.391 87.634 146.587 86.854C145.783 86.074 145.381 84.73 145.381 82.822C145.381 80.914 145.783 79.57 146.587 78.79C147.391 78.01 148.621 77.62 150.277 77.62H150.601C152.653 77.62 154.081 78.256 154.885 79.528ZM150.781 85.972H151.627C152.755 85.972 153.577 85.726 154.093 85.234C154.621 84.73 154.885 83.926 154.885 82.822C154.885 81.718 154.621 80.92 154.093 80.428C153.577 79.924 152.755 79.672 151.627 79.672H150.781C149.689 79.672 148.903 79.918 148.423 80.41C147.955 80.902 147.721 81.706 147.721 82.822C147.721 83.938 147.955 84.742 148.423 85.234C148.903 85.726 149.689 85.972 150.781 85.972ZM173.22 75.568C174.744 75.568 175.836 75.886 176.496 76.522C177.168 77.158 177.504 78.292 177.504 79.924C177.504 81.556 177.174 82.69 176.514 83.326C175.854 83.95 174.756 84.262 173.22 84.262H166.65V88.168H164.058V75.568H173.22ZM166.65 82.048H172.644C173.46 82.048 174.042 81.898 174.39 81.598C174.738 81.286 174.912 80.728 174.912 79.924C174.912 79.132 174.738 78.58 174.39 78.268C174.042 77.944 173.46 77.782 172.644 77.782H166.65V82.048ZM183.618 77.62H185.49C187.314 77.62 188.61 77.992 189.378 78.736C190.158 79.48 190.548 80.794 190.548 82.678V88.168H188.154V86.242C187.506 87.706 186.102 88.438 183.942 88.438H183.366C180.054 88.438 178.398 87.268 178.398 84.928C178.398 83.872 178.776 83.164 179.532 82.804C180.288 82.444 181.488 82.264 183.132 82.264H188.136C188.088 81.256 187.854 80.554 187.434 80.158C187.026 79.762 186.294 79.564 185.238 79.564H183.582C181.854 79.564 180.99 80.146 180.99 81.31H178.65C178.65 80.05 179.052 79.12 179.856 78.52C180.672 77.92 181.926 77.62 183.618 77.62ZM183.348 86.62H184.716C185.844 86.62 186.684 86.386 187.236 85.918C187.788 85.438 188.088 84.64 188.136 83.524H183.366C182.418 83.524 181.746 83.626 181.35 83.83C180.954 84.022 180.756 84.388 180.756 84.928C180.756 86.056 181.62 86.62 183.348 86.62ZM201.609 79.528V77.89H204.021V87.16C204.021 88.912 203.655 90.112 202.923 90.76C202.191 91.42 200.955 91.75 199.215 91.75H192.825V89.698H199.215C200.151 89.698 200.781 89.518 201.105 89.158C201.441 88.81 201.609 88.144 201.609 87.16V86.116C200.805 87.388 199.377 88.024 197.325 88.024H197.001C195.345 88.024 194.115 87.634 193.311 86.854C192.507 86.074 192.105 84.73 192.105 82.822C192.105 80.914 192.507 79.57 193.311 78.79C194.115 78.01 195.345 77.62 197.001 77.62H197.325C199.377 77.62 200.805 78.256 201.609 79.528ZM197.505 85.972H198.351C199.479 85.972 200.301 85.726 200.817 85.234C201.345 84.73 201.609 83.926 201.609 82.822C201.609 81.718 201.345 80.92 200.817 80.428C200.301 79.924 199.479 79.672 198.351 79.672H197.505C196.413 79.672 195.627 79.918 195.147 80.41C194.679 80.902 194.445 81.706 194.445 82.822C194.445 83.938 194.679 84.742 195.147 85.234C195.627 85.726 196.413 85.972 197.505 85.972ZM217.949 82.372V83.704H207.923C207.995 84.712 208.271 85.42 208.751 85.828C209.243 86.236 210.047 86.44 211.163 86.44H212.639C214.607 86.44 215.591 85.786 215.591 84.478H217.949C217.949 85.882 217.511 86.896 216.635 87.52C215.759 88.132 214.427 88.438 212.639 88.438H210.893C208.985 88.438 207.617 88.048 206.789 87.268C205.973 86.476 205.565 85.066 205.565 83.038C205.565 81.01 205.979 79.6 206.807 78.808C207.635 78.016 208.997 77.62 210.893 77.62H212.639C214.451 77.62 215.789 77.974 216.653 78.682C217.517 79.39 217.949 80.62 217.949 82.372ZM207.923 82.372H215.591C215.591 81.364 215.339 80.656 214.835 80.248C214.343 79.828 213.533 79.618 212.405 79.618H211.163C210.035 79.618 209.231 79.828 208.751 80.248C208.271 80.656 207.995 81.364 207.923 82.372Z" fill="white"/>
<defs>
<filter id="filter0_f_116_4872" x="0.620842" y="0.683342" width="298.63" height="186.844" filterUnits="userSpaceOnUse" color-interpolation-filters="sRGB">
<feFlood flood-opacity="0" result="BackgroundImageFix"/>
<feBlend mode="normal" in="SourceGraphic" in2="BackgroundImageFix" result="shape"/>
<feGaussianBlur stdDeviation="37.67" result="effect1_foregroundBlur_116_4872"/>
</filter>
</defs>
</svg>
