<svg width="192" height="34" viewBox="0 0 192 34" fill="none" xmlns="http://www.w3.org/2000/svg">
<path d="M0 0H14.8276C19.893 0 23.9993 4.10632 23.9993 9.17172C23.9993 14.2371 19.893 18.3434 14.8276 18.3434H0V0Z" fill="#F8CE68"/>
<path d="M0 20.9414L23.9993 33.1704H0V20.9414Z" fill="white"/>
<path d="M53.7 19C54.54 19.1733 55.1533 19.5 55.54 19.98C55.94 20.46 56.14 21.14 56.14 22.02V25H51.88V22.22C51.88 21.6867 51.78 21.32 51.58 21.12C51.38 20.92 51.04 20.82 50.56 20.82H44.8V25H40.6V11H51.18C52.86 11 54.0733 11.3467 54.82 12.04C55.5667 12.7333 55.94 13.9267 55.94 15.62C55.94 16.6067 55.76 17.3667 55.4 17.9C55.0533 18.42 54.4867 18.7867 53.7 19ZM50.16 14.62H44.8V17.42H50.16C50.7333 17.42 51.1267 17.32 51.34 17.12C51.5667 16.92 51.68 16.5533 51.68 16.02C51.68 15.4867 51.5667 15.12 51.34 14.92C51.1267 14.72 50.7333 14.62 50.16 14.62ZM67.8253 18.78V13.58H71.7253V23.48C71.7253 24.5733 71.612 25.48 71.3853 26.2C71.1586 26.92 70.7986 27.48 70.3053 27.88C69.8253 28.2933 69.252 28.58 68.5853 28.74C67.932 28.9 67.112 28.98 66.1253 28.98H58.8253V25.66H66.1253C66.792 25.66 67.2386 25.5267 67.4653 25.26C67.7053 25.0067 67.8253 24.5467 67.8253 23.88V23.1C66.972 24.1 65.532 24.6 63.5053 24.6H63.1453C61.1853 24.6 59.7586 24.1867 58.8653 23.36C57.9853 22.5333 57.5453 21.0067 57.5453 18.78V13.58H61.4453V18.78C61.4453 19.7667 61.612 20.4667 61.9453 20.88C62.2786 21.28 62.952 21.48 63.9653 21.48H65.2853C66.312 21.48 66.992 21.28 67.3253 20.88C67.6586 20.4667 67.8253 19.7667 67.8253 18.78ZM77.5266 25H73.6266V10H77.5266V25ZM81.6744 12.56H81.0744C80.3544 12.56 79.8344 12.42 79.5144 12.14C79.1944 11.8467 79.0344 11.3533 79.0344 10.66C79.0344 9.99333 79.1944 9.52 79.5144 9.24C79.8344 8.94667 80.3544 8.8 81.0744 8.8H81.6744C82.3944 8.8 82.9144 8.94667 83.2344 9.24C83.5677 9.52 83.7344 9.99333 83.7344 10.66C83.7344 11.3533 83.5677 11.8467 83.2344 12.14C82.9144 12.42 82.3944 12.56 81.6744 12.56ZM83.3344 25H79.4344V13.58H83.3344V25ZM93.4222 25.3L90.9622 25.3C88.8422 25.3 87.3222 24.8667 86.4022 24C85.4955 23.12 85.0422 21.5533 85.0422 19.3C85.0422 17.0467 85.5022 15.48 86.4222 14.6C87.3422 13.72 88.8555 13.28 90.9622 13.28H93.4222C95.4355 13.28 96.9222 13.6467 97.8822 14.38C98.8555 15.1 99.3422 16.3 99.3422 17.98H95.5222C95.5222 17.06 94.7022 16.6 93.0622 16.6H91.3822C90.3555 16.6 89.6755 16.8067 89.3422 17.22C89.0089 17.62 88.8422 18.3133 88.8422 19.3C88.8422 20.2733 89.0089 20.96 89.3422 21.36C89.6755 21.76 90.3555 21.96 91.3822 21.96H93.0622C94.7022 21.96 95.5222 21.5 95.5222 20.58H99.3422C99.3422 22.2733 98.8622 23.4867 97.9022 24.22C96.9422 24.94 95.4489 25.3 93.4222 25.3ZM113.346 16.3H116.506C118.986 16.3 120.819 16.6467 122.006 17.34C123.193 18.0333 123.786 19.1333 123.786 20.64C123.786 22.0933 123.213 23.2333 122.066 24.06C120.933 24.8867 119.139 25.3 116.686 25.3H114.126C111.659 25.3 109.826 24.8933 108.626 24.08C107.439 23.2533 106.846 21.9867 106.846 20.28H110.906C110.906 20.72 111.113 21.0867 111.526 21.38C111.953 21.6733 112.619 21.82 113.526 21.82H117.706C118.973 21.82 119.606 21.4533 119.606 20.72C119.606 20.08 118.973 19.76 117.706 19.76H114.146C111.586 19.76 109.759 19.42 108.666 18.74C107.586 18.0467 107.046 16.9 107.046 15.3C107.046 13.6467 107.666 12.4667 108.906 11.76C110.159 11.0533 111.906 10.7 114.146 10.7H116.306C118.773 10.7 120.599 11.1133 121.786 11.94C122.986 12.7533 123.586 14.0133 123.586 15.72L119.526 15.72C119.526 15.2933 119.326 14.9333 118.926 14.64C118.526 14.3333 117.919 14.18 117.106 14.18H113.346C111.866 14.18 111.126 14.54 111.126 15.26C111.126 15.62 111.293 15.8867 111.626 16.06C111.973 16.22 112.546 16.3 113.346 16.3ZM133.405 20.26H137.205C137.205 21.94 136.732 23.2 135.785 24.04C134.838 24.88 133.472 25.3 131.685 25.3H131.425C129.665 25.3 128.338 24.9133 127.445 24.14C126.552 23.3533 126.105 22.04 126.105 20.2V16.48H124.585V13.58H126.105V11H130.005V13.58H136.805V16.48H130.005V20.2C130.005 21.44 130.558 22.06 131.665 22.06H131.785C132.345 22.06 132.752 21.9267 133.005 21.66C133.272 21.38 133.405 20.9133 133.405 20.26ZM149.183 19.28V13.58H153.083V25H149.183V23.68C148.29 24.76 146.85 25.3 144.863 25.3H144.503C142.57 25.3 141.15 24.86 140.243 23.98C139.35 23.0867 138.903 21.52 138.903 19.28V13.58H142.803V19.28C142.803 20.2667 142.97 20.9667 143.303 21.38C143.636 21.78 144.31 21.98 145.323 21.98H146.643C147.67 21.98 148.35 21.78 148.683 21.38C149.016 20.9667 149.183 20.2667 149.183 19.28ZM164.984 14.9V10H168.884V25H164.984V23.7C164.091 24.78 162.651 25.32 160.664 25.32H160.304C158.384 25.32 156.984 24.88 156.104 24C155.224 23.1067 154.784 21.54 154.784 19.3C154.784 17.06 155.224 15.5 156.104 14.62C156.984 13.7267 158.384 13.28 160.304 13.28H160.664C162.651 13.28 164.091 13.82 164.984 14.9ZM161.124 22H162.444C163.471 22 164.151 21.8 164.484 21.4C164.818 20.9867 164.984 20.2867 164.984 19.3C164.984 18.3133 164.818 17.62 164.484 17.22C164.151 16.8067 163.471 16.6 162.444 16.6H161.124C160.098 16.6 159.418 16.8067 159.084 17.22C158.751 17.62 158.584 18.3133 158.584 19.3C158.584 20.2867 158.751 20.9867 159.084 21.4C159.418 21.8 160.098 22 161.124 22ZM173.032 12.56L172.432 12.56C171.712 12.56 171.192 12.42 170.872 12.14C170.552 11.8467 170.392 11.3533 170.392 10.66C170.392 9.99333 170.552 9.52 170.872 9.24C171.192 8.94667 171.712 8.8 172.432 8.8H173.032C173.752 8.8 174.272 8.94667 174.592 9.24C174.926 9.52 175.092 9.99333 175.092 10.66C175.092 11.3533 174.926 11.8467 174.592 12.14C174.272 12.42 173.752 12.56 173.032 12.56ZM174.692 25H170.792V13.58L174.692 13.58V25ZM184.78 25.3H182.32C180.2 25.3 178.68 24.8667 177.76 24C176.853 23.12 176.4 21.5533 176.4 19.3C176.4 17.0467 176.86 15.48 177.78 14.6C178.7 13.72 180.213 13.28 182.32 13.28H184.78C186.887 13.28 188.4 13.72 189.32 14.6C190.24 15.48 190.7 17.0467 190.7 19.3C190.7 21.5533 190.24 23.12 189.32 24C188.413 24.8667 186.9 25.3 184.78 25.3ZM182.74 21.96H184.36C185.387 21.96 186.067 21.76 186.4 21.36C186.733 20.96 186.9 20.2733 186.9 19.3C186.9 18.3133 186.733 17.62 186.4 17.22C186.067 16.8067 185.387 16.6 184.36 16.6H182.74C181.713 16.6 181.033 16.8067 180.7 17.22C180.367 17.62 180.2 18.3133 180.2 19.3C180.2 20.2733 180.367 20.96 180.7 21.36C181.033 21.76 181.713 21.96 182.74 21.96Z" fill="white"/>
</svg>
