<svg width="2870" height="51" viewBox="0 0 2870 51" fill="none" xmlns="http://www.w3.org/2000/svg">
<path d="M31.104 31.429L37.548 10.801L42.948 10.801L34.812 36.001L28.152 36.001L21.492 15.949L14.688 36.001L8.028 36.001L5.61048e-08 10.801L5.4 10.801L11.772 31.429L18.756 10.801L24.192 10.801L31.104 31.429ZM67.8355 24.409L67.8355 27.073L47.7835 27.073C47.9275 29.089 48.4795 30.505 49.4395 31.321C50.4235 32.137 52.0315 32.545 54.2635 32.545L57.2155 32.545C61.1515 32.545 63.1195 31.237 63.1195 28.621L67.8355 28.621C67.8355 31.429 66.9595 33.457 65.2075 34.705C63.4555 35.929 60.7915 36.541 57.2155 36.541L53.7235 36.541C49.9075 36.541 47.1715 35.761 45.5155 34.201C43.8835 32.617 43.0675 29.797 43.0675 25.741C43.0675 21.685 43.8955 18.865 45.5515 17.281C47.2075 15.697 49.9315 14.905 53.7235 14.905L57.2155 14.905C60.8395 14.905 63.5155 15.613 65.2435 17.029C66.9715 18.445 67.8355 20.905 67.8355 24.409ZM47.7835 24.409L63.1195 24.409C63.1195 22.393 62.6155 20.977 61.6075 20.161C60.6235 19.321 59.0035 18.901 56.7475 18.901L54.2635 18.901C52.0075 18.901 50.3995 19.321 49.4395 20.161C48.4795 20.977 47.9275 22.393 47.7835 24.409ZM84.6624 14.905L85.3104 14.905C88.6704 14.905 91.1424 15.709 92.7264 17.317C94.3344 18.925 95.1384 21.733 95.1384 25.741C95.1384 29.749 94.3344 32.557 92.7264 34.165C91.1424 35.773 88.6704 36.577 85.3104 36.577L84.6624 36.577C80.5584 36.577 77.7144 35.257 76.1304 32.617L76.1304 36.001L71.3064 36.001L71.3064 9.00097L76.1304 9.00097L76.1304 18.865C77.7144 16.225 80.5584 14.905 84.6624 14.905ZM82.6104 32.473L84.3384 32.473C86.5704 32.473 88.1424 31.969 89.0544 30.961C89.9904 29.929 90.4584 28.189 90.4584 25.741C90.4584 23.293 89.9904 21.565 89.0544 20.557C88.1424 19.525 86.5704 19.009 84.3384 19.009L82.6104 19.009C80.3784 19.009 78.7344 19.537 77.6784 20.593C76.6464 21.625 76.1304 23.341 76.1304 25.741C76.1304 28.141 76.6464 29.869 77.6784 30.925C78.7344 31.957 80.3784 32.473 82.6104 32.473ZM107.696 23.869L112.916 23.869C114.308 23.869 115.472 23.905 116.408 23.977C117.368 24.049 118.292 24.205 119.18 24.445C120.092 24.685 120.812 25.009 121.34 25.417C121.868 25.825 122.288 26.389 122.6 27.109C122.912 27.805 123.068 28.657 123.068 29.665C123.068 31.849 122.192 33.541 120.44 34.741C118.688 35.941 116.132 36.541 112.772 36.541L108.452 36.541C104.948 36.541 102.344 35.989 100.64 34.885C98.9597 33.757 98.1197 31.873 98.1197 29.233L102.836 29.233C102.836 30.457 103.244 31.357 104.06 31.933C104.876 32.485 106.172 32.761 107.948 32.761L112.988 32.761C116.588 32.761 118.388 31.801 118.388 29.881C118.388 28.969 117.944 28.345 117.056 28.009C116.192 27.649 114.896 27.469 113.168 27.469L108.164 27.469C104.876 27.469 102.464 27.049 100.928 26.209C99.3917 25.345 98.6237 23.761 98.6237 21.457C98.6237 17.017 102.02 14.797 108.812 14.797L112.52 14.797C116.096 14.797 118.688 15.337 120.296 16.417C121.904 17.497 122.708 19.321 122.708 21.889L117.992 21.889C117.992 19.657 116.336 18.541 113.024 18.541L108.38 18.541C105.044 18.541 103.376 19.513 103.376 21.457C103.376 23.065 104.816 23.869 107.696 23.869ZM129.239 12.889L128.411 12.889C127.451 12.889 126.755 12.697 126.323 12.313C125.915 11.905 125.711 11.233 125.711 10.297C125.711 9.38497 125.915 8.73698 126.323 8.35298C126.755 7.96897 127.451 7.77697 128.411 7.77697L129.239 7.77697C130.199 7.77697 130.895 7.96897 131.327 8.35298C131.759 8.73697 131.975 9.38497 131.975 10.297C131.975 11.233 131.759 11.905 131.327 12.313C130.895 12.697 130.199 12.889 129.239 12.889ZM131.255 36.001L126.431 36.001L126.431 15.445L131.255 15.445L131.255 36.001ZM150.524 28.441L155.204 28.441C155.204 31.057 154.4 33.061 152.792 34.453C151.208 35.845 148.988 36.541 146.132 36.541L145.664 36.541C142.808 36.541 140.612 35.881 139.076 34.561C137.54 33.241 136.772 31.057 136.772 28.009L136.772 19.045L133.892 19.045L133.892 15.445L136.772 15.445L136.772 10.801L141.56 10.801L141.56 15.445L154.664 15.445L154.664 19.045L141.56 19.045L141.56 28.009C141.56 31.033 143.024 32.545 145.952 32.545L146.204 32.545C147.548 32.545 148.604 32.197 149.372 31.501C150.14 30.805 150.524 29.785 150.524 28.441ZM182.55 24.409L182.55 27.073L162.498 27.073C162.642 29.089 163.194 30.505 164.154 31.321C165.138 32.137 166.746 32.545 168.978 32.545L171.93 32.545C175.866 32.545 177.834 31.237 177.834 28.621L182.55 28.621C182.55 31.429 181.674 33.457 179.922 34.705C178.17 35.929 175.506 36.541 171.93 36.541L168.438 36.541C164.622 36.541 161.886 35.761 160.23 34.201C158.598 32.617 157.782 29.797 157.782 25.741C157.782 21.685 158.61 18.865 160.266 17.281C161.922 15.697 164.646 14.905 168.438 14.905L171.93 14.905C175.554 14.905 178.23 15.613 179.958 17.029C181.686 18.445 182.55 20.905 182.55 24.409ZM162.498 24.409L177.834 24.409C177.834 22.393 177.33 20.977 176.322 20.161C175.338 19.321 173.718 18.901 171.462 18.901L168.978 18.901C166.722 18.901 165.114 19.321 164.154 20.161C163.194 20.977 162.642 22.393 162.498 24.409Z" fill="#121212"/>
<path d="M226.688 38.016L223.304 38.016L223.304 8.46L226.688 8.46L226.688 38.016Z" fill="#121212"/>
<path d="M506.688 38.017L503.304 38.017L503.304 8.46097L506.688 8.46097L506.688 38.017Z" fill="#121212"/>
<path d="M877.688 38.017L874.304 38.017L874.304 8.46097L877.688 8.46097L877.688 38.017Z" fill="#121212"/>
<path d="M1791.69 38.017L1788.3 38.017L1788.3 8.46097L1791.69 8.46097L1791.69 38.017Z" fill="#121212"/>
<path d="M1067.69 38.017L1064.3 38.017L1064.3 8.46097L1067.69 8.46097L1067.69 38.017Z" fill="#121212"/>
<path d="M1485.69 38.016L1482.3 38.016L1482.3 8.46L1485.69 8.46L1485.69 38.016Z" fill="#121212"/>
<path d="M1992.69 38.017L1989.3 38.017L1989.3 8.46097L1992.69 8.46097L1992.69 38.017Z" fill="#121212"/>
<path d="M2304.69 38.017L2301.3 38.017L2301.3 8.46097L2304.69 8.46097L2304.69 38.017Z" fill="#121212"/>
<path d="M2651.69 38.017L2648.3 38.017L2648.3 8.46097L2651.69 8.46097L2651.69 38.017Z" fill="#121212"/>
<path d="M289.804 23.328C292.324 24.24 293.584 26.016 293.584 28.656C293.584 31.272 292.9 33.156 291.532 34.308C290.188 35.436 288.016 36 285.016 36L266.548 36L266.548 10.8L284.296 10.8C287.296 10.8 289.468 11.364 290.812 12.492C292.18 13.62 292.864 15.504 292.864 18.144C292.864 20.736 291.844 22.464 289.804 23.328ZM283.18 14.976L271.732 14.976L271.732 21.6L283 21.6C284.728 21.6 285.928 21.396 286.6 20.988C287.272 20.58 287.608 19.74 287.608 18.468C287.608 17.124 287.26 16.212 286.564 15.732C285.892 15.228 284.764 14.976 283.18 14.976ZM271.732 31.788L283.936 31.788C285.496 31.788 286.612 31.536 287.284 31.032C287.98 30.504 288.328 29.592 288.328 28.296C288.328 27.072 287.968 26.244 287.248 25.812C286.552 25.38 285.304 25.164 283.504 25.164L271.732 25.164L271.732 31.788ZM308.647 15.084L309.547 15.084C312.091 15.084 314.119 15.828 315.631 17.316C317.143 18.804 317.899 21.168 317.899 24.408L313.075 24.408C313.075 20.928 311.407 19.188 308.071 19.188L307.315 19.188C305.203 19.188 303.631 19.716 302.599 20.772C301.591 21.804 301.087 23.52 301.087 25.92L301.087 36L296.263 36L296.263 15.444L300.583 15.444L300.583 19.944C301.999 16.704 304.687 15.084 308.647 15.084ZM330.25 14.904L333.994 14.904C337.642 14.904 340.234 15.648 341.77 17.136C343.33 18.624 344.11 21.252 344.11 25.02L344.11 36L339.322 36L339.322 32.148C338.026 35.076 335.218 36.54 330.898 36.54L329.746 36.54C323.122 36.54 319.81 34.2 319.81 29.52C319.81 27.408 320.566 25.992 322.078 25.272C323.59 24.552 325.99 24.192 329.278 24.192L339.286 24.192C339.19 22.176 338.722 20.772 337.882 19.98C337.066 19.188 335.602 18.792 333.49 18.792L330.178 18.792C326.722 18.792 324.994 19.956 324.994 22.284L320.314 22.284C320.314 19.764 321.118 17.904 322.726 16.704C324.358 15.504 326.866 14.904 330.25 14.904ZM329.71 32.904L332.446 32.904C334.702 32.904 336.382 32.436 337.486 31.5C338.59 30.54 339.19 28.944 339.286 26.712L329.746 26.712C327.85 26.712 326.506 26.916 325.714 27.324C324.922 27.708 324.526 28.44 324.526 29.52C324.526 31.776 326.254 32.904 329.71 32.904ZM361.623 14.94L362.271 14.94C365.679 14.94 368.127 15.696 369.615 17.208C371.103 18.72 371.847 21.372 371.847 25.164L371.847 36.036L367.059 36.036L367.059 25.164C367.059 22.884 366.651 21.288 365.835 20.376C365.043 19.464 363.519 19.008 361.263 19.008L359.463 19.008C357.183 19.008 355.491 19.536 354.387 20.592C353.307 21.624 352.767 23.352 352.767 25.776L352.767 36L347.943 36L347.943 15.444L352.263 15.444L352.263 19.944C353.727 16.608 356.847 14.94 361.623 14.94ZM394.365 18.864L394.365 9L399.189 9L399.189 36L394.365 36L394.365 32.616C392.781 35.256 389.937 36.576 385.833 36.576L385.185 36.576C381.825 36.576 379.341 35.772 377.733 34.164C376.149 32.556 375.357 29.748 375.357 25.74C375.357 21.732 376.149 18.924 377.733 17.316C379.341 15.708 381.825 14.904 385.185 14.904L385.833 14.904C389.937 14.904 392.781 16.224 394.365 18.864ZM386.157 32.472L387.885 32.472C390.117 32.472 391.749 31.956 392.781 30.924C393.837 29.868 394.365 28.14 394.365 25.74C394.365 23.34 393.837 21.624 392.781 20.592C391.749 19.536 390.117 19.008 387.885 19.008L386.157 19.008C383.925 19.008 382.341 19.524 381.405 20.556C380.493 21.564 380.037 23.292 380.037 25.74C380.037 28.188 380.493 29.928 381.405 30.96C382.341 31.968 383.925 32.472 386.157 32.472ZM405.806 12.888L404.978 12.888C404.018 12.888 403.322 12.696 402.89 12.312C402.482 11.904 402.278 11.232 402.278 10.296C402.278 9.384 402.482 8.736 402.89 8.352C403.322 7.968 404.018 7.776 404.978 7.776L405.806 7.776C406.766 7.776 407.462 7.968 407.894 8.352C408.326 8.736 408.542 9.384 408.542 10.296C408.542 11.232 408.326 11.904 407.894 12.312C407.462 12.696 406.766 12.888 405.806 12.888ZM407.822 36L402.998 36L402.998 15.444L407.822 15.444L407.822 36ZM425.326 14.94L425.974 14.94C429.382 14.94 431.83 15.696 433.318 17.208C434.806 18.72 435.55 21.372 435.55 25.164L435.55 36.036L430.762 36.036L430.762 25.164C430.762 22.884 430.354 21.288 429.538 20.376C428.746 19.464 427.222 19.008 424.966 19.008L423.166 19.008C420.886 19.008 419.194 19.536 418.09 20.592C417.01 21.624 416.47 23.352 416.47 25.776L416.47 36L411.646 36L411.646 15.444L415.966 15.444L415.966 19.944C417.43 16.608 420.55 14.94 425.326 14.94ZM458.068 18.72L458.068 15.444L462.892 15.444L462.892 33.984C462.892 37.488 462.16 39.888 460.696 41.184C459.232 42.504 456.76 43.164 453.28 43.164L440.5 43.164L440.5 39.06L453.28 39.06C455.152 39.06 456.412 38.7 457.06 37.98C457.732 37.284 458.068 35.952 458.068 33.984L458.068 31.896C456.46 34.44 453.604 35.712 449.5 35.712L448.852 35.712C445.54 35.712 443.08 34.932 441.472 33.372C439.864 31.812 439.06 29.124 439.06 25.308C439.06 21.492 439.864 18.804 441.472 17.244C443.08 15.684 445.54 14.904 448.852 14.904L449.5 14.904C453.604 14.904 456.46 16.176 458.068 18.72ZM449.86 31.608L451.552 31.608C453.808 31.608 455.452 31.116 456.484 30.132C457.54 29.124 458.068 27.516 458.068 25.308C458.068 23.1 457.54 21.504 456.484 20.52C455.452 19.512 453.808 19.008 451.552 19.008L449.86 19.008C447.676 19.008 446.104 19.5 445.144 20.484C444.208 21.468 443.74 23.076 443.74 25.308C443.74 27.54 444.208 29.148 445.144 30.132C446.104 31.116 447.676 31.608 449.86 31.608Z" fill="#121212"/>
<path d="M546.548 10.801L551.732 10.801L551.732 31.429L566.24 31.429L566.24 36.001L546.548 36.001L546.548 10.801ZM578.574 14.905L582.318 14.905C585.966 14.905 588.558 15.649 590.094 17.137C591.654 18.625 592.434 21.253 592.434 25.021L592.434 36.001L587.646 36.001L587.646 32.149C586.35 35.077 583.542 36.541 579.222 36.541L578.07 36.541C571.446 36.541 568.134 34.201 568.134 29.521C568.134 27.409 568.89 25.993 570.402 25.273C571.914 24.553 574.314 24.193 577.602 24.193L587.61 24.193C587.514 22.177 587.046 20.773 586.206 19.981C585.39 19.189 583.926 18.793 581.814 18.793L578.502 18.793C575.046 18.793 573.318 19.957 573.318 22.285L568.638 22.285C568.638 19.765 569.442 17.905 571.05 16.705C572.682 15.505 575.19 14.905 578.574 14.905ZM578.034 32.905L580.77 32.905C583.026 32.905 584.706 32.437 585.81 31.501C586.914 30.541 587.514 28.945 587.61 26.713L578.07 26.713C576.174 26.713 574.83 26.917 574.038 27.325C573.246 27.709 572.85 28.441 572.85 29.521C572.85 31.777 574.578 32.905 578.034 32.905ZM609.947 14.941L610.595 14.941C614.003 14.941 616.451 15.697 617.939 17.209C619.427 18.721 620.171 21.373 620.171 25.165L620.171 36.037L615.383 36.037L615.383 25.165C615.383 22.885 614.975 21.289 614.159 20.377C613.367 19.465 611.843 19.009 609.587 19.009L607.787 19.009C605.507 19.009 603.815 19.537 602.711 20.593C601.631 21.625 601.091 23.353 601.091 25.777L601.091 36.001L596.267 36.001L596.267 15.445L600.587 15.445L600.587 19.945C602.051 16.609 605.171 14.941 609.947 14.941ZM642.689 18.865L642.689 9.00097L647.513 9.00097L647.513 36.001L642.689 36.001L642.689 32.617C641.105 35.257 638.261 36.577 634.157 36.577L633.509 36.577C630.149 36.577 627.665 35.773 626.057 34.165C624.473 32.557 623.681 29.749 623.681 25.741C623.681 21.733 624.473 18.925 626.057 17.317C627.665 15.709 630.149 14.905 633.509 14.905L634.157 14.905C638.261 14.905 641.105 16.225 642.689 18.865ZM634.481 32.473L636.209 32.473C638.441 32.473 640.073 31.957 641.105 30.925C642.161 29.869 642.689 28.141 642.689 25.741C642.689 23.341 642.161 21.625 641.105 20.593C640.073 19.537 638.441 19.009 636.209 19.009L634.481 19.009C632.249 19.009 630.665 19.525 629.729 20.557C628.817 21.565 628.361 23.293 628.361 25.741C628.361 28.189 628.817 29.929 629.729 30.961C630.665 31.969 632.249 32.473 634.481 32.473ZM654.13 12.889L653.302 12.889C652.342 12.889 651.646 12.697 651.214 12.313C650.806 11.905 650.602 11.233 650.602 10.297C650.602 9.38497 650.806 8.73698 651.214 8.35298C651.646 7.96897 652.342 7.77697 653.302 7.77697L654.13 7.77697C655.09 7.77697 655.786 7.96897 656.218 8.35298C656.65 8.73698 656.866 9.38497 656.866 10.297C656.866 11.233 656.65 11.905 656.218 12.313C655.786 12.697 655.09 12.889 654.13 12.889ZM656.146 36.001L651.322 36.001L651.322 15.445L656.146 15.445L656.146 36.001ZM673.651 14.941L674.299 14.941C677.707 14.941 680.155 15.697 681.643 17.209C683.131 18.721 683.875 21.373 683.875 25.165L683.875 36.037L679.087 36.037L679.087 25.165C679.087 22.885 678.679 21.289 677.863 20.377C677.071 19.465 675.547 19.009 673.291 19.009L671.491 19.009C669.211 19.009 667.519 19.537 666.415 20.593C665.335 21.625 664.795 23.353 664.795 25.777L664.795 36.001L659.971 36.001L659.971 15.445L664.291 15.445L664.291 19.945C665.755 16.609 668.875 14.941 673.651 14.941ZM706.392 18.721L706.392 15.445L711.216 15.445L711.216 33.985C711.216 37.489 710.484 39.889 709.02 41.185C707.556 42.505 705.084 43.165 701.604 43.165L688.824 43.165L688.824 39.061L701.604 39.061C703.476 39.061 704.736 38.701 705.384 37.981C706.056 37.285 706.392 35.953 706.392 33.985L706.392 31.897C704.784 34.441 701.928 35.713 697.824 35.713L697.176 35.713C693.864 35.713 691.404 34.933 689.796 33.373C688.188 31.813 687.384 29.125 687.384 25.309C687.384 21.493 688.188 18.805 689.796 17.245C691.404 15.685 693.864 14.905 697.176 14.905L697.824 14.905C701.928 14.905 704.784 16.177 706.392 18.721ZM698.184 31.609L699.876 31.609C702.132 31.609 703.776 31.117 704.808 30.133C705.864 29.125 706.392 27.517 706.392 25.309C706.392 23.101 705.864 21.505 704.808 20.521C703.776 19.513 702.132 19.009 699.876 19.009L698.184 19.009C696 19.009 694.428 19.501 693.468 20.485C692.532 21.469 692.064 23.077 692.064 25.309C692.064 27.541 692.532 29.149 693.468 30.133C694.428 31.117 696 31.609 698.184 31.609ZM743.782 10.801C746.83 10.801 749.014 11.437 750.334 12.709C751.678 13.981 752.35 16.249 752.35 19.513C752.35 22.777 751.69 25.045 750.37 26.317C749.05 27.565 746.854 28.189 743.782 28.189L730.642 28.189L730.642 36.001L725.458 36.001L725.458 10.801L743.782 10.801ZM730.642 23.761L742.63 23.761C744.262 23.761 745.426 23.461 746.122 22.861C746.818 22.237 747.166 21.121 747.166 19.513C747.166 17.929 746.818 16.825 746.122 16.201C745.426 15.553 744.262 15.229 742.63 15.229L730.642 15.229L730.642 23.761ZM764.937 14.905L768.681 14.905C772.329 14.905 774.921 15.649 776.457 17.137C778.017 18.625 778.797 21.253 778.797 25.021L778.797 36.001L774.009 36.001L774.009 32.149C772.713 35.077 769.905 36.541 765.585 36.541L764.433 36.541C757.809 36.541 754.497 34.201 754.497 29.521C754.497 27.409 755.253 25.993 756.765 25.273C758.277 24.553 760.677 24.193 763.965 24.193L773.973 24.193C773.877 22.177 773.409 20.773 772.569 19.981C771.753 19.189 770.289 18.793 768.177 18.793L764.865 18.793C761.409 18.793 759.681 19.957 759.681 22.285L755.001 22.285C755.001 19.765 755.805 17.905 757.413 16.705C759.045 15.505 761.553 14.905 764.937 14.905ZM764.397 32.905L767.133 32.905C769.389 32.905 771.069 32.437 772.173 31.501C773.277 30.541 773.877 28.945 773.973 26.713L764.433 26.713C762.537 26.713 761.193 26.917 760.401 27.325C759.609 27.709 759.213 28.441 759.213 29.521C759.213 31.777 760.941 32.905 764.397 32.905ZM801.279 18.721L801.279 15.445L806.103 15.445L806.103 33.985C806.103 37.489 805.371 39.889 803.907 41.185C802.443 42.505 799.971 43.165 796.491 43.165L783.711 43.165L783.711 39.061L796.491 39.061C798.363 39.061 799.623 38.701 800.271 37.981C800.943 37.285 801.279 35.953 801.279 33.985L801.279 31.897C799.671 34.441 796.815 35.713 792.711 35.713L792.063 35.713C788.751 35.713 786.291 34.933 784.683 33.373C783.075 31.813 782.271 29.125 782.271 25.309C782.271 21.493 783.075 18.805 784.683 17.245C786.291 15.685 788.751 14.905 792.063 14.905L792.711 14.905C796.815 14.905 799.671 16.177 801.279 18.721ZM793.071 31.609L794.763 31.609C797.019 31.609 798.663 31.117 799.695 30.133C800.751 29.125 801.279 27.517 801.279 25.309C801.279 23.101 800.751 21.505 799.695 20.521C798.663 19.513 797.019 19.009 794.763 19.009L793.071 19.009C790.887 19.009 789.315 19.501 788.355 20.485C787.419 21.469 786.951 23.077 786.951 25.309C786.951 27.541 787.419 29.149 788.355 30.133C789.315 31.117 790.887 31.609 793.071 31.609ZM834.32 24.409L834.32 27.073L814.268 27.073C814.412 29.089 814.964 30.505 815.924 31.321C816.908 32.137 818.516 32.545 820.748 32.545L823.7 32.545C827.636 32.545 829.604 31.237 829.604 28.621L834.32 28.621C834.32 31.429 833.444 33.457 831.692 34.705C829.94 35.929 827.276 36.541 823.7 36.541L820.208 36.541C816.392 36.541 813.656 35.761 812 34.201C810.368 32.617 809.552 29.797 809.552 25.741C809.552 21.685 810.38 18.865 812.036 17.281C813.692 15.697 816.416 14.905 820.208 14.905L823.7 14.905C827.324 14.905 830 15.613 831.728 17.029C833.456 18.445 834.32 20.905 834.32 24.409ZM814.268 24.409L829.604 24.409C829.604 22.393 829.1 20.977 828.092 20.161C827.108 19.321 825.488 18.901 823.232 18.901L820.748 18.901C818.492 18.901 816.884 19.321 815.924 20.161C814.964 20.977 814.412 22.393 814.268 24.409Z" fill="#121212"/>
<path d="M933.208 36.54L929.968 36.54C925.6 36.54 922.432 35.568 920.464 33.624C918.52 31.68 917.548 28.272 917.548 23.4L917.548 10.8L922.732 10.8L922.732 23.4C922.732 26.616 923.272 28.848 924.352 30.096C925.432 31.344 927.364 31.968 930.148 31.968L933.064 31.968C935.848 31.968 937.78 31.344 938.86 30.096C939.94 28.848 940.48 26.616 940.48 23.4L940.48 10.8L945.628 10.8L945.628 23.4C945.628 28.272 944.644 31.68 942.676 33.624C940.732 35.568 937.576 36.54 933.208 36.54ZM953.951 36L948.767 36L948.767 10.8L953.951 10.8L953.951 36ZM960.556 42.48L956.704 42.48L961.528 7.2L965.344 7.2L960.556 42.48ZM983.763 36.54L980.523 36.54C976.155 36.54 972.987 35.568 971.019 33.624C969.075 31.68 968.103 28.272 968.103 23.4L968.103 10.8L973.287 10.8L973.287 23.4C973.287 26.616 973.827 28.848 974.907 30.096C975.987 31.344 977.919 31.968 980.703 31.968L983.619 31.968C986.403 31.968 988.335 31.344 989.415 30.096C990.495 28.848 991.035 26.616 991.035 23.4L991.035 10.8L996.183 10.8L996.183 23.4C996.183 28.272 995.199 31.68 993.231 33.624C991.287 35.568 988.131 36.54 983.763 36.54ZM1015.28 22.68L1025.61 36L1019.6 36L1011.61 25.776L1003.51 36L997.494 36L1008.04 22.824L998.07 10.8L1004.15 10.8L1011.71 19.764L1018.95 10.8L1025.03 10.8L1015.28 22.68Z" fill="#121212"/>
<path d="M1121.48 22.86L1137.54 22.86L1137.54 36L1133.83 36L1133.36 30.708C1132.66 32.82 1131.46 34.32 1129.76 35.208C1128.06 36.096 1125.67 36.54 1122.6 36.54L1119.68 36.54C1115.14 36.54 1111.88 35.58 1109.89 33.66C1107.9 31.716 1106.9 28.296 1106.9 23.4C1106.9 18.504 1107.9 15.096 1109.89 13.176C1111.88 11.232 1115.14 10.26 1119.68 10.26L1125.01 10.26C1129.21 10.26 1132.34 11.04 1134.4 12.6C1136.47 14.16 1137.5 16.632 1137.5 20.016L1132.53 20.016C1132.56 18.312 1131.96 17.028 1130.73 16.164C1129.53 15.276 1127.62 14.832 1125.01 14.832L1119.68 14.832C1116.7 14.832 1114.66 15.456 1113.56 16.704C1112.46 17.928 1111.9 20.16 1111.9 23.4C1111.9 26.64 1112.46 28.884 1113.56 30.132C1114.66 31.356 1116.7 31.968 1119.68 31.968L1125.01 31.968C1127.43 31.968 1129.22 31.548 1130.37 30.708C1131.52 29.844 1132.22 28.38 1132.46 26.316L1121.48 26.316L1121.48 22.86ZM1152.74 15.084L1153.64 15.084C1156.19 15.084 1158.21 15.828 1159.73 17.316C1161.24 18.804 1161.99 21.168 1161.99 24.408L1157.17 24.408C1157.17 20.928 1155.5 19.188 1152.17 19.188L1151.41 19.188C1149.3 19.188 1147.73 19.716 1146.69 20.772C1145.69 21.804 1145.18 23.52 1145.18 25.92L1145.18 36L1140.36 36L1140.36 15.444L1144.68 15.444L1144.68 19.944C1146.09 16.704 1148.78 15.084 1152.74 15.084ZM1174.34 14.904L1178.09 14.904C1181.74 14.904 1184.33 15.648 1185.86 17.136C1187.42 18.624 1188.2 21.252 1188.2 25.02L1188.2 36L1183.42 36L1183.42 32.148C1182.12 35.076 1179.31 36.54 1174.99 36.54L1173.84 36.54C1167.22 36.54 1163.9 34.2 1163.9 29.52C1163.9 27.408 1164.66 25.992 1166.17 25.272C1167.68 24.552 1170.08 24.192 1173.37 24.192L1183.38 24.192C1183.28 22.176 1182.82 20.772 1181.98 19.98C1181.16 19.188 1179.7 18.792 1177.58 18.792L1174.27 18.792C1170.82 18.792 1169.09 19.956 1169.09 22.284L1164.41 22.284C1164.41 19.764 1165.21 17.904 1166.82 16.704C1168.45 15.504 1170.96 14.904 1174.34 14.904ZM1173.8 32.904L1176.54 32.904C1178.8 32.904 1180.48 32.436 1181.58 31.5C1182.68 30.54 1183.28 28.944 1183.38 26.712L1173.84 26.712C1171.94 26.712 1170.6 26.916 1169.81 27.324C1169.02 27.708 1168.62 28.44 1168.62 29.52C1168.62 31.776 1170.35 32.904 1173.8 32.904ZM1205.39 14.904L1206.04 14.904C1209.4 14.904 1211.87 15.708 1213.46 17.316C1215.06 18.924 1215.87 21.732 1215.87 25.74C1215.87 29.748 1215.06 32.556 1213.46 34.164C1211.87 35.772 1209.4 36.576 1206.04 36.576L1205.39 36.576C1201.29 36.576 1198.44 35.256 1196.86 32.616L1196.86 42.48L1192.04 42.48L1192.04 15.48L1196.86 15.48L1196.86 18.864C1198.44 16.224 1201.29 14.904 1205.39 14.904ZM1203.34 32.472L1205.07 32.472C1207.3 32.472 1208.87 31.968 1209.78 30.96C1210.72 29.928 1211.19 28.188 1211.19 25.74C1211.19 23.292 1210.72 21.564 1209.78 20.556C1208.87 19.524 1207.3 19.008 1205.07 19.008L1203.34 19.008C1201.11 19.008 1199.46 19.536 1198.41 20.592C1197.38 21.624 1196.86 23.34 1196.86 25.74C1196.86 28.14 1197.38 29.868 1198.41 30.924C1199.46 31.956 1201.11 32.472 1203.34 32.472ZM1233 14.904L1233.65 14.904C1237.05 14.904 1239.5 15.66 1240.99 17.172C1242.48 18.684 1243.22 21.336 1243.22 25.128L1243.22 36L1238.43 36L1238.43 25.128C1238.43 22.872 1238.03 21.288 1237.21 20.376C1236.42 19.464 1234.89 19.008 1232.64 19.008L1230.84 19.008C1228.56 19.008 1226.87 19.524 1225.76 20.556C1224.68 21.588 1224.14 23.316 1224.14 25.74L1224.14 36L1219.32 36L1219.32 9L1224.14 9L1224.14 18.936C1225.75 16.248 1228.7 14.904 1233 14.904ZM1249.9 12.888L1249.07 12.888C1248.11 12.888 1247.42 12.696 1246.98 12.312C1246.58 11.904 1246.37 11.232 1246.37 10.296C1246.37 9.384 1246.58 8.736 1246.98 8.352C1247.42 7.968 1248.11 7.776 1249.07 7.776L1249.9 7.776C1250.86 7.776 1251.56 7.968 1251.99 8.352C1252.42 8.736 1252.64 9.384 1252.64 10.296C1252.64 11.232 1252.42 11.904 1251.99 12.312C1251.56 12.696 1250.86 12.888 1249.9 12.888ZM1251.92 36L1247.09 36L1247.09 15.444L1251.92 15.444L1251.92 36ZM1269.53 36.54L1266.04 36.54C1262.22 36.54 1259.48 35.76 1257.83 34.2C1256.2 32.616 1255.38 29.796 1255.38 25.74C1255.38 21.684 1256.21 18.864 1257.86 17.28C1259.52 15.696 1262.24 14.904 1266.04 14.904L1269.53 14.904C1273.1 14.904 1275.77 15.552 1277.52 16.848C1279.27 18.144 1280.15 20.316 1280.15 23.364L1275.43 23.364C1275.43 21.9 1274.92 20.808 1273.88 20.088C1272.88 19.368 1271.27 19.008 1269.06 19.008L1266.58 19.008C1264.13 19.008 1262.42 19.512 1261.46 20.52C1260.53 21.504 1260.06 23.244 1260.06 25.74C1260.06 28.212 1260.53 29.94 1261.46 30.924C1262.4 31.908 1264.1 32.4 1266.58 32.4L1269.06 32.4C1271.29 32.4 1272.91 32.052 1273.92 31.356C1274.93 30.636 1275.43 29.532 1275.43 28.044L1280.15 28.044C1280.15 31.116 1279.27 33.3 1277.52 34.596C1275.79 35.892 1273.13 36.54 1269.53 36.54ZM1310.22 10.8C1314.75 10.8 1318.02 11.748 1320.01 13.644C1322 15.516 1323 18.768 1323 23.4C1323 28.032 1322 31.296 1320.01 33.192C1318.02 35.064 1314.75 36 1310.22 36L1294.05 36L1294.05 10.8L1310.22 10.8ZM1299.24 31.428L1309.96 31.428C1312.89 31.428 1314.92 30.84 1316.05 29.664C1317.18 28.488 1317.74 26.4 1317.74 23.4C1317.74 20.4 1317.18 18.312 1316.05 17.136C1314.92 15.96 1312.89 15.372 1309.96 15.372L1299.24 15.372L1299.24 31.428ZM1350.21 24.408L1350.21 27.072L1330.16 27.072C1330.31 29.088 1330.86 30.504 1331.82 31.32C1332.8 32.136 1334.41 32.544 1336.64 32.544L1339.59 32.544C1343.53 32.544 1345.5 31.236 1345.5 28.62L1350.21 28.62C1350.21 31.428 1349.34 33.456 1347.59 34.704C1345.83 35.928 1343.17 36.54 1339.59 36.54L1336.1 36.54C1332.29 36.54 1329.55 35.76 1327.89 34.2C1326.26 32.616 1325.45 29.796 1325.45 25.74C1325.45 21.684 1326.27 18.864 1327.93 17.28C1329.59 15.696 1332.31 14.904 1336.1 14.904L1339.59 14.904C1343.22 14.904 1345.89 15.612 1347.62 17.028C1349.35 18.444 1350.21 20.904 1350.21 24.408ZM1330.16 24.408L1345.5 24.408C1345.5 22.392 1344.99 20.976 1343.99 20.16C1343 19.32 1341.38 18.9 1339.13 18.9L1336.64 18.9C1334.39 18.9 1332.78 19.32 1331.82 20.16C1330.86 20.976 1330.31 22.392 1330.16 24.408ZM1362.79 23.868L1368.01 23.868C1369.41 23.868 1370.57 23.904 1371.51 23.976C1372.47 24.048 1373.39 24.204 1374.28 24.444C1375.19 24.684 1375.91 25.008 1376.44 25.416C1376.97 25.824 1377.39 26.388 1377.7 27.108C1378.01 27.804 1378.17 28.656 1378.17 29.664C1378.17 31.848 1377.29 33.54 1375.54 34.74C1373.79 35.94 1371.23 36.54 1367.87 36.54L1363.55 36.54C1360.05 36.54 1357.44 35.988 1355.74 34.884C1354.06 33.756 1353.22 31.872 1353.22 29.232L1357.93 29.232C1357.93 30.456 1358.34 31.356 1359.16 31.932C1359.97 32.484 1361.27 32.76 1363.05 32.76L1368.09 32.76C1371.69 32.76 1373.49 31.8 1373.49 29.88C1373.49 28.968 1373.04 28.344 1372.15 28.008C1371.29 27.648 1369.99 27.468 1368.27 27.468L1363.26 27.468C1359.97 27.468 1357.56 27.048 1356.03 26.208C1354.49 25.344 1353.72 23.76 1353.72 21.456C1353.72 17.016 1357.12 14.796 1363.91 14.796L1367.62 14.796C1371.19 14.796 1373.79 15.336 1375.39 16.416C1377 17.496 1377.81 19.32 1377.81 21.888L1373.09 21.888C1373.09 19.656 1371.43 18.54 1368.12 18.54L1363.48 18.54C1360.14 18.54 1358.47 19.512 1358.47 21.456C1358.47 23.064 1359.91 23.868 1362.79 23.868ZM1384.34 12.888L1383.51 12.888C1382.55 12.888 1381.85 12.696 1381.42 12.312C1381.01 11.904 1380.81 11.232 1380.81 10.296C1380.81 9.384 1381.01 8.736 1381.42 8.352C1381.85 7.968 1382.55 7.776 1383.51 7.776L1384.34 7.776C1385.3 7.776 1385.99 7.968 1386.43 8.352C1386.86 8.736 1387.07 9.384 1387.07 10.296C1387.07 11.232 1386.86 11.904 1386.43 12.312C1385.99 12.696 1385.3 12.888 1384.34 12.888ZM1386.35 36L1381.53 36L1381.53 15.444L1386.35 15.444L1386.35 36ZM1408.83 18.72L1408.83 15.444L1413.65 15.444L1413.65 33.984C1413.65 37.488 1412.92 39.888 1411.45 41.184C1409.99 42.504 1407.52 43.164 1404.04 43.164L1391.26 43.164L1391.26 39.06L1404.04 39.06C1405.91 39.06 1407.17 38.7 1407.82 37.98C1408.49 37.284 1408.83 35.952 1408.83 33.984L1408.83 31.896C1407.22 34.44 1404.36 35.712 1400.26 35.712L1399.61 35.712C1396.3 35.712 1393.84 34.932 1392.23 33.372C1390.62 31.812 1389.82 29.124 1389.82 25.308C1389.82 21.492 1390.62 18.804 1392.23 17.244C1393.84 15.684 1396.3 14.904 1399.61 14.904L1400.26 14.904C1404.36 14.904 1407.22 16.176 1408.83 18.72ZM1400.62 31.608L1402.31 31.608C1404.57 31.608 1406.21 31.116 1407.24 30.132C1408.3 29.124 1408.83 27.516 1408.83 25.308C1408.83 23.1 1408.3 21.504 1407.24 20.52C1406.21 19.512 1404.57 19.008 1402.31 19.008L1400.62 19.008C1398.43 19.008 1396.86 19.5 1395.9 20.484C1394.97 21.468 1394.5 23.076 1394.5 25.308C1394.5 27.54 1394.97 29.148 1395.9 30.132C1396.86 31.116 1398.43 31.608 1400.62 31.608ZM1431.14 14.94L1431.79 14.94C1435.19 14.94 1437.64 15.696 1439.13 17.208C1440.62 18.72 1441.36 21.372 1441.36 25.164L1441.36 36.036L1436.57 36.036L1436.57 25.164C1436.57 22.884 1436.17 21.288 1435.35 20.376C1434.56 19.464 1433.03 19.008 1430.78 19.008L1428.98 19.008C1426.7 19.008 1425.01 19.536 1423.9 20.592C1422.82 21.624 1422.28 23.352 1422.28 25.776L1422.28 36L1417.46 36L1417.46 15.444L1421.78 15.444L1421.78 19.944C1423.24 16.608 1426.36 14.94 1431.14 14.94Z" fill="#121212"/>
<path d="M1554.64 36.001L1549.2 36.001L1547.36 31.717L1530.59 31.717L1528.68 36.001L1523.28 36.001L1534.69 10.801L1543.58 10.801L1554.64 36.001ZM1538.15 14.797L1532.35 27.757L1545.67 27.757L1540.13 14.797L1538.15 14.797ZM1569.51 14.941L1570.15 14.941C1573.56 14.941 1576.01 15.697 1577.5 17.209C1578.99 18.721 1579.73 21.373 1579.73 25.165L1579.73 36.037L1574.94 36.037L1574.94 25.165C1574.94 22.885 1574.53 21.289 1573.72 20.377C1572.93 19.465 1571.4 19.009 1569.15 19.009L1567.35 19.009C1565.07 19.009 1563.37 19.537 1562.27 20.593C1561.19 21.625 1560.65 23.353 1560.65 25.777L1560.65 36.001L1555.83 36.001L1555.83 15.445L1560.15 15.445L1560.15 19.945C1561.61 16.609 1564.73 14.941 1569.51 14.941ZM1586.41 12.889L1585.58 12.889C1584.62 12.889 1583.92 12.697 1583.49 12.313C1583.08 11.905 1582.88 11.233 1582.88 10.297C1582.88 9.38497 1583.08 8.73698 1583.49 8.35298C1583.92 7.96898 1584.62 7.77697 1585.58 7.77697L1586.41 7.77697C1587.37 7.77697 1588.06 7.96898 1588.5 8.35298C1588.93 8.73698 1589.14 9.38497 1589.14 10.297C1589.14 11.233 1588.93 11.905 1588.5 12.313C1588.06 12.697 1587.37 12.889 1586.41 12.889ZM1588.42 36.001L1583.6 36.001L1583.6 15.445L1588.42 15.445L1588.42 36.001ZM1622.13 14.905L1622.78 14.905C1625.75 14.905 1627.94 15.673 1629.33 17.209C1630.72 18.745 1631.42 21.385 1631.42 25.129L1631.42 36.001L1626.63 36.001L1626.63 25.129C1626.63 22.921 1626.24 21.349 1625.48 20.413C1624.71 19.477 1623.4 19.009 1621.55 19.009L1620.47 19.009C1616.32 19.009 1614.24 21.253 1614.24 25.741L1614.24 36.001L1609.46 36.001L1609.46 25.129C1609.46 22.921 1609.06 21.349 1608.27 20.413C1607.5 19.477 1606.2 19.009 1604.38 19.009L1603.3 19.009C1599.15 19.009 1597.07 21.253 1597.07 25.741L1597.07 36.001L1592.25 36.001L1592.25 15.445L1596.57 15.445L1596.57 19.837C1598.01 16.549 1600.8 14.905 1604.96 14.905L1605.6 14.905C1607.69 14.905 1609.35 15.349 1610.57 16.237C1611.82 17.125 1612.67 18.601 1613.13 20.665C1613.85 18.649 1615 17.185 1616.58 16.273C1618.19 15.361 1620.04 14.905 1622.13 14.905ZM1645.36 14.905L1649.1 14.905C1652.75 14.905 1655.34 15.649 1656.88 17.137C1658.44 18.625 1659.22 21.253 1659.22 25.021L1659.22 36.001L1654.43 36.001L1654.43 32.149C1653.14 35.077 1650.33 36.541 1646.01 36.541L1644.86 36.541C1638.23 36.541 1634.92 34.201 1634.92 29.521C1634.92 27.409 1635.68 25.993 1637.19 25.273C1638.7 24.553 1641.1 24.193 1644.39 24.193L1654.4 24.193C1654.3 22.177 1653.83 20.773 1652.99 19.981C1652.18 19.189 1650.71 18.793 1648.6 18.793L1645.29 18.793C1641.83 18.793 1640.1 19.957 1640.1 22.285L1635.42 22.285C1635.42 19.765 1636.23 17.905 1637.84 16.705C1639.47 15.505 1641.98 14.905 1645.36 14.905ZM1644.82 32.905L1647.56 32.905C1649.81 32.905 1651.49 32.437 1652.6 31.501C1653.7 30.541 1654.3 28.945 1654.4 26.713L1644.86 26.713C1642.96 26.713 1641.62 26.917 1640.82 27.325C1640.03 27.709 1639.64 28.441 1639.64 29.521C1639.64 31.777 1641.36 32.905 1644.82 32.905ZM1678.5 28.441L1683.18 28.441C1683.18 31.057 1682.37 33.061 1680.76 34.453C1679.18 35.845 1676.96 36.541 1674.1 36.541L1673.64 36.541C1670.78 36.541 1668.58 35.881 1667.05 34.561C1665.51 33.241 1664.74 31.057 1664.74 28.009L1664.74 19.045L1661.86 19.045L1661.86 15.445L1664.74 15.445L1664.74 10.801L1669.53 10.801L1669.53 15.445L1682.64 15.445L1682.64 19.045L1669.53 19.045L1669.53 28.009C1669.53 31.033 1671 32.545 1673.92 32.545L1674.18 32.545C1675.52 32.545 1676.58 32.197 1677.34 31.501C1678.11 30.805 1678.5 29.785 1678.5 28.441ZM1689.59 12.889L1688.76 12.889C1687.8 12.889 1687.11 12.697 1686.68 12.313C1686.27 11.905 1686.06 11.233 1686.06 10.297C1686.06 9.38497 1686.27 8.73697 1686.68 8.35298C1687.11 7.96897 1687.8 7.77697 1688.76 7.77697L1689.59 7.77697C1690.55 7.77697 1691.25 7.96897 1691.68 8.35298C1692.11 8.73697 1692.33 9.38497 1692.33 10.297C1692.33 11.233 1692.11 11.905 1691.68 12.313C1691.25 12.697 1690.55 12.889 1689.59 12.889ZM1691.61 36.001L1686.78 36.001L1686.78 15.445L1691.61 15.445L1691.61 36.001ZM1709.22 36.541L1705.73 36.541C1701.91 36.541 1699.18 35.761 1697.52 34.201C1695.89 32.617 1695.07 29.797 1695.07 25.741C1695.07 21.685 1695.9 18.865 1697.56 17.281C1699.21 15.697 1701.94 14.905 1705.73 14.905L1709.22 14.905C1713.01 14.905 1715.74 15.697 1717.39 17.281C1719.05 18.865 1719.88 21.685 1719.88 25.741C1719.88 29.797 1719.05 32.617 1717.39 34.201C1715.76 35.761 1713.04 36.541 1709.22 36.541ZM1706.27 32.401L1708.68 32.401C1711.15 32.401 1712.86 31.909 1713.79 30.925C1714.73 29.941 1715.2 28.213 1715.2 25.741C1715.2 23.245 1714.72 21.505 1713.76 20.521C1712.82 19.513 1711.13 19.009 1708.68 19.009L1706.27 19.009C1703.82 19.009 1702.12 19.513 1701.16 20.521C1700.22 21.505 1699.75 23.245 1699.75 25.741C1699.75 28.213 1700.22 29.941 1701.16 30.925C1702.09 31.909 1703.8 32.401 1706.27 32.401ZM1737.03 14.941L1737.67 14.941C1741.08 14.941 1743.53 15.697 1745.02 17.209C1746.51 18.721 1747.25 21.373 1747.25 25.165L1747.25 36.037L1742.46 36.037L1742.46 25.165C1742.46 22.885 1742.05 21.289 1741.24 20.377C1740.45 19.465 1738.92 19.009 1736.67 19.009L1734.87 19.009C1732.59 19.009 1730.89 19.537 1729.79 20.593C1728.71 21.625 1728.17 23.353 1728.17 25.777L1728.17 36.001L1723.35 36.001L1723.35 15.445L1727.67 15.445L1727.67 19.945C1729.13 16.609 1732.25 14.941 1737.03 14.941Z" fill="#121212"/>
<path d="M1842.85 21.313L1848.68 21.313C1853.12 21.313 1856.35 21.889 1858.37 23.041C1860.38 24.169 1861.39 26.029 1861.39 28.621C1861.39 33.901 1857.13 36.541 1848.61 36.541L1844 36.541C1839.56 36.541 1836.26 35.809 1834.1 34.345C1831.97 32.857 1830.9 30.577 1830.9 27.505L1835.9 27.505C1835.9 30.673 1838.36 32.257 1843.28 32.257L1849.83 32.257C1852.11 32.257 1853.75 31.969 1854.73 31.393C1855.74 30.793 1856.24 29.905 1856.24 28.729C1856.24 27.625 1855.76 26.821 1854.8 26.317C1853.87 25.813 1852.31 25.561 1850.12 25.561L1843.82 25.561C1839.24 25.561 1836 24.997 1834.1 23.869C1832.21 22.741 1831.26 20.857 1831.26 18.217C1831.26 16.729 1831.57 15.469 1832.19 14.437C1832.82 13.381 1833.71 12.553 1834.86 11.953C1836.03 11.353 1837.37 10.921 1838.85 10.657C1840.37 10.393 1842.09 10.261 1844.04 10.261L1847.93 10.261C1852.37 10.261 1855.65 11.005 1857.79 12.493C1859.95 13.957 1861.03 16.225 1861.03 19.297L1856.03 19.297C1856.03 17.809 1855.44 16.645 1854.26 15.805C1853.09 14.965 1851.3 14.545 1848.9 14.545L1843.07 14.545C1838.53 14.545 1836.26 15.745 1836.26 18.145C1836.26 19.273 1836.74 20.089 1837.7 20.593C1838.69 21.073 1840.4 21.313 1842.85 21.313ZM1874.29 14.905L1878.04 14.905C1881.69 14.905 1884.28 15.649 1885.81 17.137C1887.37 18.625 1888.15 21.253 1888.15 25.021L1888.15 36.001L1883.37 36.001L1883.37 32.149C1882.07 35.077 1879.26 36.541 1874.94 36.541L1873.79 36.541C1867.17 36.541 1863.85 34.201 1863.85 29.521C1863.85 27.409 1864.61 25.993 1866.12 25.273C1867.63 24.553 1870.03 24.193 1873.32 24.193L1883.33 24.193C1883.23 22.177 1882.77 20.773 1881.93 19.981C1881.11 19.189 1879.65 18.793 1877.53 18.793L1874.22 18.793C1870.77 18.793 1869.04 19.957 1869.04 22.285L1864.36 22.285C1864.36 19.765 1865.16 17.905 1866.77 16.705C1868.4 15.505 1870.91 14.905 1874.29 14.905ZM1873.75 32.905L1876.49 32.905C1878.75 32.905 1880.43 32.437 1881.53 31.501C1882.63 30.541 1883.23 28.945 1883.33 26.713L1873.79 26.713C1871.89 26.713 1870.55 26.917 1869.76 27.325C1868.97 27.709 1868.57 28.441 1868.57 29.521C1868.57 31.777 1870.3 32.905 1873.75 32.905ZM1902.07 14.905L1905.81 14.905C1909.46 14.905 1912.05 15.649 1913.59 17.137C1915.15 18.625 1915.93 21.253 1915.93 25.021L1915.93 36.001L1911.14 36.001L1911.14 32.149C1909.84 35.077 1907.04 36.541 1902.72 36.541L1901.56 36.541C1894.94 36.541 1891.63 34.201 1891.63 29.521C1891.63 27.409 1892.38 25.993 1893.9 25.273C1895.41 24.553 1897.81 24.193 1901.1 24.193L1911.1 24.193C1911.01 22.177 1910.54 20.773 1909.7 19.981C1908.88 19.189 1907.42 18.793 1905.31 18.793L1902 18.793C1898.54 18.793 1896.81 19.957 1896.81 22.285L1892.13 22.285C1892.13 19.765 1892.94 17.905 1894.54 16.705C1896.18 15.505 1898.68 14.905 1902.07 14.905ZM1901.53 32.905L1904.26 32.905C1906.52 32.905 1908.2 32.437 1909.3 31.501C1910.41 30.541 1911.01 28.945 1911.1 26.713L1901.56 26.713C1899.67 26.713 1898.32 26.917 1897.53 27.325C1896.74 27.709 1896.34 28.441 1896.34 29.521C1896.34 31.777 1898.07 32.905 1901.53 32.905ZM1930.71 21.313L1936.54 21.313C1940.98 21.313 1944.21 21.889 1946.22 23.041C1948.24 24.169 1949.25 26.029 1949.25 28.621C1949.25 33.901 1944.99 36.541 1936.47 36.541L1931.86 36.541C1927.42 36.541 1924.12 35.809 1921.96 34.345C1919.82 32.857 1918.75 30.577 1918.75 27.505L1923.76 27.505C1923.76 30.673 1926.22 32.257 1931.14 32.257L1937.69 32.257C1939.97 32.257 1941.6 31.969 1942.59 31.393C1943.59 30.793 1944.1 29.905 1944.1 28.729C1944.1 27.625 1943.62 26.821 1942.66 26.317C1941.72 25.813 1940.16 25.561 1937.98 25.561L1931.68 25.561C1927.09 25.561 1923.85 24.997 1921.96 23.869C1920.06 22.741 1919.11 20.857 1919.11 18.217C1919.11 16.729 1919.43 15.469 1920.05 14.437C1920.67 13.381 1921.56 12.553 1922.71 11.953C1923.89 11.353 1925.22 10.921 1926.71 10.657C1928.22 10.393 1929.95 10.261 1931.89 10.261L1935.78 10.261C1940.22 10.261 1943.51 11.005 1945.65 12.493C1947.81 13.957 1948.89 16.225 1948.89 19.297L1943.88 19.297C1943.88 17.809 1943.29 16.645 1942.12 15.805C1940.94 14.965 1939.15 14.545 1936.75 14.545L1930.92 14.545C1926.39 14.545 1924.12 15.745 1924.12 18.145C1924.12 19.273 1924.6 20.089 1925.56 20.593C1926.54 21.073 1928.26 21.313 1930.71 21.313Z" fill="#121212"/>
<path d="M2067.65 10.8L2067.65 36L2062.61 36L2062.82 13.644L2053.57 36L2046.62 36L2037.37 13.572L2037.59 36L2032.55 36L2032.55 10.8L2040.94 10.8L2050.22 33.3L2059.55 10.8L2067.65 10.8ZM2084.91 36.54L2081.42 36.54C2077.6 36.54 2074.87 35.76 2073.21 34.2C2071.58 32.616 2070.76 29.796 2070.76 25.74C2070.76 21.684 2071.59 18.864 2073.25 17.28C2074.9 15.696 2077.63 14.904 2081.42 14.904L2084.91 14.904C2088.7 14.904 2091.43 15.696 2093.08 17.28C2094.74 18.864 2095.57 21.684 2095.57 25.74C2095.57 29.796 2094.74 32.616 2093.08 34.2C2091.45 35.76 2088.73 36.54 2084.91 36.54ZM2081.96 32.4L2084.37 32.4C2086.84 32.4 2088.55 31.908 2089.48 30.924C2090.42 29.94 2090.89 28.212 2090.89 25.74C2090.89 23.244 2090.41 21.504 2089.45 20.52C2088.51 19.512 2086.82 19.008 2084.37 19.008L2081.96 19.008C2079.51 19.008 2077.81 19.512 2076.85 20.52C2075.91 21.504 2075.44 23.244 2075.44 25.74C2075.44 28.212 2075.91 29.94 2076.85 30.924C2077.78 31.908 2079.49 32.4 2081.96 32.4ZM2112.39 14.904L2113.04 14.904C2116.4 14.904 2118.87 15.708 2120.46 17.316C2122.06 18.924 2122.87 21.732 2122.87 25.74C2122.87 29.748 2122.06 32.556 2120.46 34.164C2118.87 35.772 2116.4 36.576 2113.04 36.576L2112.39 36.576C2108.29 36.576 2105.44 35.256 2103.86 32.616L2103.86 36L2099.04 36L2099.04 9L2103.86 9L2103.86 18.864C2105.44 16.224 2108.29 14.904 2112.39 14.904ZM2110.34 32.472L2112.07 32.472C2114.3 32.472 2115.87 31.968 2116.78 30.96C2117.72 29.928 2118.19 28.188 2118.19 25.74C2118.19 23.292 2117.72 21.564 2116.78 20.556C2115.87 19.524 2114.3 19.008 2112.07 19.008L2110.34 19.008C2108.11 19.008 2106.46 19.536 2105.41 20.592C2104.38 21.624 2103.86 23.34 2103.86 25.74C2103.86 28.14 2104.38 29.868 2105.41 30.924C2106.46 31.956 2108.11 32.472 2110.34 32.472ZM2129.13 12.888L2128.3 12.888C2127.34 12.888 2126.64 12.696 2126.21 12.312C2125.8 11.904 2125.6 11.232 2125.6 10.296C2125.6 9.384 2125.8 8.736 2126.21 8.352C2126.64 7.968 2127.34 7.776 2128.3 7.776L2129.13 7.776C2130.09 7.776 2130.78 7.968 2131.21 8.352C2131.65 8.736 2131.86 9.384 2131.86 10.296C2131.86 11.232 2131.65 11.904 2131.21 12.312C2130.78 12.696 2130.09 12.888 2129.13 12.888ZM2131.14 36L2126.32 36L2126.32 15.444L2131.14 15.444L2131.14 36ZM2139.79 36L2134.97 36L2134.97 9L2139.79 9L2139.79 36ZM2168.02 24.408L2168.02 27.072L2147.97 27.072C2148.12 29.088 2148.67 30.504 2149.63 31.32C2150.61 32.136 2152.22 32.544 2154.45 32.544L2157.4 32.544C2161.34 32.544 2163.31 31.236 2163.31 28.62L2168.02 28.62C2168.02 31.428 2167.15 33.456 2165.4 34.704C2163.64 35.928 2160.98 36.54 2157.4 36.54L2153.91 36.54C2150.1 36.54 2147.36 35.76 2145.7 34.2C2144.07 32.616 2143.26 29.796 2143.26 25.74C2143.26 21.684 2144.08 18.864 2145.74 17.28C2147.4 15.696 2150.12 14.904 2153.91 14.904L2157.4 14.904C2161.03 14.904 2163.7 15.612 2165.43 17.028C2167.16 18.444 2168.02 20.904 2168.02 24.408ZM2147.97 24.408L2163.31 24.408C2163.31 22.392 2162.8 20.976 2161.8 20.16C2160.81 19.32 2159.19 18.9 2156.94 18.9L2154.45 18.9C2152.2 18.9 2150.59 19.32 2149.63 20.16C2148.67 20.976 2148.12 22.392 2147.97 24.408ZM2208.59 36L2203.15 36L2201.32 31.716L2184.54 31.716L2182.63 36L2177.23 36L2188.65 10.8L2197.54 10.8L2208.59 36ZM2192.1 14.796L2186.31 27.756L2199.63 27.756L2194.08 14.796L2192.1 14.796ZM2223.14 14.904L2223.78 14.904C2227.14 14.904 2229.62 15.708 2231.2 17.316C2232.81 18.924 2233.61 21.732 2233.61 25.74C2233.61 29.748 2232.81 32.556 2231.2 34.164C2229.62 35.772 2227.14 36.576 2223.78 36.576L2223.14 36.576C2219.03 36.576 2216.19 35.256 2214.6 32.616L2214.6 42.48L2209.78 42.48L2209.78 15.48L2214.6 15.48L2214.6 18.864C2216.19 16.224 2219.03 14.904 2223.14 14.904ZM2221.08 32.472L2222.81 32.472C2225.04 32.472 2226.62 31.968 2227.53 30.96C2228.46 29.928 2228.93 28.188 2228.93 25.74C2228.93 23.292 2228.46 21.564 2227.53 20.556C2226.62 19.524 2225.04 19.008 2222.81 19.008L2221.08 19.008C2218.85 19.008 2217.21 19.536 2216.15 20.592C2215.12 21.624 2214.6 23.34 2214.6 25.74C2214.6 28.14 2215.12 29.868 2216.15 30.924C2217.21 31.956 2218.85 32.472 2221.08 32.472ZM2250.42 14.904L2251.06 14.904C2254.42 14.904 2256.9 15.708 2258.48 17.316C2260.09 18.924 2260.89 21.732 2260.89 25.74C2260.89 29.748 2260.09 32.556 2258.48 34.164C2256.9 35.772 2254.42 36.576 2251.06 36.576L2250.42 36.576C2246.31 36.576 2243.47 35.256 2241.88 32.616L2241.88 42.48L2237.06 42.48L2237.06 15.48L2241.88 15.48L2241.88 18.864C2243.47 16.224 2246.31 14.904 2250.42 14.904ZM2248.36 32.472L2250.09 32.472C2252.32 32.472 2253.9 31.968 2254.81 30.96C2255.74 29.928 2256.21 28.188 2256.21 25.74C2256.21 23.292 2255.74 21.564 2254.81 20.556C2253.9 19.524 2252.32 19.008 2250.09 19.008L2248.36 19.008C2246.13 19.008 2244.49 19.536 2243.43 20.592C2242.4 21.624 2241.88 23.34 2241.88 25.74C2241.88 28.14 2242.4 29.868 2243.43 30.924C2244.49 31.956 2246.13 32.472 2248.36 32.472Z" fill="#121212"/>
<path d="M2344.55 10.801L2349.73 10.801L2349.73 31.429L2364.24 31.429L2364.24 36.001L2344.55 36.001L2344.55 10.801ZM2380.28 36.541L2376.79 36.541C2372.97 36.541 2370.24 35.761 2368.58 34.201C2366.95 32.617 2366.13 29.797 2366.13 25.741C2366.13 21.685 2366.96 18.865 2368.62 17.281C2370.27 15.697 2373 14.905 2376.79 14.905L2380.28 14.905C2384.07 14.905 2386.8 15.697 2388.45 17.281C2390.11 18.865 2390.94 21.685 2390.94 25.741C2390.94 29.797 2390.11 32.617 2388.45 34.201C2386.82 35.761 2384.1 36.541 2380.28 36.541ZM2377.33 32.401L2379.74 32.401C2382.21 32.401 2383.92 31.909 2384.85 30.925C2385.79 29.941 2386.26 28.213 2386.26 25.741C2386.26 23.245 2385.78 21.505 2384.82 20.521C2383.88 19.513 2382.19 19.009 2379.74 19.009L2377.33 19.009C2374.88 19.009 2373.18 19.513 2372.22 20.521C2371.28 21.505 2370.81 23.245 2370.81 25.741C2370.81 28.213 2371.28 29.941 2372.22 30.925C2373.15 31.909 2374.86 32.401 2377.33 32.401ZM2413.06 18.721L2413.06 15.445L2417.88 15.445L2417.88 33.985C2417.88 37.489 2417.15 39.889 2415.68 41.185C2414.22 42.505 2411.75 43.165 2408.27 43.165L2395.49 43.165L2395.49 39.061L2408.27 39.061C2410.14 39.061 2411.4 38.701 2412.05 37.981C2412.72 37.285 2413.06 35.953 2413.06 33.985L2413.06 31.897C2411.45 34.441 2408.59 35.713 2404.49 35.713L2403.84 35.713C2400.53 35.713 2398.07 34.933 2396.46 33.373C2394.85 31.813 2394.05 29.125 2394.05 25.309C2394.05 21.493 2394.85 18.805 2396.46 17.245C2398.07 15.685 2400.53 14.905 2403.84 14.905L2404.49 14.905C2408.59 14.905 2411.45 16.177 2413.06 18.721ZM2404.85 31.609L2406.54 31.609C2408.8 31.609 2410.44 31.117 2411.47 30.133C2412.53 29.125 2413.06 27.517 2413.06 25.309C2413.06 23.101 2412.53 21.505 2411.47 20.521C2410.44 19.513 2408.8 19.009 2406.54 19.009L2404.85 19.009C2402.66 19.009 2401.09 19.501 2400.13 20.485C2399.2 21.469 2398.73 23.077 2398.73 25.309C2398.73 27.541 2399.2 29.149 2400.13 30.133C2401.09 31.117 2402.66 31.609 2404.85 31.609ZM2435.48 36.541L2431.99 36.541C2428.17 36.541 2425.43 35.761 2423.78 34.201C2422.15 32.617 2421.33 29.797 2421.33 25.741C2421.33 21.685 2422.16 18.865 2423.81 17.281C2425.47 15.697 2428.19 14.905 2431.99 14.905L2435.48 14.905C2439.27 14.905 2441.99 15.697 2443.65 17.281C2445.31 18.865 2446.13 21.685 2446.13 25.741C2446.13 29.797 2445.31 32.617 2443.65 34.201C2442.02 35.761 2439.29 36.541 2435.48 36.541ZM2432.53 32.401L2434.94 32.401C2437.41 32.401 2439.11 31.909 2440.05 30.925C2440.99 29.941 2441.45 28.213 2441.45 25.741C2441.45 23.245 2440.97 21.505 2440.01 20.521C2439.08 19.513 2437.39 19.009 2434.94 19.009L2432.53 19.009C2430.08 19.009 2428.37 19.513 2427.41 20.521C2426.48 21.505 2426.01 23.245 2426.01 25.741C2426.01 28.213 2426.48 29.941 2427.41 30.925C2428.35 31.909 2430.05 32.401 2432.53 32.401ZM2476.2 10.801C2480.74 10.801 2484 11.749 2485.99 13.645C2487.98 15.517 2488.98 18.769 2488.98 23.401C2488.98 28.033 2487.98 31.297 2485.99 33.193C2484 35.065 2480.74 36.001 2476.2 36.001L2460.04 36.001L2460.04 10.801L2476.2 10.801ZM2465.22 31.429L2475.95 31.429C2478.88 31.429 2480.9 30.841 2482.03 29.665C2483.16 28.489 2483.72 26.401 2483.72 23.401C2483.72 20.401 2483.16 18.313 2482.03 17.137C2480.9 15.961 2478.88 15.373 2475.95 15.373L2465.22 15.373L2465.22 31.429ZM2516.2 24.409L2516.2 27.073L2496.15 27.073C2496.29 29.089 2496.84 30.505 2497.8 31.321C2498.79 32.137 2500.39 32.545 2502.63 32.545L2505.58 32.545C2509.51 32.545 2511.48 31.237 2511.48 28.621L2516.2 28.621C2516.2 31.429 2515.32 33.457 2513.57 34.705C2511.82 35.929 2509.15 36.541 2505.58 36.541L2502.09 36.541C2498.27 36.541 2495.53 35.761 2493.88 34.201C2492.25 32.617 2491.43 29.797 2491.43 25.741C2491.43 21.685 2492.26 18.865 2493.91 17.281C2495.57 15.697 2498.29 14.905 2502.09 14.905L2505.58 14.905C2509.2 14.905 2511.88 15.613 2513.61 17.029C2515.33 18.445 2516.2 20.905 2516.2 24.409ZM2496.15 24.409L2511.48 24.409C2511.48 22.393 2510.98 20.977 2509.97 20.161C2508.99 19.321 2507.37 18.901 2505.11 18.901L2502.63 18.901C2500.37 18.901 2498.76 19.321 2497.8 20.161C2496.84 20.977 2496.29 22.393 2496.15 24.409ZM2528.78 23.869L2534 23.869C2535.39 23.869 2536.55 23.905 2537.49 23.977C2538.45 24.049 2539.37 24.205 2540.26 24.445C2541.17 24.685 2541.89 25.009 2542.42 25.417C2542.95 25.825 2543.37 26.389 2543.68 27.109C2543.99 27.805 2544.15 28.657 2544.15 29.665C2544.15 31.849 2543.27 33.541 2541.52 34.741C2539.77 35.941 2537.21 36.541 2533.85 36.541L2529.53 36.541C2526.03 36.541 2523.43 35.989 2521.72 34.885C2520.04 33.757 2519.2 31.873 2519.2 29.233L2523.92 29.233C2523.92 30.457 2524.33 31.357 2525.14 31.933C2525.96 32.485 2527.25 32.761 2529.03 32.761L2534.07 32.761C2537.67 32.761 2539.47 31.801 2539.47 29.881C2539.47 28.969 2539.03 28.345 2538.14 28.009C2537.27 27.649 2535.98 27.469 2534.25 27.469L2529.25 27.469C2525.96 27.469 2523.55 27.049 2522.01 26.209C2520.47 25.345 2519.71 23.761 2519.71 21.457C2519.71 17.017 2523.1 14.797 2529.89 14.797L2533.6 14.797C2537.18 14.797 2539.77 15.337 2541.38 16.417C2542.99 17.497 2543.79 19.321 2543.79 21.889L2539.07 21.889C2539.07 19.657 2537.42 18.541 2534.11 18.541L2529.46 18.541C2526.13 18.541 2524.46 19.513 2524.46 21.457C2524.46 23.065 2525.9 23.869 2528.78 23.869ZM2550.32 12.889L2549.49 12.889C2548.53 12.889 2547.84 12.697 2547.41 12.313C2547 11.905 2546.79 11.233 2546.79 10.297C2546.79 9.38497 2547 8.73697 2547.41 8.35298C2547.84 7.96897 2548.53 7.77697 2549.49 7.77697L2550.32 7.77697C2551.28 7.77697 2551.98 7.96897 2552.41 8.35298C2552.84 8.73697 2553.06 9.38497 2553.06 10.297C2553.06 11.233 2552.84 11.905 2552.41 12.313C2551.98 12.697 2551.28 12.889 2550.32 12.889ZM2552.34 36.001L2547.51 36.001L2547.51 15.445L2552.34 15.445L2552.34 36.001ZM2574.81 18.721L2574.81 15.445L2579.63 15.445L2579.63 33.985C2579.63 37.489 2578.9 39.889 2577.44 41.185C2575.97 42.505 2573.5 43.165 2570.02 43.165L2557.24 43.165L2557.24 39.061L2570.02 39.061C2571.89 39.061 2573.15 38.701 2573.8 37.981C2574.47 37.285 2574.81 35.953 2574.81 33.985L2574.81 31.897C2573.2 34.441 2570.35 35.713 2566.24 35.713L2565.59 35.713C2562.28 35.713 2559.82 34.933 2558.21 33.373C2556.61 31.813 2555.8 29.125 2555.8 25.309C2555.8 21.493 2556.61 18.805 2558.21 17.245C2559.82 15.685 2562.28 14.905 2565.59 14.905L2566.24 14.905C2570.35 14.905 2573.2 16.177 2574.81 18.721ZM2566.6 31.609L2568.29 31.609C2570.55 31.609 2572.19 31.117 2573.23 30.133C2574.28 29.125 2574.81 27.517 2574.81 25.309C2574.81 23.101 2574.28 21.505 2573.23 20.521C2572.19 19.513 2570.55 19.009 2568.29 19.009L2566.6 19.009C2564.42 19.009 2562.85 19.501 2561.89 20.485C2560.95 21.469 2560.48 23.077 2560.48 25.309C2560.48 27.541 2560.95 29.149 2561.89 30.133C2562.85 31.117 2564.42 31.609 2566.6 31.609ZM2597.12 14.941L2597.77 14.941C2601.18 14.941 2603.63 15.697 2605.12 17.209C2606.6 18.721 2607.35 21.373 2607.35 25.165L2607.35 36.037L2602.56 36.037L2602.56 25.165C2602.56 22.885 2602.15 21.289 2601.34 20.377C2600.54 19.465 2599.02 19.009 2596.76 19.009L2594.96 19.009C2592.68 19.009 2590.99 19.537 2589.89 20.593C2588.81 21.625 2588.27 23.353 2588.27 25.777L2588.27 36.001L2583.44 36.001L2583.44 15.445L2587.76 15.445L2587.76 19.945C2589.23 16.609 2592.35 14.941 2597.12 14.941Z" fill="#121212"/>
<path d="M2721.1 31.429L2727.55 10.801L2732.95 10.801L2724.81 36.001L2718.15 36.001L2711.49 15.949L2704.69 36.001L2698.03 36.001L2690 10.801L2695.4 10.801L2701.77 31.429L2708.76 10.801L2714.19 10.801L2721.1 31.429ZM2757.84 24.409L2757.84 27.073L2737.78 27.073C2737.93 29.089 2738.48 30.505 2739.44 31.321C2740.42 32.137 2742.03 32.545 2744.26 32.545L2747.22 32.545C2751.15 32.545 2753.12 31.237 2753.12 28.621L2757.84 28.621C2757.84 31.429 2756.96 33.457 2755.21 34.705C2753.46 35.929 2750.79 36.541 2747.22 36.541L2743.72 36.541C2739.91 36.541 2737.17 35.761 2735.52 34.201C2733.88 32.617 2733.07 29.797 2733.07 25.741C2733.07 21.685 2733.9 18.865 2735.55 17.281C2737.21 15.697 2739.93 14.905 2743.72 14.905L2747.22 14.905C2750.84 14.905 2753.52 15.613 2755.24 17.029C2756.97 18.445 2757.84 20.905 2757.84 24.409ZM2737.78 24.409L2753.12 24.409C2753.12 22.393 2752.62 20.977 2751.61 20.161C2750.62 19.321 2749 18.901 2746.75 18.901L2744.26 18.901C2742.01 18.901 2740.4 19.321 2739.44 20.161C2738.48 20.977 2737.93 22.393 2737.78 24.409ZM2774.66 14.905L2775.31 14.905C2778.67 14.905 2781.14 15.709 2782.73 17.317C2784.33 18.925 2785.14 21.733 2785.14 25.741C2785.14 29.749 2784.33 32.557 2782.73 34.165C2781.14 35.773 2778.67 36.577 2775.31 36.577L2774.66 36.577C2770.56 36.577 2767.71 35.257 2766.13 32.617L2766.13 36.001L2761.31 36.001L2761.31 9.00097L2766.13 9.00097L2766.13 18.865C2767.71 16.225 2770.56 14.905 2774.66 14.905ZM2772.61 32.473L2774.34 32.473C2776.57 32.473 2778.14 31.969 2779.05 30.961C2779.99 29.929 2780.46 28.189 2780.46 25.741C2780.46 23.293 2779.99 21.565 2779.05 20.557C2778.14 19.525 2776.57 19.009 2774.34 19.009L2772.61 19.009C2770.38 19.009 2768.73 19.537 2767.68 20.593C2766.65 21.625 2766.13 23.341 2766.13 25.741C2766.13 28.141 2766.65 29.869 2767.68 30.925C2768.73 31.957 2770.38 32.473 2772.61 32.473ZM2798.67 14.905L2802.41 14.905C2806.06 14.905 2808.65 15.649 2810.19 17.137C2811.75 18.625 2812.53 21.253 2812.53 25.021L2812.53 36.001L2807.74 36.001L2807.74 32.149C2806.44 35.077 2803.64 36.541 2799.32 36.541L2798.16 36.541C2791.54 36.541 2788.23 34.201 2788.23 29.521C2788.23 27.409 2788.98 25.993 2790.5 25.273C2792.01 24.553 2794.41 24.193 2797.7 24.193L2807.7 24.193C2807.61 22.177 2807.14 20.773 2806.3 19.981C2805.48 19.189 2804.02 18.793 2801.91 18.793L2798.6 18.793C2795.14 18.793 2793.41 19.957 2793.41 22.285L2788.73 22.285C2788.73 19.765 2789.54 17.905 2791.14 16.705C2792.78 15.505 2795.28 14.905 2798.67 14.905ZM2798.13 32.905L2800.86 32.905C2803.12 32.905 2804.8 32.437 2805.9 31.501C2807.01 30.541 2807.61 28.945 2807.7 26.713L2798.16 26.713C2796.27 26.713 2794.92 26.917 2794.13 27.325C2793.34 27.709 2792.94 28.441 2792.94 29.521C2792.94 31.777 2794.67 32.905 2798.13 32.905ZM2829.72 14.905L2830.37 14.905C2833.73 14.905 2836.2 15.709 2837.78 17.317C2839.39 18.925 2840.19 21.733 2840.19 25.741C2840.19 29.749 2839.39 32.557 2837.78 34.165C2836.2 35.773 2833.73 36.577 2830.37 36.577L2829.72 36.577C2825.61 36.577 2822.77 35.257 2821.19 32.617L2821.19 42.481L2816.36 42.481L2816.36 15.481L2821.19 15.481L2821.19 18.865C2822.77 16.225 2825.61 14.905 2829.72 14.905ZM2827.67 32.473L2829.39 32.473C2831.63 32.473 2833.2 31.969 2834.11 30.961C2835.05 29.929 2835.51 28.189 2835.51 25.741C2835.51 23.293 2835.05 21.565 2834.11 20.557C2833.2 19.525 2831.63 19.009 2829.39 19.009L2827.67 19.009C2825.43 19.009 2823.79 19.537 2822.73 20.593C2821.7 21.625 2821.19 23.341 2821.19 25.741C2821.19 28.141 2821.7 29.869 2822.73 30.925C2823.79 31.957 2825.43 32.473 2827.67 32.473ZM2857 14.905L2857.65 14.905C2861.01 14.905 2863.48 15.709 2865.06 17.317C2866.67 18.925 2867.47 21.733 2867.47 25.741C2867.47 29.749 2866.67 32.557 2865.06 34.165C2863.48 35.773 2861.01 36.577 2857.65 36.577L2857 36.577C2852.89 36.577 2850.05 35.257 2848.47 32.617L2848.47 42.481L2843.64 42.481L2843.64 15.481L2848.47 15.481L2848.47 18.865C2850.05 16.225 2852.89 14.905 2857 14.905ZM2854.95 32.473L2856.67 32.473C2858.91 32.473 2860.48 31.969 2861.39 30.961C2862.33 29.929 2862.79 28.189 2862.79 25.741C2862.79 23.293 2862.33 21.565 2861.39 20.557C2860.48 19.525 2858.91 19.009 2856.67 19.009L2854.95 19.009C2852.71 19.009 2851.07 19.537 2850.01 20.593C2848.98 21.625 2848.47 23.341 2848.47 25.741C2848.47 28.141 2848.98 29.869 2850.01 30.925C2851.07 31.957 2852.71 32.473 2854.95 32.473Z" fill="#121212"/>
</svg>
