<svg width="317" height="46" viewBox="0 0 317 46" fill="none" xmlns="http://www.w3.org/2000/svg">
<path d="M27.9345 23.0563C30.0945 23.3863 31.6545 24.0763 32.6145 25.1263C33.6045 26.1463 34.0995 27.7063 34.0995 29.8063L34.0995 36.1963L27.5745 36.1963L27.5745 30.0763C27.5745 28.4263 27.1395 27.3163 26.2695 26.7463C25.4295 26.1763 23.8995 25.8913 21.6795 25.8913L6.6495 25.8913L6.6495 36.1963L0.169497 36.1963L0.169497 4.69629L22.9395 4.69629C26.7495 4.69629 29.4795 5.49129 31.1295 7.08129C32.8095 8.64129 33.6495 11.3563 33.6495 15.2263C33.6495 17.6263 33.1845 19.4263 32.2545 20.6263C31.3545 21.8263 29.9145 22.6363 27.9345 23.0563ZM21.3645 10.2763L6.6495 10.2763L6.6495 20.6263L20.7795 20.6263C23.2395 20.6263 24.9045 20.3113 25.7745 19.6813C26.6745 19.0213 27.1245 17.7463 27.1245 15.8563C27.1245 13.7263 26.6895 12.2713 25.8195 11.4913C24.9495 10.6813 23.4645 10.2763 21.3645 10.2763ZM60.8846 22.6063L60.8846 10.5013L66.8696 10.5013L66.8696 33.0913C66.8696 37.7713 65.9696 40.9513 64.1696 42.6313C62.3696 44.3113 59.2796 45.1513 54.8996 45.1513L39.4646 45.1513L39.4646 40.0213L54.8996 40.0213C57.2396 40.0213 58.8146 39.5713 59.6246 38.6713C60.4646 37.8013 60.8846 36.1363 60.8846 33.6763L60.8846 30.9763C58.9046 34.2163 55.1996 35.8363 49.7696 35.8363L48.9596 35.8363C44.8796 35.8363 41.8646 34.9363 39.9146 33.1363C37.9646 31.3363 36.9896 28.1713 36.9896 23.6413L36.9896 10.5013L43.0196 10.5013L43.0196 23.6413C43.0196 26.2213 43.5596 28.0963 44.6396 29.2663C45.7196 30.4063 47.5646 30.9763 50.1746 30.9763L52.3346 30.9763C55.2746 30.9763 57.4346 30.3313 58.8146 29.0413C60.1946 27.7513 60.8846 25.6063 60.8846 22.6063ZM77.2364 36.1963L71.2064 36.1963L71.2064 2.44629L77.2364 2.44629L77.2364 36.1963ZM85.027 7.30629L83.992 7.30629C82.792 7.30629 81.922 7.06629 81.382 6.58629C80.872 6.07629 80.617 5.23629 80.617 4.06629C80.617 2.92629 80.872 2.11629 81.382 1.63629C81.922 1.15629 82.792 0.916287 83.992 0.916287L85.027 0.916287C86.227 0.916287 87.097 1.15629 87.637 1.63629C88.177 2.11629 88.447 2.92629 88.447 4.06629C88.447 5.23629 88.177 6.07629 87.637 6.58629C87.097 7.06629 86.227 7.30629 85.027 7.30629ZM87.547 36.1963L81.517 36.1963L81.517 10.5013L87.547 10.5013L87.547 36.1963ZM109.063 36.8713L104.698 36.8713C99.9275 36.8713 96.5075 35.8963 94.4375 33.9463C92.3975 31.9663 91.3775 28.4413 91.3775 23.3713C91.3775 18.3013 92.4125 14.7763 94.4825 12.7963C96.5525 10.8163 99.9575 9.82629 104.698 9.82629L109.063 9.82629C113.533 9.82629 116.863 10.6363 119.053 12.2563C121.243 13.8763 122.338 16.5913 122.338 20.4013L116.443 20.4013C116.443 18.5713 115.798 17.2063 114.508 16.3063C113.248 15.4063 111.238 14.9563 108.478 14.9563L105.373 14.9563C102.313 14.9563 100.183 15.5863 98.9825 16.8463C97.8125 18.0763 97.2275 20.2513 97.2275 23.3713C97.2275 26.4613 97.8125 28.6213 98.9825 29.8513C100.153 31.0813 102.283 31.6963 105.373 31.6963L108.478 31.6963C111.268 31.6963 113.293 31.2613 114.553 30.3913C115.813 29.4913 116.443 28.1113 116.443 26.2513L122.338 26.2513C122.338 30.0913 121.243 32.8213 119.053 34.4413C116.893 36.0613 113.563 36.8713 109.063 36.8713ZM152.847 17.8363L160.137 17.8363C165.687 17.8363 169.722 18.5563 172.242 19.9963C174.762 21.4063 176.022 23.7313 176.022 26.9713C176.022 33.5713 170.697 36.8713 160.047 36.8713L154.287 36.8713C148.737 36.8713 144.612 35.9563 141.912 34.1263C139.242 32.2663 137.907 29.4163 137.907 25.5763L144.162 25.5763C144.162 29.5363 147.237 31.5163 153.387 31.5163L161.577 31.5163C164.427 31.5163 166.467 31.1563 167.697 30.4363C168.957 29.6863 169.587 28.5763 169.587 27.1063C169.587 25.7263 168.987 24.7213 167.787 24.0913C166.617 23.4613 164.667 23.1463 161.937 23.1463L154.062 23.1463C148.332 23.1463 144.282 22.4413 141.912 21.0313C139.542 19.6213 138.357 17.2663 138.357 13.9663C138.357 12.1063 138.747 10.5313 139.527 9.24129C140.307 7.92129 141.417 6.88629 142.857 6.13629C144.327 5.38629 145.992 4.84629 147.852 4.51629C149.742 4.18629 151.902 4.02129 154.332 4.02129L159.192 4.02129C164.742 4.02129 168.852 4.95129 171.522 6.81129C174.222 8.64129 175.572 11.4763 175.572 15.3163L169.317 15.3163C169.317 13.4563 168.582 12.0013 167.112 10.9513C165.642 9.90129 163.407 9.37629 160.407 9.37629L153.117 9.37629C147.447 9.37629 144.612 10.8763 144.612 13.8763C144.612 15.2863 145.212 16.3063 146.412 16.9363C147.642 17.5363 149.787 17.8363 152.847 17.8363ZM198.358 26.7463L204.208 26.7463C204.208 30.0163 203.203 32.5213 201.193 34.2613C199.213 36.0013 196.438 36.8713 192.868 36.8713L192.283 36.8713C188.713 36.8713 185.968 36.0463 184.048 34.3963C182.128 32.7463 181.168 30.0163 181.168 26.2063L181.168 15.0013L177.568 15.0013L177.568 10.5013L181.168 10.5013L181.168 4.69629L187.153 4.69629L187.153 10.5013L203.533 10.5013L203.533 15.0013L187.153 15.0013L187.153 26.2063C187.153 29.9863 188.983 31.8763 192.643 31.8763L192.958 31.8763C194.638 31.8763 195.958 31.4413 196.918 30.5713C197.878 29.7013 198.358 28.4263 198.358 26.7463ZM232.111 23.3263L232.111 10.5013L238.096 10.5013L238.096 36.1963L232.111 36.1963L232.111 31.7863C230.101 35.1763 226.396 36.8713 220.996 36.8713L220.186 36.8713C216.136 36.8713 213.121 35.9263 211.141 34.0363C209.191 32.1463 208.216 28.9363 208.216 24.4063L208.216 10.5013L214.246 10.5013L214.246 24.4063C214.246 26.9863 214.786 28.8613 215.866 30.0313C216.946 31.1713 218.791 31.7413 221.401 31.7413L223.561 31.7413C226.501 31.7413 228.661 31.0963 230.041 29.8063C231.421 28.5163 232.111 26.3563 232.111 23.3263ZM265.743 14.7763L265.743 2.44628L271.773 2.44628L271.773 36.1963L265.743 36.1963L265.743 31.9663C263.763 35.2663 260.208 36.9163 255.078 36.9163L254.268 36.9163C250.068 36.9163 246.963 35.9113 244.953 33.9013C242.973 31.8913 241.983 28.3813 241.983 23.3713C241.983 18.3613 242.973 14.8513 244.953 12.8413C246.963 10.8313 250.068 9.82629 254.268 9.82629L255.078 9.82629C260.208 9.82629 263.763 11.4763 265.743 14.7763ZM255.483 31.7863L257.643 31.7863C260.433 31.7863 262.473 31.1413 263.763 29.8513C265.083 28.5313 265.743 26.3713 265.743 23.3713C265.743 20.3713 265.083 18.2263 263.763 16.9363C262.473 15.6163 260.433 14.9563 257.643 14.9563L255.483 14.9563C252.693 14.9563 250.713 15.6013 249.543 16.8913C248.403 18.1513 247.833 20.3113 247.833 23.3713C247.833 26.4313 248.403 28.6063 249.543 29.8963C250.713 31.1563 252.693 31.7863 255.483 31.7863ZM279.545 7.30629L278.51 7.30629C277.31 7.30629 276.44 7.06629 275.9 6.58629C275.39 6.07629 275.135 5.23629 275.135 4.06629C275.135 2.92629 275.39 2.11629 275.9 1.63629C276.44 1.15629 277.31 0.916286 278.51 0.916286L279.545 0.916286C280.745 0.916286 281.615 1.15629 282.155 1.63629C282.695 2.11629 282.965 2.92629 282.965 4.06629C282.965 5.23629 282.695 6.07629 282.155 6.58629C281.615 7.06629 280.745 7.30629 279.545 7.30629ZM282.065 36.1963L276.035 36.1963L276.035 10.5013L282.065 10.5013L282.065 36.1963ZM303.58 36.8713L299.215 36.8713C294.445 36.8713 291.025 35.8963 288.955 33.9463C286.915 31.9663 285.895 28.4413 285.895 23.3713C285.895 18.3013 286.93 14.7763 289 12.7963C291.07 10.8163 294.475 9.82629 299.215 9.82629L303.58 9.82629C308.32 9.82629 311.725 10.8163 313.795 12.7963C315.865 14.7763 316.9 18.3013 316.9 23.3713C316.9 28.4413 315.865 31.9663 313.795 33.9463C311.755 35.8963 308.35 36.8713 303.58 36.8713ZM299.89 31.6963L302.905 31.6963C305.995 31.6963 308.125 31.0813 309.295 29.8513C310.465 28.6213 311.05 26.4613 311.05 23.3713C311.05 20.2513 310.45 18.0763 309.25 16.8463C308.08 15.5863 305.965 14.9563 302.905 14.9563L299.89 14.9563C296.83 14.9563 294.7 15.5863 293.5 16.8463C292.33 18.0763 291.745 20.2513 291.745 23.3713C291.745 26.4613 292.33 28.6213 293.5 29.8513C294.67 31.0813 296.8 31.6963 299.89 31.6963Z" fill="black"/>
</svg>
