<svg width="102" height="65" viewBox="0 0 102 65" fill="none" xmlns="http://www.w3.org/2000/svg">
<g opacity="0.65">
<path d="M19.0856 46.2374C12.6755 29.9636 18.7571 10.1162 35.8161 3.48164C52.2742 -2.92852 73.8444 7.10338 76.6809 25.3884C76.7611 25.9172 77.5783 25.773 77.5062 25.2441C74.9181 6.82294 53.1716 -3.56152 36.5293 2.30378C18.7571 8.56971 11.2251 29.6351 18.5728 46.4858C18.725 46.8143 19.2218 46.574 19.0856 46.2374Z" fill="#000412"/>
<path d="M23.8697 53.994C31.57 64.13 47.8277 66.3896 59.2699 62.4554C70.5598 58.5692 77.5549 47.2313 78.4363 35.6048C78.4603 35.3003 78.0196 35.2683 77.9635 35.5568C75.9203 46.2697 70.8963 57.0628 60.1112 61.2375C48.2925 65.8127 32.836 63.3208 24.2223 53.6815C24.022 53.4571 23.6855 53.7536 23.8697 53.994Z" fill="#000412"/>
<path d="M15.9877 36.2855C14.1127 37.5675 10.1624 40.8928 11.164 43.561C12.1496 46.1892 17.0454 46.045 19.2328 46.1331C19.5934 46.1491 19.6255 45.6524 19.2809 45.5883C17.1335 45.1796 10.8996 45.6844 11.7089 41.9104C12.1496 39.8431 14.6736 37.8079 16.1479 36.4778C16.2761 36.3656 16.1239 36.1894 15.9877 36.2855Z" fill="#000412"/>
<path d="M18.4106 46.1725C27.9857 45.8359 37.7051 43.4802 46.8076 40.6277C55.9501 37.7591 65.2368 34.1614 73.3697 29.0413C73.6101 28.8891 73.4418 28.5125 73.1774 28.6327C64.2352 32.8874 55.4773 37.1021 45.9663 40.0027C36.8879 42.7671 27.7053 44.1212 18.3865 45.7077C18.1381 45.7478 18.1381 46.1805 18.4106 46.1725Z" fill="#000412"/>
<path d="M74.2367 28.5695C76.1197 27.3837 77.8584 26.0455 79.4609 24.4911C80.5507 23.4334 81.9529 22.1754 82.2654 20.6209C83.0186 16.863 78.1388 16.895 75.7671 16.6787C75.4866 16.6546 75.3665 17.0953 75.6549 17.1675C76.7446 17.4559 77.8504 17.4559 78.9481 17.6803C80.6067 18.0248 80.5747 18.0489 80.8151 19.9639C81.0795 22.0632 81.0234 21.919 79.6132 23.4013C77.9145 25.1882 75.9914 26.7506 74.0043 28.2009C73.812 28.3532 74.0283 28.7057 74.2367 28.5695Z" fill="#000412"/>
<path d="M16.0179 31.9363C11.0661 34.0917 6.28245 36.8 1.97963 40.0772C-0.953018 42.3127 -5.57634 45.4697 -6.69812 49.2357C-9.35833 58.1458 9.25517 56.0225 13.6782 55.3254C13.9586 55.2773 13.8785 54.8686 13.5981 54.8927C9.12696 55.2693 4.66389 55.3975 0.208831 54.7565C-2.27511 54.4039 -6.23337 54.2677 -6.28946 50.4296C-6.32952 47.9296 -3.40489 45.5739 -1.73825 44.0194C3.55013 39.0756 9.776 35.566 16.2102 32.3449C16.4746 32.2167 16.2823 31.8161 16.0179 31.9363Z" fill="#000412"/>
<path d="M15.6511 55.2992C28.0948 54.0733 40.5466 50.6198 52.3172 46.4933C64.0478 42.3747 76.0028 37.3107 86.4273 30.4678C86.6757 30.3076 86.4033 29.8989 86.1469 30.0352C75.1614 35.7803 64.4004 41.4372 52.6778 45.6038C40.5305 49.9227 28.191 52.4467 15.571 54.8665C15.2985 54.9226 15.3787 55.3233 15.6511 55.2992Z" fill="#000412"/>
<path d="M88.6079 29.203C92.1736 27.3921 106.388 16.4948 99.2328 11.8875C99.0164 11.7513 98.728 12.0318 98.9203 12.2321C104.04 17.3842 92.406 26.5187 88.4637 28.8985C88.2714 29.0027 88.4076 29.3071 88.6079 29.203Z" fill="#000412"/>
<path d="M71.1503 12.0921C80.0204 11.6434 88.2334 9.46391 97.1275 11.2668C97.3358 11.3068 97.3999 10.9783 97.2076 10.9062C89.5154 7.98156 78.8826 10.145 71.1022 11.8036C70.9179 11.8517 70.974 12.1001 71.1503 12.0921Z" fill="#000412"/>
<path d="M42.0315 36.8623C49.1148 35.3399 56.0217 32.6075 62.1755 28.7775C62.3518 28.6653 62.2236 28.3688 62.0312 28.473C55.565 31.9826 49.0988 34.5947 41.9594 36.4456C41.703 36.5097 41.7671 36.9184 42.0315 36.8623Z" fill="#000412"/>
<path d="M47.8376 36.7189C51.9401 35.2045 56.0186 33.5299 59.8567 31.4306C60.0329 31.3344 59.9047 31.062 59.7204 31.1501C55.7381 32.985 51.7799 34.8279 47.6854 36.4064C47.477 36.4866 47.6293 36.7991 47.8376 36.7189Z" fill="#000412"/>
<path d="M62.0553 30.4983C66.6706 28.431 71.4381 25.25 74.7714 21.4279C74.9156 21.2677 74.6592 21.0513 74.499 21.1795C70.4365 24.5769 66.5584 27.6057 61.903 30.1858C61.7107 30.298 61.8549 30.5944 62.0553 30.4983Z" fill="#000412"/>
<path d="M62.9782 28.8433C64.0519 28.2423 65.1577 27.6894 66.1433 26.9443C66.2955 26.8321 66.1352 26.5997 65.967 26.6718C64.8532 27.1446 63.8276 27.8257 62.7939 28.4506C62.5536 28.5949 62.7298 28.9795 62.9782 28.8433Z" fill="#000412"/>
<path d="M67.5155 25.8846C70.1997 24.0016 72.9 21.7821 74.7269 19.0257C74.8311 18.8735 74.6228 18.6571 74.4785 18.8014C72.1388 21.1731 69.9594 23.593 67.2992 25.6282C67.1309 25.7564 67.3472 26.0048 67.5155 25.8846Z" fill="#000412"/>
<path d="M67.3207 24.5318C68.795 23.2658 70.3976 22.0558 71.7197 20.6296C71.8639 20.4693 71.6796 20.237 71.4953 20.3732C69.9088 21.4949 68.4985 22.9292 67.0563 24.2273C66.864 24.3955 67.1204 24.7 67.3207 24.5318Z" fill="#000412"/>
<path d="M62.8721 27.0397C63.5451 26.5589 64.2182 26.0782 64.8833 25.5814C65.0275 25.4772 64.8512 25.2769 64.707 25.3731C64.0179 25.8378 63.3448 26.3186 62.6638 26.7913C62.4955 26.9115 62.7038 27.1599 62.8721 27.0397Z" fill="#000412"/>
<path d="M17.2943 40.0445C23.3359 39.9964 29.4095 39.2672 35.1707 37.3762C35.3309 37.3282 35.2428 37.0557 35.0825 37.0958C29.1932 38.5701 23.424 39.5878 17.3344 39.6679C17.094 39.6759 17.0539 40.0445 17.2943 40.0445Z" fill="#000412"/>
<path d="M21.5851 41.2357C25.1106 40.8271 28.6442 40.3463 32.0977 39.529C32.274 39.489 32.2259 39.2245 32.0496 39.2566C28.5401 39.8015 25.0465 40.4345 21.529 40.8912C21.2966 40.9152 21.3607 41.2598 21.5851 41.2357Z" fill="#000412"/>
<path d="M36.1447 38.0976C37.2425 37.8412 38.3642 37.6249 39.4139 37.2162C39.5902 37.1441 39.494 36.8877 39.3178 36.9117C38.22 37.056 37.1463 37.4165 36.0726 37.713C35.8322 37.7851 35.8963 38.1617 36.1447 38.0976Z" fill="#000412"/>
<path d="M34.9468 39.0102C37.2064 38.906 39.49 38.5294 41.5733 37.632C41.7416 37.5599 41.6214 37.3195 41.4531 37.3756C39.2817 38.0647 37.1743 38.5935 34.8907 38.7057C34.6904 38.7137 34.7465 39.0182 34.9468 39.0102Z" fill="#000412"/>
<path d="M47.1122 33.989C51.9599 32.3384 56.7194 30.183 60.894 27.1862C61.0543 27.0741 60.878 26.7936 60.7097 26.8978C56.2547 29.5099 51.8236 31.8897 46.9599 33.6605C46.7356 33.7406 46.8958 34.0611 47.1122 33.989Z" fill="#000412"/>
<path d="M57.8137 27.1371C59.3521 26.5842 60.8105 25.8471 62.0524 24.7654C62.1806 24.6532 62.0364 24.3968 61.8762 24.5009C60.522 25.3743 59.1518 26.1996 57.6535 26.8086C57.4371 26.8967 57.5974 27.2173 57.8137 27.1371Z" fill="#000412"/>
<path d="M63.5723 24.8294C66.545 23.4272 69.5899 21.4881 71.585 18.8199C71.6972 18.6756 71.4809 18.4753 71.3446 18.6035C68.8367 20.8791 66.497 22.9945 63.4201 24.5169C63.2198 24.6131 63.364 24.9255 63.5723 24.8294Z" fill="#000412"/>
<path d="M19.7363 38.8367C24.8404 38.4121 30.0487 37.5547 34.9044 35.88C35.0807 35.824 34.9845 35.5275 34.8082 35.5756C29.7762 36.8175 24.8484 37.9473 19.6883 38.5403C19.4879 38.5563 19.544 38.8528 19.7363 38.8367Z" fill="#000412"/>
<path d="M25.3572 36.9427C27.2321 36.6382 29.1552 36.2296 30.9821 35.6927C31.1664 35.6366 31.1263 35.3642 30.926 35.3882C29.043 35.6606 27.128 36.0853 25.2931 36.5901C25.0847 36.6462 25.1328 36.9747 25.3572 36.9427Z" fill="#000412"/>
<path d="M18.9052 44.4034C23.1439 44.8922 27.3666 44.5396 31.405 43.1374C31.5572 43.0893 31.4771 42.8249 31.3169 42.873C27.2304 44.0268 23.1759 44.4916 18.9372 44.0429C18.7049 44.0188 18.6728 44.3794 18.9052 44.4034Z" fill="#000412"/>
<path d="M20.8359 43.4896C23.5202 43.6258 26.1884 43.5377 28.8406 43.105C29.0088 43.0809 28.9608 42.8245 28.7925 42.8406C26.1563 43.1531 23.5202 43.3053 20.8599 43.1851C20.6676 43.1851 20.6436 43.4816 20.8359 43.4896Z" fill="#000412"/>
<path d="M43.4124 37.7849C44.3098 37.3762 45.1992 37.272 46.1367 37.0317C46.297 36.9916 46.305 36.7432 46.1287 36.7352C45.1752 36.6711 44.1255 37.0797 43.2762 37.4884C43.0759 37.5765 43.2201 37.873 43.4124 37.7849Z" fill="#000412"/>
<path d="M32.192 40.4707C33.2898 40.2864 34.4196 40.1502 35.5093 39.8777C35.6856 39.8297 35.6455 39.5733 35.4612 39.5973C34.3474 39.7175 33.2417 39.9739 32.144 40.1662C31.9437 40.2063 31.9917 40.5027 32.192 40.4707Z" fill="#000412"/>
<path d="M32.7745 39.3136C33.3273 39.2094 33.8802 39.1213 34.4251 38.9691C34.6094 38.913 34.5693 38.6566 34.377 38.6726C33.8161 38.7287 33.2713 38.8649 32.7184 38.9691C32.494 39.0171 32.5581 39.3617 32.7745 39.3136Z" fill="#000412"/>
<path d="M36.4416 36.8156C38.9976 36.2307 41.6258 35.6457 44.1177 34.8204C44.278 34.7644 44.1899 34.4999 44.0296 34.532C41.4655 35.0127 38.8935 35.774 36.3855 36.4951C36.1852 36.5512 36.2332 36.8637 36.4416 36.8156Z" fill="#000412"/>
<path d="M42.2141 34.4182C42.9593 34.1537 43.7125 33.9053 44.4416 33.5929C44.5858 33.5287 44.5137 33.2723 44.3535 33.3204C43.5763 33.5448 42.815 33.8252 42.0618 34.0976C41.8455 34.1778 41.9977 34.4983 42.2141 34.4182Z" fill="#000412"/>
<path d="M58.1246 35.0997C62.7479 33.409 67.3713 31.2295 71.4497 28.4491C71.594 28.353 71.4337 28.1126 71.2895 28.2007C66.9065 30.5965 62.5957 32.8721 58.0044 34.8352C57.8281 34.9154 57.9483 35.1638 58.1246 35.0997Z" fill="#000412"/>
<path d="M65.1891 30.8116C66.8958 29.9462 68.6666 29.145 70.2932 28.1434C70.4614 28.0392 70.3492 27.7828 70.1569 27.8629C68.3941 28.6081 66.7195 29.5857 65.0288 30.4751C64.8205 30.5872 64.9727 30.9158 65.1891 30.8116Z" fill="#000412"/>
<path d="M33.2844 49.9552C44.5743 47.351 55.76 43.521 66.0483 38.1685C66.2326 38.0723 66.1044 37.7839 65.9041 37.872C55.3033 42.7758 44.5903 46.8222 33.2203 49.5946C32.9959 49.6507 33.052 50.0032 33.2844 49.9552Z" fill="#000412"/>
<path d="M48.6798 43.5281C50.8593 43.1996 52.9025 42.4865 54.7615 41.3006C54.9378 41.1884 54.8176 40.908 54.6173 41.0041C52.6942 41.9576 50.7151 42.7028 48.6077 43.1675C48.3834 43.2236 48.4475 43.5682 48.6798 43.5281Z" fill="#000412"/>
<path d="M68.0017 38.0156C76.1506 34.482 84.2995 30.6679 91.3347 25.1472C93.5862 23.3764 101.262 18.3123 98.6583 14.6185C98.498 14.3941 98.1294 14.6345 98.2496 14.8829C100.653 19.4581 87.3203 27.4067 84.7001 29.0253C79.3236 32.3506 73.5945 35.0669 67.8494 37.6951C67.6411 37.7832 67.7933 38.1037 68.0017 38.0156Z" fill="#000412"/>
<path d="M-5.31441 50.2836C-4.27276 54.3301 2.00921 54.4502 5.33448 54.4502C11.8488 54.4502 18.7397 53.1522 25.1178 51.9022C25.3422 51.8621 25.2781 51.5336 25.0537 51.5577C20.5907 52.0144 16.1757 52.8637 11.7286 53.4487C7.75432 53.9695 -3.31122 55.548 -4.94581 50.2275C-5.00991 49.9952 -5.3705 50.0433 -5.31441 50.2836Z" fill="#000412"/>
<path d="M26.086 51.7172C27.4482 51.605 28.8905 51.2364 30.0043 50.4031C30.1565 50.2909 29.9962 50.0505 29.828 50.1226C28.57 50.6915 27.4081 51.1883 26.0219 51.3245C25.7735 51.3566 25.8457 51.7412 26.086 51.7172Z" fill="#000412"/>
<path d="M-4.42209 48.856C-0.728236 44.385 3.38228 41.2039 8.17388 38.0149C8.32612 37.9107 8.15785 37.6703 7.9976 37.7504C2.99767 40.0821 -1.4654 44.2407 -4.71856 48.6557C-4.86279 48.84 -4.57433 49.0323 -4.42209 48.856Z" fill="#000412"/>
<path d="M-2.32157 47.3998C-3.58757 48.802 -4.57315 51.0055 -2.63407 52.2956C-0.326414 53.826 3.27129 53.7539 5.82734 53.0407C6.03567 52.9846 5.98761 52.6721 5.77127 52.7122C3.81617 53.0407 1.89311 53.1289 -0.0459604 52.7042C-0.839218 52.5279 -1.92094 52.3356 -2.56196 51.7747C-4.17251 50.3645 -2.77829 48.7379 -2.0251 47.6081C-1.8969 47.4078 -2.16932 47.2395 -2.32157 47.3998Z" fill="#000412"/>
<path d="M11.5972 52.9596C20.5795 51.5654 29.6899 49.8186 38.3196 46.886C38.5119 46.8219 38.4078 46.4853 38.2074 46.5414C29.3374 48.801 20.5875 51.1247 11.5412 52.6391C11.3328 52.6792 11.3889 52.9917 11.5972 52.9596Z" fill="#000412"/>
<path d="M39.2486 46.8646C41.2357 46.2476 43.1908 45.5344 45.1139 44.7412C45.2821 44.6771 45.194 44.3806 45.0177 44.4367C43.0226 45.0377 41.0675 45.7187 39.1284 46.488C38.9281 46.5761 39.0403 46.9287 39.2486 46.8646Z" fill="#000412"/>
<path d="M56.8475 40.7502C68.0733 36.888 79.5074 32.0884 89.339 25.3257C89.4912 25.2216 89.323 24.9651 89.1627 25.0533C78.5379 30.8064 68.1374 36.3832 56.7113 40.4457C56.5029 40.5258 56.6472 40.8223 56.8475 40.7502Z" fill="#000412"/>
<path d="M74.9577 12.953C75.5026 12.8489 76.0715 12.7767 76.6083 12.6085C76.8086 12.5444 76.7686 12.2639 76.5522 12.28C75.9993 12.328 75.4384 12.4642 74.8936 12.5684C74.6532 12.6245 74.7173 13.0011 74.9577 12.953Z" fill="#000412"/>
<path d="M78.5714 12.465C81.8967 11.7999 85.1899 11.5836 88.5473 11.199C88.7316 11.1749 88.7155 10.8865 88.5312 10.8785C85.206 10.7262 81.7285 11.3512 78.5074 12.1124C78.291 12.1685 78.3471 12.5131 78.5714 12.465Z" fill="#000412"/>
<path d="M77.8152 14.1533C78.4562 14.3376 79.0892 14.3216 79.6821 14.0091C79.8343 13.929 79.7703 13.6565 79.586 13.7126C79.0491 13.8729 78.4962 13.929 77.9514 13.7767C77.703 13.7046 77.5668 14.0812 77.8152 14.1533Z" fill="#000412"/>
<path d="M81.8307 13.8248C83.1127 13.7367 84.3547 13.8489 85.6287 13.8569C85.8371 13.8569 85.8611 13.5764 85.6608 13.5364C84.4028 13.288 83.0406 13.3681 81.7666 13.4643C81.5342 13.4883 81.5983 13.8409 81.8307 13.8248Z" fill="#000412"/>
<path d="M91.8524 14.4269C92.197 14.5631 92.5415 14.7073 92.8621 14.8996C93.7034 15.4044 93.7194 15.4765 93.7595 16.5743C93.7995 17.688 93.8236 17.664 93.1745 18.3771C92.846 18.7377 92.5015 19.0662 92.1329 19.3867C90.8829 20.4524 89.4567 21.1335 87.9983 21.8627C87.8381 21.9428 87.9102 22.2312 88.1025 22.1751C90.306 21.5742 93.0223 19.8675 94.1921 17.8483C95.3299 15.8852 93.7034 14.6833 91.9646 14.1464C91.7723 14.0903 91.6682 14.3547 91.8524 14.4269Z" fill="#000412"/>
<path d="M90.1656 12.9925C92.2008 12.8082 97.7616 13.329 96.768 16.6382C96.3033 18.2087 94.7008 19.2824 93.7633 20.5565C93.6431 20.7247 93.8754 20.933 94.0277 20.7968C95.4059 19.635 97.8898 17.4235 97.3369 15.3802C96.6158 12.688 92.2889 12.4075 90.1095 12.688C89.9092 12.712 89.9652 13.0085 90.1656 12.9925Z" fill="#000412"/>
<path d="M-0.300863 45.677C0.836941 44.9959 1.92668 44.1306 2.92026 43.2492C3.04045 43.145 2.91224 42.9046 2.76 43.0008C1.63822 43.7059 0.49241 44.4991 -0.485139 45.3966C-0.621355 45.5168 -0.477142 45.7812 -0.300863 45.677Z" fill="#000412"/>
<path d="M2.35338 44.8894C0.189947 46.9887 -4.52952 51.2435 1.36783 51.6601C7.90619 52.1249 15.2619 51.3957 21.5278 49.5848C21.7201 49.5287 21.672 49.2243 21.4717 49.2723C17.7778 50.1617 14.0119 50.6585 10.2219 50.939C8.01836 51.0992 5.79885 51.1874 3.58734 51.2114C3.01844 51.2194 1.92871 51.4197 1.40788 51.2114C-2.56642 49.6009 1.56814 46.1955 2.56171 45.1378C2.69793 44.9855 2.50562 44.7372 2.35338 44.8894Z" fill="#000412"/>
<path d="M26.6636 46.2598C32.4809 45.4185 38.4503 44.2727 44.0192 42.3496C44.1794 42.2935 44.0913 42.0371 43.931 42.0692C38.1459 43.4153 32.4568 44.8896 26.6076 45.9393C26.3992 45.9714 26.4553 46.2919 26.6636 46.2598Z" fill="#000412"/>
<path d="M47.47 41.3979C47.9908 41.2217 48.5517 41.0855 49.0324 40.829C49.1927 40.7409 49.1286 40.4765 48.9283 40.5085C48.3754 40.6127 47.8386 40.8691 47.3097 41.0694C47.0934 41.1496 47.2536 41.4781 47.47 41.3979Z" fill="#000412"/>
<path d="M51.0938 40.3416C55.3085 39.0996 59.435 37.5852 63.3532 35.5821C63.5215 35.4939 63.4013 35.2455 63.225 35.3176C59.2347 37.1045 55.2123 38.7471 51.0377 40.0451C50.8534 40.0932 50.9015 40.3897 51.0938 40.3416Z" fill="#000412"/>
<path d="M11.6215 38.914C10.0349 40.3162 8.23209 42.3354 9.02535 44.6271C9.79457 46.8546 13.0237 46.9588 14.9628 46.8867C15.1631 46.8786 15.2112 46.5822 14.9948 46.5661C13.216 46.4379 10.1551 46.47 9.46604 44.4828C8.71285 42.3194 10.4997 40.5967 11.8619 39.1864C12.0141 39.0262 11.7977 38.7538 11.6215 38.914Z" fill="#000412"/>
<path d="M7.67017 44.7474C7.44581 45.8372 8.53555 47.2073 9.71342 46.8788C9.87367 46.8307 9.8977 46.5663 9.69738 46.5663C9.20059 46.5583 8.77591 46.4541 8.41534 46.0775C8.07881 45.725 7.91856 45.2602 7.99869 44.7795C8.03875 44.5631 7.71824 44.5391 7.67017 44.7474Z" fill="#000412"/>
<path d="M13.0107 37.4555C14.0283 36.7584 15.0539 36.0854 16.0314 35.3322C16.1516 35.236 16.0154 35.0277 15.8872 35.1078C14.8215 35.7568 13.8119 36.478 12.7863 37.1911C12.602 37.3193 12.8344 37.5757 13.0107 37.4555Z" fill="#000412"/>
<path d="M11.8559 35.6049C12.2405 35.2844 12.6491 34.9959 13.0898 34.7635C13.4905 34.5472 13.9311 34.411 14.3318 34.1946C14.484 34.1145 14.4119 33.8741 14.2356 33.8982C13.2821 34.0344 12.3366 34.7235 11.6395 35.3565C11.4792 35.4927 11.6876 35.7411 11.8559 35.6049Z" fill="#000412"/>
<path d="M68.1733 32.8633C72.9649 30.5876 77.7325 27.7511 81.5706 24.0493C81.7308 23.889 81.5225 23.6326 81.3382 23.7768C77.0915 27.0941 72.8928 30.187 68.0371 32.5748C67.8608 32.6709 67.989 32.9514 68.1733 32.8633Z" fill="#000412"/>
<path d="M83.2174 20.8307C84.0828 19.1961 82.937 16.4397 80.8457 16.624C80.6934 16.6401 80.6694 16.8884 80.8216 16.9285C82.4562 17.3532 83.7543 18.9557 82.9129 20.6624C82.8248 20.8467 83.1293 21.007 83.2174 20.8307Z" fill="#000412"/>
<path d="M38.7541 51.2861C45.2364 50.1403 51.6385 48.049 57.4878 45.0202C57.6721 44.9241 57.5439 44.6436 57.3516 44.7318C51.278 47.4 45.1723 49.4592 38.69 50.8855C38.4256 50.9496 38.4977 51.3342 38.7541 51.2861Z" fill="#000412"/>
<path d="M41.6253 51.8044C47.6589 50.0096 53.6604 47.9663 59.3975 45.3862C59.5978 45.2981 59.4536 45.0097 59.2532 45.0818C53.3639 47.3093 47.5146 49.5529 41.5211 51.4839C41.3529 51.548 41.449 51.8525 41.6253 51.8044Z" fill="#000412"/>
<path d="M57.8582 45.5323C61.5841 44.0019 65.4221 42.5836 69.0359 40.7968C69.2442 40.6926 69.092 40.4042 68.8836 40.4763C65.0856 41.8224 61.3918 43.5852 57.6979 45.1958C57.4735 45.2919 57.6338 45.6284 57.8582 45.5323Z" fill="#000412"/>
<path d="M55.2302 47.6883C59.9897 46.1258 64.6691 44.1867 68.9399 41.5425C69.1162 41.4304 68.988 41.1419 68.7957 41.2381C64.3166 43.5617 59.8455 45.7011 55.0539 47.3277C54.8135 47.4078 54.9818 47.7684 55.2302 47.6883Z" fill="#000412"/>
<path d="M52.057 50.3559C57.2012 48.2726 62.4575 46.3495 67.4895 43.9938C67.6978 43.8977 67.5456 43.6012 67.3372 43.6733C62.105 45.5322 57.0169 47.8639 51.8968 50.0113C51.6644 50.1075 51.8327 50.452 52.057 50.3559Z" fill="#000412"/>
<path d="M56.1395 50.2766C62.8061 47.9048 69.2643 44.892 75.1537 40.9337C75.3059 40.8296 75.1376 40.5652 74.9774 40.6613C68.8717 44.2911 62.6538 47.4641 55.9552 49.8839C55.6988 49.9801 55.8831 50.3647 56.1395 50.2766Z" fill="#000412"/>
<path d="M67.8508 43.4806C71.3604 42.1024 74.91 40.3717 77.9789 38.1682C78.1391 38.048 77.9628 37.7756 77.7866 37.8717C74.4372 39.7066 71.1681 41.5496 67.6986 43.1521C67.4822 43.2483 67.6345 43.5607 67.8508 43.4806Z" fill="#000412"/>
<path d="M67.1449 42.5131C70.8228 41.1269 74.6448 39.4682 77.7858 37.0644C77.93 36.9522 77.7698 36.7039 77.6095 36.792C74.092 38.7231 70.7507 40.7262 66.9927 42.1765C66.7603 42.2647 66.9206 42.5932 67.1449 42.5131Z" fill="#000412"/>
<path d="M68.1117 41.2151C70.9002 39.9972 73.7287 38.5389 76.2366 36.8162C76.4129 36.696 76.2206 36.4075 76.0363 36.5037C73.328 37.9219 70.6598 39.4523 67.9595 40.9026C67.7672 41.0068 67.9034 41.3033 68.1117 41.2151Z" fill="#000412"/>
<path d="M27.7291 53.9873C32.681 53.4825 37.5848 52.0723 41.9677 49.6845C42.144 49.5883 42.0158 49.3159 41.8315 49.404C37.2402 51.4633 32.6489 52.9056 27.665 53.6347C27.4327 53.6588 27.4968 54.0113 27.7291 53.9873Z" fill="#000412"/>
<path d="M30.7273 54.3389C35.0782 53.137 39.4692 52.0152 43.764 50.613C43.9323 50.5569 43.8441 50.2684 43.6678 50.3085C39.2929 51.3501 34.9821 52.6883 30.6632 53.9382C30.4068 54.0104 30.4709 54.411 30.7273 54.3389Z" fill="#000412"/>
<path d="M30.8259 55.5958C36.0342 54.1695 41.2424 52.6471 46.3225 50.7881C46.4988 50.724 46.4026 50.4116 46.2183 50.4676C41.0501 51.982 35.922 53.6647 30.7618 55.2432C30.5535 55.3073 30.6016 55.6599 30.8259 55.5958Z" fill="#000412"/>
<path d="M33.1057 56.0081C39.9325 54.1412 46.7433 52.0018 53.2977 49.3255C53.49 49.2454 53.3538 48.981 53.1615 49.0451C46.4789 51.3447 39.8203 53.6364 33.0336 55.6235C32.7932 55.6956 32.8573 56.0802 33.1057 56.0081Z" fill="#000412"/>
<path d="M36.314 55.9745C42.3235 54.3159 48.3411 52.4409 54.0221 49.8608C54.2064 49.7807 54.0702 49.5083 53.8859 49.5804C48.0446 51.7679 42.2674 53.9633 36.2579 55.662C36.0576 55.7181 36.1137 56.0306 36.314 55.9745Z" fill="#000412"/>
<path d="M37.571 56.9982C38.7729 56.6937 39.9828 56.3973 41.1687 56.0367C41.345 55.9806 41.3129 55.7002 41.1206 55.7402C39.9107 55.9966 38.7088 56.3091 37.5069 56.6216C37.2665 56.6857 37.3306 57.0623 37.571 56.9982Z" fill="#000412"/>
<path d="M42.8525 55.6045C47.7162 53.8897 52.636 52.2712 57.4356 50.3802C57.6359 50.3001 57.4917 50.0276 57.2994 50.0837C52.3876 51.6622 47.5559 53.5292 42.7082 55.284C42.4839 55.3641 42.6361 55.6766 42.8525 55.6045Z" fill="#000412"/>
<path d="M43.755 56.3013C50.1892 54.4263 56.5272 52.2068 62.5848 49.3222C62.7691 49.2341 62.6329 48.9536 62.4486 49.0338C56.2788 51.6139 50.093 54.0257 43.6909 55.9647C43.4905 56.0289 43.5467 56.3654 43.755 56.3013Z" fill="#000412"/>
<path d="M63.2566 48.1519C65.396 47.3106 67.5514 46.4933 69.6587 45.5638C69.843 45.4837 69.7068 45.2193 69.5225 45.2834C67.3591 46.0606 65.2277 46.95 63.0963 47.8154C62.872 47.9035 63.0322 48.24 63.2566 48.1519Z" fill="#000412"/>
<path d="M70.9142 44.5765C72.9975 43.4867 75.1209 42.3169 76.9878 40.8826C77.124 40.7784 76.9718 40.5301 76.8196 40.6182C74.7763 41.7961 72.8132 43.0941 70.7539 44.2479C70.5536 44.3601 70.7059 44.6886 70.9142 44.5765Z" fill="#000412"/>
<path d="M24.1584 54.0746C26.434 54.347 28.8057 54.2749 31.0092 53.6178C31.2096 53.5618 31.1695 53.2653 30.9531 53.2973C28.6855 53.6178 26.482 53.8342 24.1904 53.706C23.958 53.6819 23.918 54.0425 24.1584 54.0746Z" fill="#000412"/>
<path d="M24.4964 55.0361C26.8922 55.0361 29.2399 54.7076 31.5636 54.1467C31.7479 54.0986 31.7078 53.8181 31.5075 53.8502C29.1758 54.2028 26.8281 54.4191 24.4724 54.5954C24.232 54.6194 24.248 55.0361 24.4964 55.0361Z" fill="#000412"/>
<path d="M26.0652 55.8373C28.0443 55.5809 30.0395 55.3084 32.0026 54.9078C32.2109 54.8677 32.1548 54.5632 31.9465 54.5873C29.9594 54.7876 27.9642 55.1081 26.0011 55.4527C25.7527 55.5007 25.8168 55.8693 26.0652 55.8373Z" fill="#000412"/>
<path d="M26.5502 56.7675C28.8579 56.7114 31.1735 56.463 33.4091 55.854C33.6014 55.798 33.5613 55.5095 33.353 55.5415C31.0854 55.9342 28.8418 56.2787 26.5342 56.3989C26.3259 56.3989 26.3339 56.7675 26.5502 56.7675Z" fill="#000412"/>
<path d="M28.6504 57.6231C30.8299 57.5109 33.0093 57.1583 35.1167 56.5894C35.309 56.5414 35.2609 56.2449 35.0606 56.285C32.9132 56.7176 30.7658 57.0462 28.5863 57.2785C28.362 57.3106 28.4341 57.6391 28.6504 57.6231Z" fill="#000412"/>
<path d="M30.3155 58.378C33.2802 58.394 36.3651 57.769 39.1135 56.6713C39.2817 56.6072 39.1936 56.3107 39.0173 56.3588C36.1087 57.1841 33.3043 57.6889 30.2995 58.0334C30.1072 58.0575 30.1152 58.378 30.3155 58.378Z" fill="#000412"/>
<path d="M32.4085 59.5458C35.1889 59.1692 38.0254 58.4641 40.6135 57.3664C40.7817 57.2943 40.6936 56.9978 40.5173 57.0539C37.801 57.8712 35.1248 58.6084 32.3363 59.1532C32.0879 59.2013 32.152 59.5859 32.4085 59.5458Z" fill="#000412"/>
<path d="M34.2474 60.7465C34.656 60.6744 35.0647 60.6103 35.4493 60.45C35.6095 60.3859 35.5695 60.1055 35.3852 60.1055C34.9685 60.1135 34.5679 60.2096 34.1673 60.3058C33.8948 60.3699 33.9669 60.8026 34.2474 60.7465Z" fill="#000412"/>
<path d="M38.0518 59.3586C40.4236 59.0301 42.7072 58.2769 44.8386 57.1952C44.9988 57.115 44.8866 56.8666 44.7184 56.9388C42.5309 57.8522 40.3114 58.5092 37.9957 59.014C37.7714 59.0621 37.8355 59.3906 38.0518 59.3586Z" fill="#000412"/>
<path d="M41.1984 57.069C41.8714 56.9649 42.5525 56.8927 43.2176 56.7405C43.4099 56.7004 43.3538 56.428 43.1615 56.444C42.4804 56.5001 41.8073 56.6363 41.1343 56.7405C40.9259 56.7726 40.982 57.1011 41.1984 57.069Z" fill="#000412"/>
<path d="M41.8823 56.1236C42.0425 56.1236 42.0746 55.8672 41.9063 55.8672C41.7461 55.8672 41.722 56.1236 41.8823 56.1236Z" fill="#000412"/>
<path d="M46.0173 56.9653C47.5077 56.4685 48.998 55.9878 50.4643 55.4189C50.6166 55.3628 50.5365 55.0984 50.3762 55.1464C48.8538 55.5951 47.3634 56.132 45.8651 56.6528C45.6567 56.7249 45.809 57.0294 46.0173 56.9653Z" fill="#000412"/>
<path d="M47.0518 57.5116C50.1207 57.111 53.1976 55.9091 55.7697 54.1944C55.9139 54.0982 55.7536 53.8578 55.6014 53.938C52.821 55.4684 50.0807 56.47 46.9878 57.1831C46.7874 57.2392 46.8435 57.5437 47.0518 57.5116Z" fill="#000412"/>
<path d="M63.738 49.1869C66.5985 48.5379 69.467 47.4322 71.935 45.8296C72.0952 45.7255 71.9189 45.4691 71.7587 45.5572C69.1145 46.9274 66.5584 48.0411 63.6819 48.8344C63.4575 48.8985 63.5136 49.243 63.738 49.1869Z" fill="#000412"/>
<path d="M72.4419 45.1174C72.6503 45.1174 72.6823 44.7969 72.474 44.7969C72.2656 44.7969 72.2336 45.1174 72.4419 45.1174Z" fill="#000412"/>
<path d="M52.3874 62.9373C55.8969 62.1841 59.3504 61.0223 62.3391 58.987C62.4834 58.8909 62.3311 58.6665 62.1789 58.7387C58.9818 60.3492 55.8488 61.8075 52.3393 62.6328C52.139 62.6809 52.187 62.9774 52.3874 62.9373Z" fill="#000412"/>
<path d="M54.4035 61.1097C56.3986 60.5007 58.4178 59.8838 60.3569 59.1146C60.5252 59.0504 60.437 58.762 60.2608 58.8101C58.2496 59.3549 56.2624 60.0681 54.2993 60.7652C54.099 60.8373 54.2032 61.1738 54.4035 61.1097Z" fill="#000412"/>
<path d="M61.8493 59.8034C64.0688 58.9781 66.2403 57.7762 67.9069 56.0695C68.0512 55.9253 67.8669 55.7009 67.6986 55.8291C65.7996 57.2634 63.9006 58.5615 61.6971 59.4829C61.4888 59.5711 61.641 59.8756 61.8493 59.8034Z" fill="#000412"/>
<path d="M61.6278 58.1435C63.7031 57.4625 65.8345 56.5971 67.6293 55.3471C67.7736 55.243 67.6213 55.0106 67.4611 55.0907C65.4659 56.0522 63.5589 57.0538 61.4756 57.823C61.2512 57.9032 61.4115 58.2157 61.6278 58.1435Z" fill="#000412"/>
<path d="M67.4 54.8022C68.4096 54.2413 69.4673 53.7205 70.4128 53.0554C70.573 52.9432 70.3967 52.7029 70.2365 52.775C69.2028 53.2397 68.2253 53.8807 67.2397 54.4576C67.0314 54.5858 67.1837 54.9224 67.4 54.8022Z" fill="#000412"/>
<path d="M68.9771 52.9611C69.1854 52.9611 69.2175 52.6406 69.0091 52.6406C68.8008 52.6406 68.7688 52.9611 68.9771 52.9611Z" fill="#000412"/>
<path d="M46.7593 63.7598C48.8026 63.6556 50.8939 63.247 52.7448 62.3416C52.9211 62.2534 52.7929 62.013 52.6166 62.0771C50.6695 62.7903 48.7785 63.3191 46.7032 63.4473C46.5029 63.4553 46.559 63.7678 46.7593 63.7598Z" fill="#000412"/>
<path d="M46.631 62.8656C48.1133 62.521 49.6117 62.2165 51.086 61.8079C51.2623 61.7598 51.2222 61.4874 51.038 61.5274C49.5396 61.8159 48.0652 62.1925 46.5829 62.5451C46.3666 62.5931 46.4226 62.9136 46.631 62.8656Z" fill="#000412"/>
<path d="M51.9409 61.7014C52.7182 61.5491 53.5034 61.4129 54.2726 61.2206C54.4489 61.1726 54.4088 60.9081 54.2246 60.9402C53.4393 61.0604 52.6621 61.2447 51.8848 61.3969C51.6925 61.437 51.7486 61.7415 51.9409 61.7014Z" fill="#000412"/>
<path d="M55.2959 59.5563C57.1789 59.1075 58.9817 58.3864 60.6323 57.3608C60.7766 57.2726 60.6644 57.0242 60.5122 57.1124C58.8535 58.106 57.1308 58.8431 55.2478 59.2998C55.0956 59.3399 55.1356 59.5963 55.2959 59.5563Z" fill="#000412"/>
<path d="M51.1377 61.3157C52.0191 60.8109 52.9486 60.4904 53.9341 60.2661C54.1265 60.226 54.0784 59.9456 53.8781 59.9616C52.8444 60.0818 51.8749 60.4664 50.9935 61.0032C50.8092 61.1154 50.9454 61.4279 51.1377 61.3157Z" fill="#000412"/>
<path d="M60.8342 56.9411C61.964 56.4283 63.1098 55.9475 64.2155 55.3866C64.3918 55.2985 64.2636 55.0421 64.0873 55.1142C62.9415 55.5789 61.8197 56.1158 60.6899 56.6366C60.4896 56.7328 60.6338 57.0292 60.8342 56.9411Z" fill="#000412"/>
<path d="M52.6604 54.579C55.1924 53.6656 57.7564 52.8483 60.3125 51.9909C60.4567 51.9428 60.3766 51.6864 60.2324 51.7345C57.6202 52.4556 55.0642 53.3611 52.5241 54.2905C52.3238 54.3466 52.46 54.6431 52.6604 54.579Z" fill="#000412"/>
<path d="M57.3923 54.2818C58.1695 53.9613 58.9788 53.6808 59.724 53.3042C59.9083 53.2161 59.7721 52.9677 59.5958 53.0238C58.7945 53.2802 58.0173 53.6408 57.2401 53.9613C57.0317 54.0494 57.184 54.3699 57.3923 54.2818Z" fill="#000412"/>
<path d="M62.2127 51.2761C62.99 50.9556 63.7752 50.635 64.5444 50.2905C64.7207 50.2104 64.5925 49.962 64.4162 50.0261C63.623 50.3225 62.8457 50.6511 62.0685 50.9716C61.8601 51.0517 62.0124 51.3642 62.2127 51.2761Z" fill="#000412"/>
<path d="M73.266 44.1464C73.7949 43.9541 74.3237 43.7698 74.8445 43.5615C75.0048 43.4974 74.9247 43.2089 74.7484 43.265C74.1955 43.4333 73.6587 43.6336 73.1138 43.8179C72.8814 43.89 73.0417 44.2265 73.266 44.1464Z" fill="#000412"/>
<path d="M28.2353 53.3529C31.5526 52.9683 34.8779 52.2071 37.9147 50.7808C38.099 50.6927 37.9628 50.4363 37.7785 50.5004C34.6215 51.6382 31.5045 52.5837 28.1792 53.0324C27.9709 53.0565 28.035 53.377 28.2353 53.3529Z" fill="#000412"/>
<path d="M26.4508 53.8582C30.2088 53.2733 33.9026 52.3519 37.4843 51.0538C37.6445 50.9977 37.5564 50.7093 37.3881 50.7573C33.7584 51.8711 30.1126 52.7845 26.3787 53.4816C26.1383 53.5297 26.2104 53.8983 26.4508 53.8582Z" fill="#000412"/>
<path d="M28.9049 54.2425C31.9818 53.5293 35.0827 52.8803 38.1276 52.039C38.3199 51.9829 38.2798 51.6784 38.0715 51.7185C34.9705 52.3274 31.9097 53.1367 28.8408 53.8739C28.6084 53.93 28.6726 54.2986 28.9049 54.2425Z" fill="#000412"/>
<path d="M29.989 54.7952C33.2742 53.9779 36.5754 53.2167 39.8285 52.2712C40.0128 52.2151 39.9728 51.9266 39.7725 51.9667C36.4632 52.6718 33.202 53.5773 29.9248 54.4186C29.6845 54.4747 29.7486 54.8513 29.989 54.7952Z" fill="#000412"/>
<path d="M31.2462 55.2582C33.4898 54.6733 35.7654 54.1604 37.9689 53.4553C38.1372 53.3992 38.041 53.1268 37.8728 53.1589C35.6212 53.6316 33.4017 54.3047 31.1741 54.8976C30.9498 54.9537 31.0139 55.3143 31.2462 55.2582Z" fill="#000412"/>
<path d="M31.5997 56.2658C33.7711 55.8972 35.9346 55.2963 37.9858 54.503C38.1701 54.4309 38.0339 54.1665 37.8576 54.2226C35.7743 54.8957 33.683 55.4646 31.5436 55.9614C31.3513 56.0014 31.3994 56.2979 31.5997 56.2658Z" fill="#000412"/>
<path d="M36.2022 52.6388C39.239 51.9658 42.2358 51.1244 45.1364 50.0107C45.3127 49.9466 45.1845 49.6902 45.0082 49.7462C42.0916 50.7478 39.1509 51.6453 36.1381 52.3183C35.9458 52.3584 36.0019 52.6789 36.2022 52.6388Z" fill="#000412"/>
<path d="M39.5027 50.877C43.6212 49.6911 47.7798 48.6094 51.8422 47.2472C52.0185 47.1911 51.9224 46.8947 51.7461 46.9427C47.6035 47.9684 43.525 49.2825 39.4386 50.4844C39.1902 50.5565 39.2543 50.9491 39.5027 50.877Z" fill="#000412"/>
<path d="M42.3844 50.5162C45.3331 49.9873 48.3138 49.2582 51.0862 48.1204C51.2625 48.0483 51.1743 47.7358 50.982 47.7919C48.0975 48.6492 45.261 49.5226 42.3283 50.1796C42.112 50.2357 42.1681 50.5562 42.3844 50.5162Z" fill="#000412"/>
<path d="M41.9507 51.7358C45.8048 50.8464 49.5788 49.6525 53.2005 48.058C53.3768 47.9779 53.2486 47.7215 53.0723 47.7856C49.4105 49.2359 45.7166 50.4859 41.8946 51.4314C41.7103 51.4794 41.7664 51.7759 41.9507 51.7358Z" fill="#000412"/>
<path d="M43.65 51.9826C46.5667 51.2695 49.4031 50.332 52.1275 49.066C52.3037 48.9859 52.1756 48.7215 51.9993 48.7936C49.2509 49.9073 46.4625 50.8929 43.5939 51.6381C43.3776 51.6942 43.4337 52.0307 43.65 51.9826Z" fill="#000412"/>
<path d="M50.5613 49.1464C52.7808 48.3611 55.0164 47.6079 57.2199 46.7666C57.3961 46.7025 57.2679 46.4461 57.0997 46.5102C54.8641 47.2554 52.6526 48.0727 50.4331 48.8659C50.2408 48.9381 50.377 49.2185 50.5613 49.1464Z" fill="#000412"/>
<path d="M53.0841 47.199C56.2331 45.8047 59.4382 44.675 62.6994 43.5932C62.8596 43.5372 62.7715 43.2647 62.6113 43.3048C59.302 44.2343 56.0809 45.5003 52.9399 46.8945C52.7396 46.9746 52.8838 47.2871 53.0841 47.199Z" fill="#000412"/>
<path d="M55.6911 45.4835C58.8 44.3457 61.933 43.272 65.0099 42.0461C65.1862 41.974 65.058 41.7176 64.8817 41.7817C61.7407 42.8313 58.6478 44.0332 55.5469 45.1791C55.3386 45.2512 55.4828 45.5637 55.6911 45.4835Z" fill="#000412"/>
<path d="M56.9499 45.0355C61.3088 43.2407 65.7078 41.5019 70.0266 39.6109C70.2029 39.5308 70.0747 39.2664 69.8984 39.3385C65.4994 41.0532 61.1646 42.9202 56.8057 44.731C56.6134 44.8192 56.7576 45.1157 56.9499 45.0355Z" fill="#000412"/>
<path d="M63.876 42.8625C66.4721 41.6366 69.0923 40.4427 71.6564 39.1366C71.8246 39.0485 71.7044 38.7921 71.5282 38.8642C68.9 40.034 66.3199 41.3161 63.7318 42.558C63.5475 42.6542 63.6837 42.9507 63.876 42.8625Z" fill="#000412"/>
<path d="M49.0279 49.0019C53.0263 47.824 56.9926 46.4859 60.7906 44.7632C60.9589 44.683 60.8387 44.4346 60.6624 44.4987C56.8003 45.9971 52.9381 47.4554 48.9638 48.6493C48.7395 48.7054 48.8036 49.066 49.0279 49.0019Z" fill="#000412"/>
<path d="M50.5808 49.7057C54.0343 48.5358 57.4798 47.3099 60.813 45.8275C60.9893 45.7474 60.8611 45.491 60.6848 45.5551C57.2714 46.8451 53.882 48.1833 50.4206 49.3691C50.1962 49.4493 50.3564 49.7858 50.5808 49.7057Z" fill="#000412"/>
<path d="M50.6131 50.3066C54.0105 49.1608 57.4079 47.9749 60.7572 46.6769C60.9415 46.6048 60.8053 46.3483 60.629 46.4044C57.2156 47.5182 53.8342 48.7442 50.4769 50.0102C50.2686 50.0823 50.4128 50.3707 50.6131 50.3066Z" fill="#000412"/>
<path d="M57.6517 46.4617C60.5202 45.4921 63.3968 44.4585 66.1131 43.1364C66.2974 43.0483 66.1692 42.7758 65.9769 42.848C63.1404 43.9457 60.352 45.1075 57.4754 46.0931C57.227 46.1732 57.4033 46.5418 57.6517 46.4617Z" fill="#000412"/>
<path d="M59.7521 44.8447C62.1399 43.8672 64.5517 42.9217 66.9155 41.888C67.0998 41.8079 66.9635 41.5435 66.7873 41.6076C64.3754 42.5371 61.9957 43.5547 59.6079 44.5402C59.4076 44.6204 59.5518 44.9248 59.7521 44.8447Z" fill="#000412"/>
<path d="M47.4408 51.9358C51.0064 50.7419 54.5801 49.5801 58.1137 48.29C58.2659 48.2339 58.1858 47.9615 58.0256 48.0096C54.4198 49.1394 50.8622 50.3973 47.2965 51.6233C47.0802 51.6954 47.2325 51.9999 47.4408 51.9358Z" fill="#000412"/>
<path d="M41.9644 52.7342C44.4323 52.1413 46.9083 51.5403 49.3682 50.9153C49.5444 50.8672 49.4964 50.5948 49.3201 50.6349C46.8442 51.2038 44.3763 51.8047 41.9083 52.3977C41.7 52.4537 41.7561 52.7903 41.9644 52.7342Z" fill="#000412"/>
<path d="M27.9674 56.1173C31.6372 55.3722 35.2109 54.3786 38.7044 53.0244C38.8727 52.9603 38.7525 52.72 38.5842 52.768C35.0747 53.9379 31.517 54.9715 27.9033 55.7488C27.6709 55.8048 27.735 56.1654 27.9674 56.1173Z" fill="#000412"/>
<path d="M29.9099 56.5404C33.2031 55.7872 36.5123 54.9218 39.6533 53.6398C39.8055 53.5757 39.7254 53.3112 39.5652 53.3593C36.336 54.3529 33.139 55.4026 29.8538 56.2038C29.6294 56.2519 29.6855 56.5884 29.9099 56.5404Z" fill="#000412"/>
<path d="M30.2277 56.9349C33.2885 56.342 36.3173 55.6048 39.258 54.5712C39.4102 54.5151 39.3221 54.2587 39.1699 54.3068C36.1891 55.1801 33.2164 55.9974 30.1636 56.5984C29.9473 56.6384 30.0033 56.975 30.2277 56.9349Z" fill="#000412"/>
<path d="M31.5118 57.5267C33.9476 56.8536 36.4156 56.2447 38.8274 55.4995C39.0037 55.4434 38.9636 55.171 38.7793 55.211C36.3274 55.812 33.8916 56.5492 31.4557 57.2222C31.2714 57.2703 31.3195 57.5828 31.5118 57.5267Z" fill="#000412"/>
<path d="M31.758 58.2885C34.5624 57.7917 37.2867 57.0305 39.8909 55.8686C40.0751 55.7885 39.9389 55.5161 39.7547 55.5882C37.1185 56.5738 34.4582 57.3991 31.6859 57.9279C31.4615 57.968 31.5256 58.3285 31.758 58.2885Z" fill="#000412"/>
<path d="M33.1526 58.6819C36.2535 58.1611 39.4025 57.3278 42.271 55.9976C42.4553 55.9095 42.3191 55.6531 42.1348 55.7172C39.1381 56.7268 36.1814 57.6643 33.0804 58.3053C32.8401 58.3534 32.9042 58.722 33.1526 58.6819Z" fill="#000412"/>
<path d="M35.1739 59.7645C35.9512 59.6042 36.7284 59.452 37.4976 59.2597C37.6739 59.2116 37.6338 58.9472 37.4495 58.9792C36.6643 59.1155 35.8951 59.2917 35.1178 59.46C34.9255 59.5081 34.9736 59.8126 35.1739 59.7645Z" fill="#000412"/>
<path d="M36.4231 60.4767C37.6731 60.5248 38.9311 60.3966 40.125 60.012C40.2932 59.9559 40.1971 59.6835 40.0288 59.7155C38.8349 59.9399 37.6731 60.1081 36.4551 60.1241C36.2388 60.1322 36.1907 60.4687 36.4231 60.4767Z" fill="#000412"/>
<path d="M38.5007 61.1341C38.9094 61.086 39.326 61.0219 39.7106 60.8777C39.8709 60.8136 39.8228 60.5412 39.6466 60.5331C39.2299 60.5171 38.8212 60.6053 38.4206 60.6934C38.1402 60.7495 38.2203 61.1662 38.5007 61.1341Z" fill="#000412"/>
<path d="M41.1499 60.5082C42.44 60.2758 43.698 59.9072 44.8919 59.3704C45.0601 59.2983 44.9399 59.0499 44.7717 59.114C43.5698 59.5787 42.3599 59.9473 41.0938 60.1877C40.8935 60.2277 40.9496 60.5402 41.1499 60.5082Z" fill="#000412"/>
<path d="M40.3335 61.7588C42.5531 61.5504 44.9008 61.0136 46.92 60.0441C47.0642 59.9719 46.9921 59.7155 46.8318 59.7716C44.6444 60.4527 42.537 61.0697 40.2774 61.4543C40.0771 61.4783 40.1332 61.7748 40.3335 61.7588Z" fill="#000412"/>
<path d="M42.8671 62.5293C44.7021 62.5373 46.7774 61.9844 48.3639 61.055C48.5401 60.9508 48.4199 60.6944 48.2276 60.7665C46.4248 61.4396 44.7501 61.8803 42.8511 62.1928C42.6668 62.2248 42.6668 62.5293 42.8671 62.5293Z" fill="#000412"/>
<path d="M73.259 45.7379C72.4498 46.2267 71.6966 46.7796 70.9514 47.3645C70.8152 47.4687 70.9674 47.709 71.1196 47.6209C71.9289 47.1401 72.7222 46.6433 73.4754 46.0664C73.6436 45.9302 73.4513 45.6177 73.259 45.7379Z" fill="#000412"/>
<path d="M72.3246 47.6553C71.2669 48.2082 70.2012 48.745 69.1916 49.37C69.0234 49.4742 69.1355 49.7386 69.3278 49.6505C70.4096 49.1457 71.4432 48.5527 72.4849 47.9838C72.6772 47.8716 72.5329 47.5511 72.3246 47.6553Z" fill="#000412"/>
<path d="M71.6282 49.1921C70.907 49.5606 70.1618 49.8972 69.4968 50.3459C69.3365 50.4581 69.5128 50.6824 69.6731 50.6183C70.4102 50.3299 71.0993 49.9132 71.7964 49.5446C72.0128 49.4244 71.8445 49.0799 71.6282 49.1921Z" fill="#000412"/>
<path d="M70.4471 51.5265C70.6314 51.5265 70.6554 51.2461 70.4711 51.2461C70.2868 51.2461 70.2628 51.5265 70.4471 51.5265Z" fill="#000412"/>
<path d="M59.8934 45.2129C61.9447 44.2834 64.02 43.3699 65.9911 42.2722C66.1914 42.16 66.0552 41.8635 65.8388 41.9517C63.7395 42.785 61.7203 43.8186 59.7091 44.8202C59.4527 44.9484 59.637 45.333 59.8934 45.2129Z" fill="#000412"/>
<path d="M59.3368 46.7096C61.0275 45.9404 62.7262 45.1712 64.4169 44.41C64.5611 44.3459 64.457 44.1135 64.3047 44.1856C62.606 44.9468 60.9153 45.716 59.2166 46.4772C59.0644 46.5413 59.1766 46.7817 59.3368 46.7096Z" fill="#000412"/>
<path d="M60.4108 45.6974C63.3595 44.4554 66.3402 43.2615 69.2408 41.9154C69.4251 41.8352 69.2889 41.5708 69.1126 41.6349C66.1319 42.8048 63.2072 44.1269 60.2666 45.3929C60.0743 45.481 60.2185 45.7855 60.4108 45.6974Z" fill="#000412"/>
<path d="M62.236 45.786C64.5117 44.6642 66.8353 43.6065 69.0629 42.3966C69.2471 42.3005 69.1189 42.02 68.9266 42.1002C66.611 43.1338 64.3594 44.3357 62.0838 45.4655C61.8755 45.5697 62.0277 45.8902 62.236 45.786Z" fill="#000412"/>
<path d="M54.7208 49.2978C55.7784 48.7449 56.8361 48.2 57.8858 47.6471C58.038 47.567 57.9258 47.3266 57.7736 47.4068C56.7159 47.9516 55.6583 48.4965 54.6006 49.0333C54.4323 49.1215 54.5525 49.3859 54.7208 49.2978Z" fill="#000412"/>
<path d="M46.4235 53.5751C50.8145 51.8764 55.2616 50.2018 59.5243 48.2146C59.7246 48.1185 59.5804 47.838 59.3801 47.9102C54.9411 49.4887 50.5982 51.4037 46.2713 53.2707C46.063 53.3508 46.2152 53.6553 46.4235 53.5751Z" fill="#000412"/>
<path d="M42.0924 54.6167C43.7189 54.168 45.3535 53.7353 46.9721 53.2625C47.1404 53.2144 47.1003 52.934 46.924 52.9821C45.2894 53.4068 43.6709 53.8635 42.0443 54.3122C41.852 54.3683 41.9001 54.6728 42.0924 54.6167Z" fill="#000412"/>
<path d="M48.538 54.0108C50.5572 53.3297 52.6004 52.6967 54.5795 51.9115C54.7478 51.8474 54.6597 51.5509 54.4834 51.599C52.4241 52.208 50.4129 52.9772 48.3857 53.6823C48.1614 53.7624 48.3216 54.0829 48.538 54.0108Z" fill="#000412"/>
<path d="M16.9526 30.5564C20.3019 30.9891 23.7554 30.6125 26.9525 29.4988C27.1047 29.4507 27.0246 29.1863 26.8643 29.2343C23.5791 30.1878 20.4061 30.4763 16.9927 30.1718C16.7443 30.1398 16.7042 30.5244 16.9526 30.5564Z" fill="#000412"/>
<path d="M20.6793 32.0328C23.4036 31.8725 26.152 31.3917 28.7 30.3741C28.8843 30.302 28.7481 30.0456 28.5718 30.1017C25.9516 30.935 23.3796 31.544 20.6232 31.7123C20.4149 31.7283 20.4709 32.0408 20.6793 32.0328Z" fill="#000412"/>
<path d="M29.5036 29.6248C32.885 28.4309 36.3064 27.3091 39.6477 26.003C39.832 25.9309 39.6958 25.6665 39.5195 25.7226C36.1061 26.8203 32.7327 28.1024 29.3594 29.3123C29.1511 29.3924 29.2953 29.6969 29.5036 29.6248Z" fill="#000412"/>
<path d="M30.921 27.2156C32.6357 27.1195 34.3424 26.6708 35.8007 25.7493C35.961 25.6451 35.8488 25.3807 35.6725 25.4689C34.1341 26.2461 32.5956 26.7589 30.8649 26.8711C30.6325 26.8871 30.6966 27.2317 30.921 27.2156Z" fill="#000412"/>
<path d="M21.9844 27.7177C23.643 27.5895 25.3257 27.3572 26.9042 26.8203C27.0805 26.7562 26.9843 26.4597 26.8 26.4998C25.1735 26.8604 23.587 27.2209 21.9203 27.3652C21.6879 27.3892 21.7601 27.7338 21.9844 27.7177Z" fill="#000412"/>
<path d="M33.8342 13.282C38.161 12.673 42.56 11.375 46.4061 9.28364C46.5824 9.18748 46.4542 8.92306 46.2699 9.00319C42.1674 10.7259 38.145 12.0961 33.762 12.9134C33.5297 12.9615 33.5938 13.314 33.8342 13.282Z" fill="#000412"/>
<path d="M37.5974 13.8348C39.9612 13.0816 42.381 12.4166 44.6887 11.5111C44.8409 11.455 44.7608 11.1906 44.6005 11.2307C42.1967 11.8557 39.849 12.7291 37.4933 13.4983C37.309 13.5704 37.4051 13.8989 37.5974 13.8348Z" fill="#000412"/>
<path d="M47.256 10.1749C48.7945 9.56593 50.3409 8.7887 51.5989 7.69096C51.7351 7.57077 51.5829 7.30635 51.4146 7.41051C49.9884 8.27588 48.6182 9.14927 47.0797 9.81432C46.8474 9.91849 47.0156 10.271 47.256 10.1749Z" fill="#000412"/>
<path d="M49.5727 7.51738C50.35 6.93245 51.1833 6.50778 52.0567 6.09913C52.249 6.01099 52.1128 5.75459 51.9205 5.81067C50.975 6.11516 50.1176 6.64399 49.3404 7.23693C49.1481 7.38116 49.3885 7.66161 49.5727 7.51738Z" fill="#000412"/>
<path d="M25.2761 13.2481C27.2712 14.2977 29.7391 14.4339 31.7503 13.3282C31.9266 13.232 31.8064 12.9836 31.6141 13.0477C29.5068 13.8009 27.5036 13.849 25.4363 12.9436C25.26 12.8635 25.1078 13.1519 25.2761 13.2481Z" fill="#000412"/>
<path d="M25.8321 15.1158C27.5388 15.2841 29.3176 15.2761 30.9923 14.8434C31.2006 14.7873 31.1445 14.4989 30.9362 14.5229C29.2375 14.7152 27.5788 14.8755 25.8641 14.7633C25.6398 14.7473 25.5997 15.0918 25.8321 15.1158Z" fill="#000412"/>
<path d="M33.0261 14.5569C34.0838 14.3566 35.1735 14.2204 36.1991 13.9159C36.3995 13.8518 36.3594 13.5633 36.143 13.5874C35.0774 13.6915 34.0117 13.972 32.962 14.1803C32.7136 14.2284 32.7777 14.605 33.0261 14.5569Z" fill="#000412"/>
<path d="M23.1121 14.0524C23.8413 14.2206 24.5624 14.4129 25.2996 14.5251C25.4759 14.5492 25.54 14.2767 25.3717 14.2286C24.6586 14.0043 23.9214 13.8681 23.1922 13.6998C22.9919 13.6517 22.9118 14.0043 23.1121 14.0524Z" fill="#000412"/>
<path d="M30.1303 11.7164C35.3546 11.7805 40.6751 10.6748 45.3064 8.21488C45.4747 8.12674 45.3545 7.87834 45.1782 7.95046C40.2584 10.0017 35.4989 11.2036 30.1624 11.3478C29.93 11.3478 29.882 11.7164 30.1303 11.7164Z" fill="#000412"/>
<path d="M46.1426 8.56948C46.8558 8.2089 47.5609 7.85635 48.242 7.4477C48.4102 7.35155 48.29 7.08713 48.1138 7.16725C47.3846 7.49577 46.6875 7.86436 45.9904 8.24096C45.7901 8.36115 45.9343 8.67364 46.1426 8.56948Z" fill="#000412"/>
<path d="M48.4167 6.45603C49.1779 6.03937 49.9712 5.64674 50.6923 5.17399C50.8446 5.07784 50.6843 4.85349 50.524 4.91759C49.7468 5.26213 49.0016 5.71886 48.2565 6.12751C48.0642 6.2477 48.2164 6.5682 48.4167 6.45603Z" fill="#000412"/>
<path d="M52.9958 2.23301C52.8196 2.81793 52.4349 3.15447 51.9462 3.48299C51.81 3.57113 51.9301 3.81151 52.0824 3.76343C52.7394 3.57914 53.1881 3.00223 53.3805 2.36922C53.4526 2.12884 53.0679 1.98461 52.9958 2.23301Z" fill="#000412"/>
<path d="M54.5283 2.10294C53.2463 3.41703 51.8361 4.52278 50.3537 5.59648C50.2175 5.70065 50.3697 5.94103 50.522 5.85289C52.1165 4.93944 53.5268 3.72952 54.7767 2.3914C54.937 2.22313 54.7046 1.92666 54.5283 2.10294Z" fill="#000412"/>
<path d="M55.8834 2.47302C54.7055 3.69095 53.4075 4.70856 52.0213 5.67009C51.877 5.76624 52.0373 6.01463 52.1895 5.92649C53.6799 5.10118 54.9939 3.95537 56.1318 2.68936C56.2519 2.55315 56.0116 2.3368 55.8834 2.47302Z" fill="#000412"/>
<path d="M56.8664 3.21528C55.6484 4.19283 54.4545 5.20243 53.2847 6.24408C53.1324 6.3803 53.3328 6.61266 53.493 6.48446C54.7109 5.50691 55.9128 4.50532 57.0827 3.47168C57.2429 3.32746 57.0346 3.07906 56.8664 3.21528Z" fill="#000412"/>
<path d="M40.6304 24.3564C45.0775 23.0744 49.5966 20.935 53.3947 18.2908C53.5389 18.1866 53.3786 17.9383 53.2264 18.0264C49.0438 20.2619 44.9172 22.217 40.5263 24.0199C40.3339 24.092 40.4301 24.4125 40.6304 24.3564Z" fill="#000412"/>
<path d="M44.4558 23.9231C46.2186 23.1859 47.9894 22.4648 49.7041 21.6074C49.8884 21.5112 49.7602 21.2468 49.5679 21.3189C47.7731 21.984 46.0343 22.7853 44.2956 23.5785C44.0712 23.6827 44.2315 24.0192 44.4558 23.9231Z" fill="#000412"/>
<path d="M55.6826 17.8261C59.7931 15.919 63.6633 13.2027 66.62 9.75726C66.7401 9.62104 66.5158 9.42072 66.3876 9.54893C63.1024 12.762 59.6489 15.4142 55.5063 17.4495C55.2499 17.5616 55.4342 17.9382 55.6826 17.8261Z" fill="#000412"/>
<path d="M54.4131 18.8741C53.091 19.3468 51.7769 19.8596 50.5109 20.4526C50.3186 20.5407 50.4548 20.8131 50.6471 20.749C51.9772 20.3003 53.2833 19.7715 54.5733 19.2106C54.7977 19.1144 54.6374 18.7939 54.4131 18.8741Z" fill="#000412"/>
<path d="M61.6146 17.0155C57.7685 19.0667 53.8583 20.9577 49.9401 22.8567C49.7718 22.9369 49.892 23.2013 50.0683 23.1211C54.0506 21.3584 57.9207 19.3632 61.7508 17.2959C61.9351 17.2078 61.7989 16.9193 61.6146 17.0155Z" fill="#000412"/>
<path d="M56.9825 21.0849C55.9248 21.4695 54.8671 21.8301 53.8255 22.2548C53.6332 22.3349 53.7774 22.5913 53.9617 22.5352C55.0274 22.1907 56.077 21.7901 57.1347 21.4054C57.3511 21.3253 57.1988 21.0128 56.9825 21.0849Z" fill="#000412"/>
<path d="M48.5184 23.3996C44.6723 24.9861 40.7941 26.4525 36.916 27.9508C36.7317 28.023 36.8679 28.2874 37.0442 28.2313C40.9864 26.9332 44.8646 25.3788 48.6706 23.7362C48.895 23.64 48.7427 23.3115 48.5184 23.3996Z" fill="#000412"/>
<path d="M47.2763 25.4355C46.4349 25.7399 45.5856 26.0364 44.7523 26.381C44.576 26.4531 44.7042 26.7015 44.8805 26.6454C45.7298 26.3649 46.5712 26.0284 47.4125 25.7159C47.5888 25.6438 47.4605 25.3714 47.2763 25.4355Z" fill="#000412"/>
<path d="M42.4722 24.4932C42.1197 24.6775 41.7671 24.8618 41.4306 25.0701C41.2703 25.1743 41.3745 25.4227 41.5588 25.3426C41.9194 25.1823 42.2719 24.998 42.6245 24.8137C42.8248 24.7095 42.6725 24.389 42.4722 24.4932Z" fill="#000412"/>
<path d="M39.2124 24.7067C38.7076 24.8029 38.1628 24.891 37.69 25.1074C37.4977 25.1955 37.6099 25.4519 37.7942 25.4439C38.307 25.4038 38.8278 25.2035 39.3086 25.0353C39.5009 24.9712 39.3967 24.6667 39.2124 24.7067Z" fill="#000412"/>
<path d="M60.7695 13.2312C58.8464 14.7536 56.8112 15.9235 54.6558 17.0613C54.4715 17.1574 54.5997 17.4218 54.792 17.3497C57.0676 16.5404 59.215 15.1062 61.0018 13.4956C61.1701 13.3514 60.9538 13.087 60.7695 13.2312Z" fill="#000412"/>
<path d="M57.2541 14.2176C53.392 16.5573 49.3857 18.4643 45.2832 20.3313C45.0989 20.4114 45.2351 20.6758 45.4114 20.6117C49.602 19.0332 53.5923 16.8698 57.3903 14.5141C57.5666 14.4019 57.4304 14.1134 57.2541 14.2176Z" fill="#000412"/>
<path d="M51.5836 15.932C50.7503 16.4288 49.917 16.9256 49.0916 17.4384C48.9394 17.5345 49.0516 17.791 49.2118 17.6948C50.0532 17.214 50.8865 16.7253 51.7198 16.2285C51.9041 16.1243 51.7679 15.8278 51.5836 15.932Z" fill="#000412"/>
<path d="M44.6306 21.0302C43.0601 21.6312 41.4736 22.2722 40.0233 23.1215C39.847 23.2257 39.9672 23.4981 40.1595 23.41C41.698 22.7129 43.2043 21.9677 44.7909 21.3667C45.0152 21.2786 44.855 20.9421 44.6306 21.0302Z" fill="#000412"/>
<path d="M63.9776 14.0098C60.9648 15.9008 57.7517 17.3992 54.7069 19.2181C54.5306 19.3222 54.6508 19.5786 54.8431 19.5065C58.1043 18.2005 61.1652 16.1813 64.1138 14.2983C64.2821 14.1861 64.1459 13.8976 63.9776 14.0098Z" fill="#000412"/>
<path d="M64.9541 14.9468C64.2811 15.4115 63.608 15.8682 62.967 16.373C62.8308 16.4772 62.983 16.7256 63.1353 16.6294C63.8484 16.2048 64.5295 15.716 65.2105 15.2432C65.4109 15.099 65.1625 14.8025 64.9541 14.9468Z" fill="#000412"/>
<path d="M16.633 29.4658C18.9727 29.8905 21.4887 29.7783 23.7323 28.969C23.9006 28.9129 23.8044 28.6405 23.6361 28.6725C21.2804 29.1934 19.0609 29.4097 16.6571 29.1293C16.4487 29.1132 16.4247 29.4257 16.633 29.4658Z" fill="#000412"/>
<path d="M26.4532 28.2097C27.0541 28.0655 27.6631 27.9213 28.2561 27.761C28.4323 27.7129 28.3843 27.4405 28.208 27.4806C27.599 27.6088 26.9981 27.761 26.3971 27.9052C26.2128 27.9533 26.2609 28.2578 26.4532 28.2097Z" fill="#000412"/>
<path d="M19.3537 26.5984C21.4049 26.6225 23.4642 26.3821 25.4193 25.7651C25.5956 25.709 25.5635 25.4366 25.3712 25.4767C23.3841 25.8693 21.421 26.1658 19.3857 26.2379C19.1534 26.2459 19.1133 26.5984 19.3537 26.5984Z" fill="#000412"/>
<path d="M18.6455 28.5699C19.599 28.626 20.6006 28.5619 21.4981 28.2174C21.6743 28.1533 21.5782 27.8728 21.4019 27.9049C20.4885 28.0892 19.6231 28.2414 18.6776 28.1933C18.4372 28.1853 18.4052 28.5619 18.6455 28.5699Z" fill="#000412"/>
<path d="M28.3605 27.0315C29.1136 26.7991 29.9149 26.6148 30.6441 26.3103C30.8123 26.2382 30.7242 25.9738 30.5479 26.0139C29.7867 26.1741 29.0335 26.4706 28.2963 26.703C28.096 26.7591 28.1521 27.0956 28.3605 27.0315Z" fill="#000412"/>
<path d="M28.4578 28.9539C28.6741 28.9539 28.7142 28.6094 28.4898 28.6094C28.2655 28.6094 28.2334 28.9539 28.4578 28.9539Z" fill="#000412"/>
<path d="M19.1278 45.2051C20.4018 45.5176 21.7639 45.4055 22.9979 44.9888C23.1742 44.9327 23.078 44.6443 22.9017 44.6763C21.6598 44.9167 20.4739 44.9247 19.2159 44.8125C18.9996 44.7965 18.8954 45.1491 19.1278 45.2051Z" fill="#000412"/>
<path d="M31.0083 42.9946C34.2855 42.5458 37.4746 41.8167 40.5755 40.6709C40.7438 40.6068 40.6236 40.3664 40.4553 40.4225C37.3464 41.4481 34.1974 42.2494 30.9603 42.7141C30.776 42.7381 30.824 43.0186 31.0083 42.9946Z" fill="#000412"/>
<path d="M40.875 41.1547C43.2868 40.5297 45.6506 39.6403 47.79 38.3582C47.9342 38.2701 47.83 38.0297 47.6698 38.1099C45.4503 39.2637 43.2468 40.2252 40.8189 40.8662C40.6507 40.9143 40.6987 41.1947 40.875 41.1547Z" fill="#000412"/>
<path d="M40.4546 40.4766C42.586 39.8997 44.7254 39.3308 46.8247 38.6417C46.993 38.5856 46.9048 38.2971 46.7286 38.3452C44.5972 38.8741 42.4979 39.5231 40.3985 40.1561C40.1982 40.2122 40.2543 40.5327 40.4546 40.4766Z" fill="#000412"/>
<path d="M47.3337 39.204C50.4587 38.6191 53.6317 37.5694 56.4922 36.1832C56.6685 36.0951 56.5403 35.8386 56.364 35.9027C53.3593 37.0165 50.3625 38.0101 47.2857 38.9155C47.1174 38.9716 47.1494 39.236 47.3337 39.204Z" fill="#000412"/>
<path d="M48.63 38.201C51.138 37.0391 53.7021 36.1978 56.3302 35.3725C56.5225 35.3084 56.4825 35.0039 56.2741 35.052C53.5738 35.6369 50.9617 36.6946 48.4938 37.9125C48.3095 38.0007 48.4457 38.2811 48.63 38.201Z" fill="#000412"/>
<path d="M55.2657 36.3827C56.2913 36.0863 57.325 35.8058 58.3426 35.4853C58.5108 35.4292 58.4708 35.1568 58.2945 35.2049C57.2609 35.4773 56.2352 35.7818 55.2096 36.0703C55.0253 36.1344 55.0734 36.4388 55.2657 36.3827Z" fill="#000412"/>
<path d="M56.9898 34.5644C58.4802 33.7391 60.0267 33.1061 61.6292 32.5452C61.7975 32.4891 61.7013 32.2167 61.533 32.2487C59.8584 32.6333 58.2879 33.3384 56.8296 34.2278C56.6213 34.348 56.7735 34.6846 56.9898 34.5644Z" fill="#000412"/>
<path d="M63.1031 32.1741C63.7682 31.8776 64.4412 31.5811 65.1063 31.2766C65.2666 31.2045 65.1544 30.9561 64.9861 31.0202C64.313 31.3087 63.648 31.6052 62.9749 31.9016C62.7986 31.9818 62.9268 32.2542 63.1031 32.1741Z" fill="#000412"/>
<path d="M70.6138 30.1803C73.0176 29.0585 75.3333 27.5761 77.1201 25.597C77.2323 25.4768 77.032 25.3005 76.9118 25.4047C74.9327 27.1915 72.9135 28.77 70.4936 29.9319C70.3334 30.004 70.4536 30.2524 70.6138 30.1803Z" fill="#000412"/>
<path d="M69.5511 29.6758C72.4597 28.586 75.3122 26.8152 77.2433 24.3393C77.3475 24.2031 77.1391 24.0028 77.019 24.131C74.7594 26.3905 72.4357 28.2255 69.4229 29.3873C69.2226 29.4594 69.3588 29.7399 69.5511 29.6758Z" fill="#000412"/>
<path d="M70.4153 29.0836C72.6108 27.7214 74.7101 26.1349 76.4408 24.2038C76.553 24.0756 76.3447 23.8913 76.2165 24.0035C74.3095 25.7342 72.3944 27.3849 70.231 28.8031C70.0707 28.8993 70.247 29.1877 70.4153 29.0836Z" fill="#000412"/>
<path d="M70.3229 27.9122C72.5424 26.5581 74.7379 24.9475 76.4205 22.9364C76.5167 22.8162 76.3324 22.6559 76.2202 22.7521C74.2811 24.5068 72.3982 26.2055 70.1867 27.6238C70.0264 27.736 70.1546 28.0164 70.3229 27.9122Z" fill="#000412"/>
<path d="M70.444 26.6229C72.2949 25.2928 74.0657 23.7143 75.4039 21.8553C75.516 21.7031 75.2917 21.5589 75.1715 21.6951C73.6491 23.4178 72.1026 25.0203 70.2517 26.3985C70.0914 26.5107 70.2837 26.7351 70.444 26.6229Z" fill="#000412"/>
<path d="M73.7925 24.7974C74.4255 24.0603 75.1467 23.3471 75.6915 22.5459C75.7797 22.4096 75.6034 22.2254 75.4752 22.3455C74.7701 23.0266 74.1772 23.868 73.5522 24.6212C73.424 24.7734 73.6643 24.9417 73.7925 24.7974Z" fill="#000412"/>
<path d="M18.6287 43.5374C19.1736 43.5374 19.7265 43.5774 20.2714 43.5133C20.4476 43.4973 20.4236 43.2329 20.2553 43.2169C19.7345 43.1608 19.1896 43.2008 18.6608 43.2088C18.4525 43.2088 18.4124 43.5374 18.6287 43.5374Z" fill="#000412"/>
<path d="M18.2749 42.6535C20.3742 43.0621 22.4976 42.9499 24.5328 42.2608C24.6851 42.2128 24.6049 41.9564 24.4447 41.9964C22.4015 42.4932 20.3903 42.6214 18.307 42.3089C18.0826 42.2769 18.0586 42.6134 18.2749 42.6535Z" fill="#000412"/>
<path d="M18.285 42.0678C19.4629 42.0357 20.6648 42.0518 21.8427 41.9316C22.0189 41.9156 22.0029 41.6271 21.8266 41.6271C20.6488 41.595 19.4469 41.6992 18.269 41.7553C18.0927 41.7633 18.1087 42.0758 18.285 42.0678Z" fill="#000412"/>
<path d="M18.5545 41.0474C19.1555 40.8471 19.7644 40.8311 20.3894 40.9272C20.5577 40.9512 20.6218 40.6788 20.4535 40.6387C19.7644 40.4625 19.0834 40.5186 18.4183 40.7509C18.21 40.815 18.3542 41.1115 18.5545 41.0474Z" fill="#000412"/>
<path d="M25.4703 42.5352C27.5216 42.2788 29.5969 42.1025 31.6241 41.7339C31.8084 41.7019 31.7603 41.4375 31.576 41.4455C29.5168 41.5977 27.4575 41.9423 25.4143 42.2067C25.1979 42.2387 25.254 42.5593 25.4703 42.5352Z" fill="#000412"/>
<path d="M33.3242 41.4921C34.7745 41.2197 36.2328 40.9713 37.6751 40.6588C37.8514 40.6187 37.8033 40.3623 37.627 40.3864C36.1687 40.6187 34.7264 40.9232 33.2761 41.1956C33.0838 41.2357 33.1399 41.5322 33.3242 41.4921Z" fill="#000412"/>
<path d="M42.2701 25.467C43.0873 25.2507 43.9046 25.0423 44.7139 24.8019C44.8822 24.7539 44.8421 24.4894 44.6658 24.5295C43.8485 24.7218 43.0313 24.9542 42.222 25.1705C42.0377 25.2186 42.0858 25.5151 42.2701 25.467Z" fill="#000412"/>
<path d="M31.9416 25.5494C33.1836 25.3971 34.4416 25.2769 35.6675 25.0285C35.8919 24.9805 35.8278 24.676 35.6114 24.692C34.3614 24.7721 33.1195 24.9805 31.8775 25.1487C31.6131 25.1808 31.6852 25.5814 31.9416 25.5494Z" fill="#000412"/>
<path d="M19.4355 25.2045C19.9804 25.1964 20.5412 25.2285 21.0781 25.1564C21.2624 25.1323 21.2464 24.8519 21.0621 24.8359C20.5332 24.7958 19.9964 24.8439 19.4675 24.8599C19.2512 24.8679 19.2111 25.2125 19.4355 25.2045Z" fill="#000412"/>
<path d="M19.1545 24.01C20.1 24.2504 21.1737 24.4107 22.1272 24.1302C22.2955 24.0822 22.3275 23.7937 22.1112 23.7857C21.1256 23.7697 20.2122 23.8258 19.2346 23.6174C19.0183 23.5694 18.9302 23.954 19.1545 24.01Z" fill="#000412"/>
<path d="M19.0605 22.6798C20.7432 22.8961 22.4899 22.9843 24.1806 22.9602C24.3889 22.9602 24.421 22.6637 24.2127 22.6397C22.53 22.4234 20.7832 22.3192 19.0925 22.3432C18.8762 22.3352 18.8361 22.6477 19.0605 22.6798Z" fill="#000412"/>
<path d="M19.8936 21.4793C20.142 21.5194 20.3904 21.5595 20.6468 21.5514C20.8231 21.5434 20.9272 21.279 20.7189 21.2229C20.4625 21.1508 20.1981 21.1188 19.9337 21.1027C19.6773 21.0787 19.6532 21.4313 19.8936 21.4793Z" fill="#000412"/>
<path d="M22.135 21.7415C22.8402 21.7175 23.6094 21.7575 24.3065 21.6213C24.4908 21.5893 24.4828 21.3168 24.2905 21.2928C23.5854 21.2287 22.8242 21.3409 22.119 21.3809C21.9187 21.397 21.9347 21.7495 22.135 21.7415Z" fill="#000412"/>
<path d="M21.0397 20.1636C21.7528 20.1556 22.506 20.2197 23.2111 20.1156C23.3874 20.0915 23.3714 19.8271 23.1951 19.8031C22.498 19.731 21.7608 19.8111 21.0637 19.8271C20.8634 19.8351 20.8233 20.1636 21.0397 20.1636Z" fill="#000412"/>
<path d="M21.694 18.883C21.8702 18.875 22.0465 18.867 22.2228 18.851C22.3911 18.8349 22.375 18.5625 22.2148 18.5625C22.0385 18.5625 21.8622 18.5625 21.6859 18.5625C21.4536 18.5625 21.4616 18.891 21.694 18.883Z" fill="#000412"/>
<path d="M58.7546 5.12675C58.2418 5.55142 57.6329 6.01616 57.2322 6.54499C57.1361 6.6732 57.2963 6.89755 57.4486 6.8014C58.0175 6.44884 58.5223 5.88795 58.995 5.4152C59.1713 5.23892 58.9469 4.96649 58.7546 5.12675Z" fill="#000412"/>
<path d="M59.8818 5.61749C59.2007 6.01011 58.4635 6.53094 58.0549 7.22804C57.9668 7.37227 58.143 7.56458 58.2872 7.43637C58.8642 6.90754 59.369 6.36267 60.0501 5.96204C60.2584 5.84185 60.0981 5.48929 59.8818 5.61749Z" fill="#000412"/>
<path d="M60.8859 6.39011C60.0205 6.85484 59.1872 7.47182 58.6103 8.27309C58.5061 8.41732 58.7144 8.60962 58.8426 8.48142C59.5317 7.81637 60.2128 7.19939 61.0381 6.7026C61.2224 6.59844 61.0862 6.28594 60.8859 6.39011Z" fill="#000412"/>
<path d="M62.2486 6.63639C62.2005 6.74056 62.1845 6.78863 62.1605 6.90081C62.1204 7.0851 62.3768 7.13318 62.4729 7.01299C62.5451 6.91684 62.5691 6.87677 62.6172 6.7646C62.7294 6.54024 62.3608 6.40402 62.2486 6.63639Z" fill="#000412"/>
<path d="M61.6457 7.54425C60.0271 8.52981 58.3124 9.45127 56.79 10.5731C56.6378 10.6852 56.8061 10.9416 56.9743 10.8535C58.649 9.99614 60.2195 8.88237 61.814 7.88078C62.0143 7.75258 61.8621 7.41605 61.6457 7.54425Z" fill="#000412"/>
<path d="M63.3931 7.59513C61.9908 8.7089 60.4764 9.56626 58.9139 10.4316C58.7377 10.5278 58.8579 10.8002 59.0502 10.7201C60.6928 10.023 62.2152 8.95729 63.5934 7.83551C63.7536 7.70731 63.5533 7.46693 63.3931 7.59513Z" fill="#000412"/>
<path d="M63.8079 8.37932C63.3832 8.85207 62.8543 9.31681 62.5258 9.86167C62.4297 10.0299 62.622 10.2142 62.7742 10.086C63.287 9.68539 63.7037 9.09245 64.1284 8.60367C64.2966 8.41938 63.9761 8.19503 63.8079 8.37932Z" fill="#000412"/>
<path d="M64.6545 9.29808C64.4461 9.53847 64.2058 9.77885 64.0375 10.0593C63.9413 10.2276 64.1336 10.4279 64.2939 10.2917C64.5583 10.0753 64.7586 9.78686 64.983 9.52244C65.1432 9.33014 64.8147 9.10578 64.6545 9.29808Z" fill="#000412"/>
<path d="M66.9496 11.1902C66.3566 11.9193 65.6916 12.4962 65.0105 13.1212C64.8663 13.2494 65.0185 13.5058 65.1948 13.4097C66.0442 12.985 66.7813 12.2158 67.2861 11.4225C67.4304 11.1982 67.1179 10.9898 66.9496 11.1902Z" fill="#000412"/>
<path d="M68.1285 12.0069C67.6237 12.5598 67.0949 13.1046 66.6462 13.7056C66.542 13.8418 66.7423 14.0261 66.8705 13.9139C67.4314 13.3931 67.9202 12.7921 68.433 12.2232C68.6013 12.047 68.2888 11.8306 68.1285 12.0069Z" fill="#000412"/>
<path d="M68.9992 12.9548C68.7188 13.3474 68.4303 13.74 68.198 14.1567C68.0938 14.341 68.3262 14.5012 68.4624 14.341C68.7749 13.9724 69.0393 13.5637 69.3197 13.1711C69.456 12.9708 69.1435 12.7545 68.9992 12.9548Z" fill="#000412"/>
<path d="M69.3583 13.8598C68.1403 15.1258 66.7782 16.1835 65.4 17.2652C65.2558 17.3774 65.416 17.6418 65.5763 17.5456C67.0907 16.6562 68.4128 15.4463 69.6147 14.1723C69.799 13.98 69.5426 13.6755 69.3583 13.8598Z" fill="#000412"/>
<path d="M70.1391 15.0187C68.9532 15.9963 67.7353 16.8697 66.4773 17.7511C66.317 17.8632 66.4933 18.1036 66.6535 18.0315C68.0397 17.4145 69.3619 16.4209 70.4035 15.3312C70.5798 15.1389 70.3474 14.8424 70.1391 15.0187Z" fill="#000412"/>
<path d="M71.3387 15.8711C70.7378 16.3839 70.0887 16.8807 69.5599 17.4656C69.4237 17.6179 69.6641 17.7861 69.8083 17.69C70.4493 17.2493 71.0102 16.6804 71.5871 16.1676C71.7794 15.9993 71.531 15.7109 71.3387 15.8711Z" fill="#000412"/>
<path d="M72.0231 16.4937C71.7667 16.8222 71.4622 17.1347 71.2859 17.5113C71.2058 17.6795 71.4382 17.8238 71.5744 17.7116C71.8869 17.4392 72.1113 17.0545 72.3516 16.718C72.5039 16.5097 72.1834 16.2933 72.0231 16.4937Z" fill="#000412"/>
<path d="M72.7969 17.2954C72.5405 17.4556 72.2921 17.6239 72.0357 17.7922C71.8754 17.8963 72.0517 18.1688 72.22 18.0726C72.4684 17.9364 72.7167 17.8002 72.9651 17.6559C73.1975 17.5277 73.0132 17.1592 72.7969 17.2954Z" fill="#000412"/>
<path d="M18.6572 37.8083C19.2982 38.1047 20.1796 38.273 20.8366 37.9124C20.9729 37.8403 20.9648 37.5839 20.7805 37.5919C20.0754 37.6079 19.4905 37.6801 18.8014 37.4236C18.553 37.3355 18.4248 37.7041 18.6572 37.8083Z" fill="#000412"/>
<path d="M17.6239 36.3022C20.1319 36.5186 22.728 36.166 25.0197 35.1163C25.1719 35.0442 25.0998 34.7638 24.9235 34.8199C22.4957 35.557 20.196 35.9817 17.656 35.9416C17.4236 35.9416 17.3915 36.2782 17.6239 36.3022Z" fill="#000412"/>
<path d="M18.2985 35.4348C18.7632 35.4027 19.2199 35.3787 19.6766 35.2825C19.8529 35.2425 19.8609 34.954 19.6606 34.946C19.1799 34.938 18.7071 35.0021 18.2263 35.0582C17.986 35.0902 18.0581 35.4588 18.2985 35.4348Z" fill="#000412"/>
<path d="M20.8575 35.1089C21.6828 34.8926 22.5402 34.7243 23.3415 34.4359C23.5097 34.3718 23.4136 34.1074 23.2453 34.1394C22.42 34.2916 21.6107 34.5641 20.8014 34.7884C20.6091 34.8445 20.6572 35.157 20.8575 35.1089Z" fill="#000412"/>
<path d="M18.4508 34.4747C19.4524 34.5067 20.486 34.3946 21.3995 33.9779C21.5597 33.9058 21.4796 33.6334 21.3033 33.6814C20.3578 33.9459 19.4684 34.1542 18.4748 34.1301C18.2585 34.1221 18.2264 34.4667 18.4508 34.4747Z" fill="#000412"/>
<path d="M18.5275 33.4023C19.0163 33.1779 19.489 33.202 19.9938 33.3462C20.1941 33.4023 20.2742 33.1459 20.098 33.0577C19.5531 32.7773 18.9121 32.8334 18.3672 33.0898C18.1669 33.1859 18.3192 33.4984 18.5275 33.4023Z" fill="#000412"/>
<path d="M28.066 28.7464C29.0596 28.514 30.0532 28.3057 31.0307 28.0333C31.207 27.9852 31.1669 27.7127 30.9826 27.7448C29.981 27.9371 28.9955 28.1935 28.0099 28.4259C27.8016 28.474 27.8577 28.7945 28.066 28.7464Z" fill="#000412"/>
<path d="M29.7061 30.3566C31.3007 29.9801 32.9032 29.6435 34.4737 29.1948C34.658 29.1467 34.6179 28.8583 34.4176 28.8983C32.8151 29.2188 31.2285 29.6515 29.642 30.0442C29.4497 30.0842 29.5058 30.4047 29.7061 30.3566Z" fill="#000412"/>
<path d="M36.6715 24.6536C37.3526 24.245 38.0737 24.0286 38.8349 23.8443C39.0112 23.8043 39.0192 23.5078 38.8189 23.5078C37.9776 23.5319 37.2003 23.8363 36.4952 24.285C36.2869 24.4213 36.4471 24.7898 36.6715 24.6536Z" fill="#000412"/>
<path d="M34.9937 23.593C35.4504 23.5449 35.9152 23.5209 36.3719 23.4488C36.5321 23.4247 36.5241 23.1523 36.3639 23.1603C35.8911 23.1764 35.4103 23.2405 34.9376 23.2805C34.7373 23.2965 34.7934 23.609 34.9937 23.593Z" fill="#000412"/>
<path d="M26.7084 25.3704C27.5738 25.6188 28.5193 25.4986 29.3126 25.082C29.5049 24.9778 29.3686 24.7134 29.1683 24.7775C28.3751 25.0419 27.6139 25.106 26.7805 25.0339C26.5963 25.0259 26.5161 25.3143 26.7084 25.3704Z" fill="#000412"/>
<path d="M28.9477 8.50579C31.5839 7.22375 34.2682 5.98178 36.8883 4.6677C37.0806 4.57155 36.9444 4.32315 36.7521 4.37924C34.0037 5.26064 31.1993 6.67889 28.7875 8.25739C28.6513 8.35354 28.8035 8.5779 28.9477 8.50579Z" fill="#000412"/>
<path d="M38.5025 3.92134C39.0554 3.92134 39.6003 3.92935 40.1451 3.84121C40.3294 3.80916 40.3214 3.52872 40.1291 3.50468C39.5762 3.4566 39.0314 3.49667 38.4865 3.52872C38.2701 3.54474 38.2862 3.92935 38.5025 3.92134Z" fill="#000412"/>
<path d="M42.0593 3.25005C43.8862 2.80935 45.665 2.72121 47.5319 2.70519C47.7563 2.70519 47.8044 2.37667 47.564 2.34462C45.7051 2.12827 43.782 2.4007 41.9872 2.88948C41.7708 2.95358 41.8269 3.30614 42.0593 3.25005Z" fill="#000412"/>
<path d="M26.6313 12.353C27.5848 12.369 28.6104 12.4892 29.5559 12.353C29.7642 12.321 29.7402 12.0245 29.5399 11.9925C28.6104 11.8482 27.6008 11.9524 26.6633 11.9524C26.4149 11.9604 26.3749 12.353 26.6313 12.353Z" fill="#000412"/>
<path d="M27.5594 10.9641C28.3207 11.0041 29.0899 11.0843 29.8511 11.0442C30.0354 11.0362 30.0033 10.7558 29.8351 10.7317C29.0979 10.6276 28.3287 10.6356 27.5835 10.6035C27.3671 10.6035 27.3271 10.9561 27.5594 10.9641Z" fill="#000412"/>
<path d="M34.8424 10.1245C37.0138 9.91612 39.3215 9.50747 41.3487 8.67415C41.5089 8.61005 41.4288 8.34563 41.2525 8.37768C39.0811 8.87447 36.9817 9.45139 34.7782 9.78792C34.5619 9.81997 34.626 10.1405 34.8424 10.1245Z" fill="#000412"/>
<path d="M31.8027 12.5833C32.7242 12.5272 33.6457 12.4391 34.5591 12.2949C34.7274 12.2708 34.7194 11.9824 34.5431 11.9904C33.6056 12.0224 32.6681 12.1186 31.7387 12.2468C31.5143 12.2708 31.5864 12.5994 31.8027 12.5833Z" fill="#000412"/>
<path d="M30.5218 15.206C31.1949 15.3181 31.9 15.2781 32.517 14.9896C32.6692 14.9175 32.5971 14.6451 32.4208 14.6932C31.7958 14.8774 31.1949 14.9656 30.5459 14.8534C30.3295 14.8214 30.3055 15.1659 30.5218 15.206Z" fill="#000412"/>
<path d="M44.7839 11.8965C45.497 11.7122 46.2022 11.544 46.9073 11.3276C47.0835 11.2715 47.0435 10.9991 46.8592 11.0392C46.1461 11.1994 45.441 11.3917 44.7358 11.576C44.5275 11.6321 44.5756 11.9446 44.7839 11.8965Z" fill="#000412"/>
<path d="M52.2287 8.08264C52.6854 7.87431 53.1742 7.69002 53.5989 7.41758C53.7431 7.32143 53.703 7.01695 53.4947 7.08105C52.9979 7.23329 52.5252 7.4897 52.0524 7.71405C51.82 7.82623 51.9883 8.19482 52.2287 8.08264Z" fill="#000412"/>
<path d="M20.7786 44.5707C22.8619 44.7791 24.9372 44.6589 26.9323 43.9938C27.1006 43.9377 27.0125 43.6493 26.8362 43.6893C24.833 44.1381 22.8699 44.3945 20.8106 44.2583C20.6023 44.2422 20.5783 44.5467 20.7786 44.5707Z" fill="#000412"/>
<path d="M19.7506 44.0716C22.0983 43.9755 24.486 43.7832 26.7697 43.1903C26.978 43.1342 26.9299 42.8297 26.7136 42.8617C24.3659 43.1662 22.0582 43.5588 19.6945 43.7111C19.4461 43.7191 19.5182 44.0797 19.7506 44.0716Z" fill="#000412"/>
<path d="M19.7243 42.9847C21.9518 42.7603 24.2114 42.6081 26.4149 42.2315C26.6312 42.1914 26.5672 41.8869 26.3588 41.903C24.1153 42.0071 21.8797 42.3356 19.6522 42.584C19.3958 42.6081 19.4679 43.0087 19.7243 42.9847Z" fill="#000412"/>
<path d="M19.2226 41.7764C21.6825 41.9046 24.2145 41.8405 26.6023 41.1834C26.8106 41.1273 26.7626 40.8309 26.5462 40.8549C24.1023 41.1273 21.7306 41.4238 19.2627 41.3437C18.9822 41.3276 18.9422 41.7603 19.2226 41.7764Z" fill="#000412"/>
<path d="M18.742 41.2613C20.8494 41.037 23.0288 40.9489 25.1121 40.5402C25.3044 40.5001 25.3044 40.1796 25.0961 40.1876C22.9567 40.2357 20.7933 40.6043 18.6699 40.8367C18.3894 40.8687 18.4616 41.2934 18.742 41.2613Z" fill="#000412"/>
<path d="M18.8279 40.4667C20.6948 40.2183 22.6099 40.058 24.4528 39.6574C24.6852 39.6093 24.613 39.2968 24.3887 39.3048C22.5057 39.417 20.6227 39.7856 18.7557 40.05C18.4913 40.0981 18.5634 40.5067 18.8279 40.4667Z" fill="#000412"/>
<path d="M18.3899 39.2513C20.1447 39.051 21.9716 38.9709 23.6943 38.5943C23.8706 38.5542 23.8786 38.2578 23.6783 38.2658C21.8915 38.2978 20.0806 38.6344 18.3098 38.8427C18.0454 38.8748 18.1175 39.2834 18.3899 39.2513Z" fill="#000412"/>
<path d="M19.3672 38.1176C20.8255 38.1016 22.3399 38.0054 23.7341 37.5487C23.9264 37.4846 23.8142 37.1961 23.6299 37.2202C22.2117 37.4045 20.8415 37.6609 19.4072 37.6769C19.1268 37.6849 19.0867 38.1176 19.3672 38.1176Z" fill="#000412"/>
<path d="M19.5164 37.3667C20.7583 37.2465 22.0323 37.1103 23.2262 36.7337C23.4426 36.6696 23.4025 36.3491 23.1621 36.3812C21.9202 36.5414 20.6942 36.8058 19.4362 36.934C19.1558 36.9581 19.2359 37.3908 19.5164 37.3667Z" fill="#000412"/>
<path d="M18.8497 36.4947C20.3241 36.3344 21.8545 36.2703 23.3128 35.9658C23.4971 35.9258 23.5051 35.6133 23.2968 35.6133C21.7984 35.6373 20.276 35.9258 18.7857 36.1021C18.5292 36.1341 18.6014 36.5267 18.8497 36.4947Z" fill="#000412"/>
<path d="M18.7336 35.6279C19.8474 35.4837 21.0493 35.4436 22.131 35.1231C22.3153 35.067 22.3474 34.7545 22.115 34.7545C20.9772 34.7385 19.7833 35.035 18.6615 35.2032C18.3731 35.2353 18.4532 35.668 18.7336 35.6279Z" fill="#000412"/>
<path d="M18.461 35.0127C18.6853 35.0127 18.7254 34.6602 18.4931 34.6602C18.2687 34.6602 18.2286 35.0127 18.461 35.0127Z" fill="#000412"/>
<path d="M20.518 42.3008C20.7183 42.3008 20.7504 41.9883 20.55 41.9883C20.3497 41.9883 20.3177 42.3008 20.518 42.3008Z" fill="#000412"/>
<path d="M73.0654 32.511C75.357 31.6296 77.6086 30.4597 79.7961 29.3379C79.9644 29.2498 79.8442 29.0014 79.6679 29.0735C77.4003 30.019 75.0526 30.9725 72.8972 32.1584C72.6808 32.2786 72.833 32.5991 73.0654 32.511Z" fill="#000412"/>
<path d="M82.7519 27.5852C83.3529 27.2567 84.0339 26.9682 84.5628 26.5435C84.715 26.4234 84.5548 26.215 84.3865 26.2711C83.7615 26.5035 83.1686 26.9201 82.5917 27.2567C82.3913 27.3769 82.5356 27.7054 82.7519 27.5852Z" fill="#000412"/>
<path d="M80.797 34.7055C84.7312 33.127 88.5292 31.0838 91.8705 28.4556C92.0148 28.3434 91.8305 28.1351 91.6862 28.2393C88.1847 30.6831 84.619 32.7905 80.6848 34.4571C80.5165 34.5212 80.6287 34.7696 80.797 34.7055Z" fill="#000412"/>
<path d="M73.111 10.7605C77.9026 9.96728 82.7262 9.21408 87.4938 8.32467C87.6941 8.28461 87.638 8.00417 87.4377 8.02019C82.6461 8.4048 77.7183 9.29421 73.0469 10.44C72.8546 10.4881 72.9027 10.8006 73.111 10.7605Z" fill="#000412"/>
<path d="M78.314 7.79958C78.4823 7.79958 78.5063 7.53516 78.3381 7.53516C78.1698 7.53516 78.1458 7.79958 78.314 7.79958Z" fill="#000412"/>
<path d="M89.127 8.51269C91.8273 8.2082 94.3994 8.44057 97.0676 8.87326C97.2599 8.90531 97.332 8.5848 97.1397 8.53672C94.5035 7.87968 91.7551 7.87167 89.0709 8.22423C88.8946 8.25628 88.9427 8.53672 89.127 8.51269Z" fill="#000412"/>
<path d="M0.694002 57.2962C7.51281 57.6087 14.7483 57.4164 21.3587 55.6055C21.5671 55.5494 21.519 55.2369 21.3027 55.277C14.4358 56.4709 7.7051 56.9917 0.726035 56.9677C0.509692 56.9677 0.477659 57.2882 0.694002 57.2962Z" fill="#000412"/>
<path d="M10.7587 58.5274C11.7523 58.4794 12.7539 58.4794 13.7394 58.3351C13.8997 58.3111 13.8917 58.0547 13.7314 58.0547C12.7218 58.0547 11.7202 58.1909 10.7186 58.279C10.5504 58.2871 10.5984 58.5354 10.7587 58.5274Z" fill="#000412"/>
<path d="M-3.18652 43.0887C-0.101626 41.0375 3.10347 38.9942 5.98804 36.6705C6.12425 36.5584 5.97201 36.302 5.81176 36.3981C2.6227 38.3212 -0.398079 40.6368 -3.39483 42.8403C-3.5631 42.9685 -3.35478 43.2009 -3.18652 43.0887Z" fill="#000412"/>
<path d="M0.848771 38.4648C1.21736 38.2805 1.57795 38.0962 1.92249 37.8638C2.08275 37.7516 1.90647 37.5273 1.74621 37.5914C1.36962 37.7356 1.03307 37.9279 0.680511 38.1202C0.464168 38.2324 0.624416 38.5769 0.848771 38.4648Z" fill="#000412"/>
<path d="M4.74911 36.3574C6.45581 35.3157 8.18654 34.2901 9.86921 33.2164C10.0695 33.0882 9.91729 32.7437 9.70095 32.8719C7.97822 33.8975 6.29555 34.9792 4.58884 36.0369C4.40455 36.1571 4.54879 36.4776 4.74911 36.3574Z" fill="#000412"/>
<path d="M11.4658 33.1858C12.6998 32.4646 14.07 31.8557 15.2078 30.9903C15.376 30.8621 15.1998 30.6057 15.0155 30.6938C13.7334 31.2788 12.5556 32.2002 11.3537 32.9454C11.2014 33.0255 11.3136 33.2739 11.4658 33.1858Z" fill="#000412"/>
<path d="M5.35499 56.1164C14.0167 56.2446 23.031 54.4017 31.4444 52.4787C39.9138 50.5396 48.7197 48.1999 56.5321 44.3378C56.7565 44.2256 56.6523 43.8169 56.3879 43.8971C47.9986 46.4611 39.8337 49.522 31.2681 51.5251C22.6704 53.5283 13.9927 54.2735 5.33096 55.7478C5.13064 55.7799 5.13064 56.1164 5.35499 56.1164Z" fill="#000412"/>
<path d="M52.8316 45.9724C67.2625 41.1247 82.5427 34.8988 94.6018 25.3958C94.8422 25.2035 94.5858 24.7868 94.3053 24.939C87.4705 28.6249 80.9722 32.8556 74.0092 36.3251C67.0622 39.7866 59.9148 42.8715 52.6072 45.4996C52.2947 45.6118 52.5191 46.0765 52.8316 45.9724Z" fill="#000412"/>
</g>
</svg>
