<svg width="286" height="49" viewBox="0 0 286 49" fill="none" xmlns="http://www.w3.org/2000/svg">
<rect x="0.060791" y="0.274902" width="285" height="48" rx="4" fill="#2A2849"/>
<path d="M41.4003 14.2769C44.7903 14.2769 47.0603 16.6569 47.0603 20.1969V28.3679C47.0603 31.8969 44.7903 34.2769 41.4003 34.2769H32.7303C29.3403 34.2769 27.0603 31.8969 27.0603 28.3679V20.1969C27.0603 16.6569 29.3403 14.2769 32.7303 14.2769H41.4003ZM41.2403 21.2769C41.0753 21.1134 40.8525 21.0218 40.6203 21.0218C40.3881 21.0218 40.1653 21.1134 40.0003 21.2769L35.8703 25.4069L34.1203 23.6569C33.9553 23.4934 33.7325 23.4018 33.5003 23.4018C33.2681 23.4018 33.0453 23.4934 32.8803 23.6569C32.5403 23.9969 32.5403 24.5469 32.8803 24.8969L35.2603 27.2669C35.4303 27.4369 35.6503 27.5169 35.8703 27.5169C36.1003 27.5169 36.3203 27.4369 36.4903 27.2669L41.2403 22.5169C41.5803 22.1769 41.5803 21.6269 41.2403 21.2769Z" fill="#D2D2D2"/>
<path opacity="0.6" d="M80.2408 23.7749C80.2408 19.7749 77.5408 16.4349 73.0008 16.4349C68.4608 16.4349 65.7608 19.7749 65.7608 23.7749C65.7608 27.7749 68.4608 31.1149 73.0008 31.1149H73.0408L75.0208 33.7149L77.0408 32.6949L75.5408 30.7149C78.5208 29.7149 80.2408 26.9549 80.2408 23.7749ZM73.0008 29.0549C69.9008 29.0549 68.1608 26.6749 68.1808 23.7749C68.1608 20.8749 69.9008 18.4949 73.0008 18.4949C76.1008 18.4949 77.8408 20.8749 77.8208 23.7749C77.8408 26.6749 76.1008 29.0549 73.0008 29.0549ZM85.6997 31.0149C87.0397 31.0149 88.0197 30.4749 88.5797 29.4749V30.7749H90.7597V21.4549H88.5797V26.7149C88.5797 28.0549 87.9797 29.1549 86.3197 29.1549C84.8997 29.1549 84.4197 28.2749 84.4197 26.7749V21.4549H82.2397V27.3149C82.2397 29.8149 83.6597 31.0149 85.6997 31.0149ZM101.991 25.6349C101.991 23.0149 100.191 21.2149 97.5306 21.2149C94.6906 21.2149 92.8506 23.1349 92.8506 26.1149C92.8506 29.1349 94.6706 31.0149 97.6106 31.0149C99.8506 31.0149 101.611 29.7949 101.891 28.0549H99.6906C99.3306 28.7749 98.6906 29.1149 97.6106 29.1149C96.0306 29.1149 95.0706 28.3149 95.0106 26.8349H101.931C101.971 26.2749 101.991 26.0549 101.991 25.6349ZM95.0106 25.1749C95.0306 23.8549 95.9506 22.9349 97.4906 22.9349C98.9906 22.9349 99.8306 23.7349 99.8506 25.1749H95.0106ZM107.358 31.0149C109.738 31.0149 111.038 29.7549 111.038 27.9749C111.038 26.7749 110.138 25.8349 108.878 25.4749L106.658 24.8349C106.178 24.6949 105.858 24.3549 105.858 23.8349C105.858 23.2549 106.438 22.8749 107.198 22.8749C108.218 22.8749 108.818 23.3349 108.818 24.1149H110.958C110.958 22.4549 109.718 21.2149 107.278 21.2149C105.118 21.2149 103.698 22.4349 103.698 23.9549C103.698 25.1949 104.338 26.1549 105.718 26.5349L108.118 27.1949C108.658 27.3349 108.818 27.7549 108.818 28.1749C108.818 28.8349 108.298 29.2749 107.478 29.2749C106.358 29.2749 105.578 28.7149 105.578 27.9149H103.398C103.398 29.6149 104.958 31.0149 107.358 31.0149ZM117.263 28.9349C116.403 28.9349 115.903 28.7349 115.903 27.1149V23.2749H118.043V21.4549H115.903V18.6349H113.723V21.4549H112.143V23.2749H113.723V27.6149C113.723 30.7549 115.683 30.8949 116.743 30.8949C117.383 30.8949 118.023 30.8349 118.363 30.7749V28.8549C118.143 28.8949 117.603 28.9349 117.263 28.9349ZM121.447 20.1149C122.407 20.1149 123.067 19.3949 123.067 18.4949C123.067 17.5949 122.407 16.8749 121.447 16.8749C120.487 16.8749 119.827 17.5949 119.827 18.4949C119.827 19.3949 120.487 20.1149 121.447 20.1149ZM120.367 30.7749H122.527V21.4549H120.367V30.7749ZM129.548 31.0149C132.628 31.0149 134.468 28.8549 134.468 26.1149C134.468 23.3749 132.628 21.2149 129.548 21.2149C126.468 21.2149 124.628 23.3749 124.628 26.1149C124.628 28.8549 126.468 31.0149 129.548 31.0149ZM129.548 29.0749C127.788 29.0749 126.808 27.8149 126.808 26.1149C126.808 24.4149 127.788 23.1549 129.548 23.1549C131.308 23.1549 132.288 24.4149 132.288 26.1149C132.288 27.8149 131.308 29.0749 129.548 29.0749ZM136.558 30.7749H138.738V25.6549C138.738 24.0149 139.538 23.0749 140.958 23.0749C142.478 23.0749 142.998 23.9349 142.998 25.9149V30.7749H145.178V24.9149C145.178 22.4749 144.018 21.2149 141.778 21.2149C140.398 21.2149 139.318 21.7549 138.738 22.7549V21.4549H136.558V30.7749ZM151.147 31.0149C153.527 31.0149 154.827 29.7549 154.827 27.9749C154.827 26.7749 153.927 25.8349 152.667 25.4749L150.447 24.8349C149.967 24.6949 149.647 24.3549 149.647 23.8349C149.647 23.2549 150.227 22.8749 150.987 22.8749C152.007 22.8749 152.607 23.3349 152.607 24.1149H154.747C154.747 22.4549 153.507 21.2149 151.067 21.2149C148.907 21.2149 147.487 22.4349 147.487 23.9549C147.487 25.1949 148.127 26.1549 149.507 26.5349L151.907 27.1949C152.447 27.3349 152.607 27.7549 152.607 28.1749C152.607 28.8349 152.087 29.2749 151.267 29.2749C150.147 29.2749 149.367 28.7149 149.367 27.9149H147.187C147.187 29.6149 148.747 31.0149 151.147 31.0149ZM172.367 24.2149H167.767V26.2349H168.967C168.907 28.2749 167.627 29.1149 166.307 29.1149C164.707 29.1149 163.787 28.0149 163.787 26.8349C163.787 25.4949 164.427 24.4949 166.407 24.4949H166.887V22.4149H166.367C164.667 22.4149 164.147 21.5749 164.147 20.3349C164.147 19.0549 165.207 18.3949 166.367 18.3949C168.007 18.3949 168.647 19.4949 168.647 20.8949H171.047C171.047 17.8549 168.987 16.4349 166.367 16.4349C163.627 16.4349 161.767 17.9949 161.767 20.3349C161.767 21.9349 162.707 22.9149 164.067 23.3949C162.767 23.7349 161.427 24.9949 161.427 26.8149C161.427 29.3349 163.487 31.1149 166.307 31.1149C168.967 31.1149 171.267 29.6149 171.347 26.2349H172.367V24.2149ZM186.821 30.7749H189.321L184.601 16.7749H182.581L177.861 30.7749H180.361L180.901 28.9949H186.281L186.821 30.7749ZM181.501 26.9349L183.581 19.9949L185.661 26.9349H181.501ZM191.012 30.7749H193.192V25.6549C193.192 24.0149 193.992 23.0749 195.412 23.0749C196.932 23.0749 197.452 23.9349 197.452 25.9149V30.7749H199.632V24.9149C199.632 22.4749 198.472 21.2149 196.232 21.2149C194.852 21.2149 193.772 21.7549 193.192 22.7549V21.4549H191.012V30.7749ZM205.6 31.0149C207.98 31.0149 209.28 29.7549 209.28 27.9749C209.28 26.7749 208.38 25.8349 207.12 25.4749L204.9 24.8349C204.42 24.6949 204.1 24.3549 204.1 23.8349C204.1 23.2549 204.68 22.8749 205.44 22.8749C206.46 22.8749 207.06 23.3349 207.06 24.1149H209.2C209.2 22.4549 207.96 21.2149 205.52 21.2149C203.36 21.2149 201.94 22.4349 201.94 23.9549C201.94 25.1949 202.58 26.1549 203.96 26.5349L206.36 27.1949C206.9 27.3349 207.06 27.7549 207.06 28.1749C207.06 28.8349 206.54 29.2749 205.72 29.2749C204.6 29.2749 203.82 28.7149 203.82 27.9149H201.64C201.64 29.6149 203.2 31.0149 205.6 31.0149ZM213.405 30.7749H215.245L217.505 24.1349L219.765 30.7749H221.605L225.045 21.4549H222.645L220.705 27.6149L218.685 21.4549H216.325L214.305 27.6149L212.365 21.4549H209.965L213.405 30.7749ZM234.588 25.6349C234.588 23.0149 232.788 21.2149 230.128 21.2149C227.288 21.2149 225.448 23.1349 225.448 26.1149C225.448 29.1349 227.268 31.0149 230.208 31.0149C232.448 31.0149 234.208 29.7949 234.488 28.0549H232.288C231.928 28.7749 231.288 29.1149 230.208 29.1149C228.628 29.1149 227.668 28.3149 227.608 26.8349H234.528C234.568 26.2749 234.588 26.0549 234.588 25.6349ZM227.608 25.1749C227.628 23.8549 228.548 22.9349 230.088 22.9349C231.588 22.9349 232.428 23.7349 232.448 25.1749H227.608ZM236.695 30.7749H238.875V26.6549C238.875 24.5349 239.815 23.3749 241.355 23.3749C241.695 23.3749 241.875 23.3749 242.215 23.4149V21.4149C241.975 21.3549 241.695 21.3349 241.355 21.3349C240.335 21.3349 239.215 21.9349 238.875 23.2549V21.4549H236.695V30.7749ZM247.084 31.0149C249.464 31.0149 250.764 29.7549 250.764 27.9749C250.764 26.7749 249.864 25.8349 248.604 25.4749L246.384 24.8349C245.904 24.6949 245.584 24.3549 245.584 23.8349C245.584 23.2549 246.164 22.8749 246.924 22.8749C247.944 22.8749 248.544 23.3349 248.544 24.1149H250.684C250.684 22.4549 249.444 21.2149 247.004 21.2149C244.844 21.2149 243.424 22.4349 243.424 23.9549C243.424 25.1949 244.064 26.1549 245.444 26.5349L247.844 27.1949C248.384 27.3349 248.544 27.7549 248.544 28.1749C248.544 28.8349 248.024 29.2749 247.204 29.2749C246.084 29.2749 245.304 28.7149 245.304 27.9149H243.124C243.124 29.6149 244.684 31.0149 247.084 31.0149Z" fill="white"/>
</svg>
