<svg width="286" height="49" viewBox="0 0 286 49" fill="none" xmlns="http://www.w3.org/2000/svg">
<rect x="0.060791" y="0.509277" width="285" height="48" rx="4" fill="#2A2849"/>
<path d="M41.4003 14.5112C44.7903 14.5112 47.0603 16.8912 47.0603 20.4312V28.6022C47.0603 32.1312 44.7903 34.5112 41.4003 34.5112H32.7303C29.3403 34.5112 27.0603 32.1312 27.0603 28.6022V20.4312C27.0603 16.8912 29.3403 14.5112 32.7303 14.5112H41.4003ZM41.2403 21.5112C41.0753 21.3478 40.8525 21.2561 40.6203 21.2561C40.3881 21.2561 40.1653 21.3478 40.0003 21.5112L35.8703 25.6412L34.1203 23.8912C33.9553 23.7278 33.7325 23.6361 33.5003 23.6361C33.2681 23.6361 33.0453 23.7278 32.8803 23.8912C32.5403 24.2312 32.5403 24.7812 32.8803 25.1312L35.2603 27.5012C35.4303 27.6712 35.6503 27.7512 35.8703 27.7512C36.1003 27.7512 36.3203 27.6712 36.4903 27.5012L41.2403 22.7512C41.5803 22.4112 41.5803 21.8612 41.2403 21.5112Z" fill="#D2D2D2"/>
<path opacity="0.6" d="M81.3208 23.9893H74.6608V26.0493H77.3608C76.8008 28.2493 75.2608 29.2893 72.9608 29.2893C70.0008 29.2893 68.1608 27.0093 68.1808 24.1093C68.1608 21.2093 69.7408 18.7293 73.1608 18.7293C75.1608 18.7293 76.4208 19.8093 76.7208 21.2093H79.2408C79.0008 18.6893 76.5808 16.6693 73.1608 16.6693C68.2808 16.6693 65.7808 20.2093 65.7608 24.1093C65.7408 28.2093 68.5408 31.3493 72.9608 31.3493C76.6808 31.3493 79.0808 29.2893 79.7808 26.0493H81.3208V23.9893ZM91.5609 25.8693C91.5609 23.2493 89.7609 21.4493 87.1009 21.4493C84.2609 21.4493 82.4209 23.3693 82.4209 26.3493C82.4209 29.3693 84.2409 31.2493 87.1809 31.2493C89.4209 31.2493 91.1809 30.0293 91.4609 28.2893H89.2609C88.9009 29.0093 88.2609 29.3493 87.1809 29.3493C85.6009 29.3493 84.6409 28.5493 84.5809 27.0693H91.5009C91.5409 26.5093 91.5609 26.2893 91.5609 25.8693ZM84.5809 25.4093C84.6009 24.0893 85.5209 23.1693 87.0609 23.1693C88.5609 23.1693 89.4009 23.9693 89.4209 25.4093H84.5809ZM97.7902 29.1693C96.9302 29.1693 96.4302 28.9693 96.4302 27.3493V23.5093H98.5702V21.6893H96.4302V18.8693H94.2502V21.6893H92.6702V23.5093H94.2502V27.8493C94.2502 30.9893 96.2102 31.1293 97.2702 31.1293C97.9102 31.1293 98.5502 31.0693 98.8902 31.0093V29.0893C98.6702 29.1293 98.1302 29.1693 97.7902 29.1693ZM110.194 31.3493C112.974 31.3493 114.834 29.7293 114.834 27.3293C114.834 25.4293 113.954 24.1893 112.194 23.4693L110.134 22.6293C108.494 21.9693 107.814 21.3293 107.814 20.3693C107.814 19.3093 108.574 18.6293 109.894 18.6293C111.454 18.6293 112.294 19.5093 112.294 21.0493H114.594C114.594 18.4093 112.754 16.6693 109.974 16.6693C107.334 16.6693 105.494 18.2293 105.494 20.5093C105.494 22.2893 106.414 23.5493 108.174 24.2293L110.454 25.1493C112.034 25.7893 112.534 26.3293 112.534 27.3893C112.534 28.6493 111.694 29.3493 110.174 29.3493C108.434 29.3493 107.394 28.2493 107.394 26.4293H105.094C105.094 29.5693 106.954 31.3493 110.194 31.3493ZM120.954 29.1693C120.094 29.1693 119.594 28.9693 119.594 27.3493V23.5093H121.734V21.6893H119.594V18.8693H117.414V21.6893H115.834V23.5093H117.414V27.8493C117.414 30.9893 119.374 31.1293 120.434 31.1293C121.074 31.1293 121.714 31.0693 122.054 31.0093V29.0893C121.834 29.1293 121.294 29.1693 120.954 29.1693ZM127.841 31.2493C128.981 31.2493 130.261 30.6893 130.841 29.7493V31.0093H133.001V21.6893H130.841V22.9493C130.261 22.0093 129.141 21.4493 127.901 21.4493C125.001 21.4493 123.261 23.6093 123.261 26.3493C123.261 29.0893 124.841 31.2493 127.841 31.2493ZM128.161 29.3093C126.461 29.3093 125.441 28.0493 125.441 26.3493C125.441 24.6493 126.461 23.3893 128.161 23.3893C130.021 23.3893 130.921 24.7493 130.921 26.3493C130.921 27.9493 130.021 29.3093 128.161 29.3093ZM135.797 31.0093H137.977V26.8893C137.977 24.7693 138.917 23.6093 140.457 23.6093C140.797 23.6093 140.977 23.6093 141.317 23.6493V21.6493C141.077 21.5893 140.797 21.5693 140.457 21.5693C139.437 21.5693 138.317 22.1693 137.977 23.4893V21.6893H135.797V31.0093ZM147.732 29.1693C146.872 29.1693 146.372 28.9693 146.372 27.3493V23.5093H148.512V21.6893H146.372V18.8693H144.192V21.6893H142.612V23.5093H144.192V27.8493C144.192 30.9893 146.152 31.1293 147.212 31.1293C147.852 31.1293 148.492 31.0693 148.832 31.0093V29.0893C148.612 29.1293 148.072 29.1693 147.732 29.1693ZM159.178 25.8693C159.178 23.2493 157.378 21.4493 154.718 21.4493C151.878 21.4493 150.038 23.3693 150.038 26.3493C150.038 29.3693 151.858 31.2493 154.798 31.2493C157.038 31.2493 158.798 30.0293 159.078 28.2893H156.878C156.518 29.0093 155.878 29.3493 154.798 29.3493C153.218 29.3493 152.258 28.5493 152.198 27.0693H159.118C159.158 26.5093 159.178 26.2893 159.178 25.8693ZM152.198 25.4093C152.218 24.0893 153.138 23.1693 154.678 23.1693C156.178 23.1693 157.018 23.9693 157.038 25.4093H152.198ZM168.36 17.0093V22.9493C167.78 22.0093 166.66 21.4493 165.42 21.4493C162.52 21.4493 160.78 23.6093 160.78 26.3493C160.78 29.0893 162.36 31.2493 165.36 31.2493C166.5 31.2493 167.78 30.6893 168.36 29.7493V31.0093H170.52V17.0093H168.36ZM165.68 29.3093C163.98 29.3093 162.96 28.0493 162.96 26.3493C162.96 24.6493 163.98 23.3893 165.68 23.3893C167.54 23.3893 168.44 24.7493 168.44 26.3493C168.44 27.9493 167.54 29.3093 165.68 29.3093Z" fill="white"/>
</svg>
