<svg width="286" height="49" viewBox="0 0 286 49" fill="none" xmlns="http://www.w3.org/2000/svg">
<rect x="0.0604248" y="0.577148" width="285" height="48" rx="4" fill="white"/>
<path d="M41.4024 14.5767C44.7924 14.5767 47.0624 16.9567 47.0624 20.4967V28.6677C47.0624 32.1967 44.7924 34.5767 41.4024 34.5767H32.7324C29.3424 34.5767 27.0624 32.1967 27.0624 28.6677V20.4967C27.0624 16.9567 29.3424 14.5767 32.7324 14.5767H41.4024ZM41.2424 21.5767C41.0774 21.4132 40.8546 21.3216 40.6224 21.3216C40.3902 21.3216 40.1674 21.4132 40.0024 21.5767L35.8724 25.7067L34.1224 23.9567C33.9574 23.7932 33.7346 23.7016 33.5024 23.7016C33.2702 23.7016 33.0474 23.7932 32.8824 23.9567C32.5424 24.2967 32.5424 24.8467 32.8824 25.1967L35.2624 27.5667C35.4324 27.7367 35.6524 27.8167 35.8724 27.8167C36.1024 27.8167 36.3224 27.7367 36.4924 27.5667L41.2424 22.8167C41.5824 22.4767 41.5824 21.9267 41.2424 21.5767V21.5767Z" fill="#040229"/>
<path d="M71.7204 17.0771H66.5604V31.0771H68.8604V26.8771H71.7204C74.5204 26.8771 76.5204 24.8371 76.5204 21.9771C76.5204 19.1171 74.5204 17.0771 71.7204 17.0771ZM71.5804 24.8171H68.8604V19.1371H71.5804C73.1004 19.1371 74.2204 20.3371 74.2204 21.9771C74.2204 23.6171 73.1004 24.8171 71.5804 24.8171ZM78.1206 31.0771H80.3006V26.9571C80.3006 24.8371 81.2406 23.6771 82.7806 23.6771C83.1206 23.6771 83.3006 23.6771 83.6406 23.7171V21.7171C83.4006 21.6571 83.1206 21.6371 82.7806 21.6371C81.7606 21.6371 80.6406 22.2371 80.3006 23.5571V21.7571H78.1206V31.0771ZM89.3718 31.3171C92.4518 31.3171 94.2918 29.1571 94.2918 26.4171C94.2918 23.6771 92.4518 21.5171 89.3718 21.5171C86.2918 21.5171 84.4518 23.6771 84.4518 26.4171C84.4518 29.1571 86.2918 31.3171 89.3718 31.3171ZM89.3718 29.3771C87.6118 29.3771 86.6318 28.1171 86.6318 26.4171C86.6318 24.7171 87.6118 23.4571 89.3718 23.4571C91.1318 23.4571 92.1118 24.7171 92.1118 26.4171C92.1118 28.1171 91.1318 29.3771 89.3718 29.3771ZM98.6317 31.0771H100.392L104.432 21.7571H102.092L99.5117 28.1571L96.9317 21.7571H94.5917L98.6317 31.0771ZM106.915 20.4171C107.875 20.4171 108.535 19.6971 108.535 18.7971C108.535 17.8971 107.875 17.1771 106.915 17.1771C105.955 17.1771 105.295 17.8971 105.295 18.7971C105.295 19.6971 105.955 20.4171 106.915 20.4171ZM105.835 31.0771H107.995V21.7571H105.835V31.0771ZM117.676 17.0771V23.0171C117.096 22.0771 115.976 21.5171 114.736 21.5171C111.836 21.5171 110.096 23.6771 110.096 26.4171C110.096 29.1571 111.676 31.3171 114.676 31.3171C115.816 31.3171 117.096 30.7571 117.676 29.8171V31.0771H119.836V17.0771H117.676ZM114.996 29.3771C113.296 29.3771 112.276 28.1171 112.276 26.4171C112.276 24.7171 113.296 23.4571 114.996 23.4571C116.856 23.4571 117.756 24.8171 117.756 26.4171C117.756 28.0171 116.856 29.3771 114.996 29.3771ZM123.712 20.4171C124.672 20.4171 125.332 19.6971 125.332 18.7971C125.332 17.8971 124.672 17.1771 123.712 17.1771C122.752 17.1771 122.092 17.8971 122.092 18.7971C122.092 19.6971 122.752 20.4171 123.712 20.4171ZM122.632 31.0771H124.792V21.7571H122.632V31.0771ZM127.593 31.0771H129.773V25.9571C129.773 24.3171 130.573 23.3771 131.993 23.3771C133.513 23.3771 134.033 24.2371 134.033 26.2171V31.0771H136.213V25.2171C136.213 22.7771 135.053 21.5171 132.813 21.5171C131.433 21.5171 130.353 22.0571 129.773 23.0571V21.7571H127.593V31.0771ZM145.781 21.7571V23.0171C145.221 22.0771 144.101 21.5171 142.861 21.5171C140.061 21.5171 138.221 23.6771 138.221 26.4171C138.221 29.1571 139.901 31.3171 142.801 31.3171C143.941 31.3171 145.221 30.7571 145.781 29.8171V30.8371C145.781 32.9371 144.841 33.7171 143.061 33.7171C141.561 33.7171 140.781 33.0971 140.601 32.1371H138.321C138.361 33.1771 138.921 34.0771 139.801 34.6771C140.661 35.2571 141.841 35.5171 143.081 35.5171C144.421 35.5171 145.501 35.2771 146.281 34.6971C147.381 33.8971 147.961 32.5171 147.961 30.6771V21.7571H145.781ZM143.121 29.3771C141.481 29.3771 140.401 28.1171 140.401 26.4171C140.401 24.7171 141.481 23.4571 143.121 23.4571C144.901 23.4571 145.881 24.8171 145.881 26.4171C145.881 28.0171 144.901 29.3771 143.121 29.3771ZM162.637 21.7571V23.0171C162.057 22.0771 160.937 21.5171 159.697 21.5171C156.797 21.5171 155.057 23.6771 155.057 26.4171C155.057 29.1571 156.637 31.3171 159.637 31.3171C160.777 31.3171 162.057 30.7571 162.637 29.8171V35.2771H164.797V21.7571H162.637ZM159.957 29.3771C158.257 29.3771 157.237 28.1171 157.237 26.4171C157.237 24.7171 158.257 23.4571 159.957 23.4571C161.817 23.4571 162.717 24.8171 162.717 26.4171C162.717 28.0171 161.817 29.3771 159.957 29.3771ZM170.953 31.3171C172.293 31.3171 173.273 30.7771 173.833 29.7771V31.0771H176.013V21.7571H173.833V27.0171C173.833 28.3571 173.233 29.4571 171.573 29.4571C170.153 29.4571 169.673 28.5771 169.673 27.0771V21.7571H167.493V27.6171C167.493 30.1171 168.913 31.3171 170.953 31.3171ZM183.024 31.3171C186.104 31.3171 187.944 29.1571 187.944 26.4171C187.944 23.6771 186.104 21.5171 183.024 21.5171C179.944 21.5171 178.104 23.6771 178.104 26.4171C178.104 29.1571 179.944 31.3171 183.024 31.3171ZM183.024 29.3771C181.264 29.3771 180.284 28.1171 180.284 26.4171C180.284 24.7171 181.264 23.4571 183.024 23.4571C184.784 23.4571 185.764 24.7171 185.764 26.4171C185.764 28.1171 184.784 29.3771 183.024 29.3771ZM194.157 29.2371C193.297 29.2371 192.797 29.0371 192.797 27.4171V23.5771H194.937V21.7571H192.797V18.9371H190.617V21.7571H189.037V23.5771H190.617V27.9171C190.617 31.0571 192.577 31.1971 193.637 31.1971C194.277 31.1971 194.917 31.1371 195.257 31.0771V29.1571C195.037 29.1971 194.497 29.2371 194.157 29.2371ZM205.604 25.9371C205.604 23.3171 203.804 21.5171 201.144 21.5171C198.304 21.5171 196.464 23.4371 196.464 26.4171C196.464 29.4371 198.284 31.3171 201.224 31.3171C203.464 31.3171 205.224 30.0971 205.504 28.3571H203.304C202.944 29.0771 202.304 29.4171 201.224 29.4171C199.644 29.4171 198.684 28.6171 198.624 27.1371H205.544C205.584 26.5771 205.604 26.3571 205.604 25.9371ZM198.624 25.4771C198.644 24.1571 199.564 23.2371 201.104 23.2371C202.604 23.2371 203.444 24.0371 203.464 25.4771H198.624Z" fill="#040229"/>
</svg>
