<svg width="286" height="49" viewBox="0 0 286 49" fill="none" xmlns="http://www.w3.org/2000/svg">
<rect x="0.0604248" y="0.424805" width="285" height="48" rx="4" fill="white"/>
<path d="M41.4024 14.4243C44.7924 14.4243 47.0624 16.8043 47.0624 20.3443V28.5153C47.0624 32.0443 44.7924 34.4243 41.4024 34.4243H32.7324C29.3424 34.4243 27.0624 32.0443 27.0624 28.5153V20.3443C27.0624 16.8043 29.3424 14.4243 32.7324 14.4243H41.4024ZM41.2424 21.4243C41.0774 21.2609 40.8546 21.1692 40.6224 21.1692C40.3902 21.1692 40.1674 21.2609 40.0024 21.4243L35.8724 25.5543L34.1224 23.8043C33.9574 23.6409 33.7346 23.5492 33.5024 23.5492C33.2702 23.5492 33.0474 23.6409 32.8824 23.8043C32.5424 24.1443 32.5424 24.6943 32.8824 25.0443L35.2624 27.4143C35.4324 27.5843 35.6524 27.6643 35.8724 27.6643C36.1024 27.6643 36.3224 27.5843 36.4924 27.4143L41.2424 22.6643C41.5824 22.3243 41.5824 21.7743 41.2424 21.4243Z" fill="#040229"/>
<path d="M73.0804 23.7248C74.7004 23.4048 75.7404 22.4648 75.7404 20.5648C75.7404 18.2848 74.0404 16.9248 71.2404 16.9248H66.5604V30.9248H71.5004C74.2804 30.9248 75.9604 29.4448 75.9604 27.0248C75.9604 25.0248 74.6004 23.8648 73.0804 23.7248ZM71.1404 18.9448C72.6004 18.9448 73.4404 19.6448 73.4404 20.8648C73.4404 22.0648 72.5804 22.7848 71.1404 22.7848H68.8604V18.9448H71.1404ZM71.4604 28.9048H68.8604V24.8048H71.4804C72.7804 24.8048 73.6604 25.6048 73.6604 26.7848C73.6604 28.1248 72.8404 28.9048 71.4604 28.9048ZM78.1596 30.9248H80.3396V26.8048C80.3396 24.6848 81.2796 23.5248 82.8196 23.5248C83.1596 23.5248 83.3396 23.5248 83.6796 23.5648V21.5648C83.4396 21.5048 83.1596 21.4848 82.8196 21.4848C81.7996 21.4848 80.6796 22.0848 80.3396 23.4048V21.6048H78.1596V30.9248ZM86.5639 20.2648C87.5239 20.2648 88.1839 19.5448 88.1839 18.6448C88.1839 17.7448 87.5239 17.0248 86.5639 17.0248C85.6039 17.0248 84.9439 17.7448 84.9439 18.6448C84.9439 19.5448 85.6039 20.2648 86.5639 20.2648ZM85.4839 30.9248H87.6439V21.6048H85.4839V30.9248ZM98.8848 25.7848C98.8848 23.1648 97.0848 21.3648 94.4248 21.3648C91.5848 21.3648 89.7448 23.2848 89.7448 26.2648C89.7448 29.2848 91.5648 31.1648 94.5048 31.1648C96.7448 31.1648 98.5048 29.9448 98.7848 28.2048H96.5848C96.2248 28.9248 95.5848 29.2648 94.5048 29.2648C92.9248 29.2648 91.9648 28.4648 91.9048 26.9848H98.8248C98.8648 26.4248 98.8848 26.2048 98.8848 25.7848ZM91.9048 25.3248C91.9248 24.0048 92.8448 23.0848 94.3848 23.0848C95.8848 23.0848 96.7248 23.8848 96.7448 25.3248H91.9048ZM105.456 18.7448C105.776 18.7448 106.016 18.8048 106.316 18.8248V16.9848C106.016 16.8848 105.536 16.8048 104.856 16.8048C103.876 16.8048 101.696 17.2448 101.696 20.2448V21.6048H99.7964V23.4248H101.696V30.9248H103.876V23.4248H106.316V21.6048H103.876V20.2048C103.876 18.8448 104.796 18.7448 105.456 18.7448ZM108.583 32.3048L115.443 16.4048L113.683 15.6448L106.823 31.5448L108.583 32.3048ZM120.956 31.2648C123.736 31.2648 125.596 29.6448 125.596 27.2448C125.596 25.3448 124.716 24.1048 122.956 23.3848L120.896 22.5448C119.256 21.8848 118.576 21.2448 118.576 20.2848C118.576 19.2248 119.336 18.5448 120.656 18.5448C122.216 18.5448 123.056 19.4248 123.056 20.9648H125.356C125.356 18.3248 123.516 16.5848 120.736 16.5848C118.096 16.5848 116.256 18.1448 116.256 20.4248C116.256 22.2048 117.176 23.4648 118.936 24.1448L121.216 25.0648C122.796 25.7048 123.296 26.2448 123.296 27.3048C123.296 28.5648 122.456 29.2648 120.936 29.2648C119.196 29.2648 118.156 28.1648 118.156 26.3448H115.856C115.856 29.4848 117.716 31.2648 120.956 31.2648ZM132.911 21.3648C131.531 21.3648 130.451 21.9048 129.871 22.9048V16.9248H127.691V30.9248H129.871V25.8048C129.871 24.1648 130.671 23.2248 132.091 23.2248C133.611 23.2248 134.131 24.0848 134.131 26.0648V30.9248H136.311V25.0648C136.311 22.6248 135.151 21.3648 132.911 21.3648ZM143.239 31.1648C146.319 31.1648 148.159 29.0048 148.159 26.2648C148.159 23.5248 146.319 21.3648 143.239 21.3648C140.159 21.3648 138.319 23.5248 138.319 26.2648C138.319 29.0048 140.159 31.1648 143.239 31.1648ZM143.239 29.2248C141.479 29.2248 140.499 27.9648 140.499 26.2648C140.499 24.5648 141.479 23.3048 143.239 23.3048C144.999 23.3048 145.979 24.5648 145.979 26.2648C145.979 27.9648 144.999 29.2248 143.239 29.2248ZM150.249 30.9248H152.429V26.8048C152.429 24.6848 153.369 23.5248 154.909 23.5248C155.249 23.5248 155.429 23.5248 155.769 23.5648V21.5648C155.529 21.5048 155.249 21.4848 154.909 21.4848C153.889 21.4848 152.769 22.0848 152.429 23.4048V21.6048H150.249V30.9248ZM162.184 29.0848C161.324 29.0848 160.824 28.8848 160.824 27.2648V23.4248H162.964V21.6048H160.824V18.7848H158.644V21.6048H157.064V23.4248H158.644V27.7648C158.644 30.9048 160.604 31.0448 161.664 31.0448C162.304 31.0448 162.944 30.9848 163.284 30.9248V29.0048C163.064 29.0448 162.524 29.0848 162.184 29.0848ZM177.169 16.9248V22.8648C176.589 21.9248 175.469 21.3648 174.229 21.3648C171.329 21.3648 169.589 23.5248 169.589 26.2648C169.589 29.0048 171.169 31.1648 174.169 31.1648C175.309 31.1648 176.589 30.6048 177.169 29.6648V30.9248H179.329V16.9248H177.169ZM174.489 29.2248C172.789 29.2248 171.769 27.9648 171.769 26.2648C171.769 24.5648 172.789 23.3048 174.489 23.3048C176.349 23.3048 177.249 24.6648 177.249 26.2648C177.249 27.8648 176.349 29.2248 174.489 29.2248ZM190.564 25.7848C190.564 23.1648 188.764 21.3648 186.104 21.3648C183.264 21.3648 181.424 23.2848 181.424 26.2648C181.424 29.2848 183.244 31.1648 186.184 31.1648C188.424 31.1648 190.184 29.9448 190.464 28.2048H188.264C187.904 28.9248 187.264 29.2648 186.184 29.2648C184.604 29.2648 183.644 28.4648 183.584 26.9848H190.504C190.544 26.4248 190.564 26.2048 190.564 25.7848ZM183.584 25.3248C183.604 24.0048 184.524 23.0848 186.064 23.0848C187.564 23.0848 188.404 23.8848 188.424 25.3248H183.584ZM196.794 29.0848C195.934 29.0848 195.434 28.8848 195.434 27.2648V23.4248H197.574V21.6048H195.434V18.7848H193.254V21.6048H191.674V23.4248H193.254V27.7648C193.254 30.9048 195.214 31.0448 196.274 31.0448C196.914 31.0448 197.554 30.9848 197.894 30.9248V29.0048C197.674 29.0448 197.134 29.0848 196.794 29.0848ZM203.68 31.1648C204.82 31.1648 206.1 30.6048 206.68 29.6648V30.9248H208.84V21.6048H206.68V22.8648C206.1 21.9248 204.98 21.3648 203.74 21.3648C200.84 21.3648 199.1 23.5248 199.1 26.2648C199.1 29.0048 200.68 31.1648 203.68 31.1648ZM204 29.2248C202.3 29.2248 201.28 27.9648 201.28 26.2648C201.28 24.5648 202.3 23.3048 204 23.3048C205.86 23.3048 206.76 24.6648 206.76 26.2648C206.76 27.8648 205.86 29.2248 204 29.2248ZM212.716 20.2648C213.676 20.2648 214.336 19.5448 214.336 18.6448C214.336 17.7448 213.676 17.0248 212.716 17.0248C211.756 17.0248 211.096 17.7448 211.096 18.6448C211.096 19.5448 211.756 20.2648 212.716 20.2648ZM211.636 30.9248H213.796V21.6048H211.636V30.9248ZM216.597 30.9248H218.777V16.9248H216.597V30.9248ZM224.838 31.1648C227.218 31.1648 228.518 29.9048 228.518 28.1248C228.518 26.9248 227.618 25.9848 226.358 25.6248L224.138 24.9848C223.658 24.8448 223.338 24.5048 223.338 23.9848C223.338 23.4048 223.918 23.0248 224.678 23.0248C225.698 23.0248 226.298 23.4848 226.298 24.2648H228.438C228.438 22.6048 227.198 21.3648 224.758 21.3648C222.598 21.3648 221.178 22.5848 221.178 24.1048C221.178 25.3448 221.818 26.3048 223.198 26.6848L225.598 27.3448C226.138 27.4848 226.298 27.9048 226.298 28.3248C226.298 28.9848 225.778 29.4248 224.958 29.4248C223.838 29.4248 223.058 28.8648 223.058 28.0648H220.878C220.878 29.7648 222.438 31.1648 224.838 31.1648Z" fill="#040229"/>
</svg>
