<svg width="99" height="92" viewBox="0 0 99 92" fill="none" xmlns="http://www.w3.org/2000/svg">
<g opacity="0.65">
<path d="M34.7964 34.8289C40.1824 25.787 49.4113 10.4224 62.5068 16.1111C75.7303 21.8464 68.1912 39.3018 65.2231 49.1579C65.0251 49.8106 66.0437 50.0891 66.3338 49.5095C71.5393 39.0447 77.2352 19.6667 62.4439 14.2567C48.723 9.23639 39.0457 24.2401 34.2665 34.5834C34.1161 34.9239 34.6037 35.1409 34.7964 34.8289Z" fill="white"/>
<path d="M34.2175 35.0067C40.4135 44.9173 54.3152 50.2011 65.556 49.7993C66.7048 49.7562 66.5297 47.9928 65.3851 48.0242C52.949 48.4521 43.7941 42.1817 34.7603 34.4927C34.4345 34.2292 34.0039 34.6522 34.2175 35.0067Z" fill="white"/>
<path d="M44.721 26.7035C45.9381 24.4453 47.5741 22.6295 49.7801 21.311C50.744 20.7263 51.767 20.2686 52.8567 19.9536C53.9898 19.6282 55.2042 19.6222 56.2685 19.0872C56.6536 18.898 56.7596 18.3172 56.3069 18.1129C54.0857 17.12 50.9678 18.5546 49.0824 19.7526C46.6827 21.2773 44.8361 23.6357 43.9436 26.3414C43.7847 26.8502 44.4606 27.2016 44.721 26.7035Z" fill="white"/>
<path d="M59.4019 19.6721C60.5052 19.8628 61.5609 20.0758 62.5403 20.6431C63.3578 21.1119 63.9499 22.0917 64.8946 22.2115C65.3082 22.2698 65.5632 21.9673 65.5739 21.5759C65.6134 20.4176 64.1665 19.6143 63.2473 19.1348C62.0966 18.5315 60.7384 18.2084 59.4372 18.3805C58.7411 18.4829 58.6572 19.546 59.4019 19.6721Z" fill="white"/>
<path d="M37.6624 34.3288C40.0012 34.7452 42.3738 35.2135 44.6628 35.8753C44.997 35.9706 45.0924 35.4914 44.8343 35.3316C42.5825 34.0245 40.3253 33.3479 37.7019 33.3154C37.1105 33.311 37.105 34.2313 37.6624 34.3288Z" fill="white"/>
<path d="M48.6868 37.2492C54.8376 39.2112 59.5229 42.4845 64.5836 46.3556C65.1092 46.7577 65.6531 46.0597 65.2269 45.6015C61.0276 41.0293 54.82 38.1375 48.906 36.5384C48.5136 36.4219 48.2754 37.1126 48.6868 37.2492Z" fill="white"/>
<path d="M67.1999 25.4716C67.1561 26.9315 67.4773 28.366 67.3742 29.8438C67.2903 31.0518 66.8986 32.2005 66.9045 33.4149C66.9013 33.6773 67.3128 33.8138 67.4715 33.5949C68.8462 31.5918 68.9352 27.4736 67.8262 25.3438C67.6475 25.0021 67.218 25.0961 67.1999 25.4716Z" fill="white"/>
<path d="M66.2671 35.9663C65.9474 36.7723 65.6393 37.5825 65.3386 38.4086C65.147 38.9713 65.9784 39.3661 66.17 38.8034C66.4717 37.9382 66.746 37.0761 67.0086 36.2098C67.1536 35.7751 66.4312 35.5516 66.2671 35.9663Z" fill="white"/>
<path d="M12.8091 28.8402C12.8922 34.1146 13.9823 39.3735 17.1503 43.7021C17.6262 44.3496 18.6525 43.6295 18.1724 42.9936C14.9895 38.7782 14.3013 33.8633 13.5157 28.7812C13.446 28.321 12.7944 28.3737 12.8091 28.8402Z" fill="white"/>
<path d="M17.1787 43.3821C23.3478 51.267 33.3882 57.0955 42.186 61.6679C51.7485 66.6373 62.3419 69.7156 73.2094 68.9276C73.8177 68.8854 73.8888 67.8572 73.2552 67.8242C62.3183 67.2826 52.6407 65.3809 42.8338 60.3226C33.5601 55.5373 25.9021 49.2451 17.7606 42.8692C17.4159 42.5856 16.8794 43.0096 17.1787 43.3821Z" fill="white"/>
<path d="M73.3335 68.8416C75.4588 68.3239 77.4362 67.3439 79.3301 66.2676C81.6577 64.9406 84.472 63.4351 86.1557 61.3072C86.4277 60.9582 86.0809 60.3181 85.6164 60.5444C83.3375 61.665 81.399 63.5157 79.2163 64.8426C77.2367 66.0459 75.1587 67.1211 72.972 67.8799C72.3234 68.1051 72.6987 68.9927 73.3335 68.8416Z" fill="white"/>
<path d="M21.5656 47.2095C20.6953 49.673 21.3107 54.2452 23.501 55.9384C23.8003 56.1659 24.1526 55.8857 24.0681 55.5387C23.7216 54.174 22.8968 52.9646 22.5904 51.5618C22.2767 50.1432 22.3807 48.7712 22.3103 47.3356C22.2966 46.9749 21.7011 46.8372 21.5656 47.2095Z" fill="white"/>
<path d="M23.2833 55.6428C24.914 57.3167 27.0103 58.5804 29.0304 59.7637C31.004 60.93 33.1447 62.2889 35.4253 62.6842C35.7722 62.7446 36.0284 62.258 35.7248 62.0422C33.9819 60.749 31.8516 60.0131 29.9615 58.9431C27.8092 57.7249 25.8696 56.1756 23.7045 54.9923C23.2761 54.7573 22.9819 55.3486 23.2833 55.6428Z" fill="white"/>
<path d="M35.1025 62.2797C36.0206 62.6534 37.1177 62.3544 38.0265 62.0659C39.0104 61.752 40.0218 61.29 40.7889 60.5941C41.2429 60.1796 40.6433 59.3289 40.0953 59.6038C39.2848 60.0204 38.5548 60.5057 37.6968 60.7995C36.8779 61.0944 35.9026 61.0952 35.1355 61.5012C34.8456 61.646 34.7344 62.1326 35.1025 62.2797Z" fill="white"/>
<path d="M49.1417 64.6023C49.1784 65.6961 49.4944 66.7467 49.9172 67.757C50.1995 68.4659 50.6169 69.8169 51.4589 69.9652C51.6578 69.9981 51.826 69.8616 51.8663 69.6787C51.9796 69.2587 51.8358 69.0746 51.6264 68.7085C51.3653 68.2314 51.12 67.7468 50.9065 67.2474C50.5164 66.3281 50.2607 65.3654 49.9341 64.4164C49.7703 63.9614 49.1228 64.1474 49.1417 64.6023Z" fill="white"/>
<path d="M50.8683 69.5858C54.1511 72.151 59.8787 74.262 64.0659 73.5461C64.4753 73.4711 64.5061 72.9157 64.0936 72.8183C61.9072 72.2728 59.672 72.2235 57.4888 71.5607C55.3056 70.8978 53.3563 69.8457 51.2694 68.9544C50.8982 68.7798 50.5235 69.3022 50.8683 69.5858Z" fill="white"/>
<path d="M68.2587 68.0781C67.6185 68.8596 67.1285 69.7354 66.4036 70.4598C65.6185 71.2413 64.7085 71.8588 63.7605 72.4361C63.167 72.7998 63.7824 73.6431 64.3675 73.3027C66.201 72.2834 68.4304 70.5387 69.0012 68.4274C69.1262 68.0117 68.518 67.764 68.2587 68.0781Z" fill="white"/>
<path d="M24.4876 56.0682C19.2546 59.2232 21.6586 67.8591 24.8162 71.7096C25.0626 72.0101 25.4668 71.696 25.2955 71.3701C23.015 67.1011 20.0698 60.3501 24.8799 56.6194C25.228 56.3509 24.8621 55.8356 24.4876 56.0682Z" fill="white"/>
<path d="M24.9817 71.717C28.8145 70.9247 36.9631 67.1443 35.3736 62.0989C35.2077 61.5774 34.4809 61.8004 34.4945 62.306C34.6147 67.225 28.836 69.8521 24.8306 71.0822C24.4868 71.1943 24.6114 71.793 24.9817 71.717Z" fill="white"/>
<path d="M51.732 69.7526C47.9299 74.0083 50.4736 78.9661 53.0376 83.1802C53.229 83.4871 53.6945 83.2217 53.5783 82.8895C52.9166 81.0148 51.7873 79.3388 51.114 77.4599C50.1194 74.7261 50.7494 72.5969 52.3369 70.2627C52.6184 69.8513 52.0833 69.3666 51.732 69.7526Z" fill="white"/>
<path d="M53.4205 83.2859C56.297 82.5145 59.1982 80.698 61.6106 78.9934C63.3003 77.7901 63.7473 75.7655 63.2284 73.8242C63.0541 73.181 62.0691 73.534 62.2509 74.1931C63.0519 77.1331 60.9306 78.074 58.9521 79.383C57.0772 80.6244 55.231 81.6785 53.1837 82.6331C52.7711 82.8255 52.9942 83.4074 53.4205 83.2859Z" fill="white"/>
<path d="M26.2708 57.6873C25.5028 57.5527 24.9906 58.2359 24.9756 58.9288C24.9777 59.1404 25.3003 59.2315 25.4146 59.0622C25.695 58.69 26.0357 58.5504 26.4028 58.3019C26.6621 58.1328 26.567 57.7424 26.2708 57.6873Z" fill="white"/>
<path d="M24.1121 60.1643C23.5761 62.4332 24.6617 65.2791 26.0025 67.0979C26.1875 67.3497 26.6044 67.1457 26.4913 66.841C26.1351 65.8285 25.5493 64.9038 25.1815 63.8871C24.7555 62.7043 24.6152 61.5333 24.7161 60.2787C24.7426 59.8799 24.201 59.775 24.1121 60.1643Z" fill="white"/>
<path d="M26.7414 67.3274C27.6089 67.116 28.6541 66.8508 29.4116 66.3623C29.6507 66.2122 29.4964 65.8398 29.2256 65.8598C28.3306 65.9293 27.3203 66.3522 26.5078 66.7021C26.1036 66.8712 26.3235 67.4256 26.7414 67.3274Z" fill="white"/>
<path d="M30.2821 65.7874C31.8299 65.0463 33.0458 63.6969 33.4641 62.0045C33.5743 61.557 32.8994 61.4563 32.7702 61.8837C32.3382 63.3603 31.4757 64.5353 30.0812 65.2532C29.7596 65.4128 29.9488 65.9428 30.2821 65.7874Z" fill="white"/>
<path d="M53.7217 70.794C52.288 71.8007 52.0694 74.2114 53.0263 75.6006C53.1997 75.8482 53.6324 75.6368 53.5151 75.3437C52.8259 73.762 53.1023 72.5319 54.0527 71.1517C54.2072 70.9444 53.9693 70.6206 53.7217 70.794Z" fill="white"/>
<path d="M53.2403 76.7715C53.7044 77.7046 53.7739 78.8894 54.4369 79.7105C54.6262 79.9507 55.0113 79.7615 54.9098 79.461C54.5959 78.4771 54.2451 77.4139 53.7132 76.522C53.5715 76.2596 53.1071 76.4858 53.2403 76.7715Z" fill="white"/>
<path d="M54.8793 79.9707C55.4051 79.7931 55.8876 79.4812 56.369 79.2084C56.8504 78.9356 57.3773 78.7189 57.7794 78.3382C58.0206 78.1098 57.7076 77.8114 57.4516 77.8632C56.9586 77.9868 56.4994 78.3072 56.0656 78.5578C55.5683 78.838 55.0446 79.0822 54.6002 79.4343C54.3357 79.6542 54.5471 80.087 54.8793 79.9707Z" fill="white"/>
<path d="M58.6766 77.8582C60.3165 77.0452 61.4467 75.5328 61.5678 73.6795C61.6018 73.1516 60.7947 73.016 60.7607 73.5438C60.6576 75.1665 59.8554 76.5743 58.4345 77.4011C58.1721 77.5428 58.4025 77.9956 58.6766 77.8582Z" fill="white"/>
<path d="M27.1346 60.4063C26.8772 61.5117 27.0831 62.8647 27.9344 63.6752C28.1597 63.889 28.4581 63.576 28.3122 63.3252C27.7613 62.4132 27.4315 61.5816 27.6804 60.4995C27.7408 60.1526 27.2066 60.0636 27.1346 60.4063Z" fill="white"/>
<path d="M28.2695 63.629C29.3507 63.4823 30.6975 62.7867 31.0491 61.676C31.1348 61.4042 30.8207 61.1449 30.6102 61.3977C30.2863 61.7805 30.0524 62.1697 29.6409 62.4679C29.225 62.7778 28.7299 62.9797 28.2179 63.0832C27.8836 63.1328 27.912 63.6702 28.2695 63.629Z" fill="white"/>
<path d="M55.2304 73.3711C55.1931 74.3063 55.5873 75.6488 56.443 76.1579C56.6471 76.2849 56.9127 76.0258 56.8165 75.8195C56.6431 75.427 56.3301 75.1286 56.1451 74.7318C55.9453 74.3033 55.8364 73.8421 55.735 73.3967C55.6833 73.1407 55.2432 73.0464 55.2304 73.3711Z" fill="white"/>
<path d="M56.4646 76.115C57.9764 75.8352 59.6578 74.2203 59.4837 72.5626C59.4595 72.3035 59.0205 72.17 58.9262 72.4651C58.7081 73.1368 58.6011 73.7567 58.1387 74.3394C57.6804 74.9105 57.0044 75.2837 56.3284 75.512C55.9962 75.6283 56.1102 76.1837 56.4646 76.115Z" fill="white"/>
<path d="M40.5331 39.7481C47.8934 40.1607 54.3761 43.1659 59.4712 48.4989C59.7948 48.8407 60.2488 48.2812 59.9368 47.9437C54.8121 42.4022 48.0872 39.3748 40.5587 39.0986C40.1905 39.0964 40.1692 39.7343 40.5331 39.7481Z" fill="white"/>
<path d="M13.4915 29.1974C15.7215 25.4237 23.6994 26.4564 27.3404 26.9515C30.7783 27.4253 34.143 28.2811 37.4919 29.1442C38.1297 29.3105 38.3024 28.2929 37.672 28.1425C32.6307 26.861 27.5037 25.5615 22.2737 25.5949C19.3001 25.6194 14.0649 25.5586 12.8727 28.9063C12.7203 29.3252 13.2692 29.5909 13.4915 29.1974Z" fill="white"/>
<path d="M13.0989 28.4055C14.4387 33.5576 20.9686 37.8449 24.9261 40.9455C30.4024 45.2314 36.377 48.9081 42.6068 51.9925C54.0034 57.6427 67.278 62.3688 80.1711 61.8437C80.5319 61.83 80.5723 61.2123 80.1967 61.1942C68.1651 60.2936 56.6883 57.434 45.7062 52.3827C39.745 49.6464 34.0294 46.3803 28.6852 42.5641C23.8709 39.1384 15.762 33.868 13.8193 28.1275C13.6597 27.661 12.9826 27.9284 13.0989 28.4055Z" fill="white"/>
<path d="M81.7003 61.5038C81.9796 61.6054 82.187 61.1802 81.9078 61.0786C81.6169 60.9727 81.4095 61.3979 81.7003 61.5038Z" fill="white"/>
<path d="M82.9485 61.5228C83.5007 61.5261 84.0159 61.4501 84.5628 61.3593C85.023 61.2896 85.4864 61.2474 85.8588 60.9482C86.0673 60.7737 85.9595 60.4182 85.6728 60.4456C85.237 60.4846 84.8624 60.7173 84.4477 60.843C83.9579 60.9941 83.4205 61.0226 82.9106 61.0478C82.5816 61.0466 82.6354 61.5142 82.9485 61.5228Z" fill="white"/>
<path d="M68.3004 43.7916C71.2269 45.4893 88.8995 55.4002 85.4918 60.5635C85.2177 60.9908 85.7411 61.4713 86.1083 61.0778C88.6649 58.2531 85.7609 55.5886 83.4744 53.5442C79.0548 49.577 73.846 45.9682 68.6031 43.1771C68.2054 42.9665 67.9344 43.5662 68.3004 43.7916Z" fill="white"/>
<path d="M52.1483 66.1137C51.692 67.1862 51.5414 68.6862 52.2583 69.685C52.4507 69.9527 52.8094 69.7275 52.7312 69.4355C52.4671 68.3511 52.2367 67.4635 52.6507 66.3624C52.7894 66.0176 52.287 65.7689 52.1483 66.1137Z" fill="white"/>
<path d="M54.4219 66.8186C54.1825 67.9833 53.996 69.2198 54.1828 70.4078C54.2187 70.6713 54.6482 70.7222 54.6758 70.4291C54.8094 69.2656 54.814 68.0945 55.0026 66.9246C55.0757 66.5427 54.5067 66.441 54.4219 66.8186Z" fill="white"/>
<path d="M56.8185 67.5495C56.5093 68.6887 56.1693 69.9485 56.2938 71.127C56.3265 71.3629 56.7073 71.4751 56.8005 71.2191C57.1764 70.0778 57.2571 68.8423 57.524 67.6745C57.6226 67.2228 56.9403 67.1063 56.8185 67.5495Z" fill="white"/>
<path d="M59.3736 67.9644C59.3046 68.6245 59.2008 69.2718 59.0187 69.9171C58.8524 70.5549 58.5539 71.1578 58.4268 71.7967C58.3727 72.0537 58.7397 72.24 58.8985 72.0211C59.6721 70.9455 59.8799 69.3609 60.0051 68.0757C60.0359 67.6652 59.4086 67.5423 59.3736 67.9644Z" fill="white"/>
<path d="M62.2273 68.3932C61.9751 69.8826 61.3803 71.155 60.7515 72.5205C60.6266 72.7913 61.0073 73.0485 61.1904 72.7989C62.1365 71.5752 62.5982 70.0171 62.8123 68.4876C62.8738 68.1015 62.2888 68.0071 62.2273 68.3932Z" fill="white"/>
<path d="M65.0312 68.4305C64.7104 69.2756 64.4172 70.1176 64.0382 70.9415C63.6635 71.7538 63.1301 72.4952 62.7903 73.3202C62.6771 73.5952 63.0049 73.7805 63.206 73.5901C64.5117 72.392 65.347 70.3506 65.7727 68.674C65.8744 68.2498 65.1911 68.0275 65.0312 68.4305Z" fill="white"/>
<path d="M23.6 49.6036C22.7512 50.9944 22.5297 52.5081 22.9492 54.0707C23.02 54.3468 23.4813 54.238 23.438 53.9587C23.175 52.5453 23.387 51.094 24.0951 49.8365C24.2602 49.5276 23.7726 49.3106 23.6 49.6036Z" fill="white"/>
<path d="M25.8141 51.1791C25.0542 52.6154 24.5131 54.3554 24.7464 55.9951C24.7855 56.286 25.2773 56.3465 25.2944 56.0101C25.4176 54.3683 25.5629 52.9191 26.2859 51.4035C26.4235 51.0978 25.9708 50.8935 25.8141 51.1791Z" fill="white"/>
<path d="M28.1398 53.277C27.4951 54.6499 27.262 56.0144 27.3071 57.5197C27.3155 57.7863 27.7693 57.8066 27.7884 57.5368C27.8723 56.1839 28.2271 54.8109 28.712 53.5511C28.8517 53.1672 28.3144 52.9057 28.1398 53.277Z" fill="white"/>
<path d="M30.6479 54.623C30.1566 55.9727 29.5447 57.5815 29.4311 59.0159C29.4035 59.3089 29.7949 59.4645 29.9399 59.1747C30.6014 57.9002 30.9298 56.2014 31.2265 54.8072C31.2943 54.4761 30.7664 54.2972 30.6479 54.623Z" fill="white"/>
<path d="M33.121 56.486C32.5822 57.7129 31.8816 58.8415 31.2814 60.0197C31.1491 60.2746 31.5224 60.5159 31.6971 60.2896C32.5447 59.2278 33.0962 57.9659 33.5927 56.7104C33.7187 56.4005 33.247 56.1761 33.121 56.486Z" fill="white"/>
<path d="M35.6056 57.6782C35.2204 58.1573 34.9389 58.7136 34.615 59.2414C34.2171 59.9003 33.743 60.4788 33.3028 61.1091C33.1112 61.382 33.4824 61.7016 33.7046 61.4531C34.1861 60.8904 34.5946 60.2749 35.0528 59.7038C35.4666 59.1824 35.9079 58.6578 36.1905 58.0623C36.3493 57.6985 35.849 57.3715 35.6056 57.6782Z" fill="white"/>
<path d="M37.721 58.7842C36.9665 59.735 36.0036 60.5704 35.322 61.5741C35.1749 61.7973 35.4054 62.1052 35.6604 61.9476C36.674 61.2624 37.4413 60.1318 38.1609 59.1684C38.3885 58.869 37.9601 58.4892 37.721 58.7842Z" fill="white"/>
<path d="M13.6753 32.5671C17.9776 39.6802 25.9332 44.829 32.8343 49.1459C40.8714 54.1794 50.087 58.9435 59.4547 60.8641C59.735 60.9266 59.8843 60.4803 59.6093 60.367C51.468 57.2852 43.5498 54.4954 35.978 50.0661C28.2824 45.5786 19.1772 39.7874 14.2425 32.1674C13.994 31.8002 13.4544 32.1967 13.6753 32.5671Z" fill="white"/>
<path d="M61.2527 61.413C61.9233 61.6702 62.8763 62.0566 63.5851 61.9193C63.8137 61.8707 63.9629 61.5693 63.744 61.4105C63.1686 60.964 62.1648 60.8621 61.4497 60.7995C61.1027 60.7391 60.8847 61.2658 61.2527 61.413Z" fill="white"/>
<path d="M66.1308 62.3703C71.3242 64.2474 77.4933 65.1092 82.9659 64.0837C83.407 63.9939 83.3532 63.3814 82.9026 63.3886C77.1384 63.4779 71.9286 63.2024 66.3065 61.815C65.9913 61.7398 65.8166 62.2559 66.1308 62.3703Z" fill="white"/>
<path d="M15.0273 38.7099C17.321 41.3499 20.0305 43.68 23.1105 45.3544C23.3654 45.4867 23.6268 45.0944 23.3846 44.9272C20.4888 42.964 17.8871 40.8444 15.5215 38.2572C15.2666 37.98 14.7767 38.421 15.0273 38.7099Z" fill="white"/>
<path d="M24.7195 46.6053C24.8475 46.6519 24.9755 46.6985 25.1035 46.745C25.3827 46.8467 25.586 46.4331 25.311 46.3198C25.183 46.2733 25.0592 46.215 24.9312 46.1685C24.6404 46.0626 24.4287 46.4994 24.7195 46.6053Z" fill="white"/>
<path d="M26.6341 47.984C30.0195 50.6655 33.7022 53.0732 37.6739 54.7955C37.9679 54.9289 38.1637 54.4995 37.8898 54.347C34.2092 52.1509 30.5391 49.9982 27.0066 47.5398C26.7147 47.3281 26.3391 47.7448 26.6341 47.984Z" fill="white"/>
<path d="M39.8217 56.6313C48.9538 61.444 58.7738 64.8733 69.0758 66.0008C69.4703 66.039 69.5922 65.4509 69.1828 65.3809C58.9772 63.5902 49.3432 60.8084 40.079 56.1056C39.731 55.9394 39.4896 56.4577 39.8217 56.6313Z" fill="white"/>
<path d="M71.0002 66.4088C71.2942 66.5422 71.547 66.6079 71.8707 66.6598C72.1362 66.6906 72.3616 66.3246 72.112 66.1415C71.8508 65.9542 71.635 65.823 71.3283 65.7245C70.8703 65.571 70.5358 66.2003 71.0002 66.4088Z" fill="white"/>
<path d="M73.1627 66.7357C73.8862 66.92 74.6077 67.0376 75.3418 67.1204C75.986 67.1967 76.7032 67.326 77.3453 67.1908C77.6563 67.1327 77.6713 66.7297 77.3603 66.6428C76.7151 66.4607 75.9851 66.5112 75.3134 66.438C74.6301 66.3606 73.9436 66.2557 73.2602 66.1783C72.8974 66.1253 72.8052 66.6319 73.1627 66.7357Z" fill="white"/>
<path d="M19.3776 27.9657C21.9652 27.5899 24.321 27.8148 26.884 28.1943C27.2469 28.2473 27.3316 27.7247 26.9815 27.6368C24.5476 26.975 21.8035 27.0567 19.3291 27.4473C18.9948 27.497 19.0433 28.0153 19.3776 27.9657Z" fill="white"/>
<path d="M27.7705 28.3476C30.763 28.778 33.6221 29.6473 36.567 30.2448C36.8748 30.3041 37.0326 29.8345 36.7343 29.7127C33.9281 28.6255 30.8256 28.2078 27.8638 27.8018C27.52 27.7689 27.4193 28.2988 27.7705 28.3476Z" fill="white"/>
<path d="M67.7869 44.9973C69.3733 46.1413 71.1798 47.26 73.0255 47.945C73.3513 48.0636 73.5588 47.6384 73.2584 47.45C71.5587 46.4361 69.7935 45.53 68.0938 44.5161C67.8082 44.3595 67.514 44.8058 67.7869 44.9973Z" fill="white"/>
<path d="M74.5742 48.9362C74.7741 49.0748 74.9814 49.2293 75.1929 49.3722C75.4467 49.5437 75.7621 49.1841 75.5125 49.001C75.2935 48.8423 75.0545 48.7026 74.8314 48.5555C74.6082 48.4083 74.3669 48.7817 74.5742 48.9362Z" fill="white"/>
<path d="M77.4717 51.0552C78.7673 51.8034 79.8789 52.6955 80.9756 53.7008C81.2622 53.9632 81.623 53.5148 81.3639 53.2492C80.3043 52.1784 79.0119 51.3127 77.6919 50.5951C77.4063 50.4384 77.202 50.8911 77.4717 51.0552Z" fill="white"/>
</g>
</svg>
