<svg width="130" height="81" viewBox="0 0 130 81" fill="none" xmlns="http://www.w3.org/2000/svg">
<g opacity="0.65">
<path d="M0.216422 31.7528C15.6718 57.6283 53.6526 71.8711 81.0489 56.1691C81.8299 55.7169 81.2955 54.6071 80.4529 54.9154C65.1619 60.2384 51.0013 62.4581 35.2377 57.1556C20.9743 52.3669 10.1433 42.9539 1.16188 31.1363C0.771381 30.643 -0.112416 31.1979 0.216422 31.7528Z" fill="#000412"/>
<path d="M26.9763 30.9507C31.9294 43.2821 50.2416 47.3104 59.819 38.6167C60.7233 37.7946 59.4902 36.3354 58.5859 37.1575C48.8646 45.9128 34.519 40.1787 28.0244 30.2725C27.6134 29.6559 26.7297 30.3341 26.9763 30.9507Z" fill="#000412"/>
<path d="M28.4898 31.6495C30.7094 23.7163 36.5668 16.708 45.4866 16.934C56.4204 17.2012 59.6266 28.1351 59.0511 37.3014C58.9689 38.5346 60.8803 38.699 60.942 37.4864C61.5586 27.4157 57.8386 15.7626 46.1237 15.0638C36.6491 14.5089 28.3048 22.0927 27.5238 31.4235C27.5033 31.9784 28.3254 32.2044 28.4898 31.6495Z" fill="#000412"/>
<path d="M1.67281 32.2244C-2.45822 18.3721 26.0479 23.8596 32.4602 22.8936C32.9535 22.8114 33.0974 22.1332 32.6863 21.866C30.3228 20.2629 26.2329 20.6123 23.52 20.5301C18.9985 20.4068 14.3331 20.5918 9.89375 21.5372C4.32406 22.7292 -2.27325 25.8943 0.768499 32.5121C0.994575 32.9848 1.83723 32.7588 1.67281 32.2244Z" fill="#000412"/>
<path d="M59.8141 29.0409C65.1988 33.6241 91.9992 44.8868 80.9214 54.3409C79.9966 55.1218 81.2297 56.5811 82.1546 55.7795C94.486 45.1745 68.0762 31.3633 60.3485 28.0339C59.7114 27.7667 59.362 28.6504 59.8141 29.0409Z" fill="#000412"/>
<path d="M2.083 30.8899C11.9276 39.7274 24.5673 47.8456 37.7619 50.2914C38.2963 50.3941 38.4607 49.5515 37.9675 49.3871C24.9167 44.7628 13.2019 39.2342 2.55573 30.2322C2.14468 29.8623 1.6925 30.5405 2.083 30.8899Z" fill="#000412"/>
<path d="M45.8577 52.7986C56.6271 56.4158 70.4794 56.3542 81.4338 53.4152C81.9887 53.2713 81.8448 52.4698 81.2693 52.5315C69.3695 53.6618 57.9424 54.8128 46.1659 51.9149C45.611 51.771 45.2616 52.6136 45.8577 52.7986Z" fill="#000412"/>
<path d="M82.158 66.0332C98.9492 71.9523 116.583 76.2272 133.765 80.8309C134.32 80.9748 134.649 80.1938 134.073 79.9677C117.446 73.5965 99.6069 69.9998 82.5279 64.9645C81.8497 64.759 81.4592 65.7866 82.158 66.0332Z" fill="#000412"/>
<path d="M91.7933 60.2181C93.9513 60.7936 96.1504 61.4102 98.3701 61.7596C98.8634 61.8418 99.0278 61.0814 98.5551 60.9169C96.4793 60.1976 94.3008 59.7249 92.1633 59.2316C91.5262 59.0672 91.1356 60.0332 91.7933 60.2181Z" fill="#000412"/>
<path d="M104.686 63.3194C109.618 64.6553 114.387 66.7722 119.422 67.697C119.936 67.7998 120.121 66.9777 119.627 66.8133C114.839 65.2102 109.906 63.7304 104.994 62.4973C104.46 62.3534 104.131 63.1755 104.686 63.3194Z" fill="#000412"/>
<path d="M91.6484 52.5952C111.194 58.2265 130.759 63.6523 150.14 69.8592C150.675 70.0236 150.962 69.2426 150.449 69.0576C131.417 61.9054 111.543 57.1167 91.9772 51.7114C91.4017 51.5675 91.0729 52.4308 91.6484 52.5952Z" fill="#000412"/>
<path d="M91.0111 44.2085C95.5532 45.9761 100.486 46.8187 105.254 47.723C105.706 47.8052 105.87 47.0653 105.439 46.942C100.753 45.5856 95.882 45.1334 91.2988 43.407C90.8056 43.222 90.4973 44.003 91.0111 44.2085Z" fill="#000412"/>
<path d="M42.7175 16.4189C41.8543 12.7195 41.4021 9.18446 41.4843 5.38228C41.5049 4.37521 39.9428 4.21078 39.9017 5.2384C39.7168 9.12279 40.0661 13.1922 41.3198 16.871C41.587 17.652 42.923 17.2204 42.7175 16.4189Z" fill="#000412"/>
<path d="M39.0011 1.86736C39.0833 2.05233 38.8983 2.48394 38.8572 2.71001C38.7955 3.12106 38.7955 3.57323 38.9805 3.94317C39.556 5.19686 41.2823 5.11464 42.4333 5.05298C42.8443 5.03243 43.0704 4.55973 43.0293 4.18979C42.906 3.07996 42.2072 1.00417 40.9947 0.593123C39.6176 0.120419 39.4943 2.19622 40.7891 2.50451C41.0357 2.56617 41.3234 2.34007 41.3851 2.13455C41.4467 1.94958 41.4673 1.82626 41.4673 1.62074C41.4673 1.33301 41.4879 1.31244 41.3646 1.64128C41.2207 1.78515 41.0974 1.92902 40.9535 2.09344C40.7891 2.09344 40.5836 2.09346 40.378 2.11401C40.378 2.11401 40.8302 2.62781 40.9535 2.81278C41.3029 3.32659 41.4879 3.88149 41.5701 4.49806C41.7756 4.21033 41.9811 3.9226 42.1661 3.63486C41.4879 3.67597 40.2342 3.9226 40.2342 2.99775C40.2342 2.44283 40.4192 1.88793 40.1314 1.37412C39.7409 0.634238 38.6928 1.10692 39.0011 1.86736Z" fill="#000412"/>
<path d="M41.5464 3.76057C41.4231 3.55505 41.3203 3.34951 41.197 3.16454C40.7654 2.42465 39.6556 3.14398 40.2105 3.80165C40.3544 3.98663 40.4983 4.15106 40.6627 4.33604C41.0326 4.76764 41.6697 4.31548 41.4642 3.82223C41.382 3.6167 41.2792 3.3906 41.197 3.18508C40.9093 2.46574 39.7173 3.04121 40.1283 3.69889C40.2516 3.90441 40.3749 4.0894 40.4982 4.29492C40.8887 4.89094 41.9369 4.41825 41.5464 3.76057Z" fill="#000412"/>
<path d="M49.867 27.6845C54.0186 24.3756 58.0263 20.9639 62.5273 18.1277C63.2877 17.655 62.7122 16.3807 61.9312 16.8534C57.3481 19.6074 52.9704 23.1013 49.2299 26.9035C48.7778 27.3762 49.3532 28.0956 49.867 27.6845Z" fill="#000412"/>
<path d="M62.6338 15.5567C63.682 15.9267 64.1136 17.6736 64.8535 18.4546C65.6961 19.3589 66.2716 19.1534 67.217 18.6191C67.5664 18.4135 67.7514 18.023 67.5664 17.6326C67.5047 17.5092 67.4431 17.3859 67.3814 17.2626C66.9293 17.4887 66.4565 17.6942 66.0044 17.9203C66.0661 18.0436 66.1483 18.1464 66.2099 18.2697C66.3949 18.5985 66.8471 18.8657 67.2376 18.6396C67.5047 18.4752 67.7719 18.3313 68.0391 18.1669C68.3679 17.9819 68.6557 17.5092 68.4091 17.1187C67.402 15.4951 65.7989 14.3647 64.7712 12.7616C64.4424 12.2684 63.682 12.0423 63.312 12.6383C62.7982 13.4399 61.0307 15.6801 61.8939 16.646C62.0378 16.8104 62.305 16.9337 62.531 16.8721C62.8188 16.7899 62.9832 16.646 63.1065 16.3789C63.2709 16.0089 62.9627 15.7006 62.6338 15.6184C63.086 15.8856 63.2093 16.1322 63.0449 16.3789C63.0654 16.3378 63.086 16.3172 63.1065 16.2761C63.1682 16.2144 63.2504 15.9883 63.312 15.9061C63.5176 15.5567 63.7436 15.2485 63.9286 14.8991C64.1752 14.4675 64.4424 14.0359 64.7096 13.6043C64.2163 13.5632 63.7436 13.5221 63.2504 13.481C64.3191 15.1663 66.025 16.2966 67.1142 17.9614C67.1965 17.5503 67.2787 17.1598 67.3814 16.7488C67.1143 16.9132 66.847 17.0776 66.5799 17.2421C66.9293 17.3654 67.2581 17.4887 67.6075 17.612C67.5253 17.4887 67.4636 17.3859 67.3814 17.2626C66.8676 16.4405 65.4906 17.0776 66.0044 17.9203C66.1072 18.0847 66.2305 18.2491 66.3332 18.4135C66.4155 18.0436 66.4977 17.6531 66.5799 17.2831C66.3127 17.4476 66.0455 17.612 65.7784 17.7764C65.9633 17.7764 66.1483 17.7559 66.3332 17.7559C65.5728 17.5092 65.1412 16.3994 64.7507 15.7828C64.3397 15.1457 63.8669 14.5086 63.1065 14.2619C62.2844 13.9948 61.7912 15.269 62.6338 15.5567Z" fill="#000412"/>
<path d="M63.5595 15.5163C63.9911 16.3384 64.5871 17.6538 65.5942 17.9004C66.7451 18.1676 67.2795 16.8317 67.4028 15.9274C67.5261 15.1464 66.3752 14.9409 66.0875 15.6191C66.0053 15.8041 65.9025 16.359 65.7381 16.4823C65.9642 16.5029 65.9642 16.4618 65.7792 16.359C65.7176 16.2768 65.6353 16.1946 65.5737 16.1124C65.2243 15.7013 64.9571 15.2286 64.6488 14.7765C64.2378 14.1804 63.2101 14.8587 63.5595 15.5163Z" fill="#000412"/>
<path d="M35.2168 25.7102C32.0517 25.3814 30.6542 28.6903 31.538 31.3621C32.4217 34.0545 35.4224 35.3493 38.1353 34.8971C42.1635 34.2395 43.15 29.0192 40.7043 26.2035C39.985 25.3814 39.0396 24.8265 37.9709 24.5798C36.8199 24.3127 34.8263 24.2304 33.9426 25.1553C33.6137 25.5047 33.7782 25.9774 34.2303 26.0801C35.3402 26.3268 36.5116 25.7308 37.6831 26.0185C38.4847 26.2035 39.204 26.6556 39.7178 27.3133C40.6837 28.5259 40.8893 30.3756 40.2111 31.7732C39.3273 33.6229 37.2721 33.8284 35.484 33.3146C33.8604 32.8419 32.7916 31.8965 32.545 30.129C32.2778 28.2793 33.3671 26.7378 35.2374 26.5323C35.7101 26.4501 35.6484 25.7513 35.2168 25.7102Z" fill="#000412"/>
<path d="M63.2693 14.1382C62.5705 15.2686 62.0567 17.0156 63.3309 18.0432C64.5846 19.0502 66.3316 18.3103 67.2359 17.2211C67.5236 16.8717 67.1331 16.3579 66.7221 16.4195C66.2288 16.5017 64.8107 17.0978 64.3585 16.7484C63.8447 16.3784 64.1119 14.9809 64.1736 14.4671C64.2352 13.9944 63.5365 13.7272 63.2693 14.1382Z" fill="#000412"/>
<path d="M64.2106 13.6044C65.4232 12.8645 66.7797 12.6385 67.7456 13.9538C68.8966 15.4747 67.1907 16.2351 65.8548 16.4817C66.2042 16.6667 66.533 16.8311 66.8824 17.0161C66.5125 16.3584 66.1014 15.6391 66.4508 14.8992C66.6769 14.4265 67.0674 14.036 67.0674 13.4811C67.0879 12.9262 66.5536 12.5151 66.0192 12.7412C63.9229 13.6455 64.2106 16.2146 65.156 17.8382C65.3615 18.2081 65.752 18.4548 66.1836 18.3725C67.5812 18.0848 69.0815 17.5094 69.6364 16.0913C70.0475 15.0636 69.7597 13.9538 69.1226 13.0906C67.7867 11.3026 64.6627 10.6449 63.5323 13.0084C63.3474 13.3578 63.8407 13.8099 64.2106 13.6044Z" fill="#000412"/>
<path d="M66.0198 14.0571C66.4309 14.8587 67.2325 15.1464 67.1913 16.1329C67.3558 15.9068 67.4996 15.7013 67.664 15.4753C67.3968 15.6191 67.1091 15.763 66.8419 15.9274C67.253 16.1329 67.6435 16.3384 68.0545 16.544C67.9312 16.1124 67.5818 14.6326 67.4996 14.3243C67.4791 14.201 67.4585 14.016 67.4174 13.8927C67.3763 13.79 67.4379 13.5639 67.3968 13.8516C67.1502 14.1188 66.9242 14.3654 66.6775 14.6326C66.4104 14.5298 66.1431 14.4271 65.876 14.3449C66.0815 14.6121 66.1637 14.7354 66.287 15.0437C66.2048 15.2492 66.2665 15.2081 66.4514 14.9615C66.3692 15.0026 66.287 15.0642 66.2048 15.1259C66.3898 15.0642 66.5747 15.0025 66.7597 14.9409C66.3692 14.8381 65.876 15.0231 65.8965 15.4342C65.9171 15.763 65.9582 15.9891 66.1637 16.2562C66.3487 16.4618 66.6569 16.6056 66.9447 16.544C68.7533 16.1124 68.0545 12.7007 66.3692 12.9268C65.9787 12.9884 65.7116 13.3378 65.6499 13.7078C65.5266 14.6737 66.1021 15.9274 66.3487 16.8523C66.472 17.325 67.0269 17.7771 67.5613 17.4688C68.4861 16.9139 69 16.5851 68.7328 15.3725C68.4861 14.2627 67.6845 14.1599 67.0063 13.42C66.5747 12.9062 65.691 13.42 66.0198 14.0571Z" fill="#000412"/>
<path d="M40.1678 3.61664C39.9828 2.40405 40.5994 1.19146 41.9558 1.72582C42.3052 1.86969 42.6136 2.11633 42.5725 2.3424C42.408 3.02063 41.0721 3.2878 41.5448 4.1921C42.0586 5.19917 43.2918 4.19209 43.7234 3.63718C44.1344 3.10282 44.3399 2.4657 44.155 1.80802C43.8056 0.513221 42.2231 -0.123893 40.9694 0.019974C40.2295 0.102183 39.5718 0.492665 39.2018 1.12979C38.6264 2.09575 38.9963 2.93842 39.3457 3.88383C39.5101 4.35653 40.2295 4.08934 40.1678 3.61664Z" fill="#000412"/>
<path d="M1.48357 31.9588C5.88177 36.0898 10.876 42.0911 16.3429 44.5369C21.0905 46.6538 17.0006 42.8927 14.9659 41.3924C11.8831 39.1316 8.90294 36.7475 5.9434 34.3018C5.05964 33.5824 3.94985 34.8978 4.62808 35.7405C10.28 42.6461 16.6101 48.4007 24.05 53.3538C25.2421 54.1554 26.4135 52.429 25.3243 51.5452C20.7 47.8047 16.0963 44.0642 11.472 40.3031C11.0404 40.8991 10.6293 41.5157 10.1978 42.1117C17.9254 48.2568 26.1669 52.9633 35.3744 56.5189C36.5253 56.9711 37.4913 55.2446 36.402 54.5664C29.928 50.5998 23.3513 46.8387 16.6101 43.3037C16.2607 43.9614 15.9318 44.5985 15.5825 45.2562C22.7963 48.4213 30.0102 51.5658 37.2241 54.7308C38.3545 55.2241 39.3615 53.3949 38.2517 52.7784C32.271 49.49 26.1669 46.7154 19.7546 44.3724C18.6037 43.9614 17.576 45.7289 18.727 46.3249C26.7629 50.5793 34.9633 54.2376 43.5131 57.341C43.7803 56.6422 44.0269 55.9434 44.2941 55.2446C38.1695 53.4977 32.0449 51.7302 25.9203 49.9832C24.7694 49.6544 23.7623 51.2164 24.8927 51.9357C30.6473 55.6557 36.4225 58.2453 43.061 60.0539C44.438 60.4239 45.219 58.3481 43.842 57.9576C38.1284 56.3339 32.4149 54.7103 26.7013 53.0661C25.3037 52.6756 24.6255 54.5459 25.9203 55.1624C31.9216 58.1014 37.7996 59.8689 44.3763 60.8143C45.7122 60.9993 45.9794 59.1496 44.8696 58.6358C40.122 56.4367 35.3744 54.7308 30.339 53.4155C28.9415 53.0455 28.1194 55.1008 29.5375 55.5529C36.8953 57.9165 44.1503 59.5812 51.8163 60.6294C53.0905 60.8144 53.6043 58.7385 52.3301 58.3891C46.9659 56.8683 41.5812 55.3474 36.217 53.8471C35.9499 54.587 35.6827 55.3063 35.395 56.0462C42.0128 57.7109 48.6512 59.0674 55.3924 60.1361C56.9133 60.3827 57.0983 58.0398 55.6185 57.7726C49.8022 56.745 43.9653 55.6968 38.149 54.6692C36.8336 54.4431 36.3198 56.6217 37.6352 56.9711C43.5954 58.5741 49.4117 59.5195 55.5979 59.7867C57.1599 59.8484 57.3037 57.7315 55.824 57.4232C48.4046 55.8201 40.9646 54.2376 33.5452 52.6345C33.463 53.4361 33.4014 54.217 33.3192 55.0186C42.1978 56.5394 50.9531 57.2588 59.955 57.1149C61.4553 57.0944 61.702 54.7514 60.1811 54.7514C51.1792 54.8336 42.4238 54.1554 33.5452 52.6345C32.0038 52.3673 31.8394 54.7103 33.3192 55.0186C40.7386 56.6011 48.1785 58.2042 55.5979 59.7867C55.6801 59.0057 55.7417 58.2042 55.824 57.4232C49.8227 57.156 44.2941 56.3339 38.4572 54.7514C38.2928 55.5118 38.1079 56.2723 37.9434 57.0533C43.7598 58.0809 49.5966 59.1085 55.4129 60.1361C55.4952 59.3551 55.5568 58.5741 55.639 57.7726C49.0828 56.745 42.6704 55.4502 36.2376 53.8471C34.7989 53.4977 33.9563 55.6351 35.4155 56.0462C40.8002 57.5465 46.1644 59.0674 51.5491 60.5677C51.7135 59.8278 51.8985 59.0674 52.0629 58.3275C44.6641 57.3204 37.4707 55.6968 30.3596 53.4155C30.0924 54.1348 29.8252 54.8542 29.558 55.5529C34.6139 56.8477 39.3616 58.5536 44.1091 60.7321C44.2736 60.0128 44.438 59.2729 44.6024 58.5536C38.19 57.6493 32.4765 55.8612 26.7013 53.0456C26.4341 53.7443 26.1875 54.4431 25.9203 55.1419C31.6339 56.7655 37.3474 58.3892 43.061 60.0333C43.3281 59.3346 43.5748 58.6358 43.842 57.937C37.4502 56.2106 31.7572 53.6827 26.1875 50.086C25.8381 50.7437 25.5093 51.4014 25.1599 52.0385C31.2845 53.7854 37.4091 55.5324 43.5337 57.2999C44.8901 57.6904 45.6711 55.6968 44.3147 55.2036C35.9499 52.1618 27.9139 48.6268 20.0218 44.4546C19.6724 45.1123 19.3435 45.7495 18.9942 46.4071C25.2421 48.6885 31.1406 51.3397 36.9775 54.5459C37.3269 53.8882 37.6557 53.2511 38.0051 52.5934C30.7912 49.4489 23.5773 46.2838 16.3635 43.1393C15.2331 42.646 14.226 44.4957 15.3358 45.0918C22.0565 48.6473 28.6332 52.3879 35.1278 56.3545C35.4772 55.6968 35.806 55.0597 36.1554 54.402C27.0713 50.8876 19.0764 46.3044 11.472 40.262C10.3622 39.3782 9.10847 41.1868 10.1978 42.0706C14.822 45.8111 19.4257 49.5516 24.05 53.2922C24.4816 52.6962 24.8927 52.0796 25.3243 51.4836C22.5908 49.6749 19.9396 47.8252 17.4116 45.7495C17.9049 46.1605 8.82076 36.9736 8.22474 36.8914C5.20354 36.4598 12.6229 41.9473 12.5613 41.8856C15.192 43.8381 17.9049 45.6878 20.6178 47.5375C21.5838 48.1952 22.6319 46.7154 21.6659 46.0372C14.9248 41.3512 8.47136 36.3776 2.244 31.0545C1.75074 30.7051 1.01086 31.5067 1.48357 31.9588Z" fill="#000412"/>
<path d="M27.7749 49.7585C34.6805 54.5472 44.8129 55.5954 52.8077 57.7123C52.9516 57.1162 53.0749 56.5408 53.2187 55.9448C43.4769 54.0745 33.9817 51.4849 24.651 48.1348C24.4454 48.7103 24.2194 49.2858 24.0138 49.8612C32.8925 52.4303 43.8263 57.8561 53.1571 57.1779C54.3286 57.0957 54.1025 55.4104 53.0749 55.2254C41.36 53.1702 30.159 49.9023 19.184 45.3603C18.0125 44.867 17.3754 46.6756 18.5058 47.1894C24.5277 49.9023 30.385 52.8619 36.1192 56.1091C36.4274 55.5337 36.7357 54.9582 37.0235 54.3828C28.1448 50.3545 19.9445 45.4014 12.2168 39.4823C11.8263 40.0372 11.4358 40.6127 11.0453 41.1676C17.4371 45.6069 23.8905 49.9845 30.3234 54.3828C31.4538 55.1637 32.6253 53.4579 31.536 52.6564C26.9528 49.2858 22.2874 46.1413 17.1699 43.6339C16.2245 43.1817 15.423 44.7026 16.3273 45.2575C21.0954 48.1965 25.8019 51.0533 30.3234 54.3828C30.7345 53.8073 31.125 53.2318 31.536 52.6564C25.1031 48.2582 18.6908 43.8394 12.2168 39.5029C11.107 38.763 9.99714 40.3866 11.0453 41.1881C18.9374 47.1894 27.3228 52.1836 36.3453 56.2736C37.3523 56.7257 38.2361 55.0815 37.2496 54.5472C31.351 51.2177 25.3497 48.1759 19.184 45.4219C18.958 46.0385 18.7319 46.6345 18.5058 47.2511C29.6247 51.8548 41.0517 55.1638 52.8899 57.2601C52.8693 56.6024 52.8283 55.9653 52.8077 55.3076C44.0113 55.9242 33.098 50.6217 24.651 48.1965C23.5206 47.8677 22.8835 49.5324 24.0138 49.9229C33.509 53.2935 43.1481 55.9242 53.0543 57.815C54.0614 58 54.4519 56.3147 53.4654 56.0475C45.5938 53.9717 35.5848 52.9852 28.597 48.6692C27.816 48.1554 27.035 49.2447 27.7749 49.7585Z" fill="#000412"/>
<path d="M13.0598 40.8552C20.027 45.87 27.9192 51.0492 36.2634 53.3921C36.8183 53.5566 37.3527 52.755 36.7566 52.4262C29.0495 48.1718 21.1369 44.719 13.8613 39.6837C13.1215 39.1699 12.3199 40.3208 13.0598 40.8552Z" fill="#000412"/>
<path d="M16.5499 44.9675C20.7426 49.4068 25.6341 52.8801 31.2038 55.367C32.1903 55.7986 32.8685 54.3599 32.0464 53.7433C28.9841 51.4209 25.6957 49.6123 22.0991 48.297C21.2359 47.9681 20.4138 49.078 21.0509 49.7767C22.1196 50.9688 23.25 51.8114 24.7298 52.428C25.3258 52.6746 26.1479 52.0786 25.9423 51.4209C25.7368 50.7221 25.6752 50.5372 25.0586 50.1261C24.6681 49.859 24.1337 50.2083 24.216 50.6605C24.216 50.866 24.1954 51.0715 24.1954 51.2565C24.5859 51.0715 24.9764 50.9071 25.3669 50.7221C24.1337 50.1056 23.4144 49.5918 22.4896 48.5641C22.1402 49.0574 21.7908 49.5506 21.4414 50.0439C24.8942 51.3182 28.0387 53.0446 30.9776 55.2642C31.2654 54.7299 31.5531 54.1749 31.8203 53.6406C26.5178 51.2976 21.7291 48.1325 17.5775 44.0837C16.9609 43.4672 15.9128 44.3098 16.5499 44.9675Z" fill="#000412"/>
<path d="M0.479958 29.0626C1.2404 32.1865 3.33676 35.4133 6.54293 36.4614C7.1184 36.6464 7.44719 35.9271 7.01559 35.5571C4.69318 33.5635 2.638 31.6522 1.48707 28.7337C1.26099 28.1994 0.336091 28.4871 0.479958 29.0626Z" fill="#000412"/>
<path d="M1.63473 32.1426C6.73171 37.9795 13.5962 43.0764 20.4607 46.6114C21.0156 46.8992 21.4267 46.0154 20.954 45.666C14.6855 40.9596 8.62258 36.0681 2.45687 31.2383C1.90196 30.8272 1.18258 31.6288 1.63473 32.1426Z" fill="#000412"/>
<path d="M0.59998 30.4589C3.23068 34.0761 7.52613 36.8507 11.205 39.3375C15.0277 41.9271 19.056 44.2495 23.3104 46.0581C23.8653 46.3047 24.3585 45.4004 23.8036 45.0921C19.837 42.8314 15.8704 40.6118 12.1093 38.0222C8.38934 35.4531 5.08039 32.0414 1.2371 29.7396C0.784946 29.4724 0.291694 30.0067 0.59998 30.4589Z" fill="#000412"/>
<path d="M38.9953 54.3404C38.9336 54.4432 38.8719 54.5254 38.8103 54.6282C38.6664 54.8542 38.6664 55.1625 38.8514 55.368C40.5161 57.2588 45.0582 57.6082 47.3806 58.1426C52.0049 59.1702 56.547 60.3212 61.1918 58.9441C62.0961 58.677 62.2605 57.0739 61.1096 57.0944C57.0608 57.2178 52.9914 57.3411 48.9426 57.4027C47.6889 57.4233 47.4629 59.2113 48.7577 59.3758C54.6973 60.1567 60.5752 60.3828 66.556 60.1567C67.8713 60.1156 68.159 58.2043 66.7615 58.0604C61.2535 57.4644 55.9715 57.4849 50.484 58.1015C49.2098 58.2454 49.4769 59.9923 50.5662 60.1978C55.6632 61.1638 60.082 60.5472 65.0968 59.4168C66.2477 59.1497 66.2271 57.4644 65.0145 57.3205C61.8906 56.93 58.9105 56.8889 55.7865 57.115C54.5945 57.1972 54.6767 59.2524 55.8688 59.2319C60.6369 59.1497 65.3845 58.903 70.1526 58.492C71.3858 58.3892 71.2214 56.519 70.0705 56.3751C66.8437 56.0052 63.6992 55.8407 60.4519 55.9229C59.116 55.9435 58.8489 57.9782 60.2464 58.0604C63.8636 58.2248 67.2548 58.081 70.8309 57.6083C72.0846 57.4438 71.8996 55.6558 70.7487 55.4914C67.0081 54.9364 63.4115 54.7926 59.6504 54.9776C58.4172 55.0392 58.5611 57.0122 59.7326 57.0944C65.0762 57.5466 70.3787 57.6494 75.6607 56.6834C76.6061 56.519 76.6061 54.8953 75.599 54.9364C70.3376 55.142 65.1995 55.3886 59.9381 54.957C59.9586 55.6558 59.9998 56.3751 60.0203 57.0739C63.7608 56.8889 66.9053 57.0739 70.5431 57.6083C70.5226 56.9095 70.4815 56.1901 70.461 55.4914C67.1109 55.923 63.8225 56.0668 60.4519 55.9229C60.3902 56.6423 60.3081 57.3411 60.2464 58.0604C63.4937 57.9987 66.6382 58.1426 69.8649 58.5126C69.8444 57.8138 69.8032 57.0944 69.7827 56.3956C65.2201 56.7861 60.6575 57.0328 56.0743 57.115C56.0948 57.8138 56.1359 58.5125 56.1565 59.2319C59.2393 58.9852 61.8084 59.0675 64.8091 59.458C64.7885 58.7592 64.7474 58.0604 64.7268 57.3616C59.9998 58.4509 55.5399 59.0264 50.7512 58.1426C50.7718 58.8414 50.8129 59.5402 50.8334 60.239C56.1359 59.6429 61.2535 59.6429 66.5354 60.1978C66.5971 59.4991 66.6588 58.8003 66.741 58.1015C60.7397 58.3481 54.9028 58.081 48.9426 57.4438C48.9632 58.1015 49.0042 58.7592 49.0248 59.4168C52.9914 59.2319 56.9786 59.1291 60.9452 58.9853C60.9246 58.3687 60.9041 57.7521 60.863 57.1355C57.1841 58.2454 53.793 57.6288 50.1346 56.9506C49.292 56.7861 40.1462 54.5665 40.0229 54.8953C40.2695 54.2788 39.3447 53.7649 38.9953 54.3404Z" fill="#000412"/>
<path d="M70.6252 59.2944C71.6733 58.945 72.7009 58.534 73.7491 58.1846C74.6945 57.8763 75.8455 57.8147 76.5853 57.1364C76.9347 56.8076 76.8731 56.191 76.4004 56.0266C75.3522 55.6567 74.2218 56.1705 73.1942 56.5199C72.0227 56.9104 70.9129 57.4447 69.9058 58.164C69.2276 58.6573 69.9675 59.5205 70.6252 59.2944Z" fill="#000412"/>
<path d="M73.7693 57.6917C75.0435 57.1985 76.3383 56.7874 77.6948 56.4997C78.7224 56.2736 79.8117 56.2736 80.6749 55.6571C81.0448 55.3899 80.8804 54.7938 80.4899 54.65C79.3595 54.2184 78.0236 54.6911 76.9138 54.9994C75.619 55.3488 74.3859 55.842 73.1527 56.3969C72.3101 56.7874 72.9061 58.0411 73.7693 57.6917Z" fill="#000412"/>
<path d="M77.7392 55.9C78.3352 55.4889 78.9518 55.2012 79.6301 54.9957C80.1439 54.8313 80.4727 54.7696 80.8016 54.3174C80.9865 54.0503 80.9249 53.6598 80.6577 53.4748C79.4862 52.6527 77.6364 53.9475 76.7116 54.6874C75.8895 55.3451 76.8966 56.4755 77.7392 55.9Z" fill="#000412"/>
<path d="M77.6959 55.5125C78.2508 55.0604 78.8469 54.7315 79.5251 54.5054C80.0595 54.3205 80.3677 54.2794 80.7377 53.8478C80.9227 53.6423 80.8404 53.2107 80.5938 53.0874C79.3401 52.4091 77.6959 53.6011 76.771 54.4232C76.0722 55.0398 76.9766 56.088 77.6959 55.5125Z" fill="#000412"/>
<path d="M77.5136 55.9446C78.7879 55.4102 80.0621 54.8553 80.987 53.8071C81.3569 53.3961 80.7814 52.9645 80.3704 53.0878C79.1578 53.4783 78.0891 54.2182 76.9176 54.732C76.1366 55.0608 76.7121 56.2734 77.5136 55.9446Z" fill="#000412"/>
<path d="M74.9216 55.9009C76.2575 55.5926 77.5729 55.2843 78.8882 54.8527C80.0597 54.4622 81.3134 54.1745 82.1355 53.2291C82.4027 52.9002 82.115 52.407 81.745 52.3659C80.6557 52.2837 79.6693 52.818 78.6827 53.188C77.3674 53.6607 76.052 54.1539 74.7161 54.565C73.8734 54.8116 74.0379 56.0859 74.9216 55.9009Z" fill="#000412"/>
<path d="M80.7781 55.1834C81.6619 54.464 82.7101 53.8269 83.2444 52.7787C83.4294 52.4088 83.0183 51.9155 82.6278 52.0388C81.4974 52.3677 80.6754 53.2925 79.8122 54.0324C79.0517 54.649 80.0177 55.7794 80.7781 55.1834Z" fill="#000412"/>
<path d="M24.7355 52.4684C26.6058 52.8384 28.2499 53.5988 29.7091 54.8525C29.9763 54.3387 30.264 53.8043 30.5312 53.2905C28.5993 52.5712 26.7702 51.6669 25.0438 50.5365C24.0367 49.8788 22.9679 51.3997 23.975 52.0574C27.099 54.1537 30.8395 55.9418 34.7033 55.8595C35.3405 55.839 35.6693 54.9142 34.9705 54.6881C31.4972 53.496 28.1677 52.5712 25.0438 50.5365C24.6944 51.0503 24.3244 51.5641 23.975 52.0574C25.8658 53.2494 27.8183 54.2154 29.9147 54.9347C30.9012 55.2841 31.4972 54.0098 30.7368 53.3727C29.0104 51.9546 27.1195 51.1736 24.8793 51.1736C24.0367 51.1942 23.934 52.304 24.7355 52.4684Z" fill="#000412"/>
<path d="M38.0537 41.5344C42.493 43.7335 47.5078 44.8845 52.3993 45.6244C56.2426 46.1998 61.8533 47.2686 65.5939 45.4394C70.9786 42.8087 63.9497 37.4651 60.8874 36.0881C60.2297 35.8003 59.7159 36.8074 60.312 37.1979C62.5522 38.6982 68.5329 41.8633 62.6755 44.6173C60.8669 45.4599 56.5509 44.5351 54.5162 44.309C48.967 43.6719 43.7878 42.0277 38.4031 40.6301C37.7866 40.4657 37.4988 41.2673 38.0537 41.5344Z" fill="#000412"/>
<path d="M49.4146 44.269C52.7852 44.6595 56.1969 44.7417 59.5881 44.8856C59.5675 44.3718 59.547 43.858 59.5264 43.3442C56.8341 43.4675 54.3472 42.9742 51.8809 41.9055C51.7576 42.4193 51.6548 42.9126 51.5315 43.4264C53.2785 43.7758 55.0049 44.1046 56.7518 44.454C57.6767 44.639 57.9028 43.2414 57.1013 42.9126C54.3884 41.7411 51.6549 41.1245 48.6954 41.0217C47.5855 40.9806 47.4827 42.481 48.5309 42.7071C50.9561 43.2209 53.3607 43.5702 55.827 43.7758C56.8751 43.858 57.0396 42.5221 56.2175 42.0905C54.8199 41.3711 53.6896 41.2067 52.1481 41.3917C51.1616 41.515 51.2233 43.077 52.2098 43.1386C54.5528 43.2619 56.4641 42.6659 58.2933 41.1862C58.8071 40.7751 58.6632 39.8503 58.0261 39.6653C56.6285 39.2542 55.6626 39.4187 54.4706 40.2613C53.5663 40.8984 54.5527 42.0905 55.457 41.7822C57.204 41.1656 58.581 40.2819 59.9374 39.0282C59.4647 38.5966 59.0126 38.1855 58.5399 37.7539C58.1083 38.3294 57.6562 38.8843 57.2246 39.4598C56.8135 39.9941 57.204 40.9601 57.9233 40.9601C60.5335 40.9601 62.116 39.2542 61.9927 36.6647C61.9721 35.9864 61.1295 35.7398 60.5951 35.9453C57.389 37.1784 61.5817 41.1862 62.8559 42.1316C63.6163 42.7071 64.87 41.7616 64.3357 40.8779C63.2875 39.1309 61.9311 38.0417 59.9169 37.569C59.0743 37.384 58.2316 38.0828 58.6221 38.9665C59.3415 40.5901 60.2252 41.8849 61.4789 43.1386C61.8694 42.5837 62.2599 42.0288 62.6299 41.4739C60.8418 40.5285 59.2387 40.323 57.2657 40.6312C56.5258 40.7546 56.2791 41.4945 56.4847 42.1316C57.204 44.1663 58.9715 45.0911 61.0679 44.7417C62.1777 44.5567 62.1777 43.0975 61.2528 42.6659C59.5675 41.8644 57.9439 41.4739 56.0736 41.3711C54.9227 41.3095 54.5322 42.6454 55.3543 43.3442C56.8135 44.5979 60.4513 45.6666 62.1571 44.2485C64.1302 42.6043 61.3145 40.549 60.0813 39.6036C59.7525 40.2407 59.4031 40.8779 59.0743 41.515C60.5951 42.2138 63.3903 44.3923 64.6851 42.3371C64.8701 42.0288 64.9934 41.5767 64.7878 41.2478C64.7262 41.1451 64.6439 41.0217 64.5823 40.919C64.0479 41.3711 63.5136 41.8233 62.9586 42.296C63.2464 42.7276 63.5547 43.1592 63.8424 43.5908C64.0069 43.0975 64.1918 42.6248 64.3562 42.1316C63.3903 42.6248 62.3626 42.8715 61.2939 42.8509C61.52 43.5497 61.7255 44.2279 61.9516 44.9267C63.0203 44.5362 64.0891 44.1252 65.1372 43.7347C64.829 43.077 64.5001 42.4193 64.1918 41.7411C63.4725 42.0288 62.7737 42.296 62.0544 42.5837C60.739 43.0976 61.6844 45.0705 62.9998 44.5773C66.2471 43.303 64.5823 39.953 62.3627 38.6582C61.1501 37.9389 59.8758 39.7475 61.1089 40.4668C62.116 40.7546 62.4243 41.4534 62.0544 42.6043C62.3627 43.262 62.6915 43.9196 62.9998 44.5979C63.7191 44.3101 64.4179 44.0224 65.1372 43.7552C66.4526 43.2414 65.5071 41.2889 64.1918 41.7616C63.1231 42.1521 62.0544 42.5632 61.0062 42.9537C59.7525 43.4264 60.5335 45.1117 61.6639 45.0294C63.0203 44.9267 64.0479 44.6595 65.3016 44.1252C65.8977 43.8785 66.0004 43.2003 65.8154 42.6659C65.4866 41.6794 65.0139 41.1245 64.1918 40.5079C63.3697 39.8914 61.9722 40.9395 62.5682 41.8849C63.3081 41.0628 63.1025 40.5902 61.931 40.4874C61.2322 40.1586 60.5335 39.8297 59.8141 39.5214C58.6426 38.9871 57.8617 40.7135 58.8071 41.4328C61.1501 43.2414 57.6356 42.5015 56.5875 41.5972C56.3408 42.2549 56.0942 42.9126 55.8681 43.5702C57.5534 43.6525 58.9921 44.0019 60.4924 44.7006C60.554 44.0019 60.6157 43.3236 60.6774 42.6248C59.9169 42.1521 59.1564 41.7 58.396 41.2273C58.1288 41.7205 57.8823 42.2343 57.6151 42.7276C59.2593 42.4604 60.4513 42.7071 61.8899 43.4469C62.8148 43.9196 63.7807 42.5015 63.0409 41.7822C61.9105 40.6724 61.1089 39.5214 60.4512 38.0828C60.1019 38.576 59.773 39.0693 59.4236 39.542C60.7801 39.7886 61.8077 40.5079 62.4654 41.7205C62.9587 41.3095 63.4519 40.8779 63.9452 40.4668C62.8559 39.768 61.9927 38.8432 61.3761 37.6923C60.9034 37.4456 60.4513 37.2196 59.9786 36.9729C59.3209 37.6512 58.6838 38.3294 58.0261 39.0076C58.2522 39.5009 58.4988 40.0147 58.7249 40.5079C59.1565 39.9325 59.5881 39.357 60.0197 38.8021C60.6773 37.9594 59.4237 36.788 58.6221 37.5278C57.389 38.6788 56.1147 39.4598 54.5939 40.0969C54.9227 40.6107 55.2515 41.104 55.5803 41.6178C56.1558 41.515 56.7518 41.4123 57.3273 41.33C57.2451 40.8162 57.1423 40.323 57.0601 39.8092C55.5803 41.0012 54.2033 41.4739 52.3125 41.3711C52.3331 41.9466 52.3536 42.5426 52.3742 43.1181C53.5457 42.9126 54.5939 43.0975 55.5393 43.7347C55.6626 43.1798 55.8065 42.6043 55.9298 42.0494C53.4635 41.8644 51.0383 41.5356 48.6336 41.0423C48.572 41.5972 48.5309 42.1727 48.4692 42.7276C51.2849 42.7893 53.8745 43.3236 56.4641 44.4334C56.5875 43.9196 56.6902 43.4058 56.8135 42.892C55.0665 42.5632 53.3196 42.2343 51.5932 41.9055C50.6889 41.7411 50.4628 43.0975 51.2438 43.4264C53.9978 44.5979 56.7313 45.05 59.7114 44.9061C60.5746 44.865 60.5129 43.4058 59.6497 43.3647C56.2586 43.2414 52.8469 43.0153 49.4558 43.1181C48.7981 43.1386 48.6542 44.1868 49.4146 44.269Z" fill="#000412"/>
<path d="M46.7027 43.6528C49.0046 44.3516 51.3475 44.516 53.7316 44.1666C54.9236 43.9817 54.5948 42.132 53.4027 42.3169C51.3475 42.6252 49.3334 42.4813 47.3398 41.8853C46.1889 41.5359 45.5312 43.3034 46.7027 43.6528Z" fill="#000412"/>
<path d="M35.2921 27.4388C35.0249 27.2333 34.7372 27.0072 34.47 26.8017C33.9562 26.3906 33.2985 26.74 33.0519 27.2538C32.1887 28.9802 32.9491 30.9122 34.3673 32.0836C35.5387 33.0701 37.6762 34.3238 39.1765 33.4401C42.3416 31.6109 40.3068 26.2262 36.9568 26.144C35.4565 26.1029 34.0178 27.0689 33.7712 28.6103C33.5657 29.9873 34.3261 31.5082 35.7648 31.8164C39.1148 32.5358 40.3069 27.1305 36.7924 26.3906C33.2163 25.6302 31.4282 30.6039 34.6344 32.3303C37.6967 33.9744 40.944 30.0078 38.6215 27.3771C36.5252 25.0136 32.1064 27.5621 33.6068 30.5628C35.1276 33.5634 39.5875 32.2069 38.8887 28.8364C38.1283 25.1575 32.2092 26.6373 32.2914 30.0284C32.3326 31.4671 33.5452 32.8441 35.066 32.5974C36.7102 32.3303 37.5734 30.4806 36.9157 29.0008C36.3197 27.6649 34.5727 26.6989 33.2163 27.521C32.1064 28.1992 31.7776 29.7612 32.2914 30.9121C33.8534 34.3444 39.4642 31.5082 38.601 28.1581C38.2105 26.6578 36.5252 25.8152 35.1688 26.6578C33.7918 27.521 33.4424 29.6173 34.1001 31.0149C34.7372 32.3919 36.4635 33.0907 37.8405 32.3714C39.2381 31.652 39.6081 29.4735 39.2176 28.0759C38.7654 26.4523 37.0596 25.8151 35.6003 26.6372C34.1206 27.4593 33.6685 29.5762 33.8534 31.1382C34.0384 32.6591 35.3332 33.9745 36.9363 33.3373C38.5188 32.7002 39.4231 30.7066 39.4231 29.1035C39.4231 27.5004 38.2516 26.2262 36.6075 26.3701C34.7988 26.5345 33.5451 28.2814 33.0519 29.9051C32.6203 31.3232 33.0519 33.1112 34.7166 33.4195C36.258 33.7073 37.82 32.5769 38.4982 31.2615C39.1559 30.0078 39.2998 28.2609 38.4366 27.0689C37.5528 25.8563 35.8881 25.7124 34.7166 26.6167C33.4835 27.5827 32.4558 29.679 32.8463 31.2615C33.2163 32.7207 34.8399 33.3373 36.217 33.0496C38.0461 32.6591 38.9299 30.8505 39.567 29.2885C40.0397 28.1787 38.2722 27.521 37.7995 28.6308C37.3884 29.6173 36.7308 31.3848 35.3743 31.241C33.8534 31.0766 35.0866 28.6514 35.8059 28.1376C36.9774 27.2949 37.2446 28.9597 37.039 29.7818C36.8541 30.5011 35.1071 32.5563 34.7372 31.0971C34.5111 30.1928 35.8265 28.117 36.8541 28.2403C38.5805 28.4253 36.7718 32.2275 35.7853 31.3848C35.1071 30.8094 35.9703 27.8293 37.0185 28.2814C38.2516 28.8158 36.7307 32.1042 35.7442 30.2339C35.5182 29.8023 35.5387 28.9391 35.8675 28.5486C36.4225 27.8704 36.7102 28.4048 36.7308 28.9597C36.7308 29.3913 36.4636 29.7817 36.1553 30.0695C35.7648 30.4189 35.1071 30.7066 34.5727 30.5833C34.0795 30.4805 33.6273 29.8845 33.9562 29.3707C34.3672 28.713 35.2099 29.5351 35.1688 30.0901C35.1071 31.1999 33.9356 30.6039 34.1411 29.7407C34.4083 28.5486 37.1007 27.891 37.039 29.5762C36.9774 30.8505 35.2304 30.5628 35.1277 29.4529C35.0249 28.3226 36.8335 27.9732 37.3267 28.898C37.8611 29.9256 36.8952 31.1382 35.7648 30.8299C34.2645 30.3983 34.5522 28.0759 36.1758 28.2198C38.1899 28.4048 36.2786 30.9327 35.662 29.5762C34.9221 27.9937 37.409 27.7676 38.2105 28.7336C38.6627 29.2885 38.8682 30.1106 38.7449 30.7888C38.601 31.6931 38.2311 31.9808 37.3679 31.7342C35.7854 31.3026 33.8739 29.6996 34.7577 27.9321C34.285 28.0759 33.8123 28.2198 33.3396 28.3842C33.6068 28.5897 33.8945 28.8158 34.1617 29.0213C35.1688 29.6996 36.258 28.1787 35.2921 27.4388Z" fill="#000412"/>
<path d="M36.9618 26.9235C37.0851 27.1495 37.1879 27.3756 37.3112 27.6017C37.8456 28.6704 39.5514 27.8894 38.9965 26.8001C38.8732 26.5741 38.7704 26.348 38.6471 26.1219C38.1333 25.0326 36.4274 25.8342 36.9618 26.9235Z" fill="#000412"/>
<path d="M40.2296 29.2875C40.3119 28.2393 40.3324 27.0678 39.6747 26.1841C39.0787 25.3825 38.1539 24.9509 37.1674 25.177C36.448 25.3414 36.037 26.4513 36.7974 26.8623C37.7839 27.4172 38.7705 27.9721 39.757 28.527C40.8051 29.1231 41.8944 27.5816 40.8257 26.9856C39.8392 26.4307 38.8526 25.8758 37.8661 25.3209C37.7428 25.8758 37.6195 26.4513 37.4962 27.0062C38.5649 26.7596 38.4005 28.4859 38.3594 29.1025C38.2772 30.3151 40.1474 30.5001 40.2296 29.2875Z" fill="#000412"/>
<path d="M36.6953 27.3954C37.6818 27.231 38.6272 27.9092 38.4422 28.9779C38.2984 29.8411 37.5585 30.0878 36.8803 30.4577C36.0582 30.9098 35.1744 31.4853 35.1539 32.5335C35.1128 33.5611 35.9143 34.3832 36.9008 34.5682C38.2367 34.7942 39.2438 33.8694 40.0248 32.924C40.8058 31.9991 39.2644 30.9304 38.4834 31.8553C38.1957 32.2047 37.8668 32.7185 37.3735 32.5746C36.8803 32.4307 37.3941 32.3074 37.6818 32.143C38.0929 31.8964 38.5451 31.7319 38.9355 31.4442C39.7576 30.8482 40.2714 29.9233 40.3536 28.9163C40.4975 26.6966 38.4217 25.2168 36.3665 25.5457C35.1745 25.7307 35.4827 27.5804 36.6953 27.3954Z" fill="#000412"/>
</g>
</svg>
