<svg width="225" height="188" viewBox="0 0 225 188" fill="none" xmlns="http://www.w3.org/2000/svg">
<rect x="63.7617" y="64.1094" width="80" height="36" fill="#1CBA6E"/>
<g opacity="0.7" filter="url(#filter0_f_116_4857)">
<rect x="75.8164" y="76.1641" width="73.5139" height="36.1632" fill="#1CBA6E"/>
</g>
<path d="M85.1281 89.1001H83.5081C81.3241 89.1001 79.7401 88.6141 78.7561 87.6421C77.7841 86.6701 77.2981 84.9661 77.2981 82.5301V76.2301H79.8901V82.5301C79.8901 84.1381 80.1601 85.2541 80.7001 85.8781C81.2401 86.5021 82.2061 86.8141 83.5981 86.8141H85.0561C86.4481 86.8141 87.4141 86.5021 87.9541 85.8781C88.4941 85.2541 88.7641 84.1381 88.7641 82.5301V76.2301H91.3381V82.5301C91.3381 84.9661 90.8461 86.6701 89.8621 87.6421C88.8901 88.6141 87.3121 89.1001 85.1281 89.1001ZM95.3194 88.8301H92.7274V76.2301H95.3194V88.8301ZM98.4419 92.0701H96.5159L98.9279 74.4301H100.836L98.4419 92.0701ZM109.865 89.1001H108.245C106.061 89.1001 104.477 88.6141 103.493 87.6421C102.521 86.6701 102.035 84.9661 102.035 82.5301V76.2301H104.627V82.5301C104.627 84.1381 104.897 85.2541 105.437 85.8781C105.977 86.5021 106.943 86.8141 108.335 86.8141H109.793C111.185 86.8141 112.151 86.5021 112.691 85.8781C113.231 85.2541 113.501 84.1381 113.501 82.5301V76.2301H116.075V82.5301C116.075 84.9661 115.583 86.6701 114.599 87.6421C113.627 88.6141 112.049 89.1001 109.865 89.1001ZM125.443 82.1701L130.609 88.8301H127.603L123.607 83.7181L119.557 88.8301H116.551L121.825 82.2421L116.839 76.2301H119.881L123.661 80.7121L127.279 76.2301H130.321L125.443 82.1701Z" fill="white"/>
<defs>
<filter id="filter0_f_116_4857" x="0.476311" y="0.823967" width="224.194" height="186.844" filterUnits="userSpaceOnUse" color-interpolation-filters="sRGB">
<feFlood flood-opacity="0" result="BackgroundImageFix"/>
<feBlend mode="normal" in="SourceGraphic" in2="BackgroundImageFix" result="shape"/>
<feGaussianBlur stdDeviation="37.67" result="effect1_foregroundBlur_116_4857"/>
</filter>
</defs>
</svg>
