<svg width="260" height="188" viewBox="0 0 260 188" fill="none" xmlns="http://www.w3.org/2000/svg">
<rect x="64.1096" y="64.1094" width="129.13" height="36" fill="#FF5722"/>
<g opacity="0.7" filter="url(#filter0_f_116_4864)">
<rect x="76.1643" y="76.1641" width="108.134" height="36.1632" fill="#FF5722"/>
</g>
<path d="M92.0446 86.0226L95.2666 75.7086H97.9666L93.8986 88.3086H90.5686L87.2385 78.2826L83.8366 88.3086H80.5065L76.4925 75.7086H79.1926L82.3786 86.0226L85.8706 75.7086H88.5886L92.0446 86.0226ZM110.23 82.5126V83.8446H100.204C100.276 84.8526 100.552 85.5606 101.032 85.9686C101.524 86.3766 102.328 86.5806 103.444 86.5806H104.92C106.888 86.5806 107.872 85.9266 107.872 84.6186H110.23C110.23 86.0226 109.792 87.0366 108.916 87.6606C108.04 88.2726 106.708 88.5786 104.92 88.5786H103.174C101.266 88.5786 99.8983 88.1886 99.0703 87.4086C98.2543 86.6166 97.8463 85.2066 97.8463 83.1786C97.8463 81.1506 98.2603 79.7406 99.0883 78.9486C99.9163 78.1566 101.278 77.7606 103.174 77.7606H104.92C106.732 77.7606 108.07 78.1146 108.934 78.8226C109.798 79.5306 110.23 80.7606 110.23 82.5126ZM100.204 82.5126H107.872C107.872 81.5046 107.62 80.7966 107.116 80.3886C106.624 79.9686 105.814 79.7586 104.686 79.7586H103.444C102.316 79.7586 101.512 79.9686 101.032 80.3886C100.552 80.7966 100.276 81.5046 100.204 82.5126ZM118.464 77.7606H118.788C120.468 77.7606 121.704 78.1626 122.496 78.9666C123.3 79.7706 123.702 81.1746 123.702 83.1786C123.702 85.1826 123.3 86.5866 122.496 87.3906C121.704 88.1946 120.468 88.5966 118.788 88.5966H118.464C116.412 88.5966 114.99 87.9366 114.198 86.6166V88.3086H111.786V74.8086H114.198V79.7406C114.99 78.4206 116.412 77.7606 118.464 77.7606ZM117.438 86.5446H118.302C119.418 86.5446 120.204 86.2926 120.66 85.7886C121.128 85.2726 121.362 84.4026 121.362 83.1786C121.362 81.9546 121.128 81.0906 120.66 80.5866C120.204 80.0706 119.418 79.8126 118.302 79.8126H117.438C116.322 79.8126 115.5 80.0766 114.972 80.6046C114.456 81.1206 114.198 81.9786 114.198 83.1786C114.198 84.3786 114.456 85.2426 114.972 85.7706C115.5 86.2866 116.322 86.5446 117.438 86.5446ZM129.8 82.2426H132.41C133.106 82.2426 133.688 82.2606 134.156 82.2966C134.636 82.3326 135.098 82.4106 135.542 82.5306C135.998 82.6506 136.358 82.8126 136.622 83.0166C136.886 83.2206 137.096 83.5026 137.252 83.8626C137.408 84.2106 137.486 84.6366 137.486 85.1406C137.486 86.2326 137.048 87.0786 136.172 87.6786C135.296 88.2786 134.018 88.5786 132.338 88.5786H130.178C128.426 88.5786 127.124 88.3026 126.272 87.7506C125.432 87.1866 125.012 86.2446 125.012 84.9246H127.37C127.37 85.5366 127.574 85.9866 127.982 86.2746C128.39 86.5506 129.038 86.6886 129.926 86.6886H132.446C134.246 86.6886 135.146 86.2086 135.146 85.2486C135.146 84.7926 134.924 84.4806 134.48 84.3126C134.048 84.1326 133.4 84.0426 132.536 84.0426H130.034C128.39 84.0426 127.184 83.8326 126.416 83.4126C125.648 82.9806 125.264 82.1886 125.264 81.0366C125.264 78.8166 126.962 77.7066 130.358 77.7066H132.212C134 77.7066 135.296 77.9766 136.1 78.5166C136.904 79.0566 137.306 79.9686 137.306 81.2526H134.948C134.948 80.1366 134.12 79.5786 132.464 79.5786H130.142C128.474 79.5786 127.64 80.0646 127.64 81.0366C127.64 81.8406 128.36 82.2426 129.8 82.2426ZM140.392 76.7526H139.978C139.498 76.7526 139.15 76.6566 138.934 76.4646C138.73 76.2606 138.628 75.9246 138.628 75.4566C138.628 75.0006 138.73 74.6766 138.934 74.4846C139.15 74.2926 139.498 74.1966 139.978 74.1966H140.392C140.872 74.1966 141.22 74.2926 141.436 74.4846C141.652 74.6766 141.76 75.0006 141.76 75.4566C141.76 75.9246 141.652 76.2606 141.436 76.4646C141.22 76.6566 140.872 76.7526 140.392 76.7526ZM141.4 88.3086H138.988V78.0306H141.4V88.3086ZM150.854 84.5286H153.194C153.194 85.8366 152.792 86.8386 151.988 87.5346C151.196 88.2306 150.086 88.5786 148.658 88.5786H148.424C146.996 88.5786 145.898 88.2486 145.13 87.5886C144.362 86.9286 143.978 85.8366 143.978 84.3126V79.8306H142.538V78.0306H143.978V75.7086H146.372V78.0306H152.924V79.8306H146.372V84.3126C146.372 85.8246 147.104 86.5806 148.568 86.5806H148.694C149.366 86.5806 149.894 86.4066 150.278 86.0586C150.662 85.7106 150.854 85.2006 150.854 84.5286ZM166.688 82.5126V83.8446H156.662C156.734 84.8526 157.01 85.5606 157.49 85.9686C157.982 86.3766 158.786 86.5806 159.902 86.5806H161.378C163.346 86.5806 164.33 85.9266 164.33 84.6186H166.688C166.688 86.0226 166.25 87.0366 165.374 87.6606C164.498 88.2726 163.166 88.5786 161.378 88.5786H159.632C157.724 88.5786 156.356 88.1886 155.528 87.4086C154.712 86.6166 154.304 85.2066 154.304 83.1786C154.304 81.1506 154.718 79.7406 155.546 78.9486C156.374 78.1566 157.736 77.7606 159.632 77.7606H161.378C163.19 77.7606 164.528 78.1146 165.392 78.8226C166.256 79.5306 166.688 80.7606 166.688 82.5126ZM156.662 82.5126H164.33C164.33 81.5046 164.078 80.7966 163.574 80.3886C163.082 79.9686 162.272 79.7586 161.144 79.7586H159.902C158.774 79.7586 157.97 79.9686 157.49 80.3886C157.01 80.7966 156.734 81.5046 156.662 82.5126ZM172.797 82.2426H175.407C176.103 82.2426 176.685 82.2606 177.153 82.2966C177.633 82.3326 178.095 82.4106 178.539 82.5306C178.995 82.6506 179.355 82.8126 179.619 83.0166C179.883 83.2206 180.093 83.5026 180.249 83.8626C180.405 84.2106 180.483 84.6366 180.483 85.1406C180.483 86.2326 180.045 87.0786 179.169 87.6786C178.293 88.2786 177.015 88.5786 175.335 88.5786H173.175C171.423 88.5786 170.121 88.3026 169.269 87.7506C168.429 87.1866 168.009 86.2446 168.009 84.9246H170.367C170.367 85.5366 170.571 85.9866 170.979 86.2746C171.387 86.5506 172.035 86.6886 172.923 86.6886H175.443C177.243 86.6886 178.143 86.2086 178.143 85.2486C178.143 84.7926 177.921 84.4806 177.477 84.3126C177.045 84.1326 176.397 84.0426 175.533 84.0426H173.031C171.387 84.0426 170.181 83.8326 169.413 83.4126C168.645 82.9806 168.261 82.1886 168.261 81.0366C168.261 78.8166 169.959 77.7066 173.355 77.7066H175.209C176.997 77.7066 178.293 77.9766 179.097 78.5166C179.901 79.0566 180.303 79.9686 180.303 81.2526H177.945C177.945 80.1366 177.117 79.5786 175.461 79.5786H173.139C171.471 79.5786 170.637 80.0646 170.637 81.0366C170.637 81.8406 171.357 82.2426 172.797 82.2426Z" fill="white"/>
<defs>
<filter id="filter0_f_116_4864" x="0.824211" y="0.823967" width="258.814" height="186.844" filterUnits="userSpaceOnUse" color-interpolation-filters="sRGB">
<feFlood flood-opacity="0" result="BackgroundImageFix"/>
<feBlend mode="normal" in="SourceGraphic" in2="BackgroundImageFix" result="shape"/>
<feGaussianBlur stdDeviation="37.67" result="effect1_foregroundBlur_116_4864"/>
</filter>
</defs>
</svg>
